<svg width="160" height="101" viewBox="0 0 160 101" fill="none" xmlns="http://www.w3.org/2000/svg">
<rect y="0.589996" width="160" height="100" rx="16" fill="#FFF3E6"/>
<g opacity="0.2">
<mask id="mask0_49_1600" style="mask-type:alpha" maskUnits="userSpaceOnUse" x="0" y="0" width="160" height="101">
<rect y="0.586456" width="160" height="100" rx="16" fill="#A8E47A"/>
</mask>
<g mask="url(#mask0_49_1600)">
<path fill-rule="evenodd" clip-rule="evenodd" d="M34.6169 119.993L34.6169 -18.705L34.8058 -18.705L34.8058 119.993L34.6169 119.993Z" fill="#1E1E1E"/>
<path fill-rule="evenodd" clip-rule="evenodd" d="M52.7328 119.993L52.7328 -18.705L52.9216 -18.705L52.9216 119.993L52.7328 119.993Z" fill="#1E1E1E"/>
<path fill-rule="evenodd" clip-rule="evenodd" d="M16.5017 119.993L16.5017 -18.705L16.6906 -18.705L16.6905 119.993L16.5017 119.993Z" fill="#1E1E1E"/>
<path fill-rule="evenodd" clip-rule="evenodd" d="M70.848 119.993L70.848 -18.705L71.0369 -18.705L71.0369 119.993L70.848 119.993Z" fill="#1E1E1E"/>
<path fill-rule="evenodd" clip-rule="evenodd" d="M88.9639 119.993L88.9639 -18.705L89.1528 -18.705L89.1528 119.993L88.9639 119.993Z" fill="#1E1E1E"/>
<path fill-rule="evenodd" clip-rule="evenodd" d="M143.311 119.993L143.311 -18.705L143.5 -18.705L143.5 119.993L143.311 119.993Z" fill="#1E1E1E"/>
<path fill-rule="evenodd" clip-rule="evenodd" d="M107.079 119.993L107.079 -18.705L107.268 -18.705L107.268 119.993L107.079 119.993Z" fill="#1E1E1E"/>
<path fill-rule="evenodd" clip-rule="evenodd" d="M125.195 119.993L125.195 -18.705L125.384 -18.705L125.384 119.993L125.195 119.993Z" fill="#1E1E1E"/>
<path fill-rule="evenodd" clip-rule="evenodd" d="M215.773 33.3408L-55.961 33.3408L-55.961 33.1541L215.773 33.1541L215.773 33.3408Z" fill="#1E1E1E"/>
<path fill-rule="evenodd" clip-rule="evenodd" d="M215.773 85.358L-55.961 85.358L-55.961 85.1713L215.773 85.1713L215.773 85.358Z" fill="#1E1E1E"/>
<path fill-rule="evenodd" clip-rule="evenodd" d="M215.773 16.0017L-55.961 16.0017L-55.961 15.815L215.773 15.815L215.773 16.0017Z" fill="#1E1E1E"/>
<path fill-rule="evenodd" clip-rule="evenodd" d="M215.773 68.0188L-55.961 68.0188L-55.961 67.8322L215.773 67.8322L215.773 68.0188Z" fill="#1E1E1E"/>
<path fill-rule="evenodd" clip-rule="evenodd" d="M215.773 50.6798L-55.961 50.6798L-55.961 50.4932L215.773 50.4932L215.773 50.6798Z" fill="#1E1E1E"/>
</g>
</g>
<path fill-rule="evenodd" clip-rule="evenodd" d="M113.661 16.0779C113.086 16.0634 112.511 16.0704 111.937 16.0988C111.899 16.1007 111.867 16.0713 111.865 16.0332C111.863 15.9951 111.892 15.9627 111.93 15.9609C112.508 15.9322 113.086 15.9252 113.664 15.9398C113.702 15.9408 113.732 15.9725 113.731 16.0106C113.73 16.0487 113.699 16.0789 113.661 16.0779ZM115.319 16.1107C115.323 16.0728 115.357 16.0451 115.395 16.049C115.97 16.1072 116.543 16.1873 117.112 16.2894C117.149 16.2961 117.174 16.332 117.167 16.3695C117.161 16.4071 117.125 16.432 117.087 16.4253C116.522 16.3239 115.953 16.2443 115.381 16.1864C115.343 16.1825 115.315 16.1487 115.319 16.1107ZM110.28 16.1712C110.285 16.2091 110.258 16.2436 110.22 16.2483C109.65 16.3195 109.082 16.4121 108.519 16.5259C108.482 16.5335 108.446 16.5093 108.438 16.4719C108.431 16.4345 108.455 16.3981 108.492 16.3906C109.058 16.276 109.629 16.1829 110.203 16.1112C110.241 16.1065 110.276 16.1334 110.28 16.1712ZM118.721 16.7117C118.73 16.6748 118.768 16.6528 118.805 16.6624C119.365 16.8092 119.918 16.9782 120.463 17.1695C120.499 17.1821 120.518 17.2215 120.506 17.2575C120.493 17.2935 120.454 17.3124 120.418 17.2998C119.876 17.1097 119.326 16.9418 118.77 16.796C118.733 16.7864 118.711 16.7486 118.721 16.7117ZM106.892 16.8463C106.903 16.883 106.881 16.9212 106.845 16.9316C106.568 17.0099 106.293 17.0935 106.02 17.1825C105.747 17.2716 105.475 17.3657 105.205 17.4646C105.169 17.4777 105.13 17.4593 105.116 17.4235C105.103 17.3877 105.122 17.348 105.157 17.3349C105.429 17.2354 105.702 17.1408 105.977 17.0511C106.252 16.9617 106.529 16.8775 106.807 16.7987C106.844 16.7883 106.882 16.8097 106.892 16.8463ZM121.983 17.8463C121.999 17.8115 122.04 17.7959 122.074 17.8115C122.602 18.0481 123.12 18.3071 123.625 18.5887C123.658 18.6073 123.67 18.6493 123.652 18.6827C123.633 18.716 123.591 18.7279 123.558 18.7094C123.056 18.4297 122.542 18.1725 122.018 17.9376C121.983 17.922 121.968 17.8811 121.983 17.8463ZM103.643 18.025C103.658 18.0598 103.643 18.1007 103.608 18.1164C103.084 18.3526 102.568 18.6073 102.061 18.8794C102.027 18.8975 101.986 18.8848 101.967 18.8512C101.949 18.8176 101.962 18.7758 101.996 18.7577C102.505 18.4842 103.024 18.228 103.551 17.9904C103.586 17.9748 103.627 17.9903 103.643 18.025ZM125.005 19.518C125.026 19.4865 125.069 19.4783 125.101 19.4998C125.34 19.6625 125.575 19.8308 125.807 20.0048C126.021 20.166 126.232 20.3314 126.44 20.5007C126.469 20.5248 126.474 20.5683 126.449 20.5979C126.425 20.6274 126.382 20.6318 126.352 20.6077C126.146 20.4396 125.937 20.2753 125.724 20.1152C125.494 19.9426 125.26 19.7755 125.023 19.6139C124.992 19.5925 124.984 19.5495 125.005 19.518ZM100.591 19.6515C100.612 19.6838 100.602 19.7264 100.57 19.7467C100.083 20.0522 99.6056 20.374 99.1389 20.7111C99.108 20.7334 99.0649 20.7265 99.0425 20.6955C99.0202 20.6646 99.0272 20.6215 99.0581 20.5991C99.5271 20.2603 100.007 19.9368 100.496 19.6297C100.529 19.6094 100.571 19.6192 100.591 19.6515ZM127.546 21.568C127.572 21.5404 127.616 21.5394 127.644 21.5658C128.031 21.9362 128.404 22.3211 128.763 22.7189C128.789 22.7472 128.787 22.7909 128.758 22.8164C128.73 22.842 128.686 22.8398 128.661 22.8115C128.304 22.4161 127.933 22.0336 127.548 21.6656C127.521 21.6392 127.52 21.5955 127.546 21.568ZM97.7826 21.6684C97.8068 21.6978 97.8026 21.7413 97.7732 21.7656C97.3295 22.1311 96.8969 22.5108 96.4759 22.9036C96.448 22.9296 96.4043 22.9281 96.3783 22.9002C96.3523 22.8723 96.3538 22.8286 96.3817 22.8026C96.8047 22.4079 97.2395 22.0263 97.6854 21.659C97.7148 21.6347 97.7583 21.6389 97.7826 21.6684ZM129.701 23.9367C129.731 23.9132 129.775 23.9184 129.798 23.9484C130.129 24.3691 130.445 24.8012 130.749 25.2433C130.771 25.2747 130.763 25.3177 130.731 25.3393C130.7 25.3609 130.657 25.3529 130.635 25.3215C130.333 24.8818 130.018 24.452 129.689 24.0337C129.666 24.0037 129.671 23.9603 129.701 23.9367ZM95.2479 24.021C95.2755 24.0473 95.2767 24.091 95.2504 24.1187C94.8544 24.5357 94.4706 24.9648 94.0997 25.4049C94.0751 25.434 94.0316 25.4378 94.0024 25.4132C93.9732 25.3886 93.9695 25.345 93.9941 25.3159C94.3667 24.8737 94.7523 24.4426 95.1503 24.0236C95.1765 23.9959 95.2202 23.9948 95.2479 24.021ZM131.525 26.5702C131.557 26.5505 131.6 26.561 131.619 26.5936C131.896 27.0513 132.16 27.5175 132.412 27.9906C132.43 28.0243 132.417 28.0661 132.383 28.084C132.35 28.1019 132.308 28.0892 132.29 28.0555C132.039 27.5845 131.776 27.1205 131.501 26.665C131.482 26.6324 131.492 26.5899 131.525 26.5702ZM93.0127 26.66C93.0432 26.6828 93.0495 26.7261 93.0267 26.7567C92.6822 27.2177 92.3512 27.6887 92.0343 28.1687C92.0133 28.2006 91.9704 28.2093 91.9386 28.1883C91.9068 28.1673 91.898 28.1245 91.919 28.0927C92.2374 27.6104 92.5699 27.1372 92.916 26.674C92.9388 26.6434 92.9821 26.6372 93.0127 26.66ZM133.039 29.3936C133.073 29.3774 133.114 29.3923 133.131 29.4268C133.358 29.9113 133.574 30.4014 133.779 30.8957C133.793 30.931 133.777 30.9714 133.742 30.9859C133.706 31.0005 133.666 30.9838 133.651 30.9486C133.447 30.4562 133.232 29.968 133.006 29.4855C132.989 29.451 133.004 29.4098 133.039 29.3936ZM91.1005 29.5418C91.1335 29.5609 91.1448 29.6032 91.1256 29.6362C90.9813 29.8852 90.8407 30.1362 90.7038 30.389C90.5667 30.6423 90.4332 30.8974 90.3034 31.1541C90.2861 31.1881 90.2446 31.2017 90.2106 31.1845C90.1765 31.1673 90.1629 31.1257 90.1801 31.0917C90.3106 30.8339 90.4446 30.5777 90.5823 30.3233C90.7198 30.0692 90.8611 29.8171 91.0061 29.5669C91.0253 29.5339 91.0675 29.5227 91.1005 29.5418ZM134.272 32.3509C134.308 32.3378 134.348 32.3563 134.361 32.3921C134.452 32.6438 134.541 32.8962 134.628 33.1491C134.734 33.4611 134.837 33.7748 134.936 34.09C134.947 34.1264 134.927 34.1651 134.89 34.1766C134.854 34.188 134.815 34.1677 134.804 34.1313C134.705 33.8173 134.603 33.5047 134.497 33.1937C134.411 32.9416 134.322 32.6902 134.231 32.4394C134.218 32.4036 134.236 32.3639 134.272 32.3509ZM89.5307 32.6245C89.5656 32.6398 89.5815 32.6806 89.5661 32.7155C89.3344 33.2426 89.1168 33.7758 88.9132 34.3142C88.8997 34.3499 88.8599 34.3679 88.8242 34.3544C88.7885 34.3409 88.7705 34.301 88.784 34.2654C88.9885 33.7247 89.207 33.1893 89.4397 32.6599C89.455 32.625 89.4958 32.6091 89.5307 32.6245ZM88.2992 35.8578C88.3355 35.8695 88.3555 35.9084 88.3439 35.9447C88.1679 36.4927 88.0057 37.0453 87.8568 37.6018C87.8469 37.6386 87.8091 37.6605 87.7722 37.6506C87.7354 37.6408 87.7135 37.6029 87.7234 37.5661C87.8728 37.0074 88.0357 36.4527 88.2124 35.9025C88.224 35.8662 88.2629 35.8462 88.2992 35.8578ZM135.396 35.9443C135.432 35.9348 135.47 35.957 135.48 35.9939C135.644 36.6333 135.792 37.2772 135.921 37.9245C135.929 37.9619 135.904 37.9983 135.867 38.0057C135.829 38.0132 135.793 37.9889 135.786 37.9515C135.657 37.3068 135.51 36.6653 135.346 36.0284C135.336 35.9915 135.359 35.9538 135.396 35.9443ZM87.3976 39.1984C87.4349 39.2065 87.4586 39.2433 87.4505 39.2806C87.4116 39.4597 87.374 39.6392 87.3377 39.8191C87.615 39.8828 87.8905 39.9543 88.1638 40.0334C88.2005 40.0439 88.2216 40.0822 88.211 40.1189C88.2004 40.1555 88.1621 40.1766 88.1255 40.166C87.8558 40.0881 87.5841 40.0175 87.3107 39.9546C87.2435 40.2943 87.181 40.635 87.1232 40.9767C87.1168 41.0143 87.0812 41.0396 87.0435 41.0332C87.0059 41.0269 86.9806 40.9912 86.987 40.9536C87.0452 40.6095 87.1082 40.2663 87.1759 39.9242C86.9061 39.8647 86.6348 39.8126 86.3622 39.7682C86.3246 39.7621 86.299 39.7266 86.3052 39.689C86.3113 39.6513 86.3468 39.6258 86.3844 39.6319C86.6586 39.6766 86.9316 39.7289 87.203 39.7887C87.2392 39.6093 87.2767 39.4301 87.3155 39.2513C87.3236 39.214 87.3604 39.1903 87.3976 39.1984ZM84.564 39.5891C84.2632 39.5783 83.9617 39.577 83.6601 39.5856C83.3585 39.5942 83.0576 39.6127 82.7578 39.6408C82.7199 39.6443 82.6862 39.6164 82.6827 39.5784C82.6791 39.5405 82.707 39.5068 82.745 39.5033C83.0476 39.4749 83.3515 39.4563 83.6562 39.4476C83.9608 39.4389 84.2652 39.4401 84.569 39.4511C84.6071 39.4525 84.6369 39.4845 84.6355 39.5226C84.6342 39.5607 84.6022 39.5905 84.564 39.5891ZM81.0253 39.8399C81.0335 39.8771 81.0101 39.914 80.9728 39.9223C80.3845 40.053 79.8041 40.2197 79.2352 40.4201C79.1992 40.4328 79.1597 40.4139 79.1471 40.3779C79.1344 40.342 79.1533 40.3025 79.1893 40.2898C79.7633 40.0877 80.349 39.9194 80.9429 39.7874C80.9801 39.7792 81.017 39.8026 81.0253 39.8399ZM136.173 39.8184C136.211 39.8132 136.246 39.8396 136.251 39.8774C136.342 40.5322 136.412 41.1893 136.461 41.8472C136.463 41.8852 136.435 41.9183 136.397 41.9211C136.359 41.9239 136.326 41.8954 136.323 41.8573C136.275 41.2024 136.205 40.5484 136.114 39.8963C136.109 39.8585 136.136 39.8237 136.173 39.8184ZM89.7932 40.678C89.8079 40.6428 89.8484 40.6263 89.8836 40.641C90.4442 40.8762 90.9917 41.1436 91.5227 41.4408C91.5559 41.4594 91.5678 41.5015 91.5492 41.5348C91.5306 41.568 91.4885 41.5799 91.4552 41.5613C90.9287 41.2666 90.3859 41.0016 89.8301 40.7684C89.795 40.7536 89.7784 40.7132 89.7932 40.678ZM77.5994 41.0265C77.6162 41.0608 77.602 41.1021 77.5677 41.1189C77.0262 41.3834 76.4993 41.679 75.9906 42.0033C75.9584 42.0238 75.9157 42.0143 75.8952 41.9822C75.8747 41.95 75.8842 41.9073 75.9163 41.8868C76.4295 41.5598 76.9608 41.2616 77.5071 40.9948C77.5413 40.978 77.5827 40.9922 77.5994 41.0265ZM92.9653 42.4351C92.9875 42.4042 93.0307 42.3971 93.0617 42.4193C93.5561 42.774 94.0304 43.1565 94.4812 43.5643C94.5095 43.5899 94.5117 43.6336 94.4861 43.6619C94.4605 43.6901 94.4169 43.6923 94.3886 43.6667C93.9417 43.2624 93.4714 42.8832 92.9812 42.5315C92.9502 42.5093 92.9431 42.4661 92.9653 42.4351ZM86.813 42.609C86.8509 42.6137 86.8778 42.6482 86.8731 42.686C86.8025 43.2573 86.7443 43.8305 86.6985 44.4047C86.6955 44.4428 86.6622 44.4711 86.6242 44.4681C86.5862 44.4651 86.5578 44.4318 86.5608 44.3938C86.6068 43.8175 86.6651 43.2424 86.736 42.6691C86.7407 42.6312 86.7752 42.6043 86.813 42.609ZM74.5328 42.962C74.5568 42.9917 74.5522 43.0351 74.5225 43.0591C74.0532 43.4383 73.6053 43.8437 73.1822 44.2729C73.1555 44.3 73.1117 44.3004 73.0846 44.2736C73.0574 44.2468 73.0571 44.2031 73.0839 44.1759C73.5107 43.743 73.9624 43.3341 74.4357 42.9517C74.4654 42.9277 74.5089 42.9323 74.5328 42.962ZM136.469 43.7581C136.507 43.7579 136.538 43.7887 136.539 43.8268C136.54 44.1424 136.536 44.4579 136.527 44.7732C136.795 44.74 137.066 44.7129 137.339 44.6919C137.636 44.6691 137.933 44.6534 138.229 44.6447C138.267 44.6436 138.299 44.6736 138.3 44.7117C138.301 44.7498 138.271 44.7816 138.233 44.7828C137.939 44.7914 137.644 44.807 137.35 44.8296C137.072 44.851 136.796 44.8788 136.522 44.9129C136.511 45.2113 136.496 45.5095 136.475 45.8073C136.473 45.8453 136.44 45.874 136.402 45.8714C136.364 45.8687 136.335 45.8357 136.337 45.7977C136.383 45.1422 136.403 44.4851 136.4 43.8275C136.4 43.7893 136.431 43.7583 136.469 43.7581ZM139.937 44.7427C139.94 44.7046 139.973 44.6759 140.011 44.6784C140.607 44.7189 141.198 44.7888 141.781 44.8886C141.818 44.895 141.844 44.9307 141.837 44.9683C141.831 45.0059 141.795 45.0312 141.757 45.0247C141.18 44.9257 140.593 44.8564 140.002 44.8162C139.964 44.8137 139.935 44.7807 139.937 44.7427ZM95.6636 44.8574C95.6923 44.8322 95.7359 44.8351 95.7611 44.8638C96.1622 45.3215 96.5362 45.8026 96.8795 46.3049C96.901 46.3364 96.8929 46.3793 96.8615 46.4009C96.83 46.4224 96.787 46.4143 96.7655 46.3828C96.4254 45.8852 96.0548 45.4085 95.6572 44.9548C95.6321 44.9262 95.6349 44.8825 95.6636 44.8574ZM134.778 45.1506C134.786 45.1878 134.763 45.2249 134.726 45.2336C134.147 45.3686 133.58 45.5323 133.025 45.7227C132.989 45.7351 132.949 45.7158 132.937 45.6798C132.925 45.6437 132.944 45.6044 132.98 45.5921C133.54 45.4002 134.111 45.2352 134.695 45.0991C134.732 45.0904 134.769 45.1135 134.778 45.1506ZM143.433 45.3318C143.444 45.2951 143.482 45.274 143.519 45.2845C144.095 45.45 144.657 45.6476 145.2 45.8779C145.236 45.8927 145.252 45.9333 145.237 45.9684C145.222 46.0035 145.182 46.0199 145.147 46.005C144.609 45.7771 144.052 45.5813 143.481 45.4172C143.444 45.4067 143.423 45.3684 143.433 45.3318ZM71.9773 45.5344C72.0074 45.5579 72.0127 45.6013 71.9893 45.6314C71.6183 46.107 71.2755 46.6041 70.9644 47.1203C70.9447 47.153 70.9023 47.1635 70.8696 47.1438C70.8369 47.1241 70.8264 47.0817 70.8461 47.049C71.1601 46.528 71.506 46.0263 71.8804 45.5464C71.9038 45.5163 71.9472 45.511 71.9773 45.5344ZM86.5313 46.0579C86.5694 46.0593 86.5991 46.0914 86.5977 46.1295C86.5762 46.7051 86.5667 47.2812 86.569 47.857C86.5692 47.8952 86.5384 47.9262 86.5002 47.9263C86.4621 47.9265 86.431 47.8957 86.4309 47.8576C86.4286 47.2799 86.4381 46.7019 86.4597 46.1243C86.4611 46.0862 86.4931 46.0565 86.5313 46.0579ZM131.414 46.2869C131.43 46.3216 131.414 46.3625 131.38 46.3783C130.842 46.6231 130.317 46.8931 129.803 47.1865C129.77 47.2054 129.728 47.1939 129.709 47.1608C129.69 47.1277 129.702 47.0855 129.735 47.0666C130.252 46.7712 130.781 46.4992 131.322 46.2526C131.357 46.2368 131.398 46.2521 131.414 46.2869ZM146.699 46.7048C146.718 46.672 146.761 46.6612 146.793 46.6806C147.308 46.9856 147.798 47.3255 148.258 47.7008C148.287 47.7249 148.292 47.7684 148.267 47.798C148.243 47.8275 148.2 47.832 148.17 47.8078C147.716 47.4371 147.232 47.1011 146.723 46.7994C146.69 46.78 146.679 46.7376 146.699 46.7048ZM136.203 47.6989C136.24 47.7045 136.266 47.7397 136.261 47.7774C136.212 48.1038 136.157 48.4296 136.094 48.7545C136.032 49.0785 135.963 49.4016 135.886 49.7233C135.877 49.7604 135.84 49.7833 135.803 49.7744C135.766 49.7656 135.743 49.7283 135.752 49.6912C135.828 49.3716 135.897 49.0505 135.959 48.7285C136.021 48.4055 136.076 48.0816 136.124 47.757C136.13 47.7193 136.165 47.6932 136.203 47.6989ZM97.7204 47.8422C97.7543 47.8248 97.7959 47.8382 97.8134 47.8721C97.9522 48.1425 98.0825 48.4177 98.2039 48.6972C98.3278 48.9827 98.4428 49.2738 98.5474 49.5692C98.5602 49.6052 98.5414 49.6446 98.5054 49.6574C98.4695 49.6701 98.43 49.6513 98.4173 49.6154C98.3137 49.323 98.1999 49.0349 98.0772 48.7522C97.957 48.4754 97.828 48.203 97.6905 47.9352C97.6731 47.9012 97.6865 47.8596 97.7204 47.8422ZM128.322 48.0348C128.343 48.0662 128.336 48.1092 128.304 48.1308C127.82 48.4649 127.347 48.8199 126.886 49.194C126.856 49.218 126.813 49.2135 126.789 49.1838C126.765 49.1542 126.769 49.1107 126.799 49.0867C127.263 48.7105 127.738 48.3533 128.226 48.0171C128.257 47.9955 128.3 48.0034 128.322 48.0348ZM70.0944 48.6319C70.1293 48.6473 70.145 48.6881 70.1296 48.723C70.0076 48.9982 69.8944 49.2776 69.7902 49.5608C69.6945 49.8211 69.6017 50.093 69.512 50.3751C69.5004 50.4115 69.4616 50.4316 69.4253 50.42C69.3889 50.4085 69.3688 50.3696 69.3804 50.3333C69.4706 50.0493 69.5641 49.7755 69.6606 49.5132C69.7658 49.2271 69.8802 48.945 70.0033 48.6671C70.0188 48.6322 70.0596 48.6164 70.0944 48.6319ZM149.449 48.9304C149.477 48.9051 149.521 48.9078 149.546 48.9364C149.743 49.1586 149.931 49.3897 150.11 49.6298C150.288 49.8689 150.459 50.1123 150.623 50.3596C150.644 50.3913 150.636 50.4342 150.604 50.4553C150.572 50.4764 150.529 50.4677 150.508 50.436C150.345 50.1907 150.176 49.9494 149.999 49.7123C149.822 49.4754 149.637 49.2473 149.443 49.0279C149.417 48.9993 149.42 48.9557 149.449 48.9304ZM86.539 49.5184C86.5771 49.5167 86.6094 49.5462 86.6111 49.5843C86.6239 49.8722 86.6396 50.1597 86.6582 50.447C86.6754 50.7131 86.6953 50.9797 86.7188 51.2464C86.7222 51.2844 86.6941 51.3179 86.6561 51.3213C86.6181 51.3246 86.5846 51.2965 86.5813 51.2585C86.5576 50.9906 86.5377 50.7229 86.5204 50.4559C86.5017 50.1677 86.486 49.8792 86.4731 49.5905C86.4714 49.5524 86.5009 49.5201 86.539 49.5184ZM125.553 50.2616C125.579 50.2895 125.577 50.3332 125.549 50.3592C125.12 50.7608 124.701 51.1789 124.294 51.6116C124.268 51.6394 124.224 51.6407 124.196 51.6146C124.168 51.5884 124.167 51.5447 124.193 51.5169C124.603 51.0821 125.023 50.662 125.455 50.2583C125.483 50.2323 125.527 50.2337 125.553 50.2616ZM98.96 51.3223C98.9975 51.3151 99.0336 51.3397 99.0408 51.3772C99.1585 51.9949 99.2244 52.6203 99.228 53.2431C99.2282 53.2813 99.1975 53.3124 99.1594 53.3126C99.1212 53.3128 99.0901 53.2821 99.0899 53.2439C99.0863 52.6303 99.0214 52.0133 98.9051 51.403C98.8979 51.3656 98.9225 51.3294 98.96 51.3223ZM135.297 51.5408C135.334 51.5529 135.353 51.592 135.341 51.6282C135.131 52.2546 134.893 52.8719 134.627 53.4766C134.612 53.5115 134.571 53.5274 134.536 53.512C134.501 53.4967 134.485 53.456 134.501 53.421C134.765 52.8202 135.001 52.2068 135.21 51.5843C135.222 51.5481 135.261 51.5286 135.297 51.5408ZM151.437 51.8637C151.471 51.8459 151.513 51.8589 151.53 51.8927C151.806 52.4184 152.056 52.9576 152.281 53.5081C152.295 53.5434 152.278 53.5838 152.243 53.5982C152.208 53.6126 152.167 53.5957 152.153 53.5604C151.93 53.0137 151.682 52.4785 151.408 51.9569C151.39 51.9231 151.403 51.8814 151.437 51.8637ZM68.9984 51.9524C69.0355 51.9615 69.0582 51.9988 69.0492 52.0359C68.917 52.5776 68.7958 53.1421 68.687 53.7229C68.68 53.7604 68.6439 53.7851 68.6065 53.7781C68.569 53.7711 68.5443 53.735 68.5513 53.6975C68.6605 53.1144 68.7822 52.5474 68.915 52.0032C68.924 51.9661 68.9614 51.9434 68.9984 51.9524ZM86.8333 52.7788C86.8709 52.7728 86.9064 52.7984 86.9125 52.836C86.9977 53.3646 87.1064 53.8875 87.2468 54.3991C87.2569 54.4359 87.2353 54.4739 87.1985 54.484C87.1617 54.4941 87.1237 54.4725 87.1136 54.4357C86.9716 53.9184 86.862 53.3906 86.7761 52.858C86.77 52.8204 86.7956 52.7849 86.8333 52.7788ZM123.107 52.841C123.136 52.8655 123.14 52.909 123.116 52.9382C122.926 53.1644 122.739 53.3937 122.555 53.626C122.306 53.9395 122.058 54.2564 121.819 54.5795C121.796 54.6102 121.753 54.6167 121.722 54.594C121.692 54.5713 121.685 54.5281 121.708 54.4974C121.948 54.1724 122.197 53.854 122.447 53.5401C122.632 53.3069 122.819 53.0767 123.01 52.8495C123.034 52.8203 123.078 52.8165 123.107 52.841ZM98.9849 55.028C99.0222 55.0362 99.0458 55.073 99.0376 55.1102C98.9707 55.4155 98.8854 55.7175 98.7802 56.015C98.6761 56.3094 98.5495 56.5971 98.4028 56.8749C98.385 56.9086 98.3432 56.9215 98.3095 56.9037C98.2757 56.8859 98.2628 56.8441 98.2807 56.8104C98.4243 56.5383 98.5482 56.2569 98.65 55.9689C98.7532 55.6771 98.837 55.3806 98.9027 55.0807C98.9109 55.0434 98.9477 55.0198 98.9849 55.028ZM152.795 55.1396C152.831 55.1282 152.87 55.1486 152.881 55.185C153.057 55.7504 153.209 56.3246 153.341 56.9057C153.349 56.9429 153.326 56.9799 153.289 56.9883C153.252 56.9967 153.215 56.9734 153.206 56.9362C153.075 56.3585 152.924 55.7877 152.749 55.226C152.738 55.1896 152.758 55.1509 152.795 55.1396ZM133.72 55.1579C133.753 55.1764 133.765 55.2185 133.747 55.2518C133.425 55.8303 133.076 56.3925 132.7 56.935C132.679 56.9663 132.636 56.9741 132.604 56.9524C132.573 56.9307 132.565 56.8877 132.587 56.8563C132.96 56.3177 133.306 55.7593 133.626 55.1847C133.644 55.1513 133.687 55.1394 133.72 55.1579ZM68.3515 55.349C68.3893 55.3542 68.4157 55.3891 68.4104 55.4268C68.3323 55.9919 68.2663 56.5654 68.2134 57.1419C68.21 57.1799 68.1763 57.2079 68.1384 57.2044C68.1004 57.2009 68.0724 57.1673 68.0759 57.1293C68.1289 56.5507 68.1952 55.9751 68.2736 55.4079C68.2788 55.3702 68.3137 55.3438 68.3515 55.349ZM87.6848 55.8686C87.7197 55.8532 87.7605 55.869 87.7759 55.9039C87.8828 56.1467 87.9998 56.3853 88.1281 56.619C88.255 56.8501 88.3949 57.0759 88.5466 57.2943C88.5684 57.3256 88.5607 57.3686 88.5293 57.3904C88.498 57.4122 88.455 57.4044 88.4332 57.3731C88.2787 57.1507 88.1362 56.9208 88.007 56.6854C87.8767 56.448 87.7579 56.2058 87.6495 55.9596C87.6341 55.9247 87.6499 55.8839 87.6848 55.8686ZM120.527 56.5265C120.561 56.5427 120.576 56.5838 120.56 56.6184C120.39 56.979 120.248 57.3507 120.14 57.7362C120.035 58.1143 119.971 58.51 119.951 58.9076C119.949 58.9457 119.917 58.9751 119.879 58.9732C119.841 58.9713 119.811 58.9389 119.813 58.9009C119.833 58.493 119.899 58.087 120.007 57.6991C120.117 57.3053 120.263 56.9263 120.435 56.5596C120.451 56.5251 120.492 56.5103 120.527 56.5265ZM97.3043 58.2956C97.3318 58.322 97.3327 58.3657 97.3063 58.3932C96.8695 58.8488 96.3703 59.2407 95.8279 59.5436C95.7946 59.5622 95.7525 59.5503 95.7339 59.517C95.7153 59.4837 95.7272 59.4416 95.7605 59.423C96.2903 59.1272 96.7787 58.744 97.2067 58.2976C97.233 58.2701 97.2768 58.2692 97.3043 58.2956ZM131.483 58.4072C131.511 58.4321 131.515 58.4757 131.49 58.5046C131.059 59.0067 130.602 59.4853 130.119 59.9366C130.091 59.9626 130.047 59.9611 130.021 59.9333C129.995 59.9054 129.997 59.8617 130.025 59.8357C130.504 59.3879 130.957 58.9131 131.385 58.4147C131.41 58.3857 131.454 58.3824 131.483 58.4072ZM89.4873 58.4974C89.5133 58.4694 89.557 58.4678 89.5849 58.4938C89.976 58.857 90.4057 59.1734 90.8646 59.4263C90.898 59.4448 90.9102 59.4868 90.8918 59.5202C90.8734 59.5536 90.8314 59.5657 90.798 59.5473C90.3283 59.2885 89.8896 58.9653 89.4909 58.595C89.463 58.569 89.4614 58.5253 89.4873 58.4974ZM153.592 58.5968C153.63 58.591 153.665 58.6169 153.671 58.6546C153.76 59.2399 153.83 59.8297 153.883 60.422C153.886 60.46 153.858 60.4935 153.82 60.4969C153.782 60.5002 153.748 60.4721 153.745 60.4341C153.693 59.8446 153.623 59.2577 153.534 58.6755C153.529 58.6378 153.554 58.6025 153.592 58.5968ZM68.0303 58.7922C68.0684 58.7938 68.0979 58.8261 68.0962 58.8642C68.0707 59.4438 68.0597 60.0208 68.0645 60.5897C68.0648 60.6279 68.0341 60.6591 67.996 60.6594C67.9579 60.6597 67.9267 60.629 67.9264 60.5909C67.9216 60.0194 67.9326 59.44 67.9583 58.8581C67.9599 58.82 67.9922 58.7905 68.0303 58.7922ZM92.2596 60.036C92.2675 59.9987 92.3041 59.9748 92.3414 59.9826C92.5979 60.0367 92.8595 60.0703 93.1251 60.0815C93.4334 60.0945 93.7386 60.0758 94.0382 60.0287C94.0759 60.0228 94.1113 60.0486 94.1172 60.0862C94.1231 60.1239 94.0974 60.1593 94.0597 60.1652C93.7514 60.2137 93.437 60.2328 93.1193 60.2195C92.8459 60.208 92.5767 60.1734 92.313 60.1178C92.2756 60.1099 92.2518 60.0733 92.2596 60.036ZM128.609 61.108C128.632 61.1387 128.625 61.182 128.595 61.2046C128.329 61.4004 128.057 61.5887 127.779 61.7688C127.531 61.9291 127.271 62.0814 127.001 62.2225C126.967 62.2401 126.926 62.2271 126.908 62.1933C126.89 62.1595 126.903 62.1178 126.937 62.1001C127.203 61.961 127.46 61.8108 127.704 61.6529C127.979 61.4743 128.249 61.2876 128.513 61.0934C128.543 61.0708 128.587 61.0773 128.609 61.108ZM120.323 61.1766C120.356 61.1589 120.398 61.1719 120.416 61.2057C120.598 61.5531 120.836 61.8684 121.132 62.1353C121.357 62.3368 121.598 62.4999 121.853 62.6284C121.887 62.6456 121.901 62.6871 121.884 62.7211C121.867 62.7552 121.825 62.7689 121.791 62.7517C121.525 62.6178 121.274 62.4479 121.04 62.238C120.73 61.9593 120.483 61.6306 120.294 61.2699C120.276 61.2361 120.289 61.1944 120.323 61.1766ZM153.915 62.1318C153.953 62.1307 153.985 62.1606 153.986 62.1988C154.004 62.7922 154.005 63.3861 153.99 63.9783C153.99 64.0164 153.958 64.0466 153.92 64.0457C153.882 64.0448 153.851 64.0132 153.852 63.975C153.866 63.3851 153.865 62.7937 153.848 62.2029C153.847 62.1647 153.877 62.1329 153.915 62.1318ZM68.0566 62.2496C68.0946 62.2469 68.1276 62.2756 68.1303 62.3136C68.1716 62.9034 68.2327 63.4769 68.315 64.0273C68.3206 64.0651 68.2946 64.1002 68.2569 64.1058C68.2192 64.1115 68.184 64.0855 68.1784 64.0477C68.0955 63.4934 68.0341 62.9162 67.9925 62.3233C67.9898 62.2853 68.0185 62.2522 68.0566 62.2496ZM125.38 62.8111C125.391 62.8478 125.37 62.886 125.333 62.8965C124.739 63.066 124.135 63.1619 123.549 63.1547C123.511 63.1542 123.481 63.1229 123.481 63.0848C123.482 63.0466 123.513 63.0161 123.551 63.0166C124.121 63.0236 124.712 62.9303 125.295 62.7637C125.332 62.7532 125.37 62.7745 125.38 62.8111ZM68.5713 65.6646C68.6081 65.6549 68.6459 65.677 68.6556 65.7138C68.7305 65.9986 68.8129 66.2731 68.9032 66.5359C68.9941 66.8005 69.0912 67.0638 69.1941 67.3257C69.2081 67.3612 69.1906 67.4013 69.1551 67.4153C69.1196 67.4292 69.0795 67.4117 69.0656 67.3762C68.9619 67.1125 68.8642 66.8473 68.7726 66.5808C68.6811 66.3145 68.5977 66.0367 68.522 65.749C68.5123 65.7121 68.5344 65.6743 68.5713 65.6646ZM153.84 65.6814C153.878 65.6842 153.906 65.7173 153.904 65.7553C153.86 66.3497 153.802 66.9403 153.732 67.5251C153.727 67.563 153.693 67.59 153.655 67.5854C153.617 67.5808 153.59 67.5465 153.595 67.5086C153.665 66.9259 153.722 66.3374 153.766 65.7452C153.769 65.7072 153.802 65.6786 153.84 65.6814ZM69.7814 68.8344C69.8156 68.8177 69.857 68.8318 69.8738 68.8661C70.1195 69.368 70.3858 69.8632 70.6704 70.3502C70.6897 70.3831 70.6786 70.4254 70.6457 70.4446C70.6127 70.4639 70.5704 70.4528 70.5512 70.4199C70.2649 69.9301 69.997 69.4319 69.7497 68.9268C69.733 68.8926 69.7471 68.8512 69.7814 68.8344ZM153.422 69.2083C153.46 69.2145 153.485 69.2501 153.479 69.2877C153.381 69.8795 153.271 70.4627 153.15 71.0349C153.142 71.0722 153.105 71.0961 153.068 71.0882C153.031 71.0803 153.007 71.0437 153.015 71.0064C153.135 70.4361 153.245 69.8549 153.343 69.2651C153.349 69.2275 153.385 69.202 153.422 69.2083ZM71.4743 71.7565C71.5058 71.7351 71.5488 71.7433 71.5702 71.7748C71.8855 72.2388 72.2167 72.6935 72.5617 73.1376C72.5851 73.1678 72.5796 73.2111 72.5495 73.2345C72.5194 73.2579 72.476 73.2525 72.4526 73.2224C72.1059 72.776 71.773 72.3189 71.456 71.8524C71.4345 71.8209 71.4427 71.7779 71.4743 71.7565ZM152.694 72.6834C152.731 72.6929 152.754 72.7305 152.744 72.7675C152.593 73.3549 152.432 73.9268 152.262 74.4804C152.251 74.5169 152.212 74.5374 152.176 74.5262C152.139 74.515 152.119 74.4764 152.13 74.4399C152.299 73.8884 152.46 73.3184 152.61 72.733C152.62 72.6961 152.658 72.6739 152.694 72.6834ZM73.5383 74.4303C73.5669 74.4051 73.6106 74.4079 73.6357 74.4365C74.0078 74.8599 74.3917 75.2712 74.7853 75.6691C74.8121 75.6962 74.8119 75.7399 74.7848 75.7667C74.7577 75.7936 74.7139 75.7933 74.6871 75.7662C74.2916 75.3664 73.9059 74.9531 73.532 74.5277C73.5068 74.4991 73.5096 74.4554 73.5383 74.4303ZM151.658 76.0805C151.693 76.0935 151.712 76.133 151.699 76.1689C151.489 76.7483 151.272 77.3003 151.049 77.8204C151.034 77.8554 150.994 77.8717 150.959 77.8567C150.924 77.8417 150.907 77.8011 150.922 77.766C151.144 77.2485 151.36 76.699 151.569 76.1219C151.582 76.0861 151.622 76.0675 151.658 76.0805ZM75.908 76.8376C75.9335 76.8092 75.9772 76.8069 76.0055 76.8324C76.4273 77.2115 76.857 77.5751 77.2924 77.9216C77.3222 77.9454 77.3271 77.9888 77.3034 78.0187C77.2796 78.0485 77.2362 78.0534 77.2064 78.0297C76.7688 77.6814 76.337 77.3161 75.9132 76.9351C75.8848 76.9096 75.8825 76.866 75.908 76.8376ZM78.5469 78.9468C78.5687 78.9156 78.6118 78.9079 78.643 78.9297C79.1111 79.2564 79.5827 79.5626 80.0554 79.8467C80.0881 79.8664 80.0987 79.9088 80.0791 79.9415C80.0594 79.9742 80.017 79.9848 79.9843 79.9651C79.5088 79.6794 79.0345 79.3714 78.564 79.043C78.5327 79.0212 78.5251 78.9781 78.5469 78.9468ZM150.261 79.3412C150.294 79.3588 150.308 79.4005 150.29 79.4344C149.991 80.0105 149.688 80.5254 149.388 80.9697C149.367 81.0013 149.324 81.0096 149.292 80.9883C149.261 80.9669 149.252 80.924 149.274 80.8924C149.57 80.4533 149.87 79.943 150.167 79.3707C150.185 79.3369 150.227 79.3237 150.261 79.3412ZM81.439 80.6907C81.456 80.6566 81.4975 80.6428 81.5316 80.6599C82.0469 80.9178 82.5601 81.1472 83.0676 81.346C83.1031 81.3599 83.1206 81.3999 83.1067 81.4355C83.0928 81.471 83.0527 81.4885 83.0172 81.4746C82.5056 81.2742 81.9886 81.0431 81.4698 80.7834C81.4357 80.7663 81.4219 80.7249 81.439 80.6907ZM84.5805 81.9229C84.5903 81.886 84.6282 81.8641 84.665 81.8739C84.9404 81.9474 85.2127 82.0104 85.4816 82.0628C85.519 82.0701 85.5434 82.1064 85.5361 82.1438C85.5288 82.1812 85.4926 82.2057 85.4552 82.1984C85.1831 82.1454 84.9077 82.0816 84.6294 82.0074C84.5926 81.9976 84.5707 81.9597 84.5805 81.9229ZM148.238 82.2379C148.263 82.2669 148.259 82.3105 148.23 82.3353C147.962 82.5653 147.699 82.7237 147.447 82.7973C147.411 82.808 147.372 82.787 147.362 82.7504C147.351 82.7138 147.372 82.6755 147.409 82.6647C147.635 82.5985 147.881 82.4529 148.141 82.2304C148.17 82.2056 148.213 82.209 148.238 82.2379Z" fill="black"/>
<path d="M68.2311 57.0853C68.175 57.1947 68.124 57.3027 68.065 57.4061C68.0195 57.4859 67.9704 57.5654 67.9103 57.6342C67.8765 57.673 67.8161 57.7132 67.77 57.7106C67.7008 57.7067 67.6901 57.6287 67.6831 57.5704C67.6724 57.4816 67.6661 57.3916 67.6673 57.3023C67.669 57.1828 67.6795 57.0635 67.6866 56.9368C67.6103 56.9335 67.534 56.9296 67.4575 56.9267C67.0788 56.9126 66.7001 56.8988 66.3213 56.8847C66.2102 56.8806 66.1948 56.8568 66.2323 56.7503C66.2647 56.6585 66.2924 56.5647 66.3317 56.476C66.3477 56.4399 66.3833 56.4005 66.4193 56.387C66.8485 56.2253 67.2789 56.0666 67.7106 55.9114C67.7827 55.8855 67.8205 55.8516 67.839 55.772C67.987 55.1326 68.141 54.4947 68.2931 53.8564C68.3004 53.8254 68.3067 53.7941 68.315 53.7556C68.1083 53.7475 67.9073 53.7394 67.7063 53.7319C66.7246 53.695 65.743 53.6582 64.7614 53.6213C64.6398 53.6167 64.6251 53.5945 64.6692 53.4799C64.7212 53.3449 64.7755 53.2107 64.8251 53.0749C64.8434 53.0246 64.8737 53.0014 64.925 52.9878C66.1706 52.6589 67.4156 52.3282 68.6612 51.9995C68.7176 51.9846 68.7462 51.9624 68.7603 51.9015C68.8717 51.4202 68.9811 50.9382 69.1047 50.46C69.1823 50.1595 69.3171 49.8833 69.5579 49.6749C69.8251 49.4436 70.1687 49.5348 70.2846 49.8675C70.3878 50.1636 70.3676 50.4661 70.2855 50.7595C70.1496 51.2447 69.9957 51.7249 69.8467 52.2063C69.8312 52.2564 69.84 52.2868 69.876 52.323C70.7816 53.2324 71.6859 54.1434 72.5918 55.0525C72.6423 55.1032 72.6639 55.1502 72.6486 55.2235C72.6202 55.3601 72.603 55.499 72.5805 55.6369C72.5633 55.7422 72.5342 55.757 72.4418 55.7074C71.8329 55.381 71.2241 55.0546 70.6153 54.7282C70.1955 54.5031 69.7758 54.2779 69.356 54.0529C69.3386 54.0436 69.3207 54.0351 69.2958 54.0225C69.2858 54.0535 69.2763 54.0809 69.2679 54.1087C69.0729 54.7483 68.8788 55.3882 68.6818 56.0272C68.665 56.0814 68.6713 56.118 68.7074 56.1614C69.0022 56.5161 69.2937 56.8735 69.5889 57.2278C69.6331 57.2808 69.6496 57.3302 69.6322 57.3977C69.6104 57.482 69.598 57.5688 69.5815 57.6547C69.559 57.771 69.5354 57.7824 69.4329 57.7273C69.0548 57.5246 68.6768 57.3219 68.2988 57.1193C68.277 57.1078 68.2547 57.0972 68.2311 57.0853Z" fill="#050504"/>
<path d="M126.595 20.2562C126.685 20.3394 126.776 20.4173 126.86 20.5018C126.925 20.5669 126.988 20.6355 127.039 20.7117C127.067 20.7545 127.09 20.8235 127.075 20.8673C127.053 20.933 126.975 20.9225 126.916 20.9137C126.828 20.9003 126.74 20.8823 126.654 20.8574C126.539 20.824 126.427 20.7819 126.307 20.7413C126.283 20.814 126.259 20.8865 126.236 20.9595C126.121 21.3207 126.007 21.682 125.893 22.0433C125.859 22.1493 125.832 22.1579 125.739 22.0933C125.659 22.0376 125.576 21.9859 125.501 21.9243C125.471 21.8993 125.442 21.8544 125.439 21.8162C125.398 21.3594 125.359 20.9023 125.325 20.4449C125.319 20.3685 125.297 20.3231 125.225 20.2841C124.648 19.971 124.074 19.6524 123.499 19.3357C123.472 19.3203 123.443 19.306 123.408 19.2877C123.345 19.4848 123.284 19.6763 123.223 19.868C122.926 20.8042 122.629 21.7405 122.331 22.6769C122.295 22.7929 122.269 22.801 122.171 22.728C122.054 22.6419 121.94 22.5537 121.822 22.4698C121.778 22.4387 121.764 22.4033 121.764 22.3503C121.78 21.0621 121.793 19.774 121.808 18.4858C121.809 18.4275 121.795 18.394 121.74 18.3642C121.306 18.1285 120.87 17.8946 120.443 17.648C120.174 17.493 119.943 17.2895 119.807 17.0018C119.655 16.6825 119.834 16.3758 120.186 16.3527C120.499 16.3322 120.785 16.4322 121.046 16.5897C121.477 16.85 121.899 17.1264 122.323 17.3983C122.368 17.4267 122.399 17.4262 122.444 17.4011C123.562 16.7707 124.681 16.1421 125.798 15.5113C125.861 15.4762 125.912 15.4679 125.978 15.502C126.102 15.5658 126.232 15.6195 126.359 15.6779C126.456 15.7226 126.462 15.7544 126.39 15.8303C125.913 16.3301 125.436 16.8298 124.959 17.3296C124.63 17.6742 124.301 18.0187 123.972 18.3634C123.959 18.3776 123.946 18.3925 123.927 18.4133C123.954 18.4313 123.978 18.4476 124.003 18.4632C124.567 18.8216 125.132 19.1793 125.695 19.5396C125.743 19.5701 125.78 19.5739 125.832 19.5507C126.252 19.3612 126.674 19.1754 127.094 18.9854C127.157 18.957 127.209 18.9542 127.27 18.9891C127.345 19.0326 127.426 19.0677 127.504 19.1065C127.61 19.1592 127.615 19.1849 127.534 19.2691C127.238 19.5793 126.942 19.8897 126.646 20.2C126.629 20.218 126.613 20.2366 126.595 20.2562Z" fill="#050504"/>
<path d="M86.7665 18.7391V28.794C86.7665 30.3788 88.0511 31.6634 89.6358 31.6634H106.551C108.136 31.6634 109.42 30.3787 109.42 28.794V18.7391H86.7665Z" fill="white"/>
<path fill-rule="evenodd" clip-rule="evenodd" d="M86.6893 18.6623H109.497V28.794C109.497 30.4212 108.178 31.7403 106.551 31.7403H89.6356C88.0083 31.7403 86.6893 30.4213 86.6893 28.794V18.6623ZM86.843 18.816V28.794C86.843 30.3364 88.0932 31.5865 89.6356 31.5865H106.551C108.093 31.5865 109.343 30.3363 109.343 28.794V18.816H86.843Z" fill="#222221"/>
<path d="M109.42 18.7148C109.42 17.1301 108.136 15.8454 106.551 15.8454H89.6358C88.0511 15.8454 86.7665 17.1301 86.7665 18.7148V18.739H109.42V18.7148Z" fill="#7471FF"/>
<path fill-rule="evenodd" clip-rule="evenodd" d="M86.6825 18.7149C86.6825 17.0836 88.005 15.7611 89.6363 15.7611H106.551C108.183 15.7611 109.505 17.0836 109.505 18.7149V18.8235H86.6825V18.7149ZM86.852 18.6547H109.336C109.304 17.1444 108.069 15.9299 106.551 15.9299H89.6363C88.1183 15.9299 86.884 17.1444 86.852 18.6547Z" fill="#222221"/>
<path fill-rule="evenodd" clip-rule="evenodd" d="M86.69 18.7148C86.69 17.0876 88.0091 15.7685 89.6362 15.7685H106.551C108.178 15.7685 109.498 17.0876 109.498 18.7148V18.8158H86.69V18.7148ZM86.8442 18.6621H109.343C109.315 17.1442 108.076 15.9222 106.551 15.9222H89.6362C88.1116 15.9222 86.8723 17.1441 86.8442 18.6621Z" fill="#222221"/>
<path d="M89.0037 16.9377C89.2614 16.68 89.6793 16.68 89.937 16.9377C90.1947 17.1955 90.1947 17.6133 89.937 17.871C89.6793 18.1288 89.2614 18.1288 89.0037 17.871C88.746 17.6133 88.746 17.1955 89.0037 16.9377Z" fill="white"/>
<path fill-rule="evenodd" clip-rule="evenodd" d="M89.8829 16.9921C89.6552 16.7644 89.286 16.7644 89.0583 16.9921C88.8306 17.2198 88.8306 17.589 89.0583 17.8167C89.286 18.0444 89.6552 18.0444 89.8829 17.8167C90.1106 17.589 90.1106 17.2198 89.8829 16.9921ZM88.9496 16.8834C89.2373 16.5957 89.7038 16.5957 89.9916 16.8834C90.2793 17.1711 90.2793 17.6377 89.9916 17.9254C89.7038 18.2131 89.2373 18.2131 88.9496 17.9254C88.6618 17.6377 88.6618 17.1711 88.9496 16.8834Z" fill="#222221"/>
<path d="M91.2064 16.9377C91.4641 16.68 91.8819 16.68 92.1397 16.9377C92.3974 17.1955 92.3974 17.6133 92.1397 17.871C91.8819 18.1288 91.4641 18.1288 91.2064 17.871C90.9486 17.6133 90.9486 17.1955 91.2064 16.9377Z" fill="white"/>
<path fill-rule="evenodd" clip-rule="evenodd" d="M92.0855 16.9921C91.8578 16.7644 91.4886 16.7644 91.2609 16.9921C91.0332 17.2198 91.0332 17.589 91.2609 17.8167C91.4886 18.0444 91.8578 18.0444 92.0855 17.8167C92.3132 17.589 92.3132 17.2198 92.0855 16.9921ZM91.1522 16.8834C91.4399 16.5957 91.9065 16.5957 92.1942 16.8834C92.4819 17.1711 92.4819 17.6377 92.1942 17.9254C91.9065 18.2131 91.4399 18.2131 91.1522 17.9254C90.8645 17.6377 90.8645 17.1711 91.1522 16.8834Z" fill="#222221"/>
<path d="M93.409 16.9377C93.6667 16.68 94.0846 16.68 94.3423 16.9377C94.6 17.1955 94.6 17.6133 94.3423 17.871C94.0846 18.1288 93.6667 18.1288 93.409 17.871C93.1513 17.6133 93.1513 17.1955 93.409 16.9377Z" fill="white"/>
<path fill-rule="evenodd" clip-rule="evenodd" d="M94.2881 16.9921C94.0604 16.7644 93.6912 16.7644 93.4635 16.9921C93.2358 17.2198 93.2358 17.589 93.4635 17.8167C93.6912 18.0444 94.0604 18.0444 94.2881 17.8167C94.5159 17.589 94.5159 17.2198 94.2881 16.9921ZM93.3548 16.8834C93.6426 16.5957 94.1091 16.5957 94.3968 16.8834C94.6846 17.1711 94.6846 17.6377 94.3968 17.9254C94.1091 18.2131 93.6426 18.2131 93.3548 17.9254C93.0671 17.6377 93.0671 17.1711 93.3548 16.8834Z" fill="#222221"/>
<path d="M98.681 30.1203H89.7051C89.2007 30.1203 88.7919 29.7114 88.7919 29.207V20.5205C88.7919 20.0161 89.2007 19.6072 89.7051 19.6072H98.681C99.1854 19.6072 99.5943 20.0161 99.5943 20.5205V29.207C99.5943 29.7113 99.1854 30.1203 98.681 30.1203Z" fill="white"/>
<path fill-rule="evenodd" clip-rule="evenodd" d="M89.7053 19.6841C89.2434 19.6841 88.8689 20.0585 88.8689 20.5205V29.207C88.8689 29.669 89.2434 30.0434 89.7053 30.0434H98.6812C99.1432 30.0434 99.5176 29.6689 99.5176 29.207V20.5205C99.5176 20.0585 99.1432 19.6841 98.6812 19.6841H89.7053ZM88.7152 20.5205C88.7152 19.9736 89.1585 19.5304 89.7053 19.5304H98.6812C99.2281 19.5304 99.6713 19.9736 99.6713 20.5205V29.207C99.6713 29.7538 99.2281 30.1971 98.6812 30.1971H89.7053C89.1585 30.1971 88.7152 29.7539 88.7152 29.207V20.5205Z" fill="#222221"/>
<path d="M107.877 20.632H100.797V22.0427H107.877V20.632Z" fill="#FF947D"/>
<path d="M107.877 22.741H100.797V24.1518H107.877V22.741Z" fill="#FF947D"/>
<path d="M107.877 24.8501H100.797V26.2609H107.877V24.8501Z" fill="#FF947D"/>
<path d="M107.588 27.1047H106.057V28.1051H107.588V27.1047Z" fill="#C8B7FA"/>
<path d="M100.797 24.1518V22.741H107.877" fill="#FF947D"/>
<path d="M107.877 26.261H100.797V24.8501" fill="#FF947D"/>
<path d="M107.588 27.1047H106.057V28.1051H107.588V27.1047Z" fill="#7471FF"/>
<path fill-rule="evenodd" clip-rule="evenodd" d="M100.72 20.5551H107.954V22.1196H100.72V20.5551ZM100.874 20.7088V21.9659H107.8V20.7088H100.874Z" fill="#222221"/>
<path fill-rule="evenodd" clip-rule="evenodd" d="M100.72 22.6642H107.954V24.2287H100.72V22.6642ZM100.874 22.8179V24.0749H107.8V22.8179H100.874Z" fill="#222221"/>
<path fill-rule="evenodd" clip-rule="evenodd" d="M100.72 24.7732H107.954V26.3377H100.72V24.7732ZM100.874 24.927V26.184H107.8V24.927H100.874Z" fill="#222221"/>
<path fill-rule="evenodd" clip-rule="evenodd" d="M105.979 27.0278H107.664V28.182H105.979V27.0278ZM106.133 27.1815V28.0283H107.511V27.1815H106.133Z" fill="#222221"/>
<path fill-rule="evenodd" clip-rule="evenodd" d="M107.877 20.7088H100.797V20.5551H107.877V20.7088Z" fill="#222221"/>
<path fill-rule="evenodd" clip-rule="evenodd" d="M100.72 22.6642H107.877V22.8179H100.874V24.1518H100.72V22.6642Z" fill="#222221"/>
<path fill-rule="evenodd" clip-rule="evenodd" d="M100.874 26.1841V24.8501H100.72V26.3378H107.877V26.1841H100.874Z" fill="#222221"/>
<path fill-rule="evenodd" clip-rule="evenodd" d="M105.979 27.0278H107.664V28.182H105.979V27.0278ZM106.133 27.1815V28.0283H107.511V27.1815H106.133Z" fill="#222221"/>
<path d="M96.6715 21.3672H91.4632L89.9008 24.4777H95.1091L96.6715 21.3672Z" fill="#FF947D"/>
<path fill-rule="evenodd" clip-rule="evenodd" d="M91.4159 21.2904H96.7962L95.1566 24.5546H89.7762L91.4159 21.2904ZM91.5107 21.4441L90.0255 24.4009H95.0618L96.547 21.4441H91.5107Z" fill="#222221"/>
<path d="M95.1091 24.4779H89.9008V28.9628H95.1091V24.4779Z" fill="white"/>
<path fill-rule="evenodd" clip-rule="evenodd" d="M89.8329 24.4096H95.1778V29.0311H89.8329V24.4096ZM89.9694 24.5461V28.8945H95.0413V24.5461H89.9694Z" fill="#222221"/>
<path d="M96.6716 21.3674L95.1093 24.4779V28.9628H98.7261V24.1885L96.6716 21.3674Z" fill="white"/>
<path fill-rule="evenodd" clip-rule="evenodd" d="M96.6614 21.2367L98.795 24.1663V29.0311H95.0416V24.4617L96.6614 21.2367ZM96.6829 21.4982L95.1781 24.4941V28.8946H98.6584V24.2107L96.6829 21.4982Z" fill="#222221"/>
<path d="M135.303 30.3839L136.142 32.0855L138.02 32.3584L136.661 33.6829L136.982 35.5531L135.303 34.6701L133.623 35.5531L133.944 33.6829L132.585 32.3584L134.463 32.0855L135.303 30.3839Z" fill="#F0A100"/>
<path d="M141.703 30.3839L142.543 32.0855L144.421 32.3584L143.062 33.6828L143.383 35.553L141.703 34.67L140.024 35.553L140.344 33.6828L138.986 32.3584L140.863 32.0855L141.703 30.3839Z" fill="#F0A100"/>
<path d="M148.104 30.3839L148.944 32.0855L150.822 32.3584L149.463 33.6828L149.784 35.553L148.104 34.67L146.425 35.553L146.745 33.6828L145.386 32.3584L147.264 32.0855L148.104 30.3839Z" fill="#F0A100"/>
<path d="M95.4321 35.9067C95.4321 35.9067 82.3109 58.5433 99.3454 76.6171L99.7934 67.1869C99.7934 67.1869 92.3368 52.7806 101.405 37.2383C102.074 36.0913 100.837 34.7319 99.4998 35.0224L95.4321 35.9067Z" fill="#EF836C"/>
<path d="M95.4316 35.9067L99.5443 51.1988L105.118 46.8621L103.432 36.7548C103.206 35.4052 101.839 34.514 100.455 34.8147L95.4316 35.9067Z" fill="#EF836C"/>
<path d="M129.622 35.9935C129.622 35.9935 142.744 58.63 125.709 76.7039L125.261 67.2736C125.261 67.2736 132.718 52.8674 123.649 37.325C122.98 36.1781 124.218 34.8186 125.555 35.1093L129.622 35.9935Z" fill="#EF836C"/>
<path fill-rule="evenodd" clip-rule="evenodd" d="M101.268 35.5356C101.68 36.004 101.834 36.6698 101.478 37.2808C96.9553 45.0322 96.5535 52.4995 97.2822 58.0299C97.6467 60.7953 98.2938 63.0761 98.8496 64.6652C99.1275 65.4597 99.3825 66.0811 99.5679 66.5036C99.6606 66.7148 99.7359 66.8763 99.7879 66.9848C99.8139 67.039 99.8341 67.08 99.8478 67.1074C99.8523 67.1164 99.8561 67.124 99.8591 67.13C99.8607 67.1331 99.862 67.1358 99.8632 67.1381L99.8671 67.1457L99.8682 67.148C99.8683 67.148 99.8683 67.1481 99.7933 67.1869L99.8683 67.1481L99.8787 67.1682L99.4202 76.8197L99.2839 76.675C90.7441 67.6142 89.7637 57.408 90.9172 49.4721C91.4939 45.5047 92.6039 42.1037 93.5696 39.6947C94.0525 38.49 94.4995 37.5331 94.8259 36.8771C94.9891 36.5491 95.1222 36.2962 95.2145 36.1252C95.2607 36.0397 95.2967 35.9747 95.3212 35.9309C95.3335 35.9091 95.3429 35.8925 95.3492 35.8814C95.3524 35.8758 95.3548 35.8716 95.3564 35.8688L95.3583 35.8656L95.3588 35.8647C95.3589 35.8645 95.359 35.8644 95.432 35.9067L95.359 35.8644L95.3777 35.8322L99.4818 34.94C100.183 34.7875 100.857 35.068 101.268 35.5356ZM95.4867 35.9812C95.4816 35.9901 95.4756 36.0009 95.4685 36.0135C95.4444 36.0565 95.4088 36.1208 95.3631 36.2055C95.2715 36.3749 95.1393 36.626 94.977 36.9523C94.6524 37.6048 94.2074 38.5575 93.7263 39.7575C92.7642 42.1576 91.6585 45.5454 91.0842 49.4964C89.942 57.3548 90.9016 67.4372 99.2705 76.4139L99.708 67.2052C99.7049 67.1991 99.7011 67.1916 99.6967 67.1827C99.6827 67.1546 99.6621 67.1128 99.6357 67.0578C99.5829 66.9476 99.5068 66.7844 99.4134 66.5714C99.2264 66.1453 98.9697 65.5199 98.6903 64.7209C98.1314 63.1231 97.4811 60.8309 97.1149 58.052C96.3824 52.4937 96.7864 44.9867 101.332 37.1958C101.645 36.6598 101.515 36.0724 101.141 35.647C100.767 35.2207 100.153 34.9668 99.5177 35.1049C99.5177 35.1049 99.5177 35.1049 99.5177 35.1049L95.4867 35.9812Z" fill="#222221"/>
<path fill-rule="evenodd" clip-rule="evenodd" d="M123.913 35.7338C123.539 36.1591 123.41 36.7465 123.722 37.2825C128.268 45.0734 128.672 52.5804 127.939 58.1387C127.573 60.9177 126.923 63.2098 126.364 64.8076C126.085 65.6066 125.828 66.2321 125.641 66.6581C125.548 66.8712 125.471 67.0344 125.419 67.1445C125.392 67.1996 125.372 67.2414 125.358 67.2695C125.353 67.2783 125.349 67.2858 125.346 67.2919L125.784 76.5006C134.153 67.524 135.112 57.4415 133.97 49.5831C133.396 45.6321 132.29 42.2443 131.328 39.8442C130.847 38.6443 130.402 37.6915 130.077 37.039C129.915 36.7128 129.783 36.4616 129.691 36.2922C129.646 36.2075 129.61 36.1432 129.586 36.1002C129.579 36.0876 129.573 36.0769 129.568 36.068L125.537 35.1917C124.901 35.0536 124.288 35.3075 123.913 35.7338ZM129.622 35.9935C129.695 35.9511 129.695 35.9512 129.696 35.9515L129.696 35.9523L129.698 35.9555C129.7 35.9584 129.702 35.9626 129.705 35.9681C129.711 35.9793 129.721 35.9958 129.733 36.0177C129.758 36.0614 129.794 36.1265 129.84 36.212C129.932 36.383 130.065 36.6358 130.228 36.9638C130.555 37.6199 131.002 38.5768 131.485 39.7814C132.45 42.1905 133.56 45.5914 134.137 49.5588C135.291 57.4947 134.31 67.7009 125.77 76.7618L125.634 76.9064L125.176 67.2549L125.186 67.2348L125.261 67.2736C125.186 67.2348 125.186 67.2348 125.186 67.2347L125.187 67.2324L125.191 67.2248C125.195 67.2181 125.2 67.2078 125.207 67.1941C125.22 67.1668 125.24 67.1258 125.266 67.0715C125.318 66.963 125.394 66.8015 125.486 66.5903C125.672 66.1678 125.927 65.5464 126.205 64.7519C126.761 63.1628 127.408 60.8821 127.772 58.1167C128.501 52.5863 128.099 45.119 123.576 37.3676C123.22 36.7566 123.374 36.0908 123.786 35.6223C124.197 35.1548 124.871 34.8743 125.573 35.0268C125.573 35.0268 125.573 35.0268 125.573 35.0268L129.677 35.9189L129.695 35.9511L129.622 35.9935Z" fill="#222221"/>
<path d="M129.623 35.9935L125.51 51.2855L119.936 46.9488L121.623 36.8415C121.848 35.492 123.216 34.6007 124.6 34.9015L129.623 35.9935Z" fill="#EF836C"/>
<path fill-rule="evenodd" clip-rule="evenodd" d="M100.438 34.7323C101.866 34.4219 103.282 35.3409 103.515 36.7409L105.211 46.8978L99.4963 51.3435L95.3276 35.8431L100.438 34.7323ZM100.473 34.8972C100.473 34.8972 100.473 34.8972 100.473 34.8972L95.5367 35.9704L99.5933 51.0541L105.027 46.8264L103.349 36.7687C103.132 35.4696 101.813 34.6061 100.473 34.8972Z" fill="#222221"/>
<path fill-rule="evenodd" clip-rule="evenodd" d="M124.581 34.984C123.242 34.6928 121.923 35.5564 121.706 36.8554L120.027 46.9131L125.461 51.1409L129.518 36.0571L124.581 34.984C124.581 34.984 124.581 34.984 124.581 34.984ZM121.539 36.8276C121.773 35.4276 123.189 34.5086 124.617 34.819L129.727 35.9298L125.558 51.4302L119.844 46.9846L121.539 36.8276Z" fill="#222221"/>
<path d="M112.414 33.4207C108.729 33.4207 105.741 36.4084 105.741 40.0939C105.741 43.7796 108.729 46.7673 112.414 46.7673C116.1 46.7673 119.088 43.7796 119.088 40.0939C119.088 36.4085 116.1 33.4207 112.414 33.4207ZM112.414 44.2658C110.11 44.2658 108.243 42.3981 108.243 40.0939C108.243 37.7899 110.11 35.9221 112.414 35.9221C114.719 35.9221 116.586 37.7899 116.586 40.0939C116.586 42.3981 114.718 44.2658 112.414 44.2658Z" fill="black"/>
<path d="M122.167 82.9936H102.662C98.2674 82.9936 94.8381 79.4379 94.9995 75.1247L95.9498 49.7279C96.0915 45.9407 99.4653 42.9182 103.488 42.9182H121.341C125.363 42.9182 128.737 45.9407 128.879 49.7279L129.829 75.1247C129.99 79.4379 126.561 82.9936 122.167 82.9936Z" fill="#FF947D"/>
<path fill-rule="evenodd" clip-rule="evenodd" d="M103.488 43.0026C99.5054 43.0026 96.1739 45.9944 96.0341 49.731L95.0838 75.1278L94.9994 75.1247L95.0838 75.1278C94.9242 79.3926 98.3145 82.9092 102.662 82.9092H122.167C126.514 82.9092 129.904 79.3926 129.745 75.1278L128.794 49.731C128.654 45.9944 125.323 43.0026 121.341 43.0026H103.488ZM95.8654 49.7247C96.009 45.8871 99.4252 42.8338 103.488 42.8338H121.341C125.403 42.8338 128.819 45.8871 128.963 49.7247L129.913 75.1215C130.077 79.4832 126.608 83.078 122.167 83.078H102.662C98.2201 83.078 94.7518 79.4832 94.9151 75.1215L95.8654 49.7247Z" fill="#222221"/>
<path d="M98.8414 64.0331L98.5428 72.3695C98.4142 75.9585 101.146 78.9171 104.646 78.9171H120.183C123.683 78.9171 126.415 75.9584 126.286 72.3695L125.988 64.0331H98.8414Z" fill="#FFBAAC"/>
<path fill-rule="evenodd" clip-rule="evenodd" d="M98.7599 63.9487H126.069L126.371 72.3665C126.501 76.0001 123.734 79.0015 120.183 79.0015H104.646C101.095 79.0015 98.3282 76.0002 98.4584 72.3665L98.7599 63.9487ZM98.9228 64.1175L98.6271 72.3725C98.5001 75.9168 101.197 78.8327 104.646 78.8327H120.183C123.633 78.8327 126.329 75.9167 126.202 72.3725L125.906 64.1175H98.9228Z" fill="#222221"/>
<path d="M120.834 58.7143H103.677C99.2013 58.7143 95.5726 55.0857 95.5726 50.6095V43.2402C95.5726 40.8005 97.5504 38.8229 99.9899 38.8229H124.522C126.961 38.8229 128.939 40.8006 128.939 43.2402V50.6095C128.939 55.0857 125.31 58.7143 120.834 58.7143Z" fill="#FF947D"/>
<path fill-rule="evenodd" clip-rule="evenodd" d="M99.9898 38.9073C97.5969 38.9073 95.657 40.8471 95.657 43.2402V50.6095C95.657 55.0391 99.2478 58.6299 103.677 58.6299H120.834C125.264 58.6299 128.855 55.0391 128.854 50.6095V43.2402C128.854 40.8472 126.915 38.9073 124.522 38.9073H99.9898ZM95.4882 43.2402C95.4882 40.7539 97.5037 38.7385 99.9898 38.7385H124.522C127.008 38.7385 129.023 40.754 129.023 43.2402V50.6095C129.023 55.1323 125.357 58.7988 120.834 58.7988H103.677C99.1546 58.7988 95.4882 55.1323 95.4882 50.6095V43.2402Z" fill="#222221"/>
<path d="M121.323 72.9999H103.385C100.273 72.9999 97.7494 70.4767 97.7494 67.3643V65.3855C97.7494 63.6891 99.1246 62.3139 100.821 62.3139H123.887C125.583 62.3139 126.958 63.6891 126.958 65.3855V67.3643C126.958 70.4767 124.435 72.9999 121.323 72.9999Z" fill="#FFBAAC"/>
<path fill-rule="evenodd" clip-rule="evenodd" d="M100.821 62.3983C99.1711 62.3983 97.8337 63.7357 97.8337 65.3855V67.3643C97.8337 70.4301 100.319 72.9155 103.385 72.9155H121.323C124.388 72.9155 126.874 70.4301 126.874 67.3643V65.3855C126.874 63.7357 125.536 62.3983 123.887 62.3983H100.821ZM97.6649 65.3855C97.6649 63.6425 99.0779 62.2295 100.821 62.2295H123.887C125.63 62.2295 127.043 63.6425 127.043 65.3855V67.3643C127.043 70.5234 124.482 73.0843 121.323 73.0843H103.385C100.226 73.0843 97.6649 70.5234 97.6649 67.3643V65.3855Z" fill="#222221"/>
<path d="M107.794 52.0636H103.769V75.5789H107.794V52.0636Z" fill="black"/>
<path d="M106.317 65.9132H105.125V68.9321H106.317V65.9132Z" fill="#FF947D"/>
<path d="M107.734 65.4132H103.708C102.761 65.4132 101.994 66.1808 101.994 67.1275V69.313C101.994 70.2598 102.761 71.0273 103.708 71.0273H107.734C108.681 71.0273 109.449 70.2598 109.449 69.313V67.1275C109.449 66.1808 108.681 65.4132 107.734 65.4132ZM108.137 68.9384C108.137 69.4856 107.627 69.9292 106.997 69.9292H104.552C103.922 69.9292 103.411 69.4855 103.411 68.9384V67.6752C103.411 67.128 103.922 66.6844 104.552 66.6844H106.997C107.627 66.6844 108.137 67.1281 108.137 67.6752V68.9384Z" fill="#FF947D"/>
<path fill-rule="evenodd" clip-rule="evenodd" d="M101.91 67.1275C101.91 66.1342 102.715 65.3288 103.708 65.3288H107.735C108.728 65.3288 109.534 66.1342 109.534 67.1275V69.313C109.534 70.3064 108.728 71.1117 107.735 71.1117H103.708C102.715 71.1117 101.91 70.3064 101.91 69.313V67.1275ZM103.708 65.4976C102.808 65.4976 102.078 66.2274 102.078 67.1275V69.313C102.078 70.2132 102.808 70.9429 103.708 70.9429H107.735C108.635 70.9429 109.365 70.2131 109.365 69.313V67.1275C109.365 66.2274 108.635 65.4976 107.735 65.4976H103.708ZM104.552 66.7688C103.957 66.7688 103.496 67.1854 103.496 67.6752V68.9384C103.496 69.4281 103.957 69.8448 104.552 69.8448H106.997C107.592 69.8448 108.053 69.4282 108.053 68.9384V67.6752C108.053 67.1855 107.592 66.7688 106.997 66.7688H104.552ZM103.327 67.6752C103.327 67.0706 103.887 66.6 104.552 66.6H106.997C107.662 66.6 108.222 67.0707 108.222 67.6752V68.9384C108.222 69.543 107.662 70.0136 106.997 70.0136H104.552C103.887 70.0136 103.327 69.5429 103.327 68.9384V67.6752Z" fill="#222221"/>
<path d="M107.159 55.5671H106.427C106.394 55.5671 106.366 55.5396 106.366 55.5061C106.366 55.4727 106.394 55.4452 106.427 55.4452H107.098V54.7407C107.098 54.7071 107.126 54.6797 107.159 54.6797C107.193 54.6797 107.22 54.7072 107.22 54.7407V55.4727C107.22 55.4787 107.22 55.4842 107.218 55.4897C107.22 55.4946 107.22 55.5002 107.22 55.5061C107.22 55.5397 107.193 55.5671 107.159 55.5671ZM105.695 55.5671H104.963C104.929 55.5671 104.902 55.5396 104.902 55.5061C104.902 55.4727 104.929 55.4452 104.963 55.4452H105.695C105.728 55.4452 105.756 55.4727 105.756 55.5061C105.756 55.5397 105.728 55.5671 105.695 55.5671ZM104.405 55.3924C104.371 55.3924 104.344 55.3649 104.344 55.3314V54.5994C104.344 54.5658 104.371 54.5384 104.405 54.5384C104.438 54.5384 104.466 54.5659 104.466 54.5994V55.3314C104.466 55.3649 104.438 55.3924 104.405 55.3924ZM107.159 54.0692C107.126 54.0692 107.098 54.0417 107.098 54.0082V53.2762C107.098 53.2427 107.126 53.2152 107.159 53.2152C107.193 53.2152 107.22 53.2427 107.22 53.2762V54.0082C107.22 54.0417 107.193 54.0692 107.159 54.0692ZM104.405 53.9279C104.371 53.9279 104.344 53.9004 104.344 53.8669V53.1349C104.344 53.1014 104.371 53.074 104.405 53.074C104.438 53.074 104.466 53.1015 104.466 53.1349V53.8669C104.466 53.9004 104.438 53.9279 104.405 53.9279ZM106.951 52.8129H106.219C106.185 52.8129 106.158 52.7854 106.158 52.7519C106.158 52.7185 106.185 52.691 106.219 52.691H106.951C106.984 52.691 107.012 52.7185 107.012 52.7519C107.012 52.7854 106.984 52.8129 106.951 52.8129ZM105.486 52.8129H104.754C104.721 52.8129 104.693 52.7854 104.693 52.7519C104.693 52.7185 104.721 52.691 104.754 52.691H105.486C105.52 52.691 105.547 52.7185 105.547 52.7519C105.547 52.7854 105.52 52.8129 105.486 52.8129Z" fill="#F5EFE8"/>
<path d="M106.994 55.4017C106.978 55.4017 106.962 55.3957 106.95 55.3842L106.433 54.8665C106.409 54.8423 106.409 54.8039 106.433 54.7797C106.457 54.7566 106.495 54.7566 106.52 54.7797L107.037 55.2973C107.061 55.3215 107.061 55.36 107.037 55.3842C107.025 55.3957 107.009 55.4017 106.994 55.4017ZM105.959 54.3664C105.943 54.3664 105.927 54.3604 105.915 54.3489L105.397 53.8306C105.373 53.8065 105.373 53.768 105.397 53.7438C105.421 53.7207 105.46 53.7207 105.484 53.7438L106.002 54.262C106.026 54.2862 106.026 54.3247 106.002 54.3489C105.99 54.3604 105.974 54.3664 105.959 54.3664ZM104.923 53.3306C104.907 53.3306 104.891 53.3245 104.879 53.313L104.362 52.7953C104.338 52.7711 104.338 52.7327 104.362 52.7085C104.386 52.6854 104.424 52.6854 104.448 52.7085L104.966 53.2262C104.99 53.2504 104.99 53.2888 104.966 53.313C104.954 53.3245 104.938 53.3306 104.923 53.3306Z" fill="#F5EFE8"/>
<path d="M104.57 55.4017C104.555 55.4017 104.539 55.3957 104.527 55.3842C104.503 55.36 104.503 55.3215 104.527 55.2973L105.044 54.7797C105.068 54.7566 105.107 54.7566 105.131 54.7797C105.155 54.8039 105.155 54.8423 105.131 54.8665L104.613 55.3842C104.601 55.3957 104.585 55.4017 104.57 55.4017ZM105.605 54.3664C105.59 54.3664 105.574 54.3604 105.562 54.3489C105.538 54.3247 105.538 54.2862 105.562 54.262L106.08 53.7438C106.104 53.7207 106.143 53.7207 106.167 53.7438C106.191 53.768 106.191 53.8065 106.167 53.8307L105.649 54.3489C105.637 54.3604 105.621 54.3664 105.605 54.3664ZM106.641 53.3306C106.626 53.3306 106.61 53.3245 106.598 53.313C106.574 53.2888 106.574 53.2504 106.598 53.2262L107.115 52.7085C107.14 52.6854 107.178 52.6854 107.202 52.7085C107.226 52.7327 107.226 52.7712 107.202 52.7953L106.685 53.313C106.672 53.3245 106.657 53.3306 106.641 53.3306Z" fill="#F5EFE8"/>
<path d="M107.159 74.9516H106.427C106.394 74.9516 106.366 74.9241 106.366 74.8906C106.366 74.8571 106.394 74.8296 106.427 74.8296H107.098V74.1252C107.098 74.0917 107.126 74.0642 107.159 74.0642C107.193 74.0642 107.22 74.0917 107.22 74.1252V74.8571C107.22 74.8632 107.22 74.8686 107.218 74.8741C107.22 74.8791 107.22 74.8845 107.22 74.8906C107.22 74.9241 107.193 74.9516 107.159 74.9516ZM105.695 74.9516H104.963C104.929 74.9516 104.902 74.9241 104.902 74.8906C104.902 74.8571 104.929 74.8296 104.963 74.8296H105.695C105.728 74.8296 105.756 74.8571 105.756 74.8906C105.756 74.9241 105.728 74.9516 105.695 74.9516ZM104.405 74.7768C104.371 74.7768 104.344 74.7493 104.344 74.7158V73.9839C104.344 73.9504 104.371 73.9229 104.405 73.9229C104.438 73.9229 104.466 73.9504 104.466 73.9839V74.7158C104.466 74.7493 104.438 74.7768 104.405 74.7768ZM107.159 73.4535C107.126 73.4535 107.098 73.426 107.098 73.3926V72.6606C107.098 72.627 107.126 72.5996 107.159 72.5996C107.193 72.5996 107.22 72.6271 107.22 72.6606V73.3926C107.22 73.426 107.193 73.4535 107.159 73.4535ZM104.405 73.3123C104.371 73.3123 104.344 73.2848 104.344 73.2514V72.5194C104.344 72.4859 104.371 72.4584 104.405 72.4584C104.438 72.4584 104.466 72.4859 104.466 72.5194V73.2514C104.466 73.2848 104.438 73.3123 104.405 73.3123ZM106.951 72.1973H106.219C106.185 72.1973 106.158 72.1698 106.158 72.1363C106.158 72.1027 106.185 72.0753 106.219 72.0753H106.951C106.984 72.0753 107.012 72.1028 107.012 72.1363C107.012 72.1698 106.984 72.1973 106.951 72.1973ZM105.486 72.1973H104.754C104.721 72.1973 104.693 72.1698 104.693 72.1363C104.693 72.1027 104.721 72.0753 104.754 72.0753H105.486C105.52 72.0753 105.547 72.1028 105.547 72.1363C105.547 72.1698 105.52 72.1973 105.486 72.1973Z" fill="#F5EFE8"/>
<path d="M106.994 74.7862C106.978 74.7862 106.962 74.7801 106.95 74.7686L106.433 74.251C106.409 74.2268 106.409 74.1883 106.433 74.1642C106.457 74.1411 106.495 74.1411 106.52 74.1642L107.037 74.6818C107.061 74.706 107.061 74.7444 107.037 74.7686C107.025 74.7801 107.009 74.7862 106.994 74.7862ZM105.959 73.7508C105.943 73.7508 105.927 73.7447 105.915 73.7332L105.397 73.215C105.373 73.1908 105.373 73.1524 105.397 73.1282C105.421 73.1051 105.46 73.1051 105.484 73.1282L106.002 73.6464C106.026 73.6706 106.026 73.709 106.002 73.7332C105.99 73.7448 105.974 73.7508 105.959 73.7508ZM104.923 72.7149C104.907 72.7149 104.891 72.7089 104.879 72.6974L104.362 72.1797C104.338 72.1555 104.338 72.1171 104.362 72.0929C104.386 72.0698 104.424 72.0698 104.448 72.0929L104.966 72.6105C104.99 72.6347 104.99 72.6732 104.966 72.6974C104.954 72.709 104.938 72.7149 104.923 72.7149Z" fill="#F5EFE8"/>
<path d="M104.57 74.7862C104.555 74.7862 104.539 74.7801 104.527 74.7686C104.503 74.7444 104.503 74.706 104.527 74.6818L105.044 74.1641C105.068 74.1411 105.107 74.1411 105.131 74.1641C105.155 74.1883 105.155 74.2268 105.131 74.251L104.613 74.7686C104.601 74.7801 104.585 74.7862 104.57 74.7862ZM105.605 73.7508C105.59 73.7508 105.574 73.7447 105.562 73.7332C105.538 73.709 105.538 73.6706 105.562 73.6464L106.08 73.1282C106.104 73.1051 106.143 73.1051 106.167 73.1282C106.191 73.1524 106.191 73.1908 106.167 73.215L105.649 73.7332C105.637 73.7448 105.621 73.7508 105.605 73.7508ZM106.641 72.7149C106.626 72.7149 106.61 72.7089 106.598 72.6974C106.574 72.6732 106.574 72.6347 106.598 72.6105L107.115 72.0929C107.14 72.0698 107.178 72.0698 107.202 72.0929C107.226 72.1171 107.226 72.1555 107.202 72.1797L106.685 72.6974C106.672 72.709 106.657 72.7149 106.641 72.7149Z" fill="#F5EFE8"/>
<path d="M122.147 52.0636H118.122V75.5789H122.147V52.0636Z" fill="black"/>
<path d="M120.67 65.9132H119.478V68.9321H120.67V65.9132Z" fill="#FF947D"/>
<path d="M122.087 65.4132H118.06C117.114 65.4132 116.346 66.1808 116.346 67.1275V69.313C116.346 70.2598 117.114 71.0273 118.06 71.0273H122.087C123.034 71.0273 123.801 70.2598 123.801 69.313V67.1275C123.801 66.1808 123.034 65.4132 122.087 65.4132ZM122.49 68.9384C122.49 69.4856 121.979 69.9292 121.349 69.9292H118.904C118.274 69.9292 117.763 69.4855 117.763 68.9384V67.6752C117.763 67.128 118.274 66.6844 118.904 66.6844H121.349C121.979 66.6844 122.49 67.1281 122.49 67.6752V68.9384Z" fill="#FF947D"/>
<path fill-rule="evenodd" clip-rule="evenodd" d="M116.262 67.1275C116.262 66.1342 117.067 65.3288 118.06 65.3288H122.087C123.08 65.3288 123.886 66.1342 123.886 67.1275V69.313C123.886 70.3064 123.08 71.1117 122.087 71.1117H118.06C117.067 71.1117 116.262 70.3064 116.262 69.313V67.1275ZM118.06 65.4976C117.16 65.4976 116.431 66.2274 116.431 67.1275V69.313C116.431 70.2132 117.16 70.9429 118.06 70.9429H122.087C122.987 70.9429 123.717 70.2131 123.717 69.313V67.1275C123.717 66.2274 122.987 65.4976 122.087 65.4976H118.06ZM118.904 66.7688C118.309 66.7688 117.848 67.1854 117.848 67.6752V68.9384C117.848 69.4281 118.309 69.8448 118.904 69.8448H121.349C121.944 69.8448 122.405 69.4282 122.405 68.9384V67.6752C122.405 67.1855 121.944 66.7688 121.349 66.7688H118.904ZM117.679 67.6752C117.679 67.0706 118.239 66.6 118.904 66.6H121.349C122.014 66.6 122.574 67.0707 122.574 67.6752V68.9384C122.574 69.543 122.014 70.0136 121.349 70.0136H118.904C118.239 70.0136 117.679 69.5429 117.679 68.9384V67.6752Z" fill="#222221"/>
<path d="M121.512 55.5671H120.78C120.746 55.5671 120.719 55.5396 120.719 55.5061C120.719 55.4727 120.746 55.4452 120.78 55.4452H121.451V54.7407C121.451 54.7071 121.478 54.6797 121.512 54.6797C121.545 54.6797 121.572 54.7072 121.572 54.7407V55.4727C121.572 55.4787 121.572 55.4842 121.57 55.4897C121.572 55.4947 121.572 55.5002 121.572 55.5061C121.572 55.5397 121.545 55.5671 121.512 55.5671ZM120.047 55.5671H119.315C119.282 55.5671 119.254 55.5396 119.254 55.5061C119.254 55.4727 119.282 55.4452 119.315 55.4452H120.047C120.081 55.4452 120.108 55.4727 120.108 55.5061C120.108 55.5397 120.081 55.5671 120.047 55.5671ZM118.757 55.3924C118.724 55.3924 118.696 55.3649 118.696 55.3314V54.5994C118.696 54.5659 118.724 54.5384 118.757 54.5384C118.791 54.5384 118.818 54.5659 118.818 54.5994V55.3314C118.818 55.365 118.791 55.3924 118.757 55.3924ZM121.512 54.0692C121.478 54.0692 121.451 54.0417 121.451 54.0082V53.2762C121.451 53.2427 121.478 53.2152 121.512 53.2152C121.545 53.2152 121.572 53.2427 121.572 53.2762V54.0082C121.572 54.0417 121.545 54.0692 121.512 54.0692ZM118.757 53.9279C118.724 53.9279 118.696 53.9004 118.696 53.8669V53.1349C118.696 53.1014 118.724 53.074 118.757 53.074C118.791 53.074 118.818 53.1015 118.818 53.1349V53.8669C118.818 53.9004 118.791 53.9279 118.757 53.9279ZM121.303 52.8129H120.571C120.538 52.8129 120.51 52.7854 120.51 52.7519C120.51 52.7185 120.538 52.691 120.571 52.691H121.303C121.337 52.691 121.364 52.7185 121.364 52.7519C121.364 52.7854 121.337 52.8129 121.303 52.8129ZM119.839 52.8129H119.107C119.073 52.8129 119.046 52.7854 119.046 52.7519C119.046 52.7185 119.073 52.691 119.107 52.691H119.839C119.872 52.691 119.9 52.7185 119.9 52.7519C119.9 52.7854 119.872 52.8129 119.839 52.8129Z" fill="#F5EFE8"/>
<path d="M121.346 55.4018C121.331 55.4018 121.315 55.3957 121.303 55.3842L120.785 54.8666C120.762 54.8424 120.762 54.8039 120.785 54.7798C120.809 54.7567 120.848 54.7567 120.872 54.7798L121.39 55.2974C121.413 55.3216 121.413 55.36 121.39 55.3842C121.378 55.3957 121.362 55.4018 121.346 55.4018ZM120.311 54.3665C120.296 54.3665 120.28 54.3604 120.268 54.3489L119.749 53.8307C119.726 53.8065 119.726 53.7681 119.749 53.7439C119.774 53.7208 119.812 53.7208 119.836 53.7439L120.354 54.2621C120.378 54.2863 120.378 54.3247 120.354 54.3489C120.342 54.3604 120.326 54.3665 120.311 54.3665ZM119.275 53.3306C119.26 53.3306 119.244 53.3246 119.232 53.3131L118.714 52.7954C118.69 52.7712 118.69 52.7328 118.714 52.7086C118.738 52.6855 118.777 52.6855 118.801 52.7086L119.318 53.2262C119.342 53.2504 119.342 53.2889 119.318 53.3131C119.306 53.3246 119.29 53.3306 119.275 53.3306Z" fill="#F5EFE8"/>
<path d="M118.923 55.4017C118.907 55.4017 118.892 55.3957 118.879 55.3842C118.856 55.36 118.856 55.3215 118.879 55.2973L119.397 54.7797C119.421 54.7566 119.46 54.7566 119.484 54.7797C119.508 54.8039 119.508 54.8423 119.484 54.8665L118.966 55.3842C118.954 55.3957 118.938 55.4017 118.923 55.4017ZM119.958 54.3664C119.943 54.3664 119.927 54.3604 119.915 54.3489C119.891 54.3247 119.891 54.2862 119.915 54.262L120.433 53.7438C120.457 53.7207 120.496 53.7207 120.52 53.7438C120.543 53.768 120.543 53.8065 120.52 53.8307L120.002 54.3489C119.989 54.3604 119.974 54.3664 119.958 54.3664ZM120.994 53.3306C120.979 53.3306 120.963 53.3245 120.951 53.313C120.927 53.2888 120.927 53.2504 120.951 53.2262L121.468 52.7085C121.492 52.6854 121.531 52.6854 121.555 52.7085C121.579 52.7327 121.579 52.7712 121.555 52.7953L121.037 53.313C121.025 53.3245 121.009 53.3306 120.994 53.3306Z" fill="#F5EFE8"/>
<path d="M121.512 74.9516H120.78C120.746 74.9516 120.719 74.9241 120.719 74.8906C120.719 74.8571 120.746 74.8296 120.78 74.8296H121.451V74.1251C121.451 74.0917 121.478 74.0642 121.512 74.0642C121.545 74.0642 121.572 74.0917 121.572 74.1251V74.8571C121.572 74.8632 121.572 74.8686 121.57 74.8741C121.572 74.8791 121.572 74.8845 121.572 74.8906C121.572 74.9241 121.545 74.9516 121.512 74.9516ZM120.047 74.9516H119.315C119.282 74.9516 119.254 74.9241 119.254 74.8906C119.254 74.8571 119.282 74.8296 119.315 74.8296H120.047C120.081 74.8296 120.108 74.8571 120.108 74.8906C120.108 74.9241 120.081 74.9516 120.047 74.9516ZM118.757 74.7768C118.724 74.7768 118.696 74.7493 118.696 74.7158V73.9839C118.696 73.9504 118.724 73.9229 118.757 73.9229C118.791 73.9229 118.818 73.9504 118.818 73.9839V74.7158C118.818 74.7493 118.791 74.7768 118.757 74.7768ZM121.512 73.4535C121.478 73.4535 121.451 73.426 121.451 73.3925V72.6606C121.451 72.627 121.478 72.5996 121.512 72.5996C121.545 72.5996 121.572 72.6271 121.572 72.6606V73.3925C121.572 73.426 121.545 73.4535 121.512 73.4535ZM118.757 73.3123C118.724 73.3123 118.696 73.2848 118.696 73.2513V72.5194C118.696 72.4859 118.724 72.4584 118.757 72.4584C118.791 72.4584 118.818 72.4859 118.818 72.5194V73.2513C118.818 73.2848 118.791 73.3123 118.757 73.3123ZM121.303 72.1973H120.571C120.538 72.1973 120.51 72.1698 120.51 72.1363C120.51 72.1027 120.538 72.0753 120.571 72.0753H121.303C121.337 72.0753 121.364 72.1028 121.364 72.1363C121.364 72.1698 121.337 72.1973 121.303 72.1973ZM119.839 72.1973H119.107C119.073 72.1973 119.046 72.1698 119.046 72.1363C119.046 72.1027 119.073 72.0753 119.107 72.0753H119.839C119.872 72.0753 119.9 72.1028 119.9 72.1363C119.9 72.1698 119.872 72.1973 119.839 72.1973Z" fill="#F5EFE8"/>
<path d="M121.346 74.7863C121.331 74.7863 121.315 74.7802 121.303 74.7687L120.785 74.2511C120.762 74.2269 120.762 74.1884 120.785 74.1642C120.809 74.1411 120.848 74.1411 120.872 74.1642L121.39 74.6819C121.413 74.7061 121.413 74.7445 121.39 74.7687C121.378 74.7802 121.362 74.7863 121.346 74.7863ZM120.311 73.7509C120.296 73.7509 120.28 73.7448 120.268 73.7333L119.749 73.2151C119.726 73.1909 119.726 73.1525 119.749 73.1283C119.774 73.1052 119.812 73.1052 119.836 73.1283L120.354 73.6465C120.378 73.6707 120.378 73.7091 120.354 73.7333C120.342 73.7449 120.326 73.7509 120.311 73.7509ZM119.275 72.715C119.26 72.715 119.244 72.7089 119.232 72.6974L118.714 72.1798C118.69 72.1556 118.69 72.1171 118.714 72.093C118.738 72.0699 118.777 72.0699 118.801 72.093L119.318 72.6106C119.342 72.6348 119.342 72.6733 119.318 72.6974C119.306 72.709 119.29 72.715 119.275 72.715Z" fill="#F5EFE8"/>
<path d="M118.923 74.7862C118.907 74.7862 118.892 74.7801 118.879 74.7686C118.856 74.7444 118.856 74.706 118.879 74.6818L119.397 74.1641C119.421 74.1411 119.46 74.1411 119.484 74.1641C119.508 74.1883 119.508 74.2268 119.484 74.251L118.966 74.7686C118.954 74.7801 118.938 74.7862 118.923 74.7862ZM119.958 73.7508C119.943 73.7508 119.927 73.7447 119.915 73.7332C119.891 73.709 119.891 73.6706 119.915 73.6464L120.433 73.1282C120.457 73.1051 120.496 73.1051 120.52 73.1282C120.543 73.1524 120.543 73.1908 120.52 73.215L120.002 73.7332C119.989 73.7448 119.974 73.7508 119.958 73.7508ZM120.994 72.7149C120.979 72.7149 120.963 72.7089 120.951 72.6974C120.927 72.6732 120.927 72.6347 120.951 72.6105L121.468 72.0929C121.492 72.0698 121.531 72.0698 121.555 72.0929C121.579 72.1171 121.579 72.1555 121.555 72.1797L121.037 72.6974C121.025 72.709 121.009 72.7149 120.994 72.7149Z" fill="#F5EFE8"/>
<path d="M116.948 46.7031L113.591 43.3454C113.029 42.7833 112.118 42.7833 111.556 43.3454L108.198 46.7031C107.636 47.265 107.636 48.1761 108.198 48.7382L111.556 52.0959C112.118 52.6579 113.029 52.6579 113.591 52.0959L116.948 48.7382C117.51 48.1761 117.51 47.265 116.948 46.7031ZM111.864 48.7106C111.864 49.0632 111.578 49.3493 111.226 49.3493C110.873 49.3493 110.587 49.0632 110.587 48.7106V46.7308C110.587 46.3781 110.873 46.0921 111.226 46.0921C111.578 46.0921 111.864 46.3781 111.864 46.7308V48.7106ZM114.559 48.7106C114.559 49.0632 114.273 49.3493 113.921 49.3493C113.568 49.3493 113.282 49.0632 113.282 48.7106V46.7308C113.282 46.3781 113.568 46.0921 113.921 46.0921C114.273 46.0921 114.559 46.3781 114.559 46.7308V48.7106Z" fill="black"/>
<path d="M145.45 71.9825C144.828 72.1109 144.184 72.1793 143.524 72.1793C138.288 72.1793 134.043 67.9347 134.043 62.6986C134.043 61.5034 134.274 60.3644 134.678 59.3112L134.378 59.1622L125.526 61.9324L125.421 66.1774C129.578 66.5464 132.846 69.9884 132.944 74.2178C133.694 73.9941 134.487 73.87 135.31 73.87C139.288 73.87 142.608 76.6788 143.4 80.4205C144.738 79.4909 146.36 78.9424 148.112 78.9424C149.27 78.9424 150.372 79.1823 151.373 79.6122L151.484 75.6244C148.967 75.3647 146.783 73.9854 145.45 71.9825Z" fill="#D1E6FF"/>
<path d="M143.524 72.1793C144.184 72.1793 144.828 72.111 145.45 71.9825C146.783 73.9854 148.967 75.3647 151.484 75.6244L151.89 61.0487L142.102 63.002L134.678 59.3113C134.274 60.3644 134.043 61.5035 134.043 62.6987C134.044 67.9347 138.288 72.1793 143.524 72.1793Z" fill="#A5CDFF"/>
<path d="M143.4 80.4205C142.607 76.6788 139.288 73.87 135.31 73.87C134.487 73.87 133.694 73.9941 132.944 74.2178C132.845 69.9884 129.578 66.5465 125.421 66.1774L124.999 83.3249L134.027 81.469L142.102 84.5774L151.264 83.4975L151.373 79.6122C150.372 79.1823 149.27 78.9424 148.112 78.9424C146.359 78.9424 144.737 79.4909 143.4 80.4205Z" fill="#A5CDFF"/>
<path fill-rule="evenodd" clip-rule="evenodd" d="M134.388 59.0427L142.118 62.8853L152.005 60.9121L151.373 83.5969L142.088 84.6911L134.018 81.5847L124.885 83.4621L125.417 61.85L134.388 59.0427ZM125.635 62.0149L125.114 83.1876L134.037 81.3534L142.117 84.4635L151.156 83.3983L151.775 61.1852L142.087 63.1186L134.369 59.2819L125.635 62.0149Z" fill="#222221"/>
<path fill-rule="evenodd" clip-rule="evenodd" d="M134.379 59.083C134.423 59.0837 134.458 59.1198 134.457 59.1636L134.45 59.6394C134.449 59.6832 134.413 59.7181 134.369 59.7175C134.326 59.7168 134.291 59.6807 134.291 59.6369L134.299 59.1611C134.299 59.1173 134.335 59.0824 134.379 59.083Z" fill="black"/>
<path fill-rule="evenodd" clip-rule="evenodd" d="M134.357 60.4874C134.401 60.488 134.436 60.5241 134.435 60.5679L134.428 61.0216C134.427 61.0654 134.391 61.1003 134.348 61.0997C134.304 61.099 134.269 61.0629 134.269 61.0191L134.277 60.5654C134.277 60.5216 134.313 60.4867 134.357 60.4874ZM134.336 61.8484C134.38 61.8491 134.414 61.8852 134.414 61.929L134.4 62.8364C134.399 62.8801 134.363 62.9151 134.319 62.9144C134.275 62.9137 134.24 62.8777 134.241 62.8339L134.255 61.9265C134.256 61.8827 134.292 61.8477 134.336 61.8484ZM134.307 63.6632C134.351 63.6639 134.386 63.6999 134.385 63.7437L134.371 64.6511C134.37 64.6949 134.334 64.7298 134.29 64.7292C134.247 64.7285 134.212 64.6924 134.212 64.6486L134.227 63.7412C134.227 63.6974 134.263 63.6625 134.307 63.6632ZM134.279 65.4779C134.322 65.4786 134.357 65.5147 134.357 65.5585L134.342 66.4659C134.342 66.5097 134.306 66.5446 134.262 66.5439C134.218 66.5432 134.183 66.5072 134.184 66.4634L134.198 65.556C134.199 65.5122 134.235 65.4772 134.279 65.4779ZM134.25 67.2927C134.294 67.2934 134.329 67.3294 134.328 67.3732L134.314 68.2806C134.313 68.3244 134.277 68.3594 134.233 68.3587C134.189 68.358 134.155 68.3219 134.155 68.2781L134.169 67.3707C134.17 67.3269 134.206 67.292 134.25 67.2927ZM134.221 69.1074C134.265 69.1081 134.3 69.1442 134.3 69.188L134.285 70.0954C134.285 70.1392 134.249 70.1741 134.205 70.1734C134.161 70.1727 134.126 70.1367 134.127 70.0929L134.141 69.1855C134.142 69.1417 134.178 69.1067 134.221 69.1074ZM134.193 70.9222C134.237 70.9229 134.272 70.9589 134.271 71.0027L134.257 71.9101C134.256 71.9539 134.22 71.9889 134.176 71.9882C134.132 71.9875 134.097 71.9514 134.098 71.9076L134.112 71.0002C134.113 70.9564 134.149 70.9215 134.193 70.9222ZM134.164 72.7369C134.208 72.7376 134.243 72.7737 134.242 72.8175L134.228 73.7249C134.227 73.7687 134.191 73.8036 134.148 73.8029C134.104 73.8022 134.069 73.7662 134.07 73.7224L134.084 72.815C134.084 72.7712 134.121 72.7363 134.164 72.7369ZM134.136 74.5517C134.18 74.5524 134.215 74.5884 134.214 74.6322L134.2 75.5396C134.199 75.5834 134.163 75.6184 134.119 75.6177C134.075 75.617 134.04 75.5809 134.041 75.5371L134.055 74.6297C134.056 74.5859 134.092 74.551 134.136 74.5517ZM134.107 76.3664C134.151 76.3671 134.186 76.4032 134.185 76.447L134.171 77.3544C134.17 77.3982 134.134 77.4331 134.09 77.4324C134.047 77.4317 134.012 77.3957 134.012 77.3519L134.027 76.4445C134.027 76.4007 134.063 76.3658 134.107 76.3664ZM134.079 78.1812C134.122 78.1819 134.157 78.2179 134.157 78.2617L134.142 79.1691C134.142 79.2129 134.106 79.2479 134.062 79.2472C134.018 79.2465 133.983 79.2104 133.984 79.1666L133.998 78.2593C133.999 78.2155 134.035 78.1805 134.079 78.1812ZM134.05 79.9959C134.094 79.9966 134.129 80.0327 134.128 80.0765L134.121 80.5302C134.12 80.574 134.084 80.6089 134.04 80.6082C133.997 80.6076 133.962 80.5715 133.962 80.5277L133.97 80.074C133.97 80.0302 134.006 79.9953 134.05 79.9959Z" fill="black"/>
<path fill-rule="evenodd" clip-rule="evenodd" d="M134.036 80.914C134.08 80.9146 134.114 80.9507 134.114 80.9945L134.106 81.4703C134.106 81.5141 134.07 81.549 134.026 81.5484C133.982 81.5477 133.947 81.5116 133.948 81.4678L133.955 80.992C133.956 80.9482 133.992 80.9133 134.036 80.914Z" fill="black"/>
<path fill-rule="evenodd" clip-rule="evenodd" d="M142.102 62.9226C142.146 62.9226 142.181 62.9582 142.181 63.002V63.4923C142.181 63.5361 142.146 63.5716 142.102 63.5716C142.058 63.5716 142.022 63.5361 142.022 63.4923V63.002C142.022 62.9582 142.058 62.9226 142.102 62.9226ZM142.102 64.3937C142.146 64.3937 142.181 64.4292 142.181 64.473V65.4537C142.181 65.4975 142.146 65.533 142.102 65.533C142.058 65.533 142.022 65.4975 142.022 65.4537V64.473C142.022 64.4292 142.058 64.3937 142.102 64.3937ZM142.102 66.3551C142.146 66.3551 142.181 66.3906 142.181 66.4344V67.4151C142.181 67.4589 142.146 67.4944 142.102 67.4944C142.058 67.4944 142.022 67.4589 142.022 67.4151V66.4344C142.022 66.3906 142.058 66.3551 142.102 66.3551ZM142.102 68.3165C142.146 68.3165 142.181 68.352 142.181 68.3958V69.3765C142.181 69.4203 142.146 69.4558 142.102 69.4558C142.058 69.4558 142.022 69.4203 142.022 69.3765V68.3958C142.022 68.352 142.058 68.3165 142.102 68.3165ZM142.102 70.2779C142.146 70.2779 142.181 70.3134 142.181 70.3572V71.3379C142.181 71.3817 142.146 71.4172 142.102 71.4172C142.058 71.4172 142.022 71.3817 142.022 71.3379V70.3572C142.022 70.3134 142.058 70.2779 142.102 70.2779ZM142.102 72.2393C142.146 72.2393 142.181 72.2748 142.181 72.3186V73.2993C142.181 73.3431 142.146 73.3786 142.102 73.3786C142.058 73.3786 142.022 73.3431 142.022 73.2993V72.3186C142.022 72.2748 142.058 72.2393 142.102 72.2393ZM142.102 74.2007C142.146 74.2007 142.181 74.2362 142.181 74.28V75.2607C142.181 75.3045 142.146 75.34 142.102 75.34C142.058 75.34 142.022 75.3045 142.022 75.2607V74.28C142.022 74.2362 142.058 74.2007 142.102 74.2007ZM142.102 76.1621C142.146 76.1621 142.181 76.1976 142.181 76.2414V77.2221C142.181 77.2659 142.146 77.3014 142.102 77.3014C142.058 77.3014 142.022 77.2659 142.022 77.2221V76.2414C142.022 76.1976 142.058 76.1621 142.102 76.1621ZM142.102 78.1235C142.146 78.1235 142.181 78.159 142.181 78.2028V79.1835C142.181 79.2273 142.146 79.2628 142.102 79.2628C142.058 79.2628 142.022 79.2273 142.022 79.1835V78.2028C142.022 78.159 142.058 78.1235 142.102 78.1235ZM142.102 80.0849C142.146 80.0849 142.181 80.1204 142.181 80.1642V81.1449C142.181 81.1887 142.146 81.2242 142.102 81.2242C142.058 81.2242 142.022 81.1887 142.022 81.1449V80.1642C142.022 80.1204 142.058 80.0849 142.102 80.0849ZM142.102 82.0463C142.146 82.0463 142.181 82.0818 142.181 82.1256V83.1063C142.181 83.1501 142.146 83.1856 142.102 83.1856C142.058 83.1856 142.022 83.1501 142.022 83.1063V82.1256C142.022 82.0818 142.058 82.0463 142.102 82.0463ZM142.102 84.0077C142.146 84.0077 142.181 84.0432 142.181 84.087V84.5774C142.181 84.6212 142.146 84.6567 142.102 84.6567C142.058 84.6567 142.022 84.6212 142.022 84.5774V84.087C142.022 84.0432 142.058 84.0077 142.102 84.0077Z" fill="black"/>
<path fill-rule="evenodd" clip-rule="evenodd" d="M134.266 66.5832C134.283 66.578 134.3 66.5784 134.316 66.5841L134.799 66.7555C134.84 66.7702 134.862 66.8155 134.847 66.8568C134.833 66.8981 134.787 66.9197 134.746 66.905L134.288 66.7425L133.871 66.873C133.829 66.8861 133.785 66.8628 133.772 66.821C133.759 66.7792 133.782 66.7347 133.824 66.7217L134.266 66.5832ZM133.038 67.0507C133.051 67.0925 133.028 67.137 132.986 67.1501L132.101 67.4271C132.059 67.4402 132.014 67.4169 132.001 67.3751C131.988 67.3333 132.011 67.2888 132.053 67.2757L132.938 66.9987C132.98 66.9856 133.025 67.0089 133.038 67.0507ZM135.663 67.1466C135.678 67.1053 135.723 67.0837 135.765 67.0983L136.73 67.4412C136.772 67.4558 136.793 67.5012 136.778 67.5425C136.764 67.5837 136.718 67.6053 136.677 67.5907L135.712 67.2478C135.67 67.2332 135.649 67.1878 135.663 67.1466ZM151.659 67.466C151.668 67.5089 151.64 67.5507 151.597 67.5594L151.118 67.6554C151.076 67.664 151.034 67.6361 151.025 67.5932C151.016 67.5502 151.044 67.5084 151.087 67.4998L151.566 67.4038C151.609 67.3952 151.65 67.423 151.659 67.466ZM131.267 67.6047C131.28 67.6465 131.257 67.691 131.215 67.7041L130.33 67.9811C130.288 67.9942 130.244 67.9709 130.231 67.9291C130.218 67.8873 130.241 67.8428 130.283 67.8297L131.168 67.5527C131.21 67.5396 131.254 67.5629 131.267 67.6047ZM150.224 67.754C150.233 67.7969 150.205 67.8387 150.162 67.8473L149.205 68.0393C149.162 68.0479 149.12 68.0201 149.112 67.9772C149.103 67.9342 149.131 67.8924 149.174 67.8838L150.131 67.6918C150.173 67.6832 150.215 67.711 150.224 67.754ZM137.594 67.8322C137.609 67.7909 137.654 67.7693 137.696 67.784L138.661 68.1268C138.703 68.1415 138.724 68.1868 138.709 68.2281C138.695 68.2694 138.649 68.291 138.608 68.2763L137.643 67.9335C137.601 67.9188 137.58 67.8735 137.594 67.8322ZM148.31 68.1379C148.319 68.1809 148.291 68.2227 148.248 68.2313L147.292 68.4233C147.249 68.4319 147.207 68.4041 147.198 68.3611C147.19 68.3182 147.217 68.2764 147.26 68.2678L148.217 68.0758C148.26 68.0672 148.302 68.095 148.31 68.1379ZM129.497 68.1587C129.51 68.2005 129.487 68.245 129.445 68.2581L128.56 68.5351C128.518 68.5482 128.473 68.5249 128.46 68.4831C128.447 68.4413 128.471 68.3968 128.512 68.3837L129.398 68.1067C129.439 68.0936 129.484 68.1169 129.497 68.1587ZM146.397 68.5219C146.406 68.5649 146.378 68.6067 146.335 68.6153L145.378 68.8073C145.335 68.8159 145.293 68.7881 145.285 68.7451C145.276 68.7022 145.304 68.6604 145.347 68.6517L146.304 68.4598C146.347 68.4511 146.388 68.479 146.397 68.5219ZM139.525 68.5179C139.54 68.4766 139.585 68.455 139.627 68.4697L140.592 68.8125C140.634 68.8271 140.655 68.8725 140.64 68.9138C140.626 68.955 140.58 68.9766 140.539 68.962L139.574 68.6191C139.532 68.6045 139.511 68.5591 139.525 68.5179ZM127.726 68.7128C127.74 68.7546 127.716 68.799 127.674 68.8121L126.789 69.0891C126.747 69.1022 126.703 69.0789 126.69 69.0371C126.677 68.9953 126.7 68.9508 126.742 68.9378L127.627 68.6607C127.669 68.6477 127.713 68.6709 127.726 68.7128ZM144.484 68.9059C144.492 68.9488 144.464 68.9906 144.421 68.9993L143.465 69.1912C143.422 69.1999 143.38 69.172 143.371 69.1291C143.363 69.0861 143.391 69.0443 143.433 69.0357L144.39 68.8437C144.433 68.8351 144.475 68.8629 144.484 68.9059ZM141.457 69.2035C141.471 69.1622 141.517 69.1407 141.558 69.1553L142.02 69.3194L142.477 69.2277C142.52 69.2191 142.562 69.2469 142.57 69.2899C142.579 69.3328 142.551 69.3746 142.508 69.3832L142.03 69.4792C142.016 69.482 142.001 69.481 141.987 69.4762L141.505 69.3048C141.463 69.2901 141.442 69.2448 141.457 69.2035ZM125.956 69.2668C125.969 69.3086 125.946 69.3531 125.904 69.3662L125.461 69.5047C125.42 69.5177 125.375 69.4945 125.362 69.4527C125.349 69.4108 125.372 69.3664 125.414 69.3533L125.857 69.2148C125.898 69.2017 125.943 69.225 125.956 69.2668Z" fill="black"/>
<path fill-rule="evenodd" clip-rule="evenodd" d="M134.102 76.1797C134.117 76.1774 134.132 76.179 134.145 76.1846L134.549 76.3491C134.589 76.3656 134.609 76.4119 134.592 76.4525C134.576 76.4931 134.53 76.5125 134.489 76.496L134.106 76.3399L133.672 76.4108C133.629 76.4179 133.588 76.3885 133.581 76.3453C133.574 76.3021 133.603 76.2613 133.647 76.2542L134.102 76.1797ZM132.826 76.4687C132.833 76.512 132.804 76.5527 132.761 76.5598L131.849 76.7088C131.806 76.7159 131.765 76.6866 131.758 76.6434C131.751 76.6001 131.78 76.5594 131.824 76.5523L132.735 76.4033C132.778 76.3962 132.819 76.4255 132.826 76.4687ZM135.253 76.7217C135.27 76.6812 135.316 76.6617 135.356 76.6782L136.164 77.0074C136.204 77.0239 136.224 77.0702 136.207 77.1107C136.191 77.1513 136.145 77.1708 136.104 77.1542L135.297 76.8251C135.256 76.8086 135.236 76.7623 135.253 76.7217ZM131.003 76.7668C131.01 76.81 130.981 76.8508 130.938 76.8579L130.026 77.0069C129.983 77.014 129.942 76.9846 129.935 76.9414C129.928 76.8982 129.957 76.8574 130 76.8503L130.912 76.7013C130.955 76.6942 130.996 76.7236 131.003 76.7668ZM129.18 77.0648C129.187 77.1081 129.158 77.1488 129.114 77.1559L128.203 77.3049C128.16 77.312 128.119 77.2827 128.112 77.2395C128.105 77.1962 128.134 77.1554 128.177 77.1484L129.089 76.9994C129.132 76.9923 129.173 77.0216 129.18 77.0648ZM151.572 77.3369C151.582 77.3796 151.555 77.4223 151.513 77.4323L151.047 77.542C151.005 77.5521 150.962 77.5257 150.952 77.483C150.942 77.4404 150.968 77.3977 151.011 77.3876L151.476 77.2779C151.519 77.2679 151.561 77.2943 151.572 77.3369ZM127.357 77.3629C127.364 77.4061 127.335 77.4469 127.291 77.454L126.38 77.603C126.337 77.61 126.296 77.5807 126.289 77.5375C126.282 77.4943 126.311 77.4535 126.354 77.4464L127.266 77.2974C127.309 77.2903 127.35 77.3197 127.357 77.3629ZM136.868 77.38C136.885 77.3394 136.931 77.3199 136.971 77.3365L137.779 77.6656C137.819 77.6821 137.839 77.7284 137.822 77.769C137.806 77.8095 137.76 77.829 137.719 77.8125L136.912 77.4834C136.871 77.4668 136.851 77.4205 136.868 77.38ZM125.534 77.6609C125.541 77.7042 125.512 77.7449 125.468 77.752L125.013 77.8265C124.969 77.8336 124.929 77.8043 124.921 77.761C124.914 77.7178 124.944 77.677 124.987 77.67L125.443 77.5955C125.486 77.5884 125.527 77.6177 125.534 77.6609ZM150.176 77.666C150.186 77.7087 150.16 77.7514 150.117 77.7614L149.187 77.9808C149.144 77.9909 149.101 77.9645 149.091 77.9218C149.081 77.8792 149.107 77.8365 149.15 77.8264L150.081 77.607C150.123 77.597 150.166 77.6234 150.176 77.666ZM138.483 78.0382C138.5 77.9977 138.546 77.9782 138.586 77.9947L139.394 78.3238C139.435 78.3404 139.454 78.3866 139.437 78.4272C139.421 78.4678 139.375 78.4872 139.334 78.4707L138.527 78.1416C138.486 78.1251 138.467 78.0788 138.483 78.0382ZM148.315 78.1048C148.325 78.1475 148.299 78.1902 148.256 78.2002L147.326 78.4196C147.283 78.4297 147.24 78.4033 147.23 78.3607C147.22 78.318 147.247 78.2753 147.289 78.2653L148.22 78.0458C148.262 78.0358 148.305 78.0622 148.315 78.1048ZM146.454 78.5436C146.464 78.5863 146.438 78.629 146.395 78.639L145.465 78.8585C145.422 78.8685 145.38 78.8421 145.37 78.7995C145.359 78.7568 145.386 78.7141 145.429 78.7041L146.359 78.4847C146.402 78.4746 146.444 78.501 146.454 78.5436ZM140.098 78.6965C140.115 78.6559 140.161 78.6364 140.201 78.6529L141.009 78.9821C141.05 78.9986 141.069 79.0449 141.053 79.0854C141.036 79.126 140.99 79.1455 140.949 79.1289L140.142 78.7998C140.101 78.7833 140.082 78.737 140.098 78.6965ZM144.594 78.9825C144.604 79.0251 144.577 79.0678 144.535 79.0779L143.604 79.2973C143.561 79.3073 143.519 79.2809 143.509 79.2383C143.499 79.1956 143.525 79.1529 143.568 79.1429L144.498 78.9235C144.541 78.9134 144.583 78.9398 144.594 78.9825ZM141.713 79.3547C141.73 79.3141 141.776 79.2946 141.817 79.3112L142.197 79.4662L142.637 79.3623C142.68 79.3522 142.723 79.3786 142.733 79.4213C142.743 79.4639 142.716 79.5066 142.674 79.5167L142.209 79.6264C142.192 79.6302 142.176 79.6288 142.16 79.6226L141.757 79.4581C141.716 79.4415 141.697 79.3952 141.713 79.3547Z" fill="black"/>
<path d="M138.531 78.3591C138.166 78.7535 137.541 78.7535 137.177 78.3586C135.762 76.8248 134.461 75.2493 133.644 73.3268C132.576 70.8145 134.177 67.9518 136.95 67.3597C139.946 66.7198 142.745 69.2846 142.345 72.3228C142.215 73.313 141.707 74.1578 141.185 74.9857C140.424 76.1945 139.521 77.2883 138.531 78.3591ZM140.149 71.4814C140.151 70.1724 139.183 69.1788 137.9 69.1721C136.605 69.1653 135.574 70.1886 135.578 71.4765C135.583 72.7073 136.619 73.7455 137.848 73.7493C139.134 73.7531 140.148 72.7543 140.149 71.4814Z" fill="black"/>
<path d="M94.6049 73.2887H88.1602C87.5989 73.2887 87.144 72.8338 87.144 72.2725V69.1391C87.144 68.5778 87.5989 68.1229 88.1602 68.1229H94.6049C95.1662 68.1229 95.6211 68.5778 95.6211 69.1391V72.2725C95.6211 72.8338 95.1661 73.2887 94.6049 73.2887Z" fill="#7471FF"/>
<path d="M93.8864 72.0606H88.7528C88.4131 72.0606 88.1377 71.7852 88.1377 71.4455V69.5487C88.1377 69.2089 88.4131 68.9335 88.7528 68.9335H93.8864C94.2262 68.9335 94.5016 69.2089 94.5016 69.5487V71.4455C94.5016 71.7852 94.2262 72.0606 93.8864 72.0606Z" fill="white"/>
<path d="M99.7832 83.1506H82.8238C81.4121 83.1506 80.2676 82.0062 80.2676 80.5944V73.81C80.2676 72.3983 81.4121 71.2538 82.8238 71.2538H99.7832C101.195 71.2538 102.339 72.3983 102.339 73.81V80.5944C102.34 82.0062 101.195 83.1506 99.7832 83.1506Z" fill="#7471FF"/>
<path d="M97.8015 81.4313C100.094 79.1389 100.094 75.4222 97.8015 73.1297C95.5091 70.8373 91.7923 70.8373 89.4999 73.1298C87.2075 75.4222 87.2075 79.1389 89.4999 81.4313C91.7923 83.7238 95.5091 83.7237 97.8015 81.4313Z" fill="white"/>
<path fill-rule="evenodd" clip-rule="evenodd" d="M89.5591 73.1886C87.2992 75.4485 87.2992 79.1126 89.5591 81.3725C91.8191 83.6325 95.4832 83.6325 97.7431 81.3725C100.003 79.1126 100.003 75.4485 97.7431 73.1886C95.4832 70.9286 91.8191 70.9286 89.5591 73.1886ZM89.4415 81.4901C87.1166 79.1652 87.1166 75.3958 89.4415 73.0709C91.7664 70.7461 95.5358 70.7461 97.8607 73.0709C100.186 75.3958 100.186 79.1652 97.8607 81.4901C95.5358 83.815 91.7664 83.815 89.4415 81.4901Z" fill="#222221"/>
<path d="M93.652 81.639C96.0592 81.639 98.0106 79.6876 98.0106 77.2804C98.0106 74.8732 96.0592 72.9218 93.652 72.9218C91.2449 72.9218 89.2935 74.8732 89.2935 77.2804C89.2935 79.6876 91.2449 81.639 93.652 81.639Z" fill="#9694FF"/>
<path fill-rule="evenodd" clip-rule="evenodd" d="M93.6522 73.005C91.2909 73.005 89.3768 74.9191 89.3768 77.2804C89.3768 79.6416 91.2909 81.5558 93.6522 81.5558C96.0134 81.5558 97.9276 79.6416 97.9276 77.2804C97.9276 74.9191 96.0134 73.005 93.6522 73.005ZM89.2104 77.2804C89.2104 74.8273 91.1991 72.8386 93.6522 72.8386C96.1053 72.8386 98.0939 74.8273 98.0939 77.2804C98.0939 79.7335 96.1053 81.7221 93.6522 81.7221C91.1991 81.7221 89.2104 79.7335 89.2104 77.2804Z" fill="#222221"/>
<path d="M96.0191 79.6495C97.3275 78.3412 97.3275 76.2199 96.0191 74.9115C94.7108 73.6032 92.5895 73.6032 91.2811 74.9115C89.9728 76.2199 89.9728 78.3412 91.2811 79.6496C92.5895 80.9579 94.7108 80.9579 96.0191 79.6495Z" fill="white"/>
<path d="M85.8861 75.6131H83.3513C82.7336 75.6131 82.2329 75.1123 82.2329 74.4947V73.648C82.2329 73.0303 82.7336 72.5296 83.3513 72.5296H85.8861C86.5037 72.5296 87.0045 73.0303 87.0045 73.648V74.4947C87.0045 75.1124 86.5037 75.6131 85.8861 75.6131Z" fill="#C8B7FA"/>
<path fill-rule="evenodd" clip-rule="evenodd" d="M83.3514 72.6128C82.7797 72.6128 82.3162 73.0763 82.3162 73.648V74.4947C82.3162 75.0664 82.7797 75.5299 83.3514 75.5299H85.8863C86.458 75.5299 86.9215 75.0665 86.9215 74.4947V73.648C86.9215 73.0763 86.458 72.6128 85.8863 72.6128H83.3514ZM82.1499 73.648C82.1499 72.9844 82.6879 72.4464 83.3514 72.4464H85.8863C86.5498 72.4464 87.0878 72.9844 87.0878 73.648V74.4947C87.0878 75.1584 86.5498 75.6963 85.8863 75.6963H83.3514C82.6879 75.6963 82.1499 75.1583 82.1499 74.4947V73.648Z" fill="#222221"/>
<path d="M85.6933 75.1672H83.6096C83.1476 75.1672 82.7729 74.7926 82.7729 74.3305V73.8122C82.7729 73.3502 83.1475 72.9756 83.6096 72.9756H85.6933C86.1553 72.9756 86.5299 73.3501 86.5299 73.8122V74.3305C86.5299 74.7926 86.1553 75.1672 85.6933 75.1672Z" fill="black"/>
<path fill-rule="evenodd" clip-rule="evenodd" d="M94.5253 75.0816C94.5509 75.1101 94.5486 75.1539 94.5201 75.1795L91.7807 77.645C91.7523 77.6706 91.7084 77.6683 91.6828 77.6398C91.6572 77.6114 91.6595 77.5676 91.688 77.542L94.4274 75.0765C94.4558 75.0509 94.4997 75.0532 94.5253 75.0816Z" fill="#1E1E1E"/>
<path fill-rule="evenodd" clip-rule="evenodd" d="M95.66 77.3632C95.6856 77.3916 95.6833 77.4354 95.6549 77.461L93.9721 78.9756C93.9437 79.0012 93.8998 78.9989 93.8742 78.9704C93.8486 78.942 93.8509 78.8981 93.8794 78.8725L95.5621 77.358C95.5906 77.3324 95.6344 77.3347 95.66 77.3632Z" fill="#1E1E1E"/>
<path fill-rule="evenodd" clip-rule="evenodd" d="M95.738 75.8247C95.7639 75.8529 95.762 75.8967 95.7338 75.9226L94.1025 77.4196C94.0743 77.4455 94.0304 77.4436 94.0046 77.4154C93.9787 77.3872 93.9806 77.3434 94.0088 77.3175L95.6401 75.8205C95.6683 75.7946 95.7121 75.7965 95.738 75.8247Z" fill="#1E1E1E"/>
<path fill-rule="evenodd" clip-rule="evenodd" d="M93.4335 77.9394C93.4593 77.9676 93.4574 78.0114 93.4292 78.0373L92.4072 78.9751C92.379 79.001 92.3351 78.9991 92.3093 78.9709C92.2834 78.9427 92.2853 78.8989 92.3135 78.873L93.3355 77.9352C93.3637 77.9093 93.4076 77.9112 93.4335 77.9394Z" fill="#1E1E1E"/>
<path d="M80.3044 51.9525C83.7849 51.6053 86.8876 54.1454 87.2348 57.626C87.3809 59.0903 87.011 60.4849 86.2798 61.6383L87.47 64.6679L84.1934 63.6771C83.4146 64.1462 82.5263 64.4603 81.5614 64.5564C78.0809 64.9035 74.978 62.3634 74.6308 58.8829C74.2838 55.4026 76.8239 52.2996 80.3044 51.9525Z" fill="#7471FF"/>
<path fill-rule="evenodd" clip-rule="evenodd" d="M87.1508 57.6344C86.8082 54.2002 83.7468 51.694 80.3127 52.0365C76.8786 52.379 74.3724 55.4406 74.7148 58.8745C75.0573 62.3087 78.1188 64.8149 81.553 64.4724C82.5047 64.3776 83.3811 64.0679 84.1498 63.6048L84.1819 63.5854L87.3277 64.5368L86.1855 61.6293L86.2085 61.5931C86.9301 60.4548 87.2949 59.079 87.1508 57.6344ZM80.2959 51.8685C83.8229 51.5167 86.9669 54.0907 87.3188 57.6176C87.4653 59.0862 87.0996 60.4856 86.3739 61.6471L87.6122 64.7991L84.2046 63.7687C83.4235 64.2333 82.5344 64.5443 81.5697 64.6404C78.0428 64.9921 74.8985 62.4182 74.5468 58.8912C74.1951 55.3646 76.7691 52.2202 80.2959 51.8685Z" fill="#222221"/>
<path d="M80.8863 56.778C81.2367 56.4463 81.6185 56.1799 82.0931 56.0772C83.0354 55.8735 83.8977 56.4909 84.024 57.4491C84.1239 58.2071 83.8538 58.8494 83.4102 59.434C82.8465 60.1771 82.0858 60.6733 81.2878 61.1303C80.99 61.3008 80.7608 61.2947 80.4675 61.1276C79.6685 60.6725 78.9116 60.1723 78.3446 59.4314C78.0088 58.9926 77.7752 58.5083 77.7201 57.95C77.6362 57.1002 78.1026 56.2328 79.0101 56.0624C79.5565 55.9599 80.0412 56.1391 80.4818 56.4536C80.6187 56.5513 80.7448 56.6638 80.8863 56.778Z" fill="white"/>
</svg>
