<svg width="18" height="15" viewBox="0 0 18 15" fill="none" xmlns="http://www.w3.org/2000/svg">
<path d="M14.5976 6.54923L12.4065 7.09613C12.3599 7.10807 12.3108 7.10621 12.2653 7.0908C12.2197 7.07538 12.1796 7.04706 12.1499 7.00928L9.74793 4.0065C9.60721 3.84336 9.43298 3.71248 9.23711 3.62276C9.04124 3.53304 8.82832 3.4866 8.61288 3.4866C8.39744 3.4866 8.18453 3.53304 7.98866 3.62276C7.79278 3.71248 7.61855 3.84336 7.47783 4.0065L5.07513 7.01007C5.04451 7.04698 5.00418 7.07459 4.9587 7.0898C4.91322 7.10501 4.86439 7.10721 4.81772 7.09614L2.62818 6.54923C2.45616 6.50623 2.27594 6.50848 2.10505 6.55577C1.93416 6.60306 1.77842 6.69378 1.65298 6.8191C1.52754 6.94442 1.43668 7.10008 1.38924 7.27093C1.34179 7.44177 1.33937 7.62199 1.38222 7.79405L2.75374 13.2786C2.83171 13.5934 3.01297 13.873 3.26855 14.0727C3.52412 14.2724 3.83927 14.3807 4.16361 14.3802H13.0617C13.3861 14.3807 13.7012 14.2724 13.9568 14.0727C14.2124 13.873 14.3936 13.5934 14.4716 13.2786L15.8431 7.79405C15.886 7.62203 15.8836 7.44184 15.8362 7.27102C15.7887 7.1002 15.6979 6.94457 15.5725 6.81925C15.4471 6.69393 15.2914 6.6032 15.1206 6.55589C14.9497 6.50857 14.7696 6.50628 14.5976 6.54923Z" fill="white"/>
<path d="M1.20175 5.91632C1.86546 5.91632 2.4035 5.37828 2.4035 4.71457C2.4035 4.05086 1.86546 3.51282 1.20175 3.51282C0.538042 3.51282 0 4.05086 0 4.71457C0 5.37828 0.538042 5.91632 1.20175 5.91632Z" fill="white"/>
<path d="M16.0233 5.91632C16.687 5.91632 17.2251 5.37828 17.2251 4.71457C17.2251 4.05086 16.687 3.51282 16.0233 3.51282C15.3596 3.51282 14.8216 4.05086 14.8216 4.71457C14.8216 5.37828 15.3596 5.91632 16.0233 5.91632Z" fill="white"/>
<path d="M8.61252 2.51135C9.27623 2.51135 9.81427 1.97331 9.81427 1.3096C9.81427 0.645891 9.27623 0.107849 8.61252 0.107849C7.94881 0.107849 7.41077 0.645891 7.41077 1.3096C7.41077 1.97331 7.94881 2.51135 8.61252 2.51135Z" fill="white"/>
</svg>
