<svg width="32" height="28" viewBox="0 0 32 28" fill="none" xmlns="http://www.w3.org/2000/svg">
<path d="M26.2975 27.6522H5.81926C2.67927 27.6522 0.130859 25.1038 0.130859 21.9638V6.03624C0.130859 2.89624 2.67927 0.347839 5.81926 0.347839H11.5077C11.8148 0.347839 12.0993 0.472984 12.3154 0.677767L16.5362 4.89856H26.3089C29.4489 4.89856 31.9973 7.44697 31.9973 10.587V21.9638C31.9973 25.1038 29.4489 27.6522 26.3089 27.6522H26.2975ZM5.81926 2.6232C3.94209 2.6232 2.40622 4.15907 2.40622 6.03624V21.9638C2.40622 23.841 3.94209 25.3768 5.81926 25.3768H26.2975C28.1747 25.3768 29.7106 23.841 29.7106 21.9638V10.587C29.7106 8.70979 28.1747 7.17392 26.2975 7.17392H16.0584C15.7512 7.17392 15.4668 7.04878 15.2506 6.844L11.0298 2.6232H5.80789H5.81926Z" fill="#1E1E1E"/>
<path opacity="0.3" d="M20.6092 21.9637H11.5078C10.8821 21.9637 10.3701 21.4518 10.3701 20.826C10.3701 20.2003 10.8821 19.6884 11.5078 19.6884H20.6092C21.235 19.6884 21.7469 20.2003 21.7469 20.826C21.7469 21.4518 21.235 21.9637 20.6092 21.9637Z" fill="#1E1E1E"/>
</svg>
