<svg width="48" height="42" viewBox="0 0 48 42" fill="none" xmlns="http://www.w3.org/2000/svg">
<path d="M25.2074 14.3335H11.6897C10.6759 14.3335 10 13.6576 10 12.6438C10 11.63 10.6759 10.9541 11.6897 10.9541H25.2074C26.2213 10.9541 26.8972 11.63 26.8972 12.6438C26.8972 13.6576 26.2213 14.3335 25.2074 14.3335Z" fill="#1E1E1E"/>
<path d="M35.3457 22.713H11.6897C10.6759 22.713 10 22.0371 10 21.0232C10 20.0094 10.6759 19.3335 11.6897 19.3335H35.3457C36.3596 19.3335 37.0354 20.0094 37.0354 21.0232C37.0354 22.0371 36.3596 22.713 35.3457 22.713Z" fill="#1E1E1E"/>
<path d="M25.2074 31.0924H11.6897C10.6759 31.0924 10 30.4165 10 29.4027C10 28.3888 10.6759 27.713 11.6897 27.713H25.2074C26.2213 27.713 26.8972 28.3888 26.8972 29.4027C26.8972 30.4165 26.2213 31.0924 25.2074 31.0924Z" fill="#1E1E1E"/>
</svg>
