<svg width="160" height="100" viewBox="0 0 160 100" fill="none" xmlns="http://www.w3.org/2000/svg">
<rect width="160" height="100" rx="16" fill="#9350E9"/>
<g opacity="0.04">
<mask id="mask0_1_751" style="mask-type:alpha" maskUnits="userSpaceOnUse" x="0" y="0" width="161" height="100">
<rect x="0.000228882" width="160" height="100" rx="16" fill="#9350E9"/>
</mask>
<g mask="url(#mask0_1_751)">
<path d="M107.267 160C105.937 159.506 104.493 159.419 103.112 159.256C97.5331 158.596 92.03 157.077 86.3528 157.487C83.0076 157.728 79.684 158.262 76.34 158.537C74.8565 158.658 74.0365 157.638 73.4833 156.326C72.9161 154.98 72.4745 153.16 70.5593 153.483C68.1385 153.89 67.4569 155.912 67.2113 158.09C67.1757 158.405 67.1169 158.718 67.0689 159.031C66.7977 158.846 66.4913 158.698 66.2613 158.471C62.6649 154.931 62.9801 150.038 67.9289 147.936C75.4244 144.752 79.5644 138.769 83.6912 132.437C85.3584 129.879 87.6652 127.731 90.9944 129.322C94.4324 130.964 93.7904 134.363 93.1564 137.152C91.4596 144.619 93.5632 152.04 98.3455 154.072C102.659 155.906 107.353 156.168 111.832 157.314C113.971 157.862 116.006 158.645 117.746 160H126.17C123.703 158.662 121.251 157.291 118.727 156.071C114.629 154.09 110.127 153.525 105.735 152.536C99.0631 151.035 96.0251 144.274 97.3563 136.833C99.1043 127.062 106.061 121.782 113.137 116.358C119.335 111.607 124.861 106.362 124.75 97.7003C124.68 92.2412 122.295 87.7124 118.523 83.9156C112.843 78.1976 113.567 71.9097 116.459 65.2137C119.337 58.5501 121.464 51.7534 118.833 44.3822C117.787 41.4534 115.411 40.0106 113.142 38.341C109.189 35.4335 109.079 32.6363 113.406 30.3419C118.712 27.5279 121.137 23.3303 122.213 17.5952C123.556 10.438 129.548 8.1648 136.544 11.5308C141.463 13.8972 145.444 17.8292 150.59 19.7851C153.757 20.9891 156.894 20.9743 160.001 19.7851V15.1168C150.75 19.5411 144.284 13.8196 137.73 8.4812C133.752 5.24082 129.429 3.79762 124.22 4.94402C122.464 5.33042 119.301 5.88761 119.283 3.00163C119.265 0.134842 121.993 0.337241 124.125 0.000442505H112.841C113.137 4.88722 115.341 9.33879 116.131 14.1164C117.227 20.7487 113.834 25.2051 109.021 28.9671C107.381 30.2483 105.71 31.5179 103.924 32.5739C102.022 33.6987 99.5307 34.9599 98.2023 32.3519C96.8319 29.6619 99.5503 28.4787 101.434 27.4615C105.07 25.4983 109.609 24.8027 110.801 19.7715C112.001 14.7048 110.145 10.0524 109.179 5.26322C108.828 3.52283 108.6 1.75763 108.331 0.000442505H104.01C104.612 1.83123 105.227 3.65842 105.804 5.49721C107.332 10.3644 109.388 15.346 105.344 19.9283C102.638 22.9955 98.6683 24.7735 96.2683 28.1835C92.9804 32.8555 89.5596 37.3011 84.0016 39.5186C82.7136 40.0326 80.8808 40.5506 80.984 42.2514C81.096 44.095 82.9364 44.8578 84.4016 45.6614C88.9084 48.1322 94.028 47.3814 98.8199 48.3598C101.274 48.8606 103.824 49.5054 104.722 52.223C105.407 54.2954 104.103 55.9938 102.545 57.0502C99.4727 59.1333 96.278 61.0681 92.9948 62.8009C85.0584 66.9901 78.0188 72.1081 74.0669 80.5028C73.0081 82.7516 72.1601 85.2296 73.5829 87.6468C74.3633 88.9724 75.8108 89.4732 77.3452 89.2688C80.1668 88.8928 82.442 87.2832 84.764 85.8028C89.5836 82.73 94.2812 79.04 100.163 78.688C106.444 78.3124 111.107 82.6948 116.118 85.6792C120.363 88.208 122.944 92.1348 122.139 97.2996C120.657 106.815 114.735 113.343 107.011 118.423C104.568 120.03 101.746 121.511 98.8007 119.951C96.0847 118.513 96.4679 115.643 96.9939 113.238C98.1195 108.095 96.2207 105.036 91.7792 102.232C86.0772 98.6339 85.9672 95.6108 90.6084 91.5456C93.9744 88.5976 97.8879 85.5228 102.541 86.3408C109.675 87.5952 113.385 93.1552 113.48 100.88C113.492 101.874 113.272 103.203 114.573 103.643C114.985 103.782 115.787 103.394 116.128 103.002C117.489 101.436 118.026 99.5107 118.163 97.472C118.547 91.7848 114.577 89.2272 110.398 87.0104C107.124 85.274 104.156 82.2972 100.072 82.9716C94.6748 83.8632 90.9824 88.2072 86.1828 90.3972C82.0004 92.3056 81.4 94.9428 84.308 98.5307C85.6192 100.148 87.242 101.595 88.9516 102.793C95.5911 107.444 96.3703 110.698 92.0028 116.648C89.74 119.73 86.8052 122.494 85.2648 125.896C81.7336 133.697 76.85 139.445 68.4657 142.482C59.5153 145.725 56.9541 153.96 62.2393 159.999H107.267L107.267 160ZM81.3112 83.998C80.1392 85.154 78.1508 86.7892 76.86 85.102C75.0053 82.678 77.4652 80.7056 78.964 79.09C85.3436 72.2137 93.4512 67.5557 100.994 62.1657C103.976 60.0353 106.749 57.4674 107.629 53.7146C108.437 50.273 105.611 49.1582 103.25 47.8658C102.546 47.4806 101.348 47.3642 101.472 46.4134C101.518 46.0678 102.998 45.7134 103.829 45.7006C108.353 45.631 111.246 48.3606 111.246 53.8494C110.845 59.1333 106.676 63.3865 101.781 66.7421C94.3596 71.8297 87.6884 77.7085 81.3108 83.998H81.3112ZM93.9068 77.5773C93.6796 77.6481 93.4352 77.6645 93.1988 77.7061C93.2828 77.4541 93.3168 77.1689 93.4588 76.9557C96.4839 72.4045 101.474 70.2477 105.653 67.1445C111.901 62.5049 115.632 53.6162 112.969 48.3666C110.974 44.4354 107.606 42.8058 102.688 42.8138C100.208 42.785 97.3191 43.8122 94.386 44.6486C93.1408 45.0038 91.4716 45.7498 90.7736 44.2982C90.0932 42.8826 91.662 42.0358 92.7708 41.4454C101.425 36.8351 114.684 38.0578 117.409 49.3066C119.029 55.9942 115.998 61.5905 111.939 66.5597C107.253 72.2969 100.838 75.4125 93.9072 77.5777L93.9068 77.5773Z" fill="white"/>
<path d="M99.3212 0.000442505H96.0708C98.1056 2.46763 99.6859 5.14322 100.097 8.4444C100.609 12.5552 99.7188 16.348 96.7316 19.1467C91.428 24.1155 88.074 30.8435 82.1376 35.1819C77.6941 38.4291 72.9121 37.5855 68.4133 35.4975C63.0669 33.0159 58.0002 33.4731 52.8662 35.8415C52.5462 35.9891 52.1742 36.0239 51.8266 36.1115C51.9198 35.7519 51.9638 35.3699 52.1138 35.0359C53.901 31.0607 60.9121 29.5019 66.2697 31.8003C71.6361 34.1031 77.0073 37.1035 82.6608 32.4387C86.5172 29.2567 88.7668 24.8059 91.7628 20.9431C94.04 18.0068 97.2012 15.532 97.368 11.4596C97.59 6.04761 94.6876 2.53043 90.3784 0.000842503H68.7445C70.7881 0.706839 72.8245 1.43884 74.9009 2.03003C78.8337 3.15003 82.7424 1.40364 86.6704 1.75643C90.508 2.10083 93.3452 4.14442 95.1884 7.46601C96.3208 9.506 96.2848 11.6228 94.9112 13.6376C94.372 14.4284 93.6688 14.916 92.7528 14.7784C91.6572 14.614 91.2084 13.6988 90.9688 12.7248C89.3448 6.12561 87.4492 4.73562 80.9021 6.55041C76.6265 7.7356 73.4573 5.50402 70.0117 4.10082C62.5233 1.05124 55.125 5.82681 55.0906 13.8688C55.0822 15.8088 54.9566 17.7536 54.775 19.6859C54.6482 21.0319 54.3858 22.5787 52.5382 22.3183C50.8494 22.0803 50.2266 20.5187 50.2782 19.1087C50.565 11.312 52.0606 2.25243 61.2105 0.0012425H54.4134C49.6898 5.97641 47.6686 12.8328 48.4094 20.4183C48.6866 23.2535 50.2474 25.9063 53.5954 25.4147C57.2202 24.8823 56.7418 21.4191 57.1254 18.8155C57.8202 14.1012 57.1482 8.7732 62.4801 6.13081C66.0013 4.38562 69.3629 5.58441 72.2209 7.7748C74.6861 9.66399 77.0573 10.368 80.2517 10.0324C87.3116 9.2908 89.842 12.7992 88.1304 20.2271C86.5676 27.0099 81.062 32.8443 76.2041 32.7399C72.5777 32.6619 69.9157 30.1107 66.7509 28.8447C60.5801 26.3759 55.6086 29.0483 50.929 32.7651C43.8206 38.4107 36.2075 42.957 26.8955 43.769C26.0311 43.8442 25.0035 43.7162 24.8063 42.7594C24.5859 41.689 25.6555 41.391 26.4443 41.1118C30.7863 39.5766 35.3363 38.6159 39.3923 36.2951C45.4666 32.8195 46.1454 27.5207 45.1214 21.1819C43.9134 13.7052 45.6082 6.59361 49.3642 0.0020425H45.7906C42.9122 7.18721 43.337 14.8036 42.9774 22.3251C42.7682 26.7043 41.8226 30.9103 38.6395 34.1775C32.0567 40.9338 22.1619 40.6498 14.85 33.6995C13.8556 32.7543 12.5476 30.8455 11.088 32.0671C9.612 33.3027 11.0852 34.8751 11.9836 36.1163C12.5968 36.9639 13.2032 37.8287 13.9124 38.5927C17.6788 42.6498 21.0503 47.4034 27.6083 46.7682C31.5887 46.3826 34.6963 43.9178 38.1295 42.251C45.561 38.6431 53.059 43.297 53.059 51.5814C53.059 61.8261 42.5646 69.0501 31.9855 66.8373C24.6651 65.3061 18.1808 61.5505 10.9144 60.0285C6.82401 59.1717 1.89924 61.9673 0.880044 66.0561C0.0264478 69.4809 2.41004 72.3797 6.79401 73.5629C13.0124 75.2413 18.8092 77.5997 22.9043 83.0512C27.2099 88.7832 28.7479 88.9792 34.8339 84.7424C39.8895 81.2232 45.0858 79.6228 51.1814 81.8468C56.7562 83.8808 59.0714 82.3864 59.1246 76.4625C59.193 68.8589 62.6965 63.9753 69.6369 61.2817C75.6069 58.965 78.7329 53.3294 77.2341 47.2306C76.4345 43.977 73.8261 42.703 70.7805 43.3974C68.0633 44.017 69.0597 46.449 69.4409 48.2302C70.4757 53.0658 70.1137 57.3862 65.6741 60.5241C62.8649 62.5097 60.2081 64.6509 58.8754 68.0005C57.8602 70.5525 56.7786 73.0933 54.8522 75.1085C50.601 79.5556 44.8566 78.8077 39.5207 79.3453C28.1491 80.4904 18.75 75.1077 9.3224 69.9445C7.48601 68.9389 5.29162 67.4989 6.76201 65.0729C8.15641 62.7729 10.5868 63.5441 12.4968 64.6909C18.864 68.5129 25.0483 72.5377 32.5823 74.0097C39.0187 75.2673 45.5362 73.6789 48.5234 69.6021C54.271 61.7577 55.7626 52.8814 55.4518 43.431C55.261 37.6339 58.5934 35.0175 64.0925 36.8611C72.8993 39.8142 80.9304 39.6098 87.5868 32.2451C91.0332 28.4323 93.7268 23.9283 97.9404 20.8219C101.622 18.1076 103.338 14.6416 102.621 9.99199C102.076 6.45761 100.611 3.26523 99.3196 0.0012425L99.3212 0.000442505Z" fill="white"/>
<path d="M110.537 147.163C118.196 149.808 124.535 154.918 131.798 158.281C133.091 158.88 134.402 159.44 135.714 160H141.125C140.846 159.958 140.571 159.906 140.309 159.855C133.775 158.569 128.599 155.015 124.035 150.251C116.716 142.61 118.305 125.843 126.949 119.803C131.751 116.447 136.419 112.888 141 109.235C142.35 108.158 143.605 105.993 142.02 104.663C140.377 103.284 139.689 105.713 138.71 106.715C136.927 108.54 135.304 110.613 133.247 112.061C125.307 117.65 118.152 123.748 116.188 133.982C115.841 135.789 115.054 137.667 112.754 137.054C110.974 136.579 110.872 134.765 111.193 133.202C112.952 124.65 118.638 118.894 125.105 113.673C128.794 110.696 133.278 108.411 135.041 103.6C136.495 99.6319 134.428 95.7703 134.244 91.8336C134.092 88.5776 134.718 84.978 132.594 82.2248C131.012 80.1724 128.245 79.0156 126.737 76.9296C122.688 71.3289 124.071 65.0141 125.592 59.0333C127.267 52.4486 128.761 46.0258 127.183 39.1658C125.71 32.759 125.798 26.3367 128.744 20.2359C129.256 19.1747 130.056 18.1879 131.391 18.4707C132.772 18.7631 132.951 19.9887 132.945 21.1935C132.921 26.1435 131.437 30.9671 131.946 35.9946C132.423 40.7154 135.575 44.189 139.169 43.335C145.414 41.8506 152.306 45.1038 154.531 51.0762C156.738 57.0029 155.505 63.4781 156.848 69.5845C157.48 72.4625 157.905 75.4236 160 77.6588V68.2609C158.839 65.1025 158.559 61.7469 158.491 58.4489C158.278 48.0638 153.577 41.3638 143.544 38.211C137.122 36.193 134.94 31.8755 135.34 23.1763C135.482 20.0827 136.501 16.4335 132.331 15.5723C128.478 14.7763 127.447 18.3543 126.308 21.0947C124.698 24.9667 122.254 28.1671 119.408 31.2175C116.521 34.3114 119.565 36.5614 121.164 38.8194C126.468 46.305 125.676 54.4201 122.2 61.8861C118.185 70.5105 119.917 76.9164 126.151 83.5472C132.464 90.2616 133.254 100.784 128.48 107.21C124.752 112.228 118.938 115.097 114.591 119.525C109.414 124.797 103.32 129.62 102.372 137.594C101.694 143.291 106.032 145.607 110.537 147.163Z" fill="white"/>
<path d="M98.5984 53.2917C98.5172 52.8798 97.7512 52.4102 97.23 52.3078C92.854 51.4478 88.3 51.5998 84.0809 49.7966C82.5793 49.1546 81.8213 50.2546 81.7013 51.6018C81.1169 58.1453 78.2177 62.8197 71.7221 65.0625C67.9286 66.3721 64.1586 68.2789 63.2666 72.6625C62.6426 75.728 62.8806 78.9784 62.8226 82.148C62.749 86.1956 60.6398 88.1224 56.739 87.37C53.2886 86.704 49.9098 85.352 46.4467 85.1296C39.0011 84.6516 34.4667 89.6988 30.3091 94.8683C28.3396 97.3171 28.6787 100.074 31.1739 102.212C32.8215 103.625 34.5851 103.11 36.1507 101.992C38.0195 100.658 39.5999 98.7299 41.6447 97.8623C52.2738 93.3515 62.5946 95.5107 72.0769 100.897C80.5213 105.693 82.3621 112.221 78.5161 118.661C74.9561 124.622 68.8373 126.34 62.8434 128.352C54.8302 131.042 47.8027 134.796 45.6343 144.042C44.4647 149.03 41.9531 153.226 36.3867 154.094C31.3551 154.878 28.1684 151.54 25.0168 148.251C22.352 145.47 19.8804 142.336 16.1108 140.953C9.53125 138.54 4.64647 141.833 0.00169373 145.776V151.52C1.37889 149.508 2.64688 147.408 4.72047 145.977C10.8664 141.735 16.1168 142.741 20.7556 148.762C23.9012 152.846 27.2796 156.75 31.3163 160.001H46.4163C44.1791 150.588 48.3915 143.32 54.8086 136.982C58.9062 132.934 64.5882 131.445 69.5529 128.793C76.1365 125.277 81.6893 120.761 83.1589 112.894C84.2369 107.125 80.1461 104.317 76.2625 101.407C73.4517 99.2999 69.8617 97.8331 69.2425 93.7367C69.1441 93.0855 69.4981 92.3659 69.6429 91.678C69.9673 91.8335 70.3765 91.9123 70.5997 92.1595C71.1097 92.7243 71.5033 93.3927 71.9893 93.9819C75.0545 97.6983 78.9765 100.445 82.6789 103.443C87.7404 107.541 87.5849 112.497 83.5421 119.618C78.2513 128.937 69.4481 133.574 60.6646 138.383C54.207 141.919 48.1967 151.892 51.7466 160.001H56.7578C52.2414 150.598 57.2654 140.697 66.5454 137.545C70.6293 136.158 75.1245 135.463 77.9213 131.57C81.1781 127.036 82.9349 121.568 86.8481 117.427C88.7008 115.466 90.6808 113.37 90.36 110.36C89.936 106.382 86.4517 104.773 83.8637 102.524C79.0769 98.3639 73.2541 94.9187 71.2461 88.5336C68.5397 79.9276 73.1217 73.356 78.5389 67.3485C83.6589 61.6705 90.888 59.2297 97.226 55.4209C98 54.9557 98.794 54.2841 98.5984 53.2933V53.2917ZM72.5841 71.9997C69.9657 76.7392 69.0385 81.904 68.2482 87.1892C67.311 93.4539 62.6598 96.3751 56.4882 93.8395C48.3095 90.4796 41.5059 91.4076 35.4255 97.8387C34.7375 98.5663 33.3059 99.6287 32.7107 98.5747C31.6823 96.7535 33.2783 95.2091 34.4163 93.8943C40.2191 87.1896 47.0515 86.0852 55.1738 89.5668C58.2934 90.904 62.6454 92.7668 64.5518 87.6228C65.5258 84.9948 65.4266 81.9684 65.8126 79.1224C65.9774 75.7172 65.7634 72.1457 68.5081 69.5173C69.6709 68.4037 71.2381 67.3245 72.7361 68.2929C74.2061 69.2429 73.2297 70.8313 72.5841 71.9997Z" fill="white"/>
<path d="M74.9849 112.492C73.9109 111.457 72.5141 114.241 71.3953 115.438C68.9885 118.013 66.2018 119.503 62.7274 118.063C59.4702 116.714 56.3066 115.919 52.855 117.253C45.7507 119.997 39.6647 124.927 31.8675 126.308C25.2004 127.489 17.5488 123.821 15.4744 117.379C13.848 112.328 15.1728 106.939 13.9072 101.82C11.8836 93.6359 8.08005 86.8391 0.00169373 83.3184V87.1187C6.10766 90.1147 8.88245 95.6707 10.4176 101.847C12.4944 110.2 13.6908 118.775 10.98 127.179C9.31685 132.335 4.94327 135.013 0.00169373 136.699V139.976C11.3496 131.506 20.2944 134.288 28.7003 143.978C33.1387 149.094 37.7639 149.112 40.2555 142.834C43.9827 133.442 49.7586 126.618 59.7378 123.759C64.5158 122.39 69.8877 122.302 73.5073 118.135C74.9261 116.502 76.6901 114.135 74.9853 112.493L74.9849 112.492ZM56.9646 121.929C50.4054 125.375 45.3087 130.891 38.9659 134.626C36.7023 135.959 34.2047 136.616 31.2439 136.631C26.9768 136.468 22.8668 134.834 19.1044 132.308C18.3 131.768 17.1852 130.956 17.8364 129.723C18.6968 128.093 20.2932 128.274 21.654 128.832C31.7803 132.989 39.7347 128.193 47.6131 122.739C50.2682 120.901 53.021 119.049 56.5506 119.341C57.2982 119.403 57.9774 119.745 57.9726 120.349C57.9682 120.89 57.4634 121.667 56.9642 121.929L56.9646 121.929Z" fill="white"/>
<path d="M67.7793 103.13C60.1258 99.8639 52.0374 101.043 44.0843 101.661C42.4651 101.787 40.7639 103.286 41.0815 105.24C41.2919 106.533 43.0411 106.334 44.0679 106.085C49.8298 104.688 55.6282 103.819 61.5386 104.755C63.2906 105.032 65.9878 104.826 65.9818 107.321C65.9754 109.919 63.4186 109.721 61.5846 109.559C56.1614 109.079 50.8162 108.487 45.4491 110.347C34.1943 114.246 27.576 111.366 24.78 99.7875C21.4772 86.11 13.1104 78.9872 0.00169373 76.4508V78.6324C0.0908933 78.6464 0.179293 78.664 0.264492 78.6912C11.3136 82.2116 20.1348 95.2639 20.6952 108.672C20.8744 112.959 21.6812 117.245 25.8104 119.608C30.5343 122.311 34.9607 120.269 38.9475 117.735C46.3335 113.042 53.5022 108.593 62.9054 112.434C65.4538 113.475 68.7409 112.27 70.1177 109.293C71.3029 106.729 70.1461 104.139 67.7793 103.129V103.13Z" fill="white"/>
<path d="M47.5323 46.3782C45.5183 43.4438 41.2963 43.083 37.6199 45.6914C34.6215 47.8186 32.1171 50.7634 28.076 51.0261C21.7372 51.4381 17.6864 47.5266 13.6752 43.483C8.22205 37.9858 6.62926 37.6586 0.00169373 41.047V46.4002C6.28766 43.2806 10.9596 47.2822 15.9692 50.2054C24.864 55.3957 30.5967 54.7781 39.2783 48.0742C40.4907 47.1378 42.1391 45.829 43.3851 47.2494C44.8931 48.969 43.6051 50.9241 42.2695 52.2377C36.2771 58.1325 28.9959 58.2841 21.3204 56.8177C16.1692 55.8337 12.0544 52.3645 7.03206 51.1357C4.45407 50.505 2.19728 51.3829 0.00209372 52.5341V57.4513C2.45368 55.4541 5.18887 53.8277 8.40445 54.8141C13.5412 56.3901 18.4288 58.8137 23.596 60.2501C30.7591 62.2413 38.0711 63.7689 44.9155 58.9041C48.7607 56.1709 50.0874 50.0998 47.5327 46.3778L47.5323 46.3782Z" fill="white"/>
<path d="M160.001 83.86C158.977 82.7448 157.895 81.6672 157.094 80.41C152.876 73.7904 152.751 66.1512 152.002 58.7017C151.32 51.9217 145.649 47.2121 139.084 48.1869C133.502 49.0157 129.379 54.5597 129.141 61.2077C128.989 65.4512 128.081 69.7612 130.771 73.5788C132.219 75.6352 135.286 75.6924 136.555 77.9848C138.398 81.312 137.252 84.9563 137.487 88.4519C137.795 93.0375 139.05 97.1283 143.06 99.8243C148.971 103.799 152.923 103.27 160.001 97.5147V83.86ZM153.239 100.025C148.92 101.191 145.592 99.2779 143.037 95.9235C140.765 92.9395 140.38 89.3723 140.347 85.7503C140.332 81.6524 141.542 77.1672 137.708 74.0748C135.526 72.3152 132.385 71.936 131.407 68.5332C129.419 61.6201 133.126 53.2645 139.218 51.5845C143.989 50.2689 148.404 54.1253 149.95 60.7693C151.562 67.6956 150.814 75.1552 154.517 81.5976C156.302 84.7019 158.755 87.5119 158.875 91.3151C159.006 95.4683 157.596 98.8483 153.239 100.025Z" fill="white"/>
<path d="M32.6597 0.000399998H25.921C24.629 2.43199 23.1934 4.80438 22.1558 7.34036C20.3914 11.6539 21.7294 15.1079 25.6046 17.6763C27.0854 18.6575 28.9026 19.5151 28.939 21.6551C28.9482 22.1871 28.3366 23.0691 27.843 23.2123C25.561 23.8755 23.7034 22.7331 22.1854 21.2439C16.0526 15.2279 15.053 7.77996 19.2462 0.291999C19.2986 0.198399 19.3422 0.1004 19.3826 0.000399998H16.3458C13.2998 6.53317 14.7754 17.1063 19.6678 22.3567C22.0822 24.9479 24.937 27.0343 28.6894 25.4571C31.9057 24.1055 32.0801 20.9571 31.9469 18.0323C31.6717 11.9903 31.2646 5.95997 32.6597 0V0.000399998Z" fill="white"/>
<path d="M160 25.0711C154.896 27.7135 150.666 25.4571 146.344 22.4771C144.554 21.2427 142.162 17.5503 139.963 21.2075C138.252 24.0519 139.175 27.6767 141.546 30.3987C144.644 33.9567 149.311 34.8931 153.182 37.167C155.807 38.7094 157.981 40.7186 160 42.9258V25.0707L160 25.0711Z" fill="white"/>
<path d="M41.1039 0.000442505H37.9615C37.7939 0.48604 37.6215 0.970038 37.4959 1.46604C35.7671 8.3152 37.1763 15.3776 36.0887 22.2771C35.3455 26.9907 31.7519 31.4583 27.4631 32.2099C23.5743 32.8911 20.2664 31.2659 18.1528 28.0527C12.5512 19.5351 9.86281 10.2396 11.3156 0.000442505H8.00041C7.88722 0.57724 7.74642 1.15604 7.78842 1.72123C8.54321 11.942 11.6208 21.6707 16.9672 30.1511C21.2971 37.0191 29.1591 39.0846 35.4803 31.3943C39.6299 26.3463 40.1423 20.3595 40.1931 14.1768C40.2318 9.44039 39.5863 4.63562 41.1039 0.000442505Z" fill="white"/>
<path d="M6.18446 103.577C5.40447 99.4291 3.79527 95.5615 0.00169373 93.1559V98.7795C3.20168 103.004 3.58608 108.016 3.66328 113.087C3.71648 116.591 2.68528 119.676 0.00169373 122.007V130.551C2.38328 129.65 3.97607 127.823 5.06807 125.623C8.62245 118.465 7.57566 110.975 6.18446 103.576V103.577Z" fill="white"/>
<path d="M8.65796 18.6889C7.16517 12.4553 3.53919 6.71575 4.10518 0.000579834H1.7184C1.0812 4.64816 3.16119 8.73774 4.58118 12.9501C6.97317 20.0453 5.42118 26.2076 0.00120544 30.838V35.6704C5.86318 34.4052 10.2952 25.5285 8.65756 18.6889H8.65796Z" fill="white"/>
<path d="M160.001 3.24563C158.009 4.59962 156.24 6.31641 153.797 6.93801C148.595 8.2616 144.844 5.61681 141.265 2.43563C140.325 1.60043 139.351 0.804839 138.384 0.000442505H130.073C133.89 0.59364 137.056 2.69443 140.104 5.04882C146.129 9.70279 152.192 14.0864 160.001 9.3736V3.24563Z" fill="white"/>
<path d="M145.661 0.000442505C147.206 1.60763 148.858 3.10523 151.219 3.27923C153.808 3.47043 155.36 1.78963 156.794 0.000442505H145.661Z" fill="white"/>
<path d="M1.57289 14.9247C1.31209 12.9367 1.09489 10.8719 0.00169373 9.10395V24.7891C0.0208936 24.7699 0.0384935 24.7499 0.0516935 24.7271C1.87208 21.6683 2.01528 18.2999 1.57289 14.9247Z" fill="white"/>
<path d="M108.887 101.9C108.515 104.9 108.753 108.951 104.577 110.573C101.895 111.615 102.498 109.072 102.292 107.693C101.741 104.007 99.5679 101.461 96.6827 99.3563C95.6223 98.5827 93.8895 97.9951 94.1887 96.4583C94.5995 94.3487 96.6083 93.4415 98.4291 92.7807C104.885 90.4379 108.887 93.7423 108.887 101.9Z" fill="white"/>
<path d="M65.6436 51.6646C65.7688 54.9314 64.8128 57.5165 61.3036 58.4373C59.1344 59.0065 58.7264 57.4521 58.7604 55.9557C58.8588 51.5774 59.0916 47.1998 59.3848 42.8294C59.4568 41.7558 59.7832 40.423 61.1756 40.3546C63.1712 40.2566 63.6448 42.0346 64.178 43.4238C65.1888 46.057 65.6752 48.823 65.6436 51.6646Z" fill="white"/>
<path d="M74.9305 28.6002C71.2721 26.3215 66.6753 24.1651 62.9961 20.9547C59.7209 18.0967 60.7197 11.1979 64.0109 9.83714C67.1797 8.52714 69.2053 11.0579 71.3817 12.6587C73.8965 14.5083 76.4897 15.2387 79.6556 14.7071C84.0892 13.9623 85.238 15.5383 83.8464 20.4771C82.7008 24.5427 80.3176 27.595 74.9305 28.6006V28.6002Z" fill="white"/>
<path d="M144.581 84.64C144.687 79.6604 145.489 74.5361 141.552 70.4165C139.803 68.5869 136.697 68.4085 135.653 65.8209C134.325 62.5297 136.694 58.0953 140.537 57.4725C144.778 56.7853 145.137 60.7361 145.935 63.4385C147.983 70.3709 147.287 77.9648 150.884 84.544C152.174 86.9024 154.028 89.002 154.459 91.7492C154.707 93.3256 154.23 94.8672 152.533 95.3927C149.505 96.3307 147.657 94.5355 146.165 92.2452C144.656 89.9288 144.44 87.3144 144.581 84.64H144.581Z" fill="white"/>
</g>
</g>
<path d="M11.005 63V52.8H14.935C17.17 52.8 18.565 53.895 18.565 55.635C18.565 56.535 18.115 57.225 17.32 57.615C18.49 58.005 19.135 58.875 19.135 60.045C19.135 61.92 17.785 63 15.445 63H11.005ZM14.89 54.405H13.03V57.045H14.845C15.925 57.045 16.495 56.52 16.495 55.74C16.495 54.915 15.91 54.405 14.89 54.405ZM15.28 58.545H13.03V61.395H15.4C16.45 61.395 17.065 60.825 17.065 59.97C17.065 59.115 16.42 58.545 15.28 58.545ZM20.5237 54.06V52.2H22.4437V54.06H20.5237ZM20.5237 63V54.96H22.4437V63H20.5237ZM24.2004 63V54.96H26.1204V56.13C26.6454 55.17 27.4554 54.735 28.3254 54.735C28.6554 54.735 28.9554 54.825 29.1054 54.96V56.625C28.8504 56.55 28.5654 56.52 28.2204 56.52C26.7654 56.52 26.1204 57.39 26.1204 58.725V63H24.2004ZM30.3734 60.495V56.445H29.3384V54.96H30.3734V53.115H32.2934V54.96H33.9884V56.445H32.2934V60.33C32.2934 61.17 32.5334 61.62 33.5984 61.62H33.9584V63.03C33.7484 63.135 33.3134 63.225 32.7884 63.225C31.1534 63.225 30.3734 62.295 30.3734 60.495ZM35.1135 63V52.2H37.0335V56.04C37.5585 55.17 38.3985 54.735 39.4185 54.735C41.0235 54.735 42.1185 55.695 42.1185 57.645V63H40.1985V58.035C40.1985 56.94 39.7335 56.325 38.7585 56.325C37.6935 56.325 37.0335 57.255 37.0335 58.335V63H35.1135ZM46.9029 63.225C44.8029 63.225 43.5129 61.62 43.5129 58.995C43.5129 56.265 44.8329 54.735 46.9029 54.735C47.7879 54.735 48.5229 55.11 49.0179 55.83V52.2H50.9379V63H49.0179V62.085C48.5079 62.82 47.7879 63.225 46.9029 63.225ZM47.2479 61.635C48.4029 61.635 49.0179 60.705 49.0179 58.995C49.0179 57.285 48.3729 56.325 47.2479 56.325C46.1079 56.325 45.4929 57.27 45.4929 58.995C45.4929 60.69 46.1229 61.635 47.2479 61.635ZM54.5516 57.6H52.6166C52.8716 55.815 54.1766 54.735 56.2016 54.735C58.4366 54.735 59.5766 56.055 59.5766 57.915V61.035C59.5766 62.025 59.6666 62.58 59.8166 63H57.8216C57.7166 62.73 57.6716 62.34 57.6566 61.905C56.9966 62.835 56.0066 63.225 55.0466 63.225C53.4716 63.225 52.3466 62.445 52.3466 60.9C52.3466 59.805 52.9616 58.98 54.1916 58.575C55.2566 58.215 56.2916 58.125 57.6416 58.11V57.915C57.6416 56.88 57.1466 56.325 56.0816 56.325C55.1666 56.325 54.6716 56.835 54.5516 57.6ZM54.2816 60.795C54.2816 61.41 54.7616 61.8 55.5416 61.8C56.7266 61.8 57.6416 60.84 57.6416 59.64V59.295C54.9116 59.34 54.2816 59.985 54.2816 60.795ZM61.8952 66.525C61.5052 66.525 61.1002 66.42 60.9052 66.345V64.875H61.3552C62.2252 64.875 62.6302 64.695 63.2452 63.165L63.4402 62.67L60.2752 54.96H62.3302L64.1152 59.625L64.4452 60.795L64.7752 59.625L66.4852 54.96H68.4502L64.9102 63.795C64.0852 65.88 63.3652 66.525 61.8952 66.525Z" fill="white"/>
<path d="M12.46 42V36.31H10.27V35.2H16V36.31H13.81V42H12.46ZM20.9292 40.25C20.6392 41.49 19.6792 42.15 18.3992 42.15C16.7792 42.15 15.7892 41.08 15.7892 39.33C15.7892 37.51 16.7892 36.49 18.3492 36.49C19.9192 36.49 20.8892 37.55 20.8892 39.28V39.58H17.1092C17.1692 40.56 17.6192 41.1 18.3992 41.1C18.9992 41.1 19.4092 40.82 19.5792 40.25H20.9292ZM18.3492 37.54C17.6692 37.54 17.2592 37.97 17.1392 38.78H19.5492C19.4292 37.98 19.0192 37.54 18.3492 37.54ZM21.8498 42V36.64H23.1298V37.33C23.4698 36.77 23.9898 36.49 24.6198 36.49C25.2998 36.49 25.8298 36.79 26.0998 37.4C26.4598 36.79 27.0298 36.49 27.7198 36.49C28.7498 36.49 29.4498 37.13 29.4498 38.43V42H28.1698V38.69C28.1698 37.96 27.8998 37.55 27.3298 37.55C26.6898 37.55 26.2898 38.17 26.2898 38.89V42H25.0098V38.69C25.0098 37.96 24.7398 37.55 24.1698 37.55C23.5298 37.55 23.1298 38.17 23.1298 38.89V42H21.8498ZM31.9091 44.2H30.6291V36.64H31.9091V37.25C32.2491 36.76 32.7291 36.49 33.3191 36.49C34.7191 36.49 35.5791 37.56 35.5791 39.31C35.5791 41.13 34.6991 42.15 33.3191 42.15C32.7291 42.15 32.2391 41.9 31.9091 41.42V44.2ZM33.0891 37.55C32.3191 37.55 31.9091 38.17 31.9091 39.31C31.9091 40.45 32.3391 41.09 33.0891 41.09C33.8491 41.09 34.2591 40.46 34.2591 39.31C34.2591 38.18 33.8391 37.55 33.0891 37.55ZM36.2817 42V40.59H37.6917V42H36.2817ZM42.1667 43.81C41.1867 42.28 40.6767 40.79 40.6767 39.3C40.6767 37.81 41.1867 36.33 42.1667 34.8H43.4467C42.5267 36.36 42.0567 37.83 42.0567 39.3C42.0567 40.78 42.5267 42.25 43.4467 43.81H42.1667ZM46.5633 42H45.2133C45.5133 39.92 46.3233 38.12 47.4833 36.56H44.1533V35.57H48.8533V36.38C47.5333 38.15 46.7633 40.04 46.5633 42ZM54.805 39.85C54.805 41.16 53.945 42.15 52.345 42.15C50.885 42.15 49.955 41.38 49.775 40.13H51.055C51.165 40.72 51.585 41.09 52.335 41.09C53.115 41.09 53.525 40.63 53.525 39.86C53.525 39.2 53.205 38.6 52.315 38.6C51.735 38.6 51.375 38.86 51.175 39.17L50.025 39.06L50.225 35.57H54.475V36.56H51.265L51.185 37.9C51.515 37.69 51.905 37.56 52.425 37.56C54.105 37.56 54.805 38.6 54.805 39.85ZM56.5767 43.81H55.3067C56.2267 42.25 56.6967 40.78 56.6967 39.3C56.6967 37.83 56.2267 36.36 55.3067 34.8H56.5767C57.5567 36.33 58.0667 37.81 58.0667 39.3C58.0667 40.79 57.5567 42.28 56.5767 43.81Z" fill="white"/>
<path d="M86.2248 49.196C86.7722 53.3791 87.2649 57.8834 85.285 61.6015C84.5563 62.9716 81.7509 68.5674 84.4437 73.5527C86.9165 78.1351 86.0699 79.3242 85.2586 82.1442" stroke="white" stroke-width="1.6" stroke-miterlimit="10" stroke-linecap="round"/>
<path d="M76.9942 41.0393C79.5971 45.1458 83.4284 49.0234 85.528 49.8327C85.1126 50.2231 84.7958 50.72 84.6269 51.2666C84.5635 51.4742 84.5547 51.7617 84.7554 51.8416C84.8838 51.893 85.0282 51.8203 85.1425 51.7422C85.7427 51.3323 86.1774 50.6881 86.3498 49.9782C86.3762 49.9746 86.4026 49.9711 86.4308 49.9658C86.5575 50.4787 86.8039 50.9596 87.1453 51.3607C87.2896 51.531 87.4603 51.6907 87.675 51.7475C87.8897 51.8043 88.1537 51.7209 88.2382 51.5133C88.3051 51.3518 88.2488 51.1672 88.1854 51.0039C87.9795 50.4715 87.6962 49.9729 87.3477 49.5221C87.6486 49.3092 87.9725 49.0252 88.3086 48.6845C84.3488 46.4342 80.5615 43.8752 76.9907 41.0393H76.9942Z" fill="white"/>
<path d="M95.4261 32.575C94.921 26.7026 89.7998 22.353 83.978 22.8428C87.3394 26.7825 91.2059 30.2839 95.449 33.2369C95.449 33.0097 95.4455 32.7879 95.4261 32.575Z" fill="#EA9D42"/>
<path d="M94.5281 37.9255C95.0948 36.2432 95.4432 34.6211 95.4468 33.2369C91.2037 30.2839 87.3372 26.7825 83.9758 22.8428C83.9652 22.8428 83.9547 22.8428 83.9423 22.8445C82.3971 22.9794 80.9611 23.4444 79.6904 24.1613C83.8315 29.5385 88.87 34.2094 94.5281 37.9255Z" fill="white"/>
<path d="M74.2877 32.6784C74.2454 33.2499 74.2454 33.832 74.2947 34.4229C74.4619 36.3679 75.5372 38.7389 76.9944 41.0388C80.5652 43.8747 84.3525 46.4338 88.3123 48.684C88.9951 47.9937 89.736 47.0655 90.4734 45.9848C84.5514 42.258 79.1028 37.7735 74.2877 32.6784Z" fill="#EA9D42"/>
<path d="M79.6924 24.1614C78.3285 24.9298 77.1582 25.9911 76.2554 27.2528C80.8557 33.0932 86.5032 38.0924 92.8353 41.9434C93.4935 40.6266 94.0796 39.2584 94.5283 37.9256C88.8703 34.2095 83.8317 29.5386 79.6907 24.1614H79.6924Z" fill="#EA9D42"/>
<path d="M76.2552 27.253C75.1411 28.8112 74.4372 30.6763 74.2876 32.6781C79.1027 37.7732 84.5531 42.2577 90.4733 45.9845C91.2934 44.783 92.11 43.397 92.8369 41.9436C86.503 38.0908 80.8573 33.0916 76.2569 27.253H76.2552Z" fill="white"/>
<g style="mix-blend-mode:multiply" opacity="0.5">
<path d="M95.4269 32.5755C95.0608 28.3267 92.28 24.8766 88.5665 23.4781C89.1085 24.3318 89.5538 25.2458 89.8865 26.2024C90.3863 27.6381 90.6362 29.1556 90.7172 30.6765C90.9266 34.5987 90.0009 38.5759 88.0825 41.9941C86.7713 44.3297 85.0007 46.399 82.9116 48.0637C83.906 48.9316 84.8177 49.5581 85.5287 49.8332C85.1134 50.2236 84.7966 50.7205 84.6276 51.2672C84.5643 51.4748 84.5555 51.7623 84.7561 51.8422C84.8846 51.8936 85.0289 51.8209 85.1433 51.7428C85.7434 51.331 86.1782 50.6886 86.3506 49.9787C86.377 49.9751 86.4034 49.9716 86.4316 49.9663C86.5601 50.4792 86.8047 50.9601 87.1462 51.3612C87.2905 51.5316 87.4612 51.6913 87.6759 51.7481C87.8906 51.8049 88.1546 51.7215 88.2391 51.5138C88.306 51.3523 88.2497 51.1678 88.1863 51.0045C87.9804 50.4721 87.697 49.9734 87.3486 49.5226C90.4549 47.3201 95.8704 37.7844 95.4234 32.5755H95.4269Z" fill="#D17B60"/>
</g>
<path d="M76.1025 34.93C75.8262 33.7392 75.8402 32.4721 76.0937 31.2547C76.3453 30.0355 76.8363 28.8571 77.5438 27.8243C78.2495 26.7879 79.1682 25.9077 80.2065 25.2351C81.2449 24.5642 82.4152 24.0993 83.6155 23.9378C82.4926 24.3939 81.4561 24.9777 80.5286 25.7C79.6029 26.4205 78.7933 27.2777 78.1351 28.236C77.4787 29.1961 76.9736 30.2644 76.634 31.3931C76.2961 32.5236 76.1218 33.709 76.1007 34.9282L76.1025 34.93Z" fill="#FCF4EE"/>
<path d="M142.685 55.7768C142.766 59.9954 142.759 64.5281 140.379 67.9995C139.503 69.2791 136.099 74.5253 138.222 79.7821C140.173 84.6129 139.2 85.6991 138.081 88.4109" stroke="#28234C" stroke-width="1.6" stroke-miterlimit="10"/>
<path d="M134.414 46.6315C136.547 51.0043 139.924 55.29 141.923 56.3282C141.467 56.6689 141.098 57.1286 140.869 57.6521C140.783 57.8509 140.742 58.1366 140.932 58.2377C141.055 58.3034 141.205 58.2466 141.328 58.1809C141.971 57.8402 142.474 57.2493 142.724 56.5642C142.75 56.5642 142.778 56.5642 142.807 56.5607C142.877 57.0842 143.067 57.5918 143.363 58.0283C143.488 58.2129 143.639 58.3921 143.847 58.472C144.053 58.5519 144.325 58.4986 144.433 58.3034C144.517 58.1508 144.482 57.9609 144.436 57.7905C144.29 57.2386 144.063 56.7098 143.767 56.2235C144.089 56.046 144.443 55.7994 144.815 55.4994C141.129 52.8179 137.648 49.849 134.414 46.6297V46.6315Z" fill="white"/>
<path d="M153.667 40.2915C153.815 34.3979 149.204 29.4998 143.364 29.333C146.27 33.6259 149.725 37.5408 153.616 40.9517C153.642 40.7263 153.661 40.5045 153.667 40.2915Z" fill="#6400E3"/>
<path d="M152.184 45.509C152.933 43.9011 153.458 42.327 153.614 40.9517C149.725 37.5408 146.269 33.6277 143.363 29.333C143.352 29.333 143.342 29.333 143.33 29.333C141.779 29.294 140.301 29.5939 138.958 30.1636C142.48 35.9738 146.969 41.1806 152.182 45.509H152.184Z" fill="white"/>
<path d="M132.647 38.0204C132.541 38.583 132.476 39.1633 132.462 39.7543C132.413 41.7046 133.219 44.182 134.414 46.6328C137.649 49.852 141.13 52.821 144.815 55.5025C145.57 54.8938 146.407 54.0526 147.259 53.0641C141.788 48.6949 136.867 43.6265 132.645 38.0222L132.647 38.0204Z" fill="#6400E3"/>
<path d="M138.96 30.1618C137.518 30.7723 136.239 31.6951 135.202 32.8487C139.128 39.17 144.188 44.7708 150.056 49.3121C150.856 48.0787 151.589 46.7832 152.182 45.509C146.971 41.1807 142.479 35.972 138.958 30.1636L138.96 30.1618Z" fill="#6400E3"/>
<path d="M135.202 32.8488C133.923 34.2738 133.017 36.0467 132.647 38.0201C136.869 43.6245 141.79 48.6929 147.261 53.0621C148.21 51.96 149.172 50.6752 150.056 49.3123C144.188 44.7727 139.129 39.1701 135.202 32.8488Z" fill="white"/>
<g style="mix-blend-mode:multiply" opacity="0.5">
<path d="M153.667 40.2921C153.772 36.0292 151.391 32.288 147.855 30.4795C148.299 31.3882 148.642 32.3466 148.867 33.3351C149.205 34.8188 149.286 36.3557 149.198 37.8749C148.973 41.7971 147.612 45.6448 145.328 48.8269C143.767 51.0009 141.778 52.8591 139.52 54.2771C140.412 55.2515 141.248 55.9773 141.926 56.3287C141.47 56.6695 141.1 57.1292 140.872 57.6527C140.785 57.8515 140.745 58.1372 140.935 58.2384C141.058 58.304 141.208 58.2472 141.331 58.1816C141.973 57.8408 142.477 57.2498 142.727 56.5648C142.753 56.5648 142.781 56.5648 142.809 56.5612C142.88 57.0848 143.07 57.5924 143.366 58.029C143.491 58.2135 143.642 58.3928 143.85 58.4726C144.057 58.5525 144.328 58.4993 144.436 58.304C144.52 58.1514 144.485 57.9615 144.439 57.7911C144.293 57.2392 144.066 56.7103 143.77 56.224C147.1 54.3854 153.537 45.517 153.667 40.2886V40.2921Z" fill="#D17B60"/>
</g>
<path d="M134.201 40.4596C134.058 39.2458 134.211 37.9876 134.597 36.8076C134.982 35.6257 135.6 34.5095 136.418 33.5619C137.233 32.6125 138.243 31.8388 139.35 31.2887C140.455 30.7386 141.669 30.4085 142.882 30.3819C141.717 30.7084 140.621 31.1733 139.621 31.7856C138.622 32.3978 137.722 33.1591 136.962 34.0375C136.204 34.9194 135.584 35.9221 135.121 37.0063C134.66 38.0906 134.358 39.2511 134.201 40.4596Z" fill="#FCF4EE"/>
<path d="M128.266 99.9982L126.478 91.3321C126.478 91.3321 134.227 94.7822 137.305 92.5141C140.383 90.246 130.149 58.6909 130.948 58.5099C133.609 57.9047 130.153 53.088 111.18 51.5121C100.187 50.5981 89.7222 56.2436 89.8225 56.9339C89.9211 57.6243 90.7166 57.8213 90.5177 58.6093C90.3188 59.3973 94.3914 80.3926 93.7966 85.6157C93.1999 90.8405 91.3132 100 91.3132 100H128.268L128.266 99.9982Z" fill="#6400E3"/>
<path d="M127.05 60.0681C127.274 61.3406 127.42 62.6219 127.524 63.9085C127.58 64.5509 127.612 65.1951 127.647 65.8393C127.675 66.4835 127.689 67.1295 127.705 67.7737C127.709 68.4197 127.707 69.0639 127.696 69.7098C127.677 70.354 127.661 71 127.621 71.6442C127.548 72.9326 127.434 74.2174 127.242 75.4952C127.214 74.2032 127.216 72.9184 127.209 71.6335L127.196 69.7081L127.189 68.7462L127.175 67.7843L127.165 66.8225L127.147 65.8606L127.112 63.9351C127.086 62.6503 127.054 61.3654 127.047 60.0735L127.05 60.0681Z" fill="#28234C"/>
<path d="M113.539 62.3132C113.704 63.0852 113.868 63.859 114.026 64.6328L114.48 66.9595L114.892 69.2951L115.274 71.636C115.761 74.7613 116.143 77.9008 116.465 81.0475C116.759 84.1976 116.995 87.3531 117.124 90.5122L117.203 92.8833L117.252 95.2543L117.259 97.6254C117.254 98.4152 117.243 99.2067 117.231 99.9965C117.206 99.2067 117.184 98.4169 117.166 97.6272L117.08 95.2597L116.979 92.8921L116.853 90.5264C116.668 87.3727 116.437 84.2243 116.115 81.083C115.821 77.9381 115.436 74.8039 115.006 71.675L114.672 69.3306L114.311 66.9897L113.936 64.6505C113.801 63.8732 113.669 63.0941 113.54 62.3132H113.539Z" fill="#28234C"/>
<path d="M130.466 96.2162C141.045 96.2162 149.62 94.4793 149.62 92.3366C149.62 90.194 141.045 88.457 130.466 88.457C119.888 88.457 111.312 90.194 111.312 92.3366C111.312 94.4793 119.888 96.2162 130.466 96.2162Z" fill="#6400E3"/>
<path d="M130.466 95.8631C141.045 95.8631 149.62 94.1261 149.62 91.9835C149.62 89.8408 141.045 88.1039 130.466 88.1039C119.888 88.1039 111.312 89.8408 111.312 91.9835C111.312 94.1261 119.888 95.8631 130.466 95.8631Z" fill="#B5D3F6"/>
<path d="M113.824 91.5593C113.824 91.0074 111.272 73.3521 111.272 73.3521L150.478 73.7195L147.376 92.294C147.376 92.294 141.135 94.1078 131.422 94.1078C121.709 94.1078 113.824 91.5593 113.824 91.5593Z" fill="#EA9D42"/>
<path d="M113.071 82.9624C113.314 82.6145 113.854 82.6731 114.247 82.7991C114.81 82.9801 115.264 83.4203 115.751 83.7397C116.32 84.1107 116.957 84.3361 117.64 84.2491C118.284 84.1675 118.865 83.8977 119.477 83.7007C120.058 83.5143 120.602 83.47 121.174 83.7149C121.714 83.9474 122.191 84.3077 122.71 84.581C123.298 84.8898 123.923 85.0655 124.59 85.0406C125.257 85.0158 125.871 84.849 126.494 84.6768C127.117 84.5047 127.709 84.3201 128.339 84.3006C128.969 84.281 129.53 84.5047 130.104 84.7709C130.736 85.0637 131.38 85.3193 132.089 85.2589C132.741 85.2039 133.344 84.9732 133.959 84.762C134.522 84.5685 135.127 84.3786 135.726 84.5242C136.371 84.6821 136.942 85.0548 137.605 85.1453C138.883 85.321 139.768 84.3662 140.854 83.8977C142.033 83.3883 143.265 84.1497 144.448 84.2722C145.127 84.3432 145.768 84.1621 146.329 83.7752C146.826 83.4327 147.278 82.95 147.891 82.8275C148.097 82.7867 148.345 82.7903 148.512 82.9358C148.693 83.092 148.957 83.115 149.135 82.9358C149.293 82.7761 149.316 82.4655 149.135 82.3075C148.588 81.8372 147.871 81.8408 147.231 82.1123C146.59 82.3838 146.152 82.8967 145.559 83.2109C145.015 83.4984 144.408 83.4061 143.837 83.2623C143.186 83.0991 142.547 82.8754 141.873 82.8346C141.199 82.7938 140.627 82.9961 140.067 83.3049C139.566 83.5818 139.096 83.9545 138.557 84.155C138.293 84.2526 138.019 84.3112 137.735 84.2739C137.424 84.2331 137.125 84.1036 136.836 83.9847C136.178 83.7131 135.558 83.5214 134.84 83.6208C133.582 83.793 132.404 84.6857 131.113 84.2384C130.463 84.0148 129.877 83.6208 129.198 83.4842C128.518 83.3475 127.843 83.4256 127.179 83.5782C125.989 83.8516 124.717 84.4496 123.502 83.974C122.934 83.7522 122.438 83.367 121.899 83.0831C121.313 82.7743 120.688 82.5844 120.023 82.6696C119.358 82.7548 118.752 83.0476 118.115 83.2428C117.823 83.3333 117.527 83.399 117.219 83.3795C116.929 83.3617 116.66 83.2446 116.411 83.1008C115.846 82.7725 115.368 82.3057 114.762 82.0484C114.227 81.8212 113.583 81.7165 113.03 81.9384C112.731 82.0591 112.504 82.2507 112.319 82.5152C112.182 82.7104 112.284 83.0085 112.478 83.1221C112.698 83.2517 112.942 83.1594 113.08 82.9624H113.071Z" fill="#8F7EFE"/>
<path d="M113.567 88.2636C114.173 88.0329 114.834 87.9441 115.477 88.0577C116.119 88.1713 116.67 88.4907 117.247 88.7996C117.825 89.1084 118.435 89.3551 119.094 89.2823C119.752 89.2095 120.319 88.8794 120.959 88.7854C121.544 88.7002 122.001 89.0391 122.466 89.3426C123.015 89.6994 123.59 89.9425 124.254 89.9212C125.456 89.8839 126.642 89.0942 127.846 89.4491C128.974 89.7828 129.895 90.7163 131.132 90.679C131.764 90.6595 132.334 90.3862 132.883 90.0951C133.394 89.8254 133.906 89.5379 134.497 89.5503C135.088 89.5627 135.699 89.8236 136.269 90.0241C136.873 90.2353 137.51 90.411 138.154 90.3436C138.799 90.2761 139.335 90.0667 139.902 89.8307C140.426 89.6124 140.976 89.3551 141.548 89.2965C142.19 89.2308 142.709 89.5308 143.295 89.7419C143.85 89.9425 144.42 89.9496 144.966 89.7242C145.428 89.5325 145.831 89.2432 146.24 88.9557C146.611 88.6931 146.975 88.434 147.385 88.3452C147.451 88.331 147.495 88.3275 147.613 88.3346C147.662 88.3381 147.767 88.3647 147.871 88.402C148.095 88.4837 148.353 88.3097 148.413 88.0914C148.48 87.8447 148.331 87.6282 148.105 87.5448C147.111 87.1792 146.231 87.8909 145.458 88.4251C145.08 88.6877 144.694 88.9575 144.244 89.009C143.711 89.0711 143.091 88.6611 142.544 88.5014C141.287 88.1358 140.15 88.8262 139.003 89.2326C138.45 89.4278 137.899 89.5343 137.317 89.4083C136.692 89.2734 136.109 88.9983 135.495 88.8244C134.881 88.6505 134.21 88.5937 133.58 88.7996C132.95 89.0054 132.448 89.3693 131.862 89.6106C131.341 89.8271 130.85 89.8289 130.324 89.6372C129.798 89.4456 129.305 89.1137 128.788 88.8706C128.21 88.599 127.61 88.4215 126.968 88.4748C126.325 88.528 125.69 88.7428 125.055 88.9007C124.506 89.0374 123.927 89.1172 123.399 88.8617C122.844 88.5919 122.385 88.1607 121.788 87.9725C121.13 87.7649 120.479 87.9636 119.852 88.1784C119.574 88.2742 119.284 88.3825 118.988 88.402C118.692 88.4215 118.404 88.3559 118.126 88.2423C117.529 87.9991 117.003 87.614 116.396 87.3869C115.751 87.1455 115.035 87.0692 114.356 87.1561C114.004 87.2005 113.664 87.2786 113.33 87.4046C113.108 87.4898 112.955 87.7045 113.022 87.9512C113.08 88.166 113.34 88.3452 113.564 88.2618L113.567 88.2636Z" fill="#8F7EFE"/>
<path d="M122.378 78.4526C122.945 78.4526 122.945 77.5654 122.378 77.5654C121.811 77.5654 121.811 78.4526 122.378 78.4526Z" fill="#FCF4EE"/>
<path d="M126.089 78.5182C126.656 78.5182 126.656 77.6311 126.089 77.6311C125.522 77.6311 125.522 78.5182 126.089 78.5182Z" fill="#FCF4EE"/>
<path d="M129.476 78.4526C130.042 78.4526 130.042 77.5654 129.476 77.5654C128.909 77.5654 128.909 78.4526 129.476 78.4526Z" fill="#FCF4EE"/>
<path d="M133.255 78.5182C133.821 78.5182 133.821 77.6311 133.255 77.6311C132.688 77.6311 132.688 78.5182 133.255 78.5182Z" fill="#FCF4EE"/>
<path d="M137.421 78.5182C137.988 78.5182 137.988 77.6311 137.421 77.6311C136.854 77.6311 136.854 78.5182 137.421 78.5182Z" fill="#FCF4EE"/>
<path d="M116.062 80.4405C116.206 80.4761 116.314 80.5526 116.415 80.6381C116.512 80.727 116.598 80.8267 116.649 80.9673C116.505 80.9317 116.397 80.857 116.296 80.7698C116.201 80.679 116.113 80.5793 116.062 80.4405Z" fill="#FCF4EE"/>
<path d="M117.949 80.3748C118.076 80.4619 118.154 80.5756 118.222 80.6947C118.286 80.8173 118.337 80.9452 118.34 81.098C118.214 81.011 118.134 80.899 118.067 80.7782C118.004 80.6556 117.953 80.5276 117.949 80.3748Z" fill="#FCF4EE"/>
<path d="M122.705 81.1628C122.763 81.2821 122.784 81.3817 122.807 81.485C122.825 81.59 122.841 81.6897 122.83 81.8231C122.715 81.7537 122.659 81.6363 122.634 81.5188C122.615 81.3995 122.624 81.2696 122.705 81.1628Z" fill="#FCF4EE"/>
<path d="M125.186 81.4876C125.293 81.5588 125.35 81.6513 125.396 81.7475C125.436 81.8471 125.466 81.9521 125.445 82.0803C125.337 82.0109 125.279 81.9183 125.235 81.8204C125.195 81.7208 125.165 81.6158 125.186 81.4876Z" fill="#FCF4EE"/>
<path d="M128.18 81.3563C128.29 81.4381 128.351 81.5396 128.399 81.6482C128.443 81.7585 128.475 81.8724 128.456 82.0095C128.344 81.9276 128.284 81.8261 128.237 81.7176C128.194 81.6072 128.163 81.4933 128.18 81.3563Z" fill="#FCF4EE"/>
<path d="M129.476 80.9658C129.608 81.0121 129.693 81.1207 129.742 81.2399C129.788 81.3592 129.802 81.498 129.74 81.6244C129.663 81.5087 129.622 81.4108 129.58 81.3075C129.541 81.2025 129.5 81.1029 129.476 80.9676V80.9658Z" fill="#FCF4EE"/>
<path d="M131.169 81.0315C131.259 81.1027 131.296 81.1863 131.319 81.2735C131.339 81.3625 131.346 81.4533 131.3 81.5583C131.21 81.4871 131.173 81.4035 131.15 81.3163C131.13 81.2273 131.125 81.1365 131.169 81.0315Z" fill="#FCF4EE"/>
<path d="M135.207 81.2941C135.287 81.3617 135.313 81.4364 135.327 81.5111C135.336 81.5876 135.331 81.6676 135.273 81.7547C135.193 81.6872 135.167 81.6143 135.153 81.5378C135.144 81.4613 135.149 81.3813 135.207 81.2941Z" fill="#FCF4EE"/>
<path d="M137.292 81.0971C137.371 81.2231 137.398 81.3526 137.412 81.4839C137.421 81.6152 137.415 81.7483 137.357 81.8849C137.276 81.759 137.25 81.6294 137.238 81.4981C137.229 81.3668 137.234 81.2338 137.292 81.0971Z" fill="#FCF4EE"/>
<path d="M133.58 82.6731C133.649 82.7392 133.665 82.8053 133.669 82.8714C133.667 82.9374 133.651 83.0035 133.58 83.0696C133.509 83.0035 133.493 82.9374 133.492 82.8714C133.495 82.8053 133.511 82.7392 133.58 82.6731Z" fill="#FCF4EE"/>
<path d="M141.465 80.9676C141.513 81.0533 141.527 81.1033 141.538 81.1623C141.543 81.2212 141.543 81.273 141.517 81.3677C141.419 81.3444 141.375 81.2623 141.363 81.1837C141.355 81.1051 141.378 81.014 141.465 80.9676Z" fill="#FCF4EE"/>
<path d="M142.943 79.7856C143.033 79.8693 143.07 79.9636 143.096 80.0615C143.116 80.1612 143.123 80.2626 143.077 80.3765C142.987 80.2929 142.948 80.1985 142.923 80.1006C142.904 80.001 142.897 79.8995 142.943 79.7856Z" fill="#FCF4EE"/>
<path d="M145.171 80.2435C145.24 80.3307 145.256 80.4197 145.26 80.5069C145.258 80.5941 145.242 80.6831 145.171 80.7703C145.101 80.6831 145.085 80.5941 145.083 80.5069C145.087 80.4197 145.102 80.3307 145.171 80.2435Z" fill="#FCF4EE"/>
<path d="M146.865 79.9152C146.927 80.0255 146.921 80.1448 146.888 80.2516C146.851 80.3566 146.787 80.4562 146.671 80.5079C146.667 80.3815 146.692 80.2907 146.72 80.1946C146.754 80.102 146.787 80.0131 146.863 79.9134L146.865 79.9152Z" fill="#FCF4EE"/>
<path d="M144.261 82.4761C144.316 82.5318 144.32 82.5696 144.313 82.6037C144.299 82.6361 144.274 82.6648 144.195 82.6756C144.14 82.6199 144.135 82.5822 144.144 82.548C144.158 82.5157 144.183 82.4869 144.261 82.4761Z" fill="#FCF4EE"/>
<path d="M146.481 85.8269C146.527 85.9319 146.52 86.0226 146.501 86.1116C146.476 86.1988 146.439 86.2825 146.349 86.3537C146.303 86.2487 146.31 86.1579 146.329 86.0689C146.354 85.9817 146.391 85.898 146.481 85.8269Z" fill="#FCF4EE"/>
<path d="M144.324 85.6281C144.404 85.6834 144.431 85.746 144.445 85.812C144.454 85.8781 144.448 85.9478 144.39 86.0246C144.31 85.971 144.284 85.9067 144.27 85.8406C144.261 85.7745 144.266 85.7049 144.324 85.6281Z" fill="#FCF4EE"/>
<path d="M141.784 84.9058C141.901 84.9698 141.969 85.0606 142.026 85.1567C142.079 85.2564 142.121 85.3632 142.116 85.4949C141.999 85.4308 141.931 85.34 141.874 85.2439C141.821 85.1443 141.779 85.0375 141.784 84.9058Z" fill="#FCF4EE"/>
<path d="M141.789 86.8083C141.886 86.8706 141.934 86.9542 141.969 87.0397C141.999 87.1287 142.017 87.2212 141.985 87.3351C141.886 87.2728 141.838 87.1892 141.805 87.1037C141.775 87.0148 141.757 86.9222 141.789 86.8083Z" fill="#FCF4EE"/>
<path d="M139.25 87.2023C139.342 87.3212 139.379 87.4507 139.403 87.5802C139.423 87.7115 139.43 87.8464 139.384 87.9883C139.292 87.8694 139.255 87.7399 139.231 87.6104C139.211 87.4791 139.204 87.3442 139.25 87.2023Z" fill="#FCF4EE"/>
<path d="M137.618 86.6131C137.697 86.7268 137.724 86.8458 137.738 86.9667C137.746 87.0875 137.741 87.2101 137.683 87.3363C137.602 87.2226 137.576 87.1035 137.563 86.9827C137.556 86.8618 137.56 86.7392 137.618 86.6131Z" fill="#FCF4EE"/>
<path d="M135.209 86.2191C135.267 86.2959 135.271 86.3655 135.264 86.4316C135.25 86.4977 135.223 86.5602 135.143 86.6156C135.085 86.537 135.079 86.4691 135.088 86.403C135.103 86.3369 135.129 86.2744 135.209 86.2191Z" fill="#FCF4EE"/>
<path d="M133.258 87.5981C133.315 87.6678 133.32 87.7251 133.311 87.7805C133.297 87.836 133.272 87.8879 133.191 87.929C133.132 87.8592 133.129 87.802 133.137 87.7465C133.152 87.6911 133.178 87.6392 133.258 87.5981Z" fill="#FCF4EE"/>
<path d="M130.007 88.3186C130.087 88.3722 130.113 88.4365 130.128 88.5008C130.137 88.5668 130.133 88.6365 130.075 88.7133C129.995 88.6597 129.966 88.5954 129.954 88.5311C129.945 88.465 129.951 88.3954 130.007 88.3186Z" fill="#FCF4EE"/>
<path d="M129.292 85.8198C129.391 85.8821 129.439 85.9639 129.474 86.0512C129.504 86.1401 129.523 86.2327 129.492 86.3448C129.393 86.2825 129.345 86.2007 129.31 86.1134C129.28 86.0245 129.26 85.9319 129.292 85.8198Z" fill="#FCF4EE"/>
<path d="M126.676 86.6131C126.773 86.6629 126.819 86.7322 126.854 86.8087C126.884 86.8869 126.903 86.9688 126.871 87.0737C126.774 87.0239 126.727 86.9545 126.693 86.8781C126.663 86.7998 126.646 86.718 126.676 86.6131Z" fill="#FCF4EE"/>
<path d="M124.852 86.0221C124.921 86.1324 124.937 86.241 124.94 86.3513C124.938 86.4617 124.923 86.5703 124.852 86.6806C124.781 86.5703 124.765 86.4617 124.764 86.3513C124.767 86.241 124.783 86.1324 124.852 86.0221Z" fill="#FCF4EE"/>
<path d="M124.006 87.7951C124.093 87.8237 124.128 87.8738 124.153 87.9274C124.173 87.9829 124.18 88.0455 124.137 88.126C124.05 88.0974 124.013 88.0473 123.99 87.9936C123.971 87.9382 123.963 87.8756 124.006 87.7951Z" fill="#FCF4EE"/>
<path d="M121.933 85.2944C122.04 85.3638 122.099 85.4546 122.146 85.5525C122.189 85.6522 122.219 85.7572 122.199 85.8836C122.092 85.8141 122.032 85.7234 121.986 85.6255C121.943 85.5258 121.913 85.4208 121.933 85.2944Z" fill="#FCF4EE"/>
<path d="M120.425 86.8757C120.494 86.9522 120.51 87.0287 120.513 87.1069C120.512 87.1834 120.496 87.2599 120.425 87.3381C120.355 87.2616 120.339 87.1852 120.337 87.1069C120.34 87.0305 120.356 86.954 120.425 86.8757Z" fill="#FCF4EE"/>
<path d="M117.949 85.6281C118.018 85.7153 118.034 85.8043 118.037 85.8915C118.036 85.9787 118.02 86.0677 117.949 86.1549C117.878 86.0677 117.863 85.9787 117.861 85.8915C117.864 85.8043 117.88 85.7153 117.949 85.6281Z" fill="#FCF4EE"/>
<path d="M116.322 85.4967C116.391 85.5732 116.407 85.6497 116.41 85.7279C116.408 85.8044 116.393 85.8809 116.322 85.9591C116.252 85.8827 116.236 85.8062 116.234 85.7279C116.237 85.6515 116.253 85.575 116.322 85.4967Z" fill="#FCF4EE"/>
<path d="M114.502 84.4461C114.583 84.5598 114.609 84.6789 114.623 84.7997C114.632 84.9205 114.627 85.0431 114.569 85.1693C114.488 85.0556 114.461 84.9365 114.447 84.8157C114.438 84.6949 114.444 84.5723 114.502 84.4461Z" fill="#FCF4EE"/>
<path d="M116.126 90.2247C116.262 90.2656 116.359 90.3439 116.446 90.4311C116.529 90.5219 116.605 90.6216 116.64 90.7604C116.504 90.7195 116.407 90.6412 116.321 90.554C116.238 90.4632 116.164 90.3617 116.126 90.2247Z" fill="#FCF4EE"/>
<path d="M117.633 90.4838C117.739 90.539 117.797 90.6191 117.845 90.7045C117.887 90.7935 117.917 90.8878 117.9 91.0071C117.792 90.9519 117.734 90.8718 117.688 90.7864C117.645 90.6974 117.615 90.6031 117.633 90.4838Z" fill="#FCF4EE"/>
<path d="M120.623 90.4217C120.713 90.4929 120.748 90.5765 120.773 90.6637C120.792 90.7527 120.798 90.8435 120.752 90.9485C120.662 90.8773 120.625 90.7937 120.602 90.7064C120.582 90.6175 120.577 90.5267 120.623 90.4217Z" fill="#FCF4EE"/>
<path d="M121.93 90.75C122.009 90.8283 122.036 90.9155 122.05 91.0028C122.059 91.09 122.053 91.1807 121.995 91.2769C121.914 91.1985 121.887 91.1113 121.875 91.0241C121.866 90.9351 121.871 90.8461 121.93 90.75Z" fill="#FCF4EE"/>
<path d="M119.895 91.7385C119.99 91.7743 120.037 91.8332 120.07 91.8993C120.1 91.9672 120.118 92.0404 120.086 92.1368C119.99 92.1011 119.944 92.0422 119.911 91.9761C119.881 91.9082 119.863 91.835 119.895 91.7385Z" fill="#FCF4EE"/>
<path d="M125.89 91.8024C125.989 91.8647 126.037 91.9466 126.074 92.032C126.106 92.121 126.125 92.2136 126.093 92.3257C125.994 92.2634 125.945 92.1815 125.91 92.0961C125.878 92.0071 125.858 91.9146 125.89 91.8024Z" fill="#FCF4EE"/>
<path d="M127.196 91.0783C127.275 91.1691 127.302 91.267 127.316 91.3649C127.325 91.4646 127.32 91.5642 127.261 91.671C127.18 91.5803 127.154 91.4824 127.141 91.3845C127.134 91.2848 127.138 91.1851 127.196 91.0783Z" fill="#FCF4EE"/>
<path d="M130.65 92.129C130.706 92.2269 130.72 92.3052 130.732 92.3871C130.74 92.4689 130.743 92.5473 130.711 92.6576C130.612 92.6007 130.57 92.5045 130.558 92.4084C130.549 92.3123 130.567 92.2091 130.65 92.1308V92.129Z" fill="#FCF4EE"/>
<path d="M132.017 91.932C132.097 92.0103 132.123 92.0975 132.137 92.1847C132.146 92.2737 132.141 92.3627 132.083 92.4588C132.001 92.3805 131.977 92.2933 131.963 92.2061C131.956 92.1171 131.959 92.0281 132.017 91.932Z" fill="#FCF4EE"/>
<path d="M134.548 91.0162C134.645 91.0945 134.691 91.1889 134.725 91.2867C134.753 91.3864 134.769 91.4914 134.733 91.6107C134.636 91.5324 134.59 91.438 134.557 91.3401C134.529 91.2405 134.513 91.1355 134.548 91.0162Z" fill="#FCF4EE"/>
<path d="M136.709 91.5362C136.829 91.5825 136.907 91.6626 136.974 91.748C137.036 91.8388 137.088 91.9349 137.096 92.0666C136.976 92.0203 136.898 91.9402 136.831 91.8548C136.769 91.764 136.716 91.6661 136.709 91.5362Z" fill="#FCF4EE"/>
<path d="M135.538 93.1122C135.639 93.1497 135.692 93.1837 135.751 93.2229C135.808 93.2658 135.857 93.3051 135.925 93.389C135.831 93.4462 135.726 93.4212 135.648 93.3694C135.574 93.314 135.515 93.2212 135.537 93.114L135.538 93.1122Z" fill="#FCF4EE"/>
<path d="M139.766 91.4067C139.825 91.5028 139.83 91.5936 139.821 91.6808C139.807 91.768 139.781 91.8534 139.701 91.9335C139.643 91.8374 139.638 91.7466 139.646 91.6594C139.661 91.5722 139.687 91.4868 139.766 91.4067Z" fill="#FCF4EE"/>
<path d="M141.597 90.4856C141.676 90.5639 141.703 90.6511 141.717 90.7383C141.726 90.8273 141.72 90.9163 141.662 91.0124C141.581 90.9341 141.554 90.8469 141.542 90.7597C141.533 90.6707 141.538 90.5817 141.597 90.4856Z" fill="#FCF4EE"/>
<path d="M143.61 91.538C143.679 91.6041 143.695 91.6702 143.698 91.7362C143.696 91.8023 143.68 91.8684 143.61 91.9345C143.539 91.8684 143.523 91.8023 143.521 91.7362C143.525 91.6702 143.54 91.6041 143.61 91.538Z" fill="#FCF4EE"/>
<path d="M145.886 90.75C145.971 90.839 145.99 90.9529 145.981 91.0597C145.967 91.1665 145.926 91.2733 145.824 91.3427C145.794 91.2235 145.798 91.1345 145.805 91.0401C145.817 90.9476 145.831 90.8586 145.886 90.7482V90.75Z" fill="#FCF4EE"/>
<g style="mix-blend-mode:multiply" opacity="0.3">
<path d="M143.912 73.6592C142.689 76.8165 141.029 79.7963 138.88 82.3963C135.762 86.1729 131.582 89.1208 126.877 90.4057C122.546 91.5877 117.921 91.3108 113.625 89.9496C113.748 90.8707 113.823 91.4652 113.823 91.5593C113.823 91.5593 121.708 94.1078 131.422 94.1078C141.135 94.1078 147.376 92.294 147.376 92.294L150.477 73.7195L143.912 73.6574V73.6592Z" fill="#EA9D42"/>
</g>
<path d="M119.184 75.0843C119.399 75.3014 119.616 75.5204 119.831 75.7375" stroke="#FCF4EE" stroke-width="2.53" stroke-miterlimit="10"/>
<path d="M129.884 75.0825C129.958 75.3469 130.032 75.6113 130.107 75.8756" stroke="#FCF4EE" stroke-width="2.53" stroke-miterlimit="10"/>
<path d="M138.342 74.5057C138.487 74.7229 138.63 74.9418 138.775 75.1589" stroke="#FCF4EE" stroke-width="2.53" stroke-miterlimit="10"/>
<path d="M134.97 74.5767C134.995 74.7707 135.018 74.9629 135.043 75.157" stroke="#FCF4EE" stroke-width="2.53" stroke-miterlimit="10"/>
<path d="M111.4 72.8002C110.886 73.7905 108.989 76.7668 110.384 77.9186C111.78 79.0704 113.228 77.3684 113.466 76.8945C113.79 77.5973 114.383 78.1688 115.092 78.4652C115.671 78.7066 116.509 78.6604 116.727 78.0676C116.97 78.758 117.6 79.294 118.317 79.4147C119.033 79.5371 119.804 79.2408 120.258 78.6693C120.529 79.3597 121.302 79.775 122.037 79.7412C122.775 79.7075 123.456 79.2816 123.929 78.7119C124.359 79.3437 125.152 79.8282 125.907 79.7466C126.663 79.6649 127.354 79.1414 127.641 78.4332C128.099 79.026 128.715 79.5549 129.452 79.6472C130.191 79.7412 131.029 79.2408 131.089 78.4936C131.631 79.0491 132.826 79.8122 133.59 79.6933C134.354 79.5744 135.049 79.0704 135.401 78.3765C135.904 78.9408 136.717 79.5922 137.471 79.562C138.222 79.5318 138.965 79.0402 139.195 78.3179C139.634 78.8272 140.331 79.097 140.994 79.0136C141.658 78.9302 142.268 78.4954 142.568 77.8937C142.925 78.506 143.56 79.0455 144.266 79.0367C144.972 79.0296 145.658 78.6178 146.003 77.9967C146.383 78.4776 147.202 78.6941 147.784 78.5078C148.365 78.3214 148.805 77.75 148.84 77.1359C149.233 77.5459 149.739 77.8635 150.299 77.9416C150.859 78.0197 151.468 77.8316 151.827 77.3915C152.299 76.8129 152.244 75.9468 151.95 75.2582C151.378 73.9183 149.972 72.2944 148.578 71.9039C147.184 71.5135 145.792 72.2855 144.345 72.3228C140.236 72.4328 136.126 72.5411 132.016 72.6511" fill="#8F7EFE"/>
<path d="M111.272 73.3521C111.272 77.7411 149.884 78.8876 150.478 73.7195C151.071 68.5532 111.272 68.1379 111.272 73.3521Z" fill="#8565FE"/>
<path d="M111.762 76.8109C112.329 76.8109 112.329 75.9238 111.762 75.9238C111.196 75.9238 111.196 76.8109 111.762 76.8109Z" fill="#FCF4EE"/>
<path d="M115.474 77.2706C116.041 77.2706 116.041 76.3834 115.474 76.3834C114.908 76.3834 114.908 77.2706 115.474 77.2706Z" fill="#FCF4EE"/>
<path d="M118.796 77.7959C119.363 77.7959 119.363 76.9087 118.796 76.9087C118.229 76.9087 118.229 77.7959 118.796 77.7959Z" fill="#FCF4EE"/>
<path d="M141.264 78.0586C141.83 78.0586 141.83 77.1714 141.264 77.1714C140.697 77.1714 140.697 78.0586 141.264 78.0586Z" fill="#FCF4EE"/>
<path d="M144.78 77.5333C145.347 77.5333 145.347 76.6461 144.78 76.6461C144.213 76.6461 144.213 77.5333 144.78 77.5333Z" fill="#FCF4EE"/>
<path d="M146.734 77.5333C147.301 77.5333 147.301 76.6461 146.734 76.6461C146.167 76.6461 146.167 77.5333 146.734 77.5333Z" fill="#FCF4EE"/>
<path d="M150.445 76.4169C151.012 76.4169 151.012 75.5298 150.445 75.5298C149.879 75.5298 149.879 76.4169 150.445 76.4169Z" fill="#FCF4EE"/>
<path d="M114.734 74.0478C115.836 74.63 117.068 74.9423 118.312 74.9459C119.556 74.9494 120.848 74.5803 122.077 74.9086C122.647 75.0612 123.175 75.3345 123.733 75.5262C124.319 75.7268 124.921 75.7871 125.535 75.7303C126.149 75.6735 126.767 75.5333 127.392 75.5298C128.017 75.5262 128.604 75.6788 129.199 75.8315C129.794 75.9841 130.378 76.1314 130.987 76.1722C131.596 76.213 132.221 76.0959 132.823 75.9539C133.425 75.8119 133.992 75.6664 134.601 75.6859C135.243 75.7055 135.873 75.8652 136.51 75.9344C137.147 76.0036 137.728 75.9379 138.327 75.7711C138.879 75.6167 139.428 75.3878 140.006 75.3505C140.641 75.3079 141.264 75.4872 141.892 75.5599C142.559 75.638 143.232 75.6132 143.899 75.528C144.566 75.4428 145.194 75.3079 145.829 75.1411C146.414 74.9885 147.021 74.8447 147.584 74.6229C148.114 74.4152 148.607 73.9928 148.45 73.3539C148.315 72.7949 147.771 72.4239 147.269 72.2287C146.289 71.8471 145.187 72.0353 144.164 71.9927C142.901 71.9412 141.669 71.6306 140.424 71.4283C139.805 71.3271 139.178 71.2455 138.55 71.2313C137.922 71.2171 137.302 71.3236 136.672 71.3662C136.359 71.3875 136.056 71.3786 135.755 71.2916C135.479 71.2136 135.22 71.0929 134.958 70.9775C134.402 70.7344 133.847 70.5445 133.233 70.5746C132.619 70.6048 132.056 70.777 131.482 70.9349C130.908 71.0929 130.313 71.2047 129.69 71.1532C129.067 71.1018 128.42 70.9456 127.777 70.8994C127.135 70.8533 126.524 70.9527 125.912 71.1035C125.299 71.2544 124.745 71.4425 124.143 71.5046C123.492 71.5721 122.837 71.4993 122.191 71.4265C121.545 71.3538 120.947 71.2828 120.322 71.3236C119.697 71.3644 119.151 71.5099 118.585 71.6856C118.018 71.8613 117.499 72.0441 116.937 72.1542C116.68 72.2039 116.42 72.2287 116.158 72.2216C115.855 72.2127 115.582 72.1293 115.29 72.053C114.769 71.9146 114.081 71.9288 113.794 72.479C113.595 72.8605 113.884 73.2847 114.113 73.5775C114.341 73.8704 114.66 74.165 115.061 74.0922C115.285 74.0514 115.41 73.7781 115.355 73.5722C115.29 73.3362 115.063 73.235 114.84 73.2758H114.996C114.956 73.2634 114.963 73.2669 115.017 73.2882C115.008 73.2882 114.912 73.219 114.984 73.2723C114.928 73.2297 114.876 73.1747 114.827 73.1232C114.725 73.0132 114.656 72.9173 114.579 72.7629L114.561 72.7274C114.579 72.7718 114.581 72.7718 114.565 72.7292L114.556 72.699C114.567 72.7416 114.565 72.7824 114.551 72.8233C114.581 72.8765 114.484 72.8517 114.611 72.8321C114.848 72.7949 115.056 72.8659 115.285 72.9315C116.385 73.2403 117.462 72.9262 118.516 72.5925C119.027 72.431 119.544 72.2624 120.075 72.1932C120.667 72.1169 121.272 72.1719 121.862 72.2358C122.451 72.2997 123.053 72.3831 123.654 72.376C124.254 72.3689 124.849 72.2518 125.433 72.1009C126.017 71.9501 126.549 71.7815 127.124 71.7407C127.7 71.6998 128.302 71.8063 128.886 71.8968C129.5 71.9909 130.106 72.0566 130.723 71.9678C131.287 71.888 131.825 71.7069 132.374 71.5685C132.888 71.439 133.418 71.3502 133.939 71.4922C134.46 71.6342 134.94 71.927 135.461 72.0885C136.053 72.2713 136.648 72.2269 137.251 72.1542C137.855 72.0814 138.434 72.0601 139.031 72.1027C140.194 72.1879 141.333 72.4701 142.482 72.6547C143.079 72.7505 143.68 72.8286 144.286 72.8446C144.779 72.8588 145.272 72.8286 145.764 72.8375C146.197 72.8463 146.655 72.873 147.058 73.0504C147.244 73.1321 147.454 73.2581 147.574 73.4285C147.665 73.5562 147.656 73.6254 147.533 73.7124C147.352 73.8402 147.116 73.8917 146.907 73.9538C146.609 74.0425 146.313 74.1295 146.014 74.2129C145.416 74.3797 144.814 74.5288 144.201 74.6335C143.589 74.7382 142.998 74.7808 142.394 74.7542C141.79 74.7276 141.187 74.5749 140.578 74.5164C139.969 74.4578 139.409 74.5661 138.842 74.7329C138.313 74.8891 137.783 75.0914 137.225 75.1162C136.667 75.1411 136.077 75.0204 135.507 74.9352C134.895 74.8429 134.305 74.811 133.691 74.905C133.112 74.9938 132.549 75.1677 131.973 75.2706C131.398 75.3736 130.875 75.3416 130.329 75.2316C129.183 75.0009 128.092 74.5945 126.904 74.708C126.313 74.7648 125.727 74.8944 125.132 74.905C124.537 74.9157 124.053 74.7577 123.534 74.5483C123.015 74.3389 122.504 74.1082 121.95 74.0141C121.359 73.913 120.764 73.9218 120.167 73.9697C119 74.062 117.872 74.1863 116.717 73.9059C116.174 73.7728 115.653 73.5775 115.156 73.3149C114.66 73.0522 114.253 73.7923 114.732 74.0461L114.734 74.0478Z" fill="#8F7EFE"/>
<path d="M125.818 30.5345C125.818 36.9999 122.488 49.8953 113.616 49.4782C104.743 49.0594 102.602 36.9999 102.602 30.5345C102.602 24.0691 107.799 18.8283 114.21 18.8283C120.622 18.8283 125.819 24.0691 125.819 30.5345H125.818Z" fill="#FFB380"/>
<path d="M104.297 36.1658C105.606 35.621 106.6 34.4053 107.13 33.0316C107.66 31.6562 107.76 30.1334 107.646 28.6551C108.065 29.2336 108.415 29.5566 108.936 30.0341C109.066 30.1547 109.226 30.279 109.395 30.2435C109.707 30.1814 109.714 29.7164 109.642 29.3916C109.467 28.6036 109.291 27.8085 108.96 27.0773C110.09 29.207 112.296 30.6588 114.607 30.7954C114.818 30.8078 115.101 30.7493 115.119 30.5257C115.128 30.4209 115.068 30.3251 115.01 30.2399C114.566 29.5833 114.086 28.955 113.57 28.3587C116.287 30.3216 119.711 31.1823 122.984 30.7936C123.209 32.8754 123.927 35.0513 124.927 36.8615C125.885 36.6876 126.761 35.9085 127.173 34.9803C127.585 34.0521 127.537 32.9145 127.048 32.0289C127.956 32.2773 128.943 31.7325 129.457 30.9055C129.971 30.0784 130.077 29.0349 129.982 28.0517C129.748 25.6504 128.386 23.4764 126.603 21.9607C124.82 20.4451 122.643 19.524 120.434 18.8851C120.802 19.02 121.14 18.681 121.397 18.3722C121.654 18.0634 121.71 17.5877 121.534 17.2204C121.377 16.8956 121.075 16.6826 120.772 16.5087C119.64 15.8609 118.347 15.5734 117.062 15.4829C113.568 15.238 110.117 16.3845 106.908 17.8593C107.132 17.5842 107.216 17.0731 107.283 16.7163C107.35 16.3596 107.181 15.9283 106.845 15.8503C106.511 15.7722 106.206 16.0579 105.984 16.333C105.052 17.4937 104.407 18.9099 104.131 20.4025C102.646 20.138 101.046 20.7539 100.074 21.966C99.9969 22.0619 99.9194 22.1772 99.937 22.3015C99.9617 22.4736 100.148 22.557 100.308 22.5979C100.94 22.7594 101.611 22.7576 102.243 22.5979C101.572 22.8268 101.053 23.4 100.666 24.0212C99.5974 25.7303 99.3334 27.9239 99.7628 29.9205C100.192 31.9171 101.273 33.7184 102.658 35.1524" fill="#28234C"/>
<path d="M100.25 34.3449C100.203 35.6813 100.749 37.0301 101.713 37.9494C102.014 38.2369 102.364 38.489 102.767 38.5919C103.675 38.8262 104.642 38.2174 105.08 37.3833C105.518 36.5492 105.529 35.5518 105.407 34.6147C105.252 33.4043 104.775 32.0768 103.663 31.5923C101.871 30.8114 100.31 32.6891 100.25 34.3449Z" fill="#FFB380"/>
<g style="mix-blend-mode:multiply" opacity="0.56">
<path d="M104.05 37.6554C103.67 37.4602 103.346 37.1532 103.128 36.7842C103.084 36.7097 103.044 36.6298 103.046 36.5429C103.047 36.3779 103.197 36.2572 103.332 36.1649C103.605 35.9751 103.878 35.7852 104.151 35.5954C104.205 35.5581 104.261 35.5173 104.291 35.457C104.323 35.3913 104.316 35.3132 104.307 35.2405C104.203 34.3107 104.063 33.3047 103.401 32.6482C103.223 32.4707 103.005 32.3235 102.759 32.2756C102.394 32.2028 102.013 32.3536 101.728 32.5949C101.443 32.8363 101.237 33.1574 101.043 33.4768C101.043 33.4768 100.512 35.3292 101.61 36.7026C102.708 38.0759 104.05 37.6572 104.05 37.6572V37.6554Z" fill="#D17B60"/>
</g>
<path d="M101.043 33.475C101.203 33.1237 101.391 32.7723 101.69 32.492C101.842 32.3536 102.02 32.2418 102.22 32.1708C102.419 32.0999 102.649 32.0803 102.868 32.1336C103.086 32.185 103.278 32.3004 103.44 32.437C103.6 32.5754 103.74 32.7315 103.857 32.9054C104.091 33.2532 104.228 33.6453 104.323 34.0357C104.413 34.4278 104.458 34.8199 104.497 35.2067C104.501 35.2546 104.509 35.315 104.501 35.3913C104.497 35.4658 104.455 35.5705 104.399 35.629C104.282 35.7479 104.21 35.7692 104.129 35.8295C103.969 35.936 103.807 36.0407 103.645 36.1436C103.487 36.2501 103.301 36.3459 103.216 36.447C103.174 36.5002 103.158 36.541 103.172 36.6067C103.186 36.6723 103.237 36.7593 103.281 36.8391C103.464 37.1621 103.73 37.4389 104.05 37.6571C103.688 37.5205 103.362 37.2721 103.114 36.9545C103.054 36.8729 102.993 36.7983 102.947 36.6794C102.896 36.5606 102.922 36.3902 102.996 36.2909C103.065 36.1844 103.153 36.1152 103.234 36.0531L103.464 35.8774C103.617 35.7603 103.77 35.645 103.925 35.5314C103.997 35.4764 104.099 35.4072 104.113 35.3842C104.12 35.3718 104.115 35.3806 104.119 35.3576C104.119 35.338 104.115 35.3008 104.108 35.2529C104.059 34.8714 104.011 34.4952 103.922 34.1333C103.842 33.7713 103.718 33.4235 103.531 33.1237C103.348 32.8238 103.088 32.5541 102.783 32.4476C102.481 32.3447 102.109 32.4441 101.817 32.6517C101.516 32.8593 101.281 33.1716 101.043 33.4768V33.475Z" fill="#28234C"/>
<path d="M112.653 35.7254C112.635 36.3482 112.255 36.8415 111.805 36.8291C111.355 36.8166 111.004 36.3003 111.024 35.6775C111.043 35.0547 111.421 34.5614 111.872 34.5739C112.322 34.5863 112.672 35.1026 112.653 35.7254Z" fill="#28234C"/>
<path d="M120.522 36.9979C120.503 37.6207 120.125 38.114 119.674 38.1016C119.224 38.0874 118.873 37.5728 118.893 36.95C118.912 36.3272 119.291 35.8339 119.741 35.8464C120.191 35.8606 120.542 36.3751 120.522 36.9979Z" fill="#28234C"/>
<path d="M116.403 34.9945C116.577 35.4735 116.705 35.9686 116.795 36.4725C116.885 36.9764 116.939 37.4874 116.953 38.0002C116.973 38.513 116.945 39.0276 116.892 39.5386C116.832 40.0496 116.742 40.5553 116.61 41.0521L116.582 41.1568L116.484 41.171C116 41.2384 115.507 41.2189 115.036 41.1213C114.562 41.0237 114.108 40.8463 113.707 40.5925C114.15 40.7611 114.606 40.8693 115.065 40.9172C115.525 40.9616 115.986 40.9439 116.434 40.8622L116.308 40.9811C116.408 40.4914 116.492 39.9981 116.543 39.5013C116.602 39.0045 116.626 38.5059 116.635 38.0055C116.64 37.5052 116.623 37.003 116.584 36.5027C116.543 36.0005 116.482 35.5002 116.404 34.9963L116.403 34.9945Z" fill="#28234C"/>
<path d="M108.435 33.7841C108.794 33.312 109.245 32.9074 109.739 32.5631L110.125 32.3235L110.528 32.1087L110.948 31.9277L111.381 31.7751C111.529 31.7325 111.675 31.6899 111.823 31.6438L112.275 31.5337C112.428 31.5089 112.583 31.4893 112.738 31.4769C112.893 31.4751 113.05 31.4822 113.205 31.4947C113.821 31.571 114.433 31.7769 114.914 32.1975L114.885 32.2809C114.264 32.3324 113.72 32.3412 113.178 32.3803C113.043 32.3945 112.909 32.4016 112.773 32.3998C112.64 32.4087 112.504 32.4087 112.369 32.4069L111.959 32.4175C111.823 32.43 111.686 32.4477 111.548 32.4655L111.144 32.5489L110.742 32.6589L110.345 32.7902L109.956 32.95C109.436 33.1718 108.952 33.4806 108.5 33.8462L108.437 33.7841H108.435Z" fill="#28234C"/>
<path d="M122.991 36.0408C122.674 35.5954 122.319 35.1891 121.914 34.8449L121.61 34.5929L121.291 34.3622L120.964 34.1475L120.626 33.9541C120.51 33.8973 120.392 33.8423 120.274 33.7909L119.912 33.6578C119.79 33.6188 119.671 33.5762 119.553 33.5283C119.433 33.4875 119.317 33.4378 119.201 33.3828C118.733 33.1716 118.259 32.9818 117.731 32.7139L117.735 32.6251C118.295 32.4033 118.9 32.414 119.468 32.5382C119.609 32.5755 119.748 32.618 119.885 32.6677C120.019 32.7263 120.149 32.7919 120.278 32.8629L120.644 33.1007C120.76 33.1876 120.879 33.271 120.997 33.3526L121.337 33.6188L121.657 33.9044L121.954 34.2132L122.231 34.5397C122.576 34.9921 122.869 35.4783 123.067 35.9982L122.989 36.0408H122.991Z" fill="#28234C"/>
<g style="mix-blend-mode:multiply" opacity="0.56">
<path d="M112.722 42.0278C112.68 42.0402 112.636 42.058 112.592 42.081C111.895 42.4554 113.055 44.4054 114.309 44.6982C114.123 43.6549 113.549 42.6843 112.722 42.0296V42.0278Z" fill="#D17B60"/>
</g>
<path d="M116.792 43.0551C116.417 42.4093 115.206 43.3373 114.647 43.1492C113.883 42.8919 113.359 41.8486 112.722 42.0278C113.549 42.6825 114.121 43.6549 114.309 44.6964C114.312 44.6964 114.318 44.6982 114.321 44.7C115.579 44.9821 117.166 43.701 116.792 43.0551Z" fill="#28234C"/>
<g style="mix-blend-mode:multiply" opacity="0.5">
<path d="M112.556 39.4896C112.414 40.0662 111.539 40.3412 110.605 40.1053C109.671 39.8693 109.028 39.211 109.173 38.6343C109.315 38.0577 110.19 37.7826 111.124 38.0186C112.058 38.2546 112.701 38.9129 112.556 39.4896Z" fill="#D17B60"/>
</g>
<g style="mix-blend-mode:multiply" opacity="0.5">
<path d="M121.448 40.9502C121.305 41.5268 120.431 41.8019 119.497 41.5659C118.562 41.3299 117.92 40.6716 118.064 40.0949C118.207 39.5183 119.081 39.2433 120.016 39.4792C120.95 39.7152 121.592 40.3735 121.448 40.9502Z" fill="#D17B60"/>
</g>
<path d="M108.342 45.7885C108.152 47.7903 107.78 49.7744 107.233 51.707C109.357 55.1924 111.481 58.8446 113.472 62.4099C114.369 58.8819 115.429 55.5704 116.398 52.0619C115.89 51.7531 115.318 51.1267 115.269 50.5286C115.221 49.9323 115.32 49.0113 115.459 48.4292" fill="#FFB380"/>
<path d="M115.312 49.3877C112.76 49.6681 110.082 48.8411 108.089 47.2065C109.937 49.2972 112.586 50.7951 115.362 50.8945C115.235 50.4383 115.319 49.8598 115.312 49.3859V49.3877Z" fill="#28234C"/>
<path d="M110.021 90.9683L108.513 95.8513L106.309 91.7348L110.021 90.9683Z" fill="#28234C"/>
<path d="M109.445 87.6566C109.445 87.6566 112.022 88.4233 112.545 88.4233C113.067 88.4233 113.924 87.4632 114.639 87.6548C115.353 87.8465 118.065 91.6389 117.638 92.3594C117.21 93.08 114.686 90.1997 114.211 90.4872C113.736 90.7747 115.783 94.2317 116.258 94.4713C116.733 94.7109 120.353 95.2965 120.353 95.2965C120.353 95.2965 118.495 98.5991 115.211 97.7846C111.927 96.9682 110.975 92.6008 110.975 92.6008L106.786 92.1696L109.445 87.6602V87.6566Z" fill="#FFB380"/>
<path d="M91.0629 56.8434C91.0629 56.8434 81.3689 78.3498 81.214 85.4666C81.0592 92.5833 108.513 95.556 108.513 95.556C108.513 95.556 107.89 93.5896 108.355 91.3996C108.819 89.2095 109.444 87.6566 109.444 87.6566L91.8391 82.4956L96.3376 72.8765" fill="#6400E3"/>
<path d="M93.0405 79.8701C93.4805 78.6757 93.9662 77.4973 94.496 76.3403C95.0222 75.1814 95.5889 74.0421 96.1837 72.917C96.7838 71.7954 97.4121 70.688 98.0791 69.6055C98.7426 68.5212 99.4465 67.4617 100.191 66.4324L98.3149 69.7474C97.6972 70.8548 97.0865 71.9658 96.4934 73.0856C95.8951 74.2036 95.3161 75.3305 94.7423 76.4609L93.0405 79.8701Z" fill="#28234C"/>
<path d="M95.9521 74.0769C96.283 73.5659 96.6577 73.085 97.0554 72.6273C97.4531 72.1677 97.8789 71.733 98.3206 71.3178C98.7675 70.9061 99.2303 70.5122 99.7177 70.152C100.203 69.7883 100.708 69.4512 101.24 69.1602C100.793 69.5718 100.339 69.9675 99.8901 70.3667C99.4432 70.7677 98.9962 71.1687 98.5599 71.5786C98.1182 71.9849 97.6871 72.4019 97.2542 72.8171C96.8231 73.2359 96.3938 73.6599 95.9521 74.0769Z" fill="#28234C"/>
<path d="M85.5911 81.3403C87.6538 81.3616 89.7077 81.7059 91.7124 82.2028C93.7205 82.6944 95.6864 83.3245 97.6576 83.9172C99.6288 84.5171 101.6 85.1152 103.568 85.7292C105.537 86.3398 107.496 86.9822 109.444 87.6584C107.454 87.1189 105.468 86.5705 103.487 86.0025C101.505 85.4382 99.5267 84.8578 97.5555 84.2526C95.5826 83.6492 93.6272 83.0014 91.6455 82.4584C89.6637 81.9171 87.6468 81.4911 85.5894 81.3403H85.5911Z" fill="#28234C"/>
<path d="M91.519 92.2994C92.9446 92.5673 94.3525 92.9187 95.7604 93.2488L99.9964 94.1929C100.702 94.3509 101.408 94.5088 102.115 94.6561C102.821 94.8123 103.53 94.9525 104.24 95.0962C105.658 95.3748 107.08 95.6322 108.514 95.8522C107.791 95.8167 107.068 95.7457 106.346 95.6712C105.626 95.586 104.907 95.4902 104.19 95.3731C102.758 95.1441 101.336 94.8549 99.9208 94.539C98.5058 94.216 97.0997 93.8859 95.6953 93.5097C94.2944 93.1299 92.9129 92.6969 91.519 92.2994Z" fill="#28234C"/>
<path d="M113.243 92.2479C113.655 92.8602 114.038 93.4885 114.498 94.0439C114.955 94.5923 115.494 95.0875 116.134 95.3431C116.455 95.4779 116.8 95.5543 117.15 95.6004C117.5 95.6501 117.857 95.6554 118.215 95.6465C118.931 95.6146 119.647 95.4904 120.355 95.2951C119.698 95.6288 118.977 95.8364 118.236 95.9234C117.497 96.0015 116.724 95.9571 116.004 95.6732C115.281 95.3732 114.716 94.8213 114.283 94.2143C113.846 93.602 113.528 92.9312 113.244 92.2497L113.243 92.2479Z" fill="#28234C"/>
<path d="M112.518 93.4246C112.878 93.9675 113.188 94.5388 113.561 95.0516C113.749 95.3071 113.945 95.552 114.172 95.7614C114.395 95.9778 114.64 96.1748 114.9 96.3451C115.414 96.6965 115.995 96.9449 116.6 97.1081C117.209 97.2678 117.842 97.3388 118.49 97.3352C117.858 97.4843 117.191 97.4931 116.542 97.376C115.892 97.2625 115.261 97.0105 114.705 96.6397C114.428 96.4516 114.17 96.2387 113.938 95.9991C113.705 95.7543 113.501 95.4881 113.332 95.2042C112.987 94.6382 112.746 94.0314 112.518 93.4228V93.4246Z" fill="#28234C"/>
<path d="M112.401 88.4125C112.736 88.4586 113.038 88.2776 113.301 88.0913C113.434 87.9955 113.564 87.8944 113.702 87.8021C113.839 87.7098 113.989 87.6229 114.159 87.5856C114.332 87.5448 114.511 87.5856 114.666 87.6353C114.828 87.6815 114.991 87.772 115.106 87.905C115.319 88.173 115.502 88.4373 115.701 88.7053C116.089 89.2393 116.466 89.7823 116.843 90.3252L117.402 91.1432L117.68 91.5549C117.772 91.695 117.865 91.8423 117.918 92.018C117.942 92.1049 117.96 92.206 117.928 92.3143C117.895 92.4261 117.8 92.5024 117.712 92.5378C117.524 92.6159 117.332 92.5751 117.17 92.5237C116.843 92.4101 116.563 92.2202 116.294 92.0251C115.759 91.6276 115.277 91.1716 114.816 90.6978C114.705 90.5843 114.58 90.4778 114.441 90.4441C114.372 90.4281 114.303 90.4388 114.247 90.4743C114.193 90.5115 114.152 90.5736 114.133 90.6446C114.091 90.7883 114.143 90.9427 114.219 91.0829C114.296 91.2231 114.383 91.3703 114.457 91.5176C114.759 92.1085 115.016 92.7171 115.335 93.2955C114.986 92.733 114.712 92.128 114.39 91.5531C114.311 91.4076 114.224 91.2727 114.14 91.1255C114.059 90.9817 113.987 90.8008 114.034 90.6162C114.055 90.5275 114.105 90.4388 114.187 90.3802C114.268 90.3235 114.374 90.3057 114.465 90.327C114.65 90.3678 114.787 90.4885 114.907 90.6038C115.382 91.058 115.862 91.5087 116.389 91.8938C116.651 92.0818 116.929 92.2628 117.224 92.3622C117.37 92.4101 117.527 92.4314 117.647 92.3782C117.708 92.3498 117.752 92.3125 117.766 92.261C117.782 92.2078 117.775 92.1386 117.752 92.0676C117.659 91.7837 117.439 91.5158 117.265 91.239L116.712 90.4175L115.59 88.7869C115.401 88.519 115.213 88.2368 115.023 87.9831C114.923 87.8624 114.791 87.7844 114.638 87.7347C114.483 87.6832 114.332 87.6442 114.179 87.6744C113.869 87.7329 113.607 87.9565 113.33 88.1304C113.191 88.2209 113.049 88.306 112.892 88.3646C112.736 88.4214 112.567 88.4427 112.405 88.4125H112.401Z" fill="#28234C"/>
<path d="M103.368 51.9771C104.257 52.8005 105.126 53.6435 105.994 54.4864C106.861 55.3311 107.72 56.1848 108.577 57.0384C109.429 57.8991 110.286 58.7527 111.129 59.6223C111.975 60.4883 112.82 61.3543 113.656 62.2292L113.246 62.286C113.704 61.4519 114.168 60.6196 114.636 59.7908C115.101 58.9603 115.574 58.1333 116.048 57.3081C116.521 56.4829 117.002 55.6595 117.484 54.8396C117.968 54.0197 118.455 53.2016 118.957 52.3905C118.543 53.2495 118.117 54.1031 117.688 54.9531C117.257 55.8032 116.824 56.6497 116.382 57.4944C115.942 58.3392 115.5 59.1821 115.05 60.0215C114.605 60.8627 114.154 61.7021 113.698 62.538L113.531 62.8432L113.287 62.5948C112.438 61.7305 111.601 60.8592 110.761 59.9843C109.92 59.1147 109.093 58.2292 108.26 57.3507C107.433 56.4651 106.608 55.5796 105.791 54.6852C104.975 53.7907 104.161 52.8928 103.364 51.9788L103.368 51.9771Z" fill="#28234C"/>
<path d="M122.136 56.9266C122.703 56.9266 122.703 56.0395 122.136 56.0395C121.57 56.0395 121.57 56.9266 122.136 56.9266Z" fill="#8F7EFE"/>
<path d="M119.75 61.5197C120.316 61.5197 120.316 60.6325 119.75 60.6325C119.183 60.6325 119.183 61.5197 119.75 61.5197Z" fill="#8F7EFE"/>
<path d="M124.632 59.5515C125.199 59.5515 125.199 58.6643 124.632 58.6643C124.065 58.6643 124.065 59.5515 124.632 59.5515Z" fill="#8F7EFE"/>
<path d="M127.886 58.4565C128.453 58.4565 128.453 57.5693 127.886 57.5693C127.32 57.5693 127.32 58.4565 127.886 58.4565Z" fill="#8F7EFE"/>
<path d="M130.164 63.818C130.73 63.818 130.73 62.9308 130.164 62.9308C129.597 62.9308 129.597 63.818 130.164 63.818Z" fill="#8F7EFE"/>
<path d="M130.057 67.2078C130.623 67.2078 130.623 66.3206 130.057 66.3206C129.49 66.3206 129.49 67.2078 130.057 67.2078Z" fill="#8F7EFE"/>
<path d="M123.764 63.1613C124.33 63.1613 124.33 62.2742 123.764 62.2742C123.197 62.2742 123.197 63.1613 123.764 63.1613Z" fill="#8F7EFE"/>
<path d="M118.123 67.4278C118.69 67.4278 118.69 66.5407 118.123 66.5407C117.557 66.5407 117.557 67.4278 118.123 67.4278Z" fill="#8F7EFE"/>
<path d="M124.198 68.3028C124.764 68.3028 124.764 67.4156 124.198 67.4156C123.631 67.4156 123.631 68.3028 124.198 68.3028Z" fill="#8F7EFE"/>
<path d="M109.878 63.9262C110.444 63.9262 110.444 63.0391 109.878 63.0391C109.311 63.0391 109.311 63.9262 109.878 63.9262Z" fill="#8F7EFE"/>
<path d="M103.695 57.5815C104.262 57.5815 104.262 56.6943 103.695 56.6943C103.129 56.6943 103.129 57.5815 103.695 57.5815Z" fill="#8F7EFE"/>
<path d="M95.0172 57.1449C95.5838 57.1449 95.5838 56.2578 95.0172 56.2578C94.4506 56.2578 94.4506 57.1449 95.0172 57.1449Z" fill="#8F7EFE"/>
<path d="M94.6915 61.6297C95.2581 61.6297 95.2581 60.7425 94.6915 60.7425C94.125 60.7425 94.125 61.6297 94.6915 61.6297Z" fill="#8F7EFE"/>
<path d="M101.742 61.1914C102.308 61.1914 102.308 60.3042 101.742 60.3042C101.175 60.3042 101.175 61.1914 101.742 61.1914Z" fill="#8F7EFE"/>
<path d="M104.998 64.3646C105.564 64.3646 105.564 63.4774 104.998 63.4774C104.431 63.4774 104.431 64.3646 104.998 64.3646Z" fill="#8F7EFE"/>
<path d="M99.6798 56.8166C100.246 56.8166 100.246 55.9294 99.6798 55.9294C99.1132 55.9294 99.1132 56.8166 99.6798 56.8166Z" fill="#8F7EFE"/>
<path d="M96.9679 65.1295C97.5345 65.1295 97.5345 64.2423 96.9679 64.2423C96.4013 64.2423 96.4013 65.1295 96.9679 65.1295Z" fill="#8F7EFE"/>
<path d="M91.6525 66.8812C92.2191 66.8812 92.2191 65.994 91.6525 65.994C91.0859 65.994 91.0859 66.8812 91.6525 66.8812Z" fill="#8F7EFE"/>
<path d="M93.3893 72.1309C93.9559 72.1309 93.9559 71.2437 93.3893 71.2437C92.8227 71.2437 92.8227 72.1309 93.3893 72.1309Z" fill="#8F7EFE"/>
<path d="M95.8849 69.0677C96.4515 69.0677 96.4515 68.1805 95.8849 68.1805C95.3183 68.1805 95.3183 69.0677 95.8849 69.0677Z" fill="#8F7EFE"/>
<path d="M88.6159 73.3342C89.1824 73.3342 89.1824 72.447 88.6159 72.447C88.0493 72.447 88.0493 73.3342 88.6159 73.3342Z" fill="#8F7EFE"/>
<path d="M91.2204 77.3824C91.7869 77.3824 91.7869 76.4952 91.2204 76.4952C90.6538 76.4952 90.6538 77.3824 91.2204 77.3824Z" fill="#8F7EFE"/>
<path d="M85.7955 78.914C86.3621 78.914 86.3621 78.0268 85.7955 78.0268C85.229 78.0268 85.229 78.914 85.7955 78.914Z" fill="#8F7EFE"/>
<path d="M103.695 67.5361C104.262 67.5361 104.262 66.6489 103.695 66.6489C103.129 66.6489 103.129 67.5361 103.695 67.5361Z" fill="#8F7EFE"/>
<path d="M109.878 69.1777C110.444 69.1777 110.444 68.2906 109.878 68.2906C109.311 68.2906 109.311 69.1777 109.878 69.1777Z" fill="#8F7EFE"/>
<path d="M106.84 74.2091C107.407 74.2091 107.407 73.322 106.84 73.322C106.273 73.322 106.273 74.2091 106.84 74.2091Z" fill="#8F7EFE"/>
<path d="M100.983 74.8658C101.549 74.8658 101.549 73.9786 100.983 73.9786C100.416 73.9786 100.416 74.8658 100.983 74.8658Z" fill="#8F7EFE"/>
<path d="M96.9679 78.914C97.5345 78.914 97.5345 78.0268 96.9679 78.0268C96.4013 78.0268 96.4013 78.914 96.9679 78.914Z" fill="#8F7EFE"/>
<path d="M98.9225 81.7571C99.4891 81.7571 99.4891 80.87 98.9225 80.87C98.3559 80.87 98.3559 81.7571 98.9225 81.7571Z" fill="#8F7EFE"/>
<path d="M103.804 78.5857H104.13C104.19 78.5874 104.248 78.575 104.299 78.5466C104.353 78.5289 104.401 78.4987 104.44 78.4544C104.482 78.4136 104.513 78.3674 104.531 78.3124C104.559 78.2592 104.572 78.2024 104.57 78.1421L104.554 78.025C104.533 77.9505 104.496 77.8848 104.441 77.8298L104.352 77.7606C104.283 77.7198 104.209 77.7003 104.13 77.7003H103.804C103.744 77.6985 103.686 77.7109 103.635 77.7393C103.581 77.7571 103.533 77.7872 103.495 77.8316C103.452 77.8724 103.421 77.9185 103.403 77.9735C103.375 78.0268 103.363 78.0835 103.364 78.1439L103.38 78.261C103.401 78.3355 103.438 78.4011 103.493 78.4561L103.583 78.5253C103.651 78.5662 103.725 78.5857 103.804 78.5857Z" fill="#8F7EFE"/>
<path d="M108.033 80.9922C108.6 80.9922 108.6 80.1051 108.033 80.1051C107.467 80.1051 107.467 80.9922 108.033 80.9922Z" fill="#8F7EFE"/>
<path d="M110.42 83.3988C110.987 83.3988 110.987 82.5116 110.42 82.5116C109.853 82.5116 109.853 83.3988 110.42 83.3988Z" fill="#8F7EFE"/>
<path d="M109.011 85.477C109.578 85.477 109.578 84.5899 109.011 84.5899C108.445 84.5899 108.445 85.477 109.011 85.477Z" fill="#8F7EFE"/>
<path d="M104.347 83.9454C104.914 83.9454 104.914 83.0583 104.347 83.0583C103.781 83.0583 103.781 83.9454 104.347 83.9454Z" fill="#8F7EFE"/>
<path d="M87.8561 84.9304C88.4227 84.9304 88.4227 84.0432 87.8561 84.0432C87.2895 84.0432 87.2895 84.9304 87.8561 84.9304Z" fill="#8F7EFE"/>
<path d="M88.2887 88.8686C88.8553 88.8686 88.8553 87.9814 88.2887 87.9814C87.7221 87.9814 87.7221 88.8686 88.2887 88.8686Z" fill="#8F7EFE"/>
<path d="M92.631 86.1337C93.1976 86.1337 93.1976 85.2465 92.631 85.2465C92.0644 85.2465 92.0644 86.1337 92.631 86.1337Z" fill="#8F7EFE"/>
<path d="M93.8234 90.5084C94.39 90.5084 94.39 89.6213 93.8234 89.6213C93.2568 89.6213 93.2568 90.5084 93.8234 90.5084Z" fill="#8F7EFE"/>
<path d="M96.5348 87.5553C97.1014 87.5553 97.1014 86.6681 96.5348 86.6681C95.9682 86.6681 95.9682 87.5553 96.5348 87.5553Z" fill="#8F7EFE"/>
<path d="M98.38 90.9468C98.9466 90.9468 98.9466 90.0596 98.38 90.0596C97.8134 90.0596 97.8134 90.9468 98.38 90.9468Z" fill="#8F7EFE"/>
<path d="M100.547 88.2119C101.114 88.2119 101.114 87.3247 100.547 87.3247C99.9809 87.3247 99.9809 88.2119 100.547 88.2119Z" fill="#8F7EFE"/>
<path d="M102.068 92.2584C102.635 92.2584 102.635 91.3712 102.068 91.3712C101.502 91.3712 101.502 92.2584 102.068 92.2584Z" fill="#8F7EFE"/>
<path d="M105.647 88.9768C106.213 88.9768 106.213 88.0897 105.647 88.0897C105.08 88.0897 105.08 88.9768 105.647 88.9768Z" fill="#8F7EFE"/>
<path d="M105.757 92.8068C106.324 92.8068 106.324 91.9196 105.757 91.9196C105.19 91.9196 105.19 92.8068 105.757 92.8068Z" fill="#8F7EFE"/>
<path d="M94.8004 96.7431C95.367 96.7431 95.367 95.856 94.8004 95.856C94.2338 95.856 94.2338 96.7431 94.8004 96.7431Z" fill="#8F7EFE"/>
<path d="M97.1867 99.2597C97.7532 99.2597 97.7532 98.3726 97.1867 98.3726C96.6201 98.3726 96.6201 99.2597 97.1867 99.2597Z" fill="#8F7EFE"/>
<path d="M102.285 97.9464C102.852 97.9464 102.852 97.0593 102.285 97.0593C101.719 97.0593 101.719 97.9464 102.285 97.9464Z" fill="#8F7EFE"/>
<path d="M105.431 99.3698C105.998 99.3698 105.998 98.4826 105.431 98.4826C104.865 98.4826 104.865 99.3698 105.431 99.3698Z" fill="#8F7EFE"/>
<path d="M109.77 96.7431C110.336 96.7431 110.336 95.856 109.77 95.856C109.203 95.856 109.203 96.7431 109.77 96.7431Z" fill="#8F7EFE"/>
<path d="M118.667 99.5881C119.233 99.5881 119.233 98.7009 118.667 98.7009C118.1 98.7009 118.1 99.5881 118.667 99.5881Z" fill="#8F7EFE"/>
<path d="M122.679 98.2747C123.245 98.2747 123.245 97.3876 122.679 97.3876C122.112 97.3876 122.112 98.2747 122.679 98.2747Z" fill="#8F7EFE"/>
<path d="M124.741 99.1497C125.307 99.1497 125.307 98.2625 124.741 98.2625C124.174 98.2625 124.174 99.1497 124.741 99.1497Z" fill="#8F7EFE"/>
<path d="M112.807 98.7131C113.373 98.7131 113.373 97.8259 112.807 97.8259C112.24 97.8259 112.24 98.7131 112.807 98.7131Z" fill="#8F7EFE"/>
<path d="M108.465 19.6145C108.614 20.0706 108.78 20.5196 108.959 20.9632C109.142 21.4051 109.347 21.8381 109.57 22.2605C109.797 22.6811 110.047 23.0875 110.32 23.4779C110.594 23.8666 110.904 24.2286 111.238 24.564C111.571 24.903 111.948 25.194 112.342 25.4496C112.442 25.5099 112.543 25.5791 112.641 25.6323C112.74 25.682 112.849 25.7193 112.947 25.7193C113.048 25.7193 113.122 25.6714 113.15 25.5827C113.178 25.4939 113.166 25.3679 113.164 25.2508C113.129 24.3049 112.849 23.3697 112.359 22.5622L112.5 22.4717C113.202 23.5383 114.17 24.4025 115.211 25.139C116.259 25.8684 117.37 26.5161 118.531 27.0432C119.693 27.572 120.92 27.9678 122.185 28.1328C123.447 28.3032 124.749 28.2571 125.983 27.9021C124.758 28.2872 123.449 28.3742 122.173 28.2269C120.893 28.0778 119.649 27.6963 118.472 27.1798C117.296 26.6528 116.177 26.0086 115.115 25.2774C114.06 24.5427 113.074 23.6625 112.363 22.564L112.504 22.4735C113.004 23.3075 113.287 24.2712 113.319 25.2437C113.319 25.3644 113.336 25.485 113.296 25.627C113.273 25.6962 113.227 25.7672 113.162 25.808C113.097 25.8524 113.019 25.8666 112.951 25.8666C112.812 25.8648 112.689 25.8169 112.578 25.7601C112.467 25.698 112.372 25.6306 112.27 25.5667C111.87 25.2987 111.49 24.9952 111.157 24.6474C110.482 23.9588 109.941 23.1496 109.508 22.2924C109.296 21.8612 109.102 21.4211 108.929 20.9739C108.761 20.5249 108.607 20.0706 108.468 19.6109L108.465 19.6145Z" fill="#FCF4EE"/>
<path d="M112.738 17.5753C113.542 18.4609 114.413 19.2772 115.349 20.0119C116.286 20.7448 117.28 21.4032 118.327 21.9605C119.369 22.5301 120.464 22.9969 121.588 23.3731L122.438 23.6375L123.299 23.8629L124.168 24.0546L125.046 24.209L124.159 24.1025L123.278 23.9499L122.407 23.7475L121.544 23.5044C120.402 23.1513 119.299 22.6792 118.241 22.1166C117.19 21.5434 116.187 20.8797 115.261 20.1184C114.336 19.3588 113.482 18.5088 112.732 17.5753H112.738Z" fill="#FCF4EE"/>
<path d="M106.942 21.4425C107.073 21.8151 107.173 22.2001 107.256 22.5869C107.34 22.9738 107.396 23.3659 107.44 23.7598C107.479 24.1537 107.504 24.5494 107.5 24.9468C107.498 25.1456 107.493 25.3425 107.484 25.5412C107.469 25.7382 107.456 25.9369 107.428 26.1321L107.398 25.5412C107.389 25.3443 107.379 25.1491 107.365 24.9521C107.337 24.56 107.307 24.1697 107.264 23.7793C107.226 23.3889 107.175 23.0004 107.122 22.6118C107.067 22.2232 107.002 21.8346 106.942 21.4443V21.4425Z" fill="#FCF4EE"/>
<path d="M105.753 22.8765C105.762 23.5349 105.698 24.1951 105.579 24.8447C105.461 25.496 105.278 26.1331 105.045 26.7525C104.81 27.3701 104.524 27.97 104.181 28.5344L103.915 28.9514L103.634 29.3579L103.329 29.7465C103.224 29.8725 103.116 29.9968 103.007 30.1192C103.101 29.9844 103.196 29.8495 103.292 29.7181L103.562 29.3082L103.82 28.8929L104.062 28.4669C104.373 27.8937 104.649 27.3009 104.878 26.6904C105.111 26.0817 105.297 25.4534 105.445 24.8181C105.591 24.1809 105.688 23.5314 105.751 22.8765H105.753Z" fill="#FCF4EE"/>
<path d="M103.92 23.8686C103.765 24.2678 103.557 24.6457 103.325 25.0042C103.093 25.3643 102.827 25.7015 102.549 26.0262C102.267 26.3473 101.972 26.6561 101.66 26.9471L101.191 27.3782C101.029 27.5166 100.87 27.6568 100.703 27.7899C100.842 27.6284 100.988 27.474 101.131 27.3144L101.565 26.8495C101.852 26.5372 102.141 26.2284 102.417 25.9091C102.697 25.5915 102.961 25.2632 103.216 24.9261C103.469 24.5872 103.701 24.2341 103.921 23.8686H103.92Z" fill="#FCF4EE"/>
<path d="M119.081 24.8553C121.605 25.9929 124.4 26.5165 127.161 26.3656" stroke="#FCF4EE" stroke-miterlimit="10"/>
<path d="M135.843 29.4634L136.573 28.2179L138.004 28.1185L137.055 27.0344L137.405 25.6326L136.089 26.2057L134.873 25.4375L135.009 26.8782L133.909 27.8062L135.308 28.122L135.843 29.4634Z" fill="#EA9D42"/>
<path d="M147.498 58.9477L148.903 59.2299L149.47 60.5588L150.17 59.2973L151.599 59.1642L150.626 58.1014L150.943 56.6925L149.639 57.2958L148.407 56.5577L148.574 57.9931L147.498 58.9477Z" fill="#EA9D42"/>
<path d="M92.0493 48.2389L93.4658 48.4678L94.0799 49.7755L94.7345 48.4891L96.1562 48.3028L95.1444 47.2772L95.4101 45.8559L94.1309 46.5089L92.871 45.8169L93.091 47.2453L92.0493 48.2389Z" fill="#EA9D42"/>
<path d="M127.573 44.077L128.118 43.1419L129.19 43.0638L128.476 42.2529L128.734 41.199L127.749 41.6337L126.834 41.0624L126.939 42.1412L126.118 42.8402L127.168 43.0727L127.573 44.077Z" fill="#EA9D42"/>
<path d="M89.6694 19.5519L90.741 19.6424L91.2724 20.5864L91.6912 19.5856L92.7434 19.3674L91.9305 18.6577L92.0484 17.5789L91.1281 18.1396L90.148 17.6942L90.3926 18.7499L89.6694 19.5519Z" fill="#EA9D42"/>
<path d="M145.319 18.7626C145.319 20.5303 146.739 21.9625 148.492 21.9625C146.739 21.9625 145.319 23.3947 145.319 25.1624C145.319 23.3947 143.898 21.9625 142.146 21.9625C143.898 21.9625 145.319 20.5303 145.319 18.7626Z" fill="white"/>
<path d="M98.9271 40.9594C98.9271 42.0897 99.8368 43.007 100.958 43.007C99.8368 43.007 98.9271 43.9243 98.9271 45.0546C98.9271 43.9243 98.0173 43.007 96.8965 43.007C98.0173 43.007 98.9271 42.0897 98.9271 40.9594Z" fill="white"/>
<path d="M131.025 48.3353C131.032 50.0049 132.38 51.3534 134.036 51.3481C132.38 51.3552 131.043 52.7144 131.048 54.384C131.041 52.7144 129.693 51.3659 128.038 51.3712C129.693 51.3641 131.031 50.0049 131.025 48.3353Z" fill="white"/>
<path d="M80.4524 51.5547C80.4524 53.2243 81.795 54.5781 83.4508 54.5781C81.795 54.5781 80.4524 55.932 80.4524 57.6016C80.4524 55.932 79.1099 54.5781 77.4541 54.5781C79.1099 54.5781 80.4524 53.2243 80.4524 51.5547Z" fill="white"/>
<path d="M96.7101 25.9147C97.2767 25.9147 97.2767 25.0275 96.7101 25.0275C96.1435 25.0275 96.1435 25.9147 96.7101 25.9147Z" fill="white"/>
<path d="M78.6183 49.6892C79.1849 49.6892 79.1849 48.802 78.6183 48.802C78.0517 48.802 78.0517 49.6892 78.6183 49.6892Z" fill="white"/>
<path d="M97.9596 38.5438C98.5262 38.5438 98.5262 37.6566 97.9596 37.6566C97.393 37.6566 97.393 38.5438 97.9596 38.5438Z" fill="white"/>
<path d="M103.246 48.3954C103.813 48.3954 103.813 47.5082 103.246 47.5082C102.68 47.5082 102.68 48.3954 103.246 48.3954Z" fill="white"/>
<path d="M124.839 48.6297C125.406 48.6297 125.406 47.7425 124.839 47.7425C124.273 47.7425 124.273 48.6297 124.839 48.6297Z" fill="white"/>
<path d="M134.102 20.0402C134.669 20.0402 134.669 19.1531 134.102 19.1531C133.536 19.1531 133.536 20.0402 134.102 20.0402Z" fill="white"/>
<path d="M131.188 33.0066C131.754 33.0066 131.754 32.1194 131.188 32.1194C130.621 32.1194 130.621 33.0066 131.188 33.0066Z" fill="white"/>
<path d="M141.861 26.5039C142.428 26.5039 142.428 25.6167 141.861 25.6167C141.294 25.6167 141.294 26.5039 141.861 26.5039Z" fill="white"/>
<path d="M153.575 52.6779C154.141 52.6779 154.141 51.7907 153.575 51.7907C153.008 51.7907 153.008 52.6779 153.575 52.6779Z" fill="white"/>
<path d="M82.3546 59.6935C82.9212 59.6935 82.9212 58.8063 82.3546 58.8063C81.788 58.8063 81.788 59.6935 82.3546 59.6935Z" fill="white"/>
<path d="M135.952 67.1988C136.179 67.1704 136.418 67.158 136.672 67.1598C136.925 67.1616 137.189 67.1971 137.467 67.2645C137.909 67.371 138.312 67.5396 138.674 67.7721C139.039 68.0045 139.338 68.292 139.575 68.6328C139.813 68.9735 139.973 69.3621 140.058 69.7969C140.142 70.2317 140.125 70.7073 140.001 71.222C139.871 71.7757 139.658 72.2406 139.364 72.6151C139.07 72.9895 138.729 73.2806 138.342 73.4864C137.955 73.6923 137.539 73.8201 137.096 73.8644C136.652 73.9088 136.218 73.8822 135.788 73.7793C135.364 73.6781 134.975 73.5255 134.623 73.3232C134.271 73.1209 133.968 72.8724 133.719 72.576C133.469 72.2814 133.277 71.9407 133.147 71.5574C133.016 71.1723 134.447 70.5245 134.474 70.0596L135.126 70.2158C135.104 70.4269 135.114 70.6239 135.158 70.8049C135.202 70.986 135.273 71.1492 135.369 71.2912C135.466 71.4349 135.588 71.5556 135.735 71.6568C135.883 71.7579 136.05 71.8289 136.237 71.8733C136.445 71.923 136.645 71.9301 136.835 71.8928C137.027 71.8555 137.2 71.7828 137.353 71.6745C137.506 71.5663 137.638 71.4278 137.749 71.261C137.86 71.0942 137.939 70.9025 137.99 70.6896C138.032 70.5103 138.039 70.3276 138.009 70.1412C137.979 69.9549 137.916 69.7792 137.817 69.6177C137.719 69.4562 137.587 69.3142 137.425 69.1918C137.261 69.0693 137.069 68.9824 136.849 68.9291C136.568 68.8617 136.318 68.8297 136.1 68.8351C135.881 68.8404 135.654 68.867 135.419 68.9167L134.766 68.7605L134.984 62.8847L141.237 64.386L140.763 66.3896L136.388 65.339L135.948 67.1988H135.952Z" fill="#28234C"/>
<path d="M135.3 67.0409C135.527 67.0125 135.766 67.0001 136.02 67.0019C136.273 67.0054 136.537 67.0391 136.815 67.1066C137.257 67.213 137.66 67.3816 138.023 67.6141C138.385 67.8466 138.686 68.1341 138.924 68.4748C139.161 68.8155 139.321 69.2042 139.406 69.639C139.49 70.0738 139.473 70.5494 139.35 71.064C139.219 71.6177 139.006 72.0827 138.712 72.4571C138.419 72.8316 138.077 73.1226 137.69 73.3285C137.303 73.5343 136.887 73.6621 136.444 73.7065C136 73.7509 135.566 73.7242 135.136 73.6213C134.712 73.5201 134.323 73.3675 133.971 73.1652C133.619 72.9629 133.317 72.7145 133.067 72.4181C132.817 72.1235 132.625 71.7828 132.495 71.3994C132.365 71.0161 132.312 70.5902 132.34 70.127L134.476 70.0596C134.454 70.2708 134.464 70.4677 134.508 70.6488C134.552 70.8298 134.622 70.993 134.719 71.135C134.816 71.2788 134.937 71.3994 135.085 71.5006C135.233 71.6017 135.4 71.6727 135.587 71.7171C135.795 71.7668 135.995 71.7739 136.185 71.7366C136.377 71.6994 136.55 71.6266 136.703 71.5183C136.856 71.4101 136.988 71.2717 137.099 71.1048C137.21 70.938 137.289 70.7464 137.34 70.5334C137.382 70.3542 137.389 70.1714 137.359 69.985C137.329 69.7987 137.266 69.623 137.167 69.4615C137.069 69.3 136.937 69.1581 136.775 69.0356C136.611 68.9131 136.419 68.8262 136.199 68.7729C135.918 68.7055 135.668 68.6736 135.45 68.6789C135.231 68.6842 135.004 68.7108 134.769 68.7605L133.086 68.0099L134.334 62.7267L140.587 64.2281L140.113 66.2317L135.738 65.1811L135.298 67.0409H135.3Z" fill="#EA9D42"/>
<path d="M139.375 64.9363L134.969 63.8164L134.038 67.3925L134.827 67.9338C134.827 67.9338 139.232 66.995 138.373 71.2207C138.373 71.2207 138.197 73.1267 135.758 72.8463C133.319 72.5659 133.429 70.6794 133.429 70.6794" stroke="#FCF4EE" stroke-miterlimit="10"/>
<g style="mix-blend-mode:overlay">
<path d="M140.37 65.8055C142.787 64.5473 143.736 61.5513 142.488 59.1136C141.24 56.676 138.269 55.7198 135.852 56.978C133.434 58.2362 132.486 61.2322 133.734 63.6698C134.981 66.1075 137.953 67.0636 140.37 65.8055Z" fill="#FCF4EE"/>
</g>
<g style="mix-blend-mode:overlay">
<path d="M141.189 66.5293C144.003 64.8147 144.905 61.125 143.204 58.2882C141.504 55.4514 137.845 54.5417 135.032 56.2563C132.219 57.971 131.316 61.6607 133.017 64.4975C134.717 67.3343 138.376 68.244 141.189 66.5293Z" stroke="#FCF4EE" stroke-width="3.05" stroke-miterlimit="10"/>
</g>
<path d="M137.018 62.2556C136.793 61.8563 136.981 61.3577 137.169 60.939C137.363 60.5078 137.558 60.0784 137.752 59.6473C137.797 60.1104 137.843 60.5717 137.891 61.0348C138.118 60.5699 138.241 60.0625 138.36 59.5586C138.44 59.225 138.52 58.8914 138.6 58.5596C138.795 59.6703 139.203 60.9088 138.876 62.0338C138.631 62.8766 137.498 63.1108 137.018 62.2556Z" fill="#F18701"/>
<path d="M137.589 61.894C137.63 61.7751 137.73 61.6882 137.816 61.5959C138.11 61.2836 138.263 60.8631 138.353 60.4426C138.374 60.8383 138.357 61.2375 138.304 61.6314C138.283 61.7805 138.256 61.9331 138.188 62.0679C137.992 62.4529 137.445 62.3287 137.589 61.8958V61.894Z" fill="#F7B801"/>
<path d="M125.187 71.6319L127.888 67.2663C128.128 66.9167 128.298 66.5795 128.404 66.2565C128.508 65.9335 128.531 65.6229 128.471 65.323C128.446 65.1952 128.395 65.0746 128.318 64.9592C128.24 64.8439 128.143 64.748 128.025 64.6682C127.908 64.5883 127.772 64.5333 127.619 64.5031C127.466 64.473 127.299 64.4747 127.121 64.5102C126.908 64.5528 126.727 64.6256 126.582 64.725C126.436 64.8243 126.322 64.945 126.239 65.0852C126.156 65.2254 126.102 65.3798 126.075 65.5502C126.051 65.7205 126.053 65.8927 126.083 66.0702L124.113 66.4659C124.011 65.9459 124.004 65.4668 124.094 65.0249C124.184 64.583 124.351 64.1926 124.594 63.8536C124.837 63.5147 125.146 63.2307 125.518 63.0053C125.891 62.7799 126.306 62.6202 126.764 62.5279C127.195 62.441 127.621 62.425 128.036 62.4783C128.453 62.5315 128.835 62.6557 129.185 62.8509C129.535 63.0461 129.833 63.3123 130.083 63.6513C130.331 63.9903 130.503 64.4038 130.6 64.8918C130.678 65.284 130.669 65.662 130.576 66.0258C130.482 66.3896 130.329 66.7516 130.12 67.1083L127.902 70.7588L131.6 70.0152L132.001 72.0419L125.528 73.3445L125.189 71.6284L125.187 71.6319Z" fill="#28234C"/>
<path d="M124.528 71.7632L127.229 67.3976C127.469 67.048 127.64 66.7108 127.745 66.3878C127.849 66.0648 127.872 65.7543 127.812 65.4544C127.787 65.3266 127.736 65.2059 127.659 65.0905C127.581 64.9752 127.485 64.8794 127.367 64.7995C127.249 64.7196 127.113 64.6646 126.96 64.6345C126.807 64.6043 126.64 64.6061 126.462 64.6416C126.249 64.6842 126.068 64.7569 125.924 64.8563C125.779 64.9557 125.663 65.0764 125.58 65.2166C125.498 65.3567 125.443 65.5111 125.417 65.6815C125.392 65.8519 125.394 66.024 125.424 66.2015L123.455 66.5972C123.352 66.0773 123.345 65.5981 123.435 65.1562C123.525 64.7143 123.692 64.3239 123.935 63.9849C124.178 63.646 124.488 63.362 124.859 63.1367C125.232 62.9113 125.647 62.7516 126.105 62.6593C126.536 62.5723 126.962 62.5563 127.377 62.6096C127.794 62.6628 128.176 62.787 128.527 62.9823C128.877 63.1775 129.174 63.4437 129.424 63.7826C129.672 64.1216 129.845 64.5351 129.941 65.0231C130.019 65.4153 130.01 65.7933 129.917 66.1571C129.824 66.5209 129.67 66.8829 129.461 67.2397L127.244 70.8901L130.941 70.1465L131.342 72.1732L124.869 73.4758L124.53 71.7597L124.528 71.7632Z" fill="#EA9D42"/>
<path d="M124.414 65.7331C124.414 65.7331 124.093 64.0099 126.307 63.4863C128.111 63.0604 128.891 64.3169 128.937 65.5077C128.981 66.6986 125.373 72.2695 125.373 72.2695L130.341 71.2366" stroke="#FCF4EE" stroke-miterlimit="10"/>
<g style="mix-blend-mode:overlay">
<path d="M129.701 64.3691C131.625 62.4293 131.625 59.2844 129.701 57.3447C127.778 55.405 124.659 55.405 122.735 57.3447C120.812 59.2844 120.812 62.4293 122.735 64.3691C124.659 66.3088 127.778 66.3088 129.701 64.3691Z" fill="#FCF4EE"/>
</g>
<g style="mix-blend-mode:overlay">
<path d="M126.217 66.8594C129.504 66.8594 132.169 64.1723 132.169 60.8576C132.169 57.5428 129.504 54.8557 126.217 54.8557C122.93 54.8557 120.265 57.5428 120.265 60.8576C120.265 64.1723 122.93 66.8594 126.217 66.8594Z" stroke="#FCF4EE" stroke-width="3.05" stroke-miterlimit="10"/>
</g>
<path d="M125.361 61.9538C125.048 61.6202 125.111 61.0897 125.195 60.639C125.282 60.1741 125.368 59.7092 125.454 59.2444C125.609 59.6826 125.764 60.1209 125.919 60.5592C126.029 60.0535 126.028 59.53 126.024 59.0119C126.024 58.6695 126.021 58.327 126.019 57.9828C126.471 59.0137 127.163 60.1191 127.113 61.2902C127.076 62.1667 126.033 62.6689 125.363 61.9538H125.361Z" fill="#F18701"/>
<path d="M125.829 61.4645C125.84 61.3385 125.917 61.2303 125.979 61.1203C126.19 60.7459 126.239 60.3005 126.227 59.8694C126.341 60.2491 126.421 60.6412 126.461 61.0351C126.477 61.1859 126.486 61.3385 126.452 61.4858C126.355 61.9081 125.792 61.9187 125.829 61.4627V61.4645Z" fill="#F7B801"/>
</svg>
