<svg width="13" height="10" viewBox="0 0 13 10" fill="none" xmlns="http://www.w3.org/2000/svg">
<path d="M10.9183 4.55613L9.42521 4.9288C9.39346 4.93693 9.36003 4.93567 9.32899 4.92516C9.29795 4.91466 9.27062 4.89536 9.25034 4.86962L7.61362 2.82346C7.51773 2.7123 7.399 2.62311 7.26553 2.56197C7.13206 2.50084 6.98698 2.46919 6.84017 2.46919C6.69336 2.46919 6.54828 2.50084 6.41481 2.56197C6.28134 2.62311 6.16261 2.7123 6.06672 2.82346L4.42947 4.87016C4.40861 4.89531 4.38113 4.91412 4.35013 4.92449C4.31914 4.93485 4.28587 4.93635 4.25407 4.92881L2.76207 4.55613C2.64485 4.52683 2.52204 4.52836 2.4056 4.56058C2.28915 4.59281 2.18302 4.65463 2.09755 4.74002C2.01207 4.82542 1.95016 4.93149 1.91783 5.04791C1.8855 5.16433 1.88385 5.28713 1.91305 5.40437L2.84763 9.14166C2.90076 9.35619 3.02427 9.54672 3.19843 9.6828C3.37259 9.81888 3.58733 9.89264 3.80835 9.89231H9.87171C10.0927 9.89264 10.3075 9.81888 10.4816 9.6828C10.6558 9.54672 10.7793 9.35619 10.8324 9.14166L11.767 5.40437C11.7962 5.28715 11.7946 5.16437 11.7623 5.04797C11.7299 4.93157 11.6681 4.82552 11.5826 4.74013C11.4972 4.65473 11.3911 4.59291 11.2747 4.56067C11.1582 4.52842 11.0355 4.52686 10.9183 4.55613Z" fill="white"/>
<path d="M1.79072 4.12583C2.24325 4.12583 2.6101 3.75898 2.6101 3.30645C2.6101 2.85392 2.24325 2.48708 1.79072 2.48708C1.33819 2.48708 0.971344 2.85392 0.971344 3.30645C0.971344 3.75898 1.33819 4.12583 1.79072 4.12583Z" fill="white"/>
<path d="M11.8906 4.12583C12.3431 4.12583 12.71 3.75898 12.71 3.30645C12.71 2.85392 12.3431 2.48708 11.8906 2.48708C11.438 2.48708 11.0712 2.85392 11.0712 3.30645C11.0712 3.75898 11.438 4.12583 11.8906 4.12583Z" fill="white"/>
<path d="M6.84047 1.80562C7.293 1.80562 7.65985 1.43877 7.65985 0.986241C7.65985 0.533711 7.293 0.166862 6.84047 0.166862C6.38794 0.166862 6.02109 0.533711 6.02109 0.986241C6.02109 1.43877 6.38794 1.80562 6.84047 1.80562Z" fill="white"/>
</svg>
