<svg width="20" height="21" viewBox="0 0 20 21" fill="none" xmlns="http://www.w3.org/2000/svg">
<path d="M8.97047 0.591644C4.02695 0.591644 0 4.61859 0 9.56213C0 14.5056 4.02695 18.5404 8.97047 18.5404C11.082 18.5404 13.024 17.8004 14.5588 16.5718L18.2953 20.3064C18.4839 20.4872 18.7357 20.5869 18.9969 20.5842C19.2581 20.5816 19.5079 20.4767 19.6927 20.2922C19.8775 20.1076 19.9827 19.858 19.9858 19.5968C19.9888 19.3356 19.8894 19.0836 19.7089 18.8948L15.9724 15.1583C17.202 13.6211 17.9429 11.6761 17.9429 9.56213C17.9429 4.61859 13.914 0.591644 8.97047 0.591644ZM8.97047 2.58555C12.8364 2.58555 15.9471 5.69618 15.9471 9.56213C15.9471 13.4281 12.8364 16.5465 8.97047 16.5465C5.10452 16.5465 1.99387 13.4281 1.99387 9.56213C1.99387 5.69618 5.10452 2.58555 8.97047 2.58555Z" fill="#1E1E1E"/>
</svg>
