<svg width="23" height="21" viewBox="0 0 23 21" fill="none" xmlns="http://www.w3.org/2000/svg">
<path d="M1.57572 4.01788C1.10243 4.01788 0.71875 4.40156 0.71875 4.87485C0.71875 5.34813 1.10243 5.73182 1.57572 5.73182V4.01788ZM1.57572 15.4441C1.10243 15.4441 0.71875 15.8278 0.71875 16.3011C0.71875 16.7744 1.10243 17.1581 1.57572 17.1581V15.4441ZM8.43148 17.1581C8.90477 17.1581 9.28845 16.7744 9.28845 16.3011C9.28845 15.8278 8.90477 15.4441 8.43148 15.4441V17.1581ZM22.143 17.1581C22.6163 17.1581 23 16.7744 23 16.3011C23 15.8278 22.6163 15.4441 22.143 15.4441V17.1581ZM15.2872 4.01788C14.814 4.01788 14.4303 4.40156 14.4303 4.87485C14.4303 5.34813 14.814 5.73182 15.2872 5.73182V4.01788ZM22.143 5.73182C22.6163 5.73182 23 5.34813 23 4.87485C23 4.40156 22.6163 4.01788 22.143 4.01788V5.73182ZM1.57572 5.73182H5.0036V4.01788H1.57572V5.73182ZM1.57572 17.1581H8.43148V15.4441H1.57572V17.1581ZM18.7151 17.1581H22.143V15.4441H18.7151V17.1581ZM15.2872 5.73182H22.143V4.01788H15.2872V5.73182ZM17.8582 16.3011C17.8582 17.7209 16.7071 18.872 15.2872 18.872V20.586C17.6537 20.586 19.5721 18.6676 19.5721 16.3011H17.8582ZM15.2872 18.872C13.8674 18.872 12.7163 17.7209 12.7163 16.3011H11.0024C11.0024 18.6676 12.9207 20.586 15.2872 20.586V18.872ZM12.7163 16.3011C12.7163 14.8813 13.8674 13.7302 15.2872 13.7302V12.0163C12.9207 12.0163 11.0024 13.9346 11.0024 16.3011H12.7163ZM15.2872 13.7302C16.7071 13.7302 17.8582 14.8813 17.8582 16.3011H19.5721C19.5721 13.9346 17.6537 12.0163 15.2872 12.0163V13.7302ZM11.0024 4.87485C11.0024 6.29472 9.85131 7.44576 8.43148 7.44576V9.1597C10.798 9.1597 12.7163 7.24131 12.7163 4.87485H11.0024ZM8.43148 7.44576C7.01161 7.44576 5.86057 6.29472 5.86057 4.87485H4.14663C4.14663 7.24131 6.06502 9.1597 8.43148 9.1597V7.44576ZM5.86057 4.87485C5.86057 3.45497 7.01161 2.30394 8.43148 2.30394V0.589996C6.06502 0.589996 4.14663 2.50839 4.14663 4.87485H5.86057ZM8.43148 2.30394C9.85131 2.30394 11.0024 3.45497 11.0024 4.87485H12.7163C12.7163 2.50839 10.798 0.589996 8.43148 0.589996V2.30394Z" fill="#1E1E1E"/>
</svg>
