<svg width="160" height="101" viewBox="0 0 160 101" fill="none" xmlns="http://www.w3.org/2000/svg">
<rect y="0.589996" width="160" height="100" rx="16" fill="#9350E9"/>
<g opacity="0.04">
<mask id="mask0_49_1346" style="mask-type:alpha" maskUnits="userSpaceOnUse" x="0" y="0" width="161" height="101">
<rect x="0.000244141" y="0.589996" width="160" height="100" rx="16" fill="#9350E9"/>
</mask>
<g mask="url(#mask0_49_1346)">
<path d="M107.267 160.59C105.937 160.096 104.493 160.009 103.112 159.846C97.5331 159.186 92.03 157.667 86.3528 158.077C83.0076 158.318 79.684 158.852 76.34 159.127C74.8565 159.248 74.0365 158.228 73.4833 156.916C72.9161 155.57 72.4745 153.75 70.5593 154.073C68.1385 154.48 67.4569 156.502 67.2113 158.68C67.1757 158.995 67.1169 159.308 67.0689 159.621C66.7977 159.436 66.4913 159.288 66.2613 159.061C62.6649 155.521 62.9801 150.628 67.9289 148.526C75.4245 145.342 79.5644 139.359 83.6912 133.027C85.3584 130.469 87.6652 128.321 90.9944 129.912C94.4324 131.554 93.7904 134.953 93.1564 137.742C91.4596 145.209 93.5632 152.63 98.3455 154.662C102.659 156.496 107.353 156.758 111.832 157.904C113.971 158.452 116.006 159.235 117.746 160.59H126.17C123.703 159.252 121.251 157.881 118.727 156.661C114.629 154.68 110.127 154.115 105.735 153.126C99.0631 151.625 96.0251 144.864 97.3563 137.423C99.1043 127.652 106.061 122.372 113.137 116.948C119.335 112.197 124.861 106.952 124.75 98.2903C124.68 92.8312 122.295 88.3024 118.523 84.5056C112.843 78.7876 113.567 72.4997 116.459 65.8037C119.337 59.1401 121.464 52.3434 118.833 44.9722C117.787 42.0434 115.411 40.6006 113.142 38.931C109.189 36.0235 109.079 33.2263 113.406 30.9319C118.712 28.1179 121.137 23.9203 122.213 18.1851C123.556 11.028 129.548 8.7548 136.544 12.1208C141.463 14.4872 145.444 18.4191 150.59 20.3751C153.757 21.5791 156.894 21.5643 160.001 20.3751V15.7068C150.75 20.1311 144.284 14.4096 137.73 9.0712C133.752 5.83081 129.429 4.38762 124.22 5.53401C122.464 5.92041 119.301 6.47761 119.283 3.59162C119.265 0.724838 121.993 0.927237 124.125 0.590439H112.841C113.137 5.47721 115.341 9.92879 116.131 14.7064C117.227 21.3387 113.834 25.7951 109.021 29.5571C107.381 30.8383 105.71 32.1079 103.924 33.1639C102.022 34.2887 99.5307 35.5499 98.2023 32.9419C96.8319 30.2519 99.5503 29.0687 101.434 28.0515C105.07 26.0883 109.609 25.3927 110.801 20.3615C112.001 15.2948 110.145 10.6424 109.179 5.85321C108.828 4.11282 108.6 2.34763 108.331 0.590439H104.01C104.612 2.42123 105.227 4.24842 105.804 6.08721C107.332 10.9544 109.388 15.936 105.344 20.5183C102.638 23.5855 98.6683 25.3635 96.2683 28.7735C92.9804 33.4455 89.5596 37.8911 84.0016 40.1086C82.7136 40.6226 80.8808 41.1406 80.984 42.8414C81.096 44.685 82.9364 45.4478 84.4016 46.2514C88.9084 48.7222 94.028 47.9714 98.8199 48.9498C101.274 49.4506 103.824 50.0954 104.722 52.813C105.407 54.8854 104.103 56.5838 102.545 57.6402C99.4727 59.7233 96.278 61.6581 92.9948 63.3909C85.0584 67.5801 78.0188 72.6981 74.0669 81.0928C73.0081 83.3416 72.1601 85.8196 73.5829 88.2368C74.3633 89.5624 75.8109 90.0632 77.3452 89.8588C80.1668 89.4828 82.442 87.8732 84.764 86.3928C89.5836 83.32 94.2812 79.63 100.163 79.278C106.444 78.9024 111.107 83.2848 116.118 86.2692C120.363 88.798 122.944 92.7248 122.139 97.8895C120.657 107.405 114.735 113.933 107.011 119.013C104.568 120.62 101.746 122.101 98.8007 120.541C96.0848 119.103 96.468 116.233 96.9939 113.828C98.1195 108.685 96.2207 105.626 91.7792 102.822C86.0772 99.2239 85.9672 96.2008 90.6084 92.1356C93.9744 89.1876 97.8879 86.1128 102.541 86.9308C109.675 88.1852 113.385 93.7452 113.48 101.47C113.492 102.464 113.272 103.793 114.573 104.233C114.985 104.372 115.787 103.984 116.128 103.592C117.489 102.026 118.026 100.101 118.163 98.0619C118.547 92.3748 114.577 89.8172 110.398 87.6004C107.124 85.864 104.156 82.8872 100.072 83.5616C94.6748 84.4532 90.9824 88.7972 86.1828 90.9872C82.0004 92.8956 81.4 95.5328 84.308 99.1207C85.6192 100.738 87.242 102.185 88.9516 103.383C95.5912 108.034 96.3704 111.288 92.0028 117.238C89.74 120.32 86.8052 123.084 85.2648 126.486C81.7336 134.287 76.85 140.035 68.4657 143.072C59.5153 146.315 56.9541 154.55 62.2393 160.589H107.267L107.267 160.59ZM81.3112 84.588C80.1392 85.744 78.1508 87.3792 76.86 85.692C75.0053 83.268 77.4652 81.2956 78.964 79.68C85.3436 72.8037 93.4512 68.1457 100.994 62.7557C103.976 60.6253 106.749 58.0573 107.629 54.3046C108.437 50.863 105.612 49.7482 103.25 48.4558C102.546 48.0706 101.348 47.9542 101.472 47.0034C101.518 46.6578 102.998 46.3034 103.829 46.2906C108.353 46.221 111.246 48.9506 111.246 54.4394C110.845 59.7233 106.676 63.9765 101.781 67.3321C94.3596 72.4197 87.6884 78.2984 81.3108 84.588H81.3112ZM93.9068 78.1672C93.6796 78.238 93.4352 78.2544 93.1988 78.296C93.2828 78.044 93.3168 77.7588 93.4588 77.5457C96.4839 72.9945 101.474 70.8377 105.653 67.7345C111.901 63.0949 115.632 54.2062 112.969 48.9566C110.974 45.0254 107.606 43.3958 102.688 43.4038C100.208 43.375 97.3191 44.4022 94.386 45.2386C93.1408 45.5938 91.4716 46.3398 90.7736 44.8882C90.0932 43.4726 91.662 42.6258 92.7708 42.0354C101.425 37.4251 114.684 38.6478 117.409 49.8966C119.029 56.5842 115.998 62.1805 111.939 67.1497C107.253 72.8869 100.838 76.0025 93.9072 78.1676L93.9068 78.1672Z" fill="white"/>
<path d="M99.3212 0.590439H96.0708C98.1056 3.05763 99.686 5.73321 100.097 9.0344C100.609 13.1452 99.7188 16.938 96.7316 19.7367C91.428 24.7055 88.074 31.4335 82.1377 35.7719C77.6941 39.019 72.9121 38.1755 68.4133 36.0875C63.067 33.6059 58.0002 34.0631 52.8662 36.4315C52.5462 36.5791 52.1742 36.6139 51.8266 36.7015C51.9198 36.3419 51.9638 35.9599 52.1138 35.6259C53.901 31.6507 60.9122 30.0919 66.2697 32.3903C71.6361 34.6931 77.0073 37.6935 82.6609 33.0287C86.5172 29.8467 88.7668 25.3959 91.7628 21.5331C94.04 18.5967 97.2012 16.122 97.368 12.0496C97.59 6.63761 94.6876 3.12043 90.3784 0.590839H68.7445C70.7881 1.29684 72.8245 2.02883 74.9009 2.62003C78.8337 3.74002 82.7425 1.99363 86.6704 2.34643C90.508 2.69083 93.3452 4.73442 95.1884 8.056C96.3208 10.096 96.2848 12.2128 94.9112 14.2276C94.372 15.0184 93.6688 15.506 92.7528 15.3684C91.6572 15.204 91.2084 14.2888 90.9688 13.3148C89.3448 6.71561 87.4492 5.32562 80.9021 7.14041C76.6265 8.3256 73.4573 6.09401 70.0117 4.69082C62.5234 1.64123 55.125 6.41681 55.0906 14.4588C55.0822 16.3988 54.9566 18.3436 54.775 20.2759C54.6482 21.6219 54.3858 23.1687 52.5382 22.9083C50.8494 22.6703 50.2266 21.1087 50.2782 19.6987C50.565 11.902 52.0606 2.84243 61.2106 0.591239H54.4134C49.6898 6.56641 47.6686 13.4228 48.4094 21.0083C48.6866 23.8435 50.2474 26.4963 53.5954 26.0047C57.2202 25.4723 56.7418 22.0091 57.1254 19.4055C57.8202 14.6912 57.1482 9.3632 62.4802 6.72081C66.0013 4.97562 69.3629 6.17441 72.2209 8.3648C74.6861 10.254 77.0573 10.958 80.2517 10.6224C87.3116 9.88079 89.842 13.3892 88.1304 20.8171C86.5676 27.5999 81.0621 33.4343 76.2041 33.3299C72.5777 33.2519 69.9157 30.7007 66.7509 29.4347C60.5802 26.9659 55.6086 29.6383 50.929 33.3551C43.8207 39.0006 36.2075 43.547 26.8955 44.359C26.0311 44.4342 25.0036 44.3062 24.8064 43.3494C24.586 42.279 25.6555 41.981 26.4443 41.7018C30.7863 40.1666 35.3363 39.2058 39.3923 36.8851C45.4667 33.4095 46.1454 28.1107 45.1215 21.7719C43.9135 14.2952 45.6082 7.18361 49.3642 0.592039H45.7906C42.9123 7.7772 43.3371 15.3936 42.9775 22.9151C42.7683 27.2943 41.8227 31.5003 38.6395 34.7675C32.0567 41.5238 22.162 41.2398 14.85 34.2895C13.8556 33.3443 12.5476 31.4355 11.088 32.6571C9.61203 33.8927 11.0852 35.4651 11.9836 36.7063C12.5968 37.5539 13.2032 38.4187 13.9124 39.1826C17.6788 43.2398 21.0504 47.9934 27.6083 47.3582C31.5887 46.9726 34.6963 44.5078 38.1295 42.841C45.5611 39.233 53.059 43.887 53.059 52.1714C53.059 62.4161 42.5647 69.6401 31.9855 67.4273C24.6652 65.8961 18.1808 62.1405 10.9144 60.6185C6.82404 59.7617 1.89927 62.5573 0.88007 66.6461C0.0264745 70.0709 2.41006 72.9697 6.79404 74.1529C13.0124 75.8313 18.8092 78.1897 22.9044 83.6412C27.2099 89.3732 28.7479 89.5692 34.8339 85.3324C39.8895 81.8132 45.0859 80.2128 51.1814 82.4368C56.7562 84.4708 59.0714 82.9764 59.1246 77.0525C59.193 69.4489 62.6966 64.5653 69.6369 61.8717C75.6069 59.5549 78.7329 53.9194 77.2341 47.8206C76.4345 44.567 73.8261 43.293 70.7805 43.9874C68.0633 44.607 69.0597 47.039 69.4409 48.8202C70.4757 53.6558 70.1137 57.9762 65.6741 61.1141C62.865 63.0997 60.2082 65.2409 58.8754 68.5905C57.8602 71.1425 56.7786 73.6833 54.8522 75.6985C50.601 80.1456 44.8567 79.3976 39.5207 79.9352C28.1491 81.0804 18.75 75.6977 9.32243 70.5345C7.48604 69.5289 5.29165 68.0889 6.76204 65.6629C8.15643 63.3629 10.5868 64.1341 12.4968 65.2809C18.864 69.1029 25.0484 73.1277 32.5823 74.5997C39.0187 75.8573 45.5363 74.2689 48.5234 70.1921C54.271 62.3477 55.7626 53.4714 55.4518 44.021C55.261 38.2239 58.5934 35.6075 64.0926 37.4511C72.8993 40.4042 80.9305 40.1998 87.5868 32.8351C91.0332 29.0223 93.7268 24.5183 97.9404 21.4119C101.622 18.6975 103.338 15.2316 102.621 10.582C102.076 7.04761 100.611 3.85522 99.3196 0.591239L99.3212 0.590439Z" fill="white"/>
<path d="M110.537 147.753C118.196 150.398 124.535 155.508 131.798 158.871C133.091 159.47 134.402 160.03 135.714 160.59H141.125C140.846 160.548 140.571 160.496 140.309 160.445C133.775 159.159 128.599 155.605 124.035 150.841C116.716 143.2 118.305 126.433 126.949 120.393C131.751 117.037 136.42 113.478 141 109.825C142.35 108.748 143.605 106.583 142.02 105.253C140.377 103.873 139.689 106.303 138.71 107.305C136.928 109.13 135.304 111.203 133.247 112.651C125.307 118.24 118.152 124.338 116.188 134.572C115.841 136.379 115.054 138.257 112.754 137.644C110.974 137.169 110.872 135.355 111.193 133.792C112.952 125.24 118.638 119.484 125.105 114.263C128.794 111.286 133.278 109.001 135.042 104.19C136.496 100.222 134.428 96.3603 134.244 92.4236C134.092 89.1676 134.718 85.568 132.594 82.8148C131.012 80.7624 128.245 79.6056 126.737 77.5196C122.688 71.9189 124.071 65.6041 125.592 59.6233C127.267 53.0385 128.761 46.6158 127.183 39.7558C125.71 33.349 125.798 26.9267 128.744 20.8259C129.256 19.7647 130.056 18.7779 131.391 19.0607C132.772 19.3531 132.951 20.5787 132.945 21.7835C132.921 26.7335 131.437 31.5571 131.946 36.5846C132.423 41.3054 135.576 44.779 139.169 43.925C145.414 42.4406 152.306 45.6938 154.531 51.6662C156.738 57.5929 155.505 64.0681 156.848 70.1745C157.48 73.0524 157.905 76.0136 160 78.2488V68.8509C158.839 65.6925 158.559 62.3369 158.491 59.0389C158.278 48.6538 153.577 41.9538 143.544 38.801C137.122 36.783 134.94 32.4654 135.34 23.7663C135.482 20.6727 136.501 17.0235 132.331 16.1623C128.478 15.3663 127.447 18.9443 126.308 21.6847C124.698 25.5567 122.254 28.7571 119.408 31.8075C116.521 34.9014 119.565 37.1514 121.164 39.4094C126.468 46.895 125.676 55.0101 122.2 62.4761C118.185 71.1005 119.917 77.5064 126.151 84.1372C132.464 90.8516 133.254 101.374 128.48 107.8C124.752 112.818 118.938 115.687 114.591 120.115C109.414 125.387 103.32 130.21 102.372 138.184C101.694 143.881 106.032 146.197 110.537 147.753Z" fill="white"/>
<path d="M98.5984 53.8817C98.5172 53.4697 97.7512 53.0001 97.23 52.8977C92.854 52.0378 88.3001 52.1898 84.0809 50.3866C82.5793 49.7446 81.8213 50.8446 81.7013 52.1918C81.1169 58.7353 78.2177 63.4097 71.7221 65.6525C67.9286 66.9621 64.1586 68.8689 63.2666 73.2524C62.6426 76.318 62.8806 79.5684 62.8226 82.738C62.749 86.7856 60.6398 88.7124 56.739 87.96C53.2886 87.294 49.9099 85.942 46.4467 85.7196C39.0011 85.2416 34.4667 90.2888 30.3092 95.4583C28.3396 97.9071 28.6788 100.664 31.174 102.802C32.8215 104.215 34.5851 103.7 36.1507 102.582C38.0195 101.248 39.5999 99.3199 41.6447 98.4523C52.2738 93.9415 62.5946 96.1007 72.0769 101.487C80.5213 106.283 82.3621 112.811 78.5161 119.251C74.9561 125.212 68.8374 126.93 62.8434 128.942C54.8302 131.632 47.8027 135.386 45.6343 144.632C44.4647 149.62 41.9531 153.816 36.3867 154.684C31.3552 155.468 28.1684 152.13 25.0168 148.841C22.352 146.06 19.8804 142.926 16.1108 141.543C9.53126 139.13 4.64649 142.423 0.00170898 146.366V152.11C1.3789 150.098 2.6469 147.998 4.72049 146.567C10.8665 142.325 16.1168 143.331 20.7556 149.352C23.9012 153.436 27.2796 157.34 31.3164 160.591H46.4163C44.1791 151.178 48.3915 143.91 54.8086 137.572C58.9062 133.524 64.5882 132.035 69.553 129.383C76.1365 125.867 81.6893 121.351 83.1589 113.484C84.2369 107.715 80.1461 104.907 76.2625 101.997C73.4517 99.8899 69.8618 98.4231 69.2426 94.3267C69.1442 93.6755 69.4982 92.9559 69.643 92.2679C69.9674 92.4235 70.3766 92.5023 70.5998 92.7495C71.1097 93.3143 71.5033 93.9827 71.9893 94.5719C75.0545 98.2883 78.9765 101.035 82.6789 104.033C87.7405 108.131 87.5849 113.087 83.5421 120.208C78.2513 129.527 69.4482 134.164 60.6646 138.973C54.207 142.509 48.1967 152.482 51.7466 160.591H56.7578C52.2414 151.188 57.2654 141.287 66.5454 138.135C70.6294 136.748 75.1245 136.053 77.9213 132.16C81.1781 127.626 82.9349 122.158 86.8481 118.017C88.7009 116.056 90.6808 113.96 90.3601 110.95C89.9361 106.972 86.4517 105.363 83.8637 103.114C79.0769 98.9539 73.2541 95.5087 71.2461 89.1236C68.5398 80.5176 73.1217 73.946 78.5389 67.9385C83.6589 62.2605 90.8881 59.8197 97.226 56.0109C98 55.5457 98.794 54.8741 98.5984 53.8833V53.8817ZM72.5841 72.5897C69.9658 77.3292 69.0386 82.494 68.2482 87.7792C67.311 94.0439 62.6598 96.9651 56.4882 94.4295C48.3095 91.0696 41.5059 91.9975 35.4255 98.4287C34.7375 99.1563 33.3059 100.219 32.7107 99.1647C31.6823 97.3435 33.2783 95.7991 34.4163 94.4843C40.2191 87.7796 47.0515 86.6752 55.1738 90.1568C58.2934 91.494 62.6454 93.3567 64.5518 88.2128C65.5258 85.5848 65.4266 82.5584 65.8126 79.7124C65.9774 76.3072 65.7634 72.7357 68.5082 70.1073C69.671 68.9937 71.2381 67.9145 72.7361 68.8829C74.2061 69.8329 73.2297 71.4213 72.5841 72.5897Z" fill="white"/>
<path d="M74.9849 113.082C73.9109 112.047 72.5141 114.831 71.3953 116.028C68.9886 118.603 66.2018 120.093 62.7274 118.653C59.4702 117.304 56.3066 116.509 52.855 117.843C45.7507 120.587 39.6647 125.517 31.8675 126.898C25.2004 128.079 17.5488 124.411 15.4744 117.969C13.848 112.918 15.1728 107.529 13.9072 102.41C11.8836 94.2259 8.08007 87.4291 0.00170898 83.9083V87.7087C6.10768 90.7047 8.88246 96.2607 10.4177 102.437C12.4944 110.79 13.6908 119.365 10.9801 127.769C9.31686 132.925 4.94328 135.603 0.00170898 137.289V140.566C11.3497 132.096 20.2944 134.878 28.7004 144.568C33.1387 149.684 37.7639 149.702 40.2555 143.424C43.9827 134.032 49.7587 127.208 59.7378 124.349C64.5158 122.98 69.8878 122.892 73.5073 118.725C74.9261 117.092 76.6901 114.725 74.9853 113.083L74.9849 113.082ZM56.9646 122.519C50.4055 125.965 45.3087 131.481 38.9659 135.216C36.7023 136.549 34.2047 137.206 31.244 137.221C26.9768 137.058 22.8668 135.424 19.1044 132.898C18.3 132.358 17.1852 131.546 17.8364 130.313C18.6968 128.683 20.2932 128.864 21.654 129.422C31.7803 133.579 39.7347 128.783 47.6131 123.329C50.2683 121.491 53.021 119.639 56.5506 119.931C57.2982 119.993 57.9774 120.335 57.9726 120.939C57.9682 121.48 57.4634 122.257 56.9642 122.519L56.9646 122.519Z" fill="white"/>
<path d="M67.7794 103.72C60.1258 100.454 52.0374 101.633 44.0843 102.251C42.4651 102.377 40.7639 103.876 41.0815 105.83C41.2919 107.123 43.0411 106.924 44.0679 106.675C49.8299 105.278 55.6282 104.409 61.5386 105.345C63.2906 105.622 65.9878 105.416 65.9818 107.911C65.9754 110.509 63.4186 110.311 61.5846 110.149C56.1614 109.669 50.8162 109.077 45.4491 110.937C34.1943 114.836 27.576 111.956 24.78 100.377C21.4772 86.6999 13.1104 79.5772 0.00170898 77.0408V79.2224C0.0909085 79.2364 0.179308 79.254 0.264508 79.2812C11.3137 82.8016 20.1348 95.8539 20.6952 109.262C20.8744 113.549 21.6812 117.835 25.8104 120.198C30.5344 122.901 34.9607 120.859 38.9475 118.325C46.3335 113.632 53.5022 109.183 62.9054 113.024C65.4538 114.065 68.741 112.86 70.1177 109.883C71.3029 107.319 70.1461 104.729 67.7794 103.719V103.72Z" fill="white"/>
<path d="M47.5323 46.9682C45.5183 44.0338 41.2963 43.673 37.6199 46.2814C34.6215 48.4086 32.1171 51.3533 28.076 51.6161C21.7372 52.0281 17.6864 48.1166 13.6752 44.073C8.22207 38.5758 6.62928 38.2486 0.00170898 41.637V46.9902C6.28768 43.8706 10.9597 47.8722 15.9692 50.7953C24.864 55.9857 30.5968 55.3681 39.2783 48.6642C40.4907 47.7278 42.1391 46.419 43.3851 47.8394C44.8931 49.559 43.6051 51.5141 42.2695 52.8277C36.2771 58.7225 28.996 58.8741 21.3204 57.4077C16.1692 56.4237 12.0544 52.9545 7.03207 51.7257C4.45409 51.0949 2.1973 51.9729 0.00210898 53.1241V58.0413C2.4537 56.0441 5.18888 54.4177 8.40447 55.4041C13.5412 56.9801 18.4288 59.4037 23.596 60.8401C30.7592 62.8313 38.0711 64.3589 44.9155 59.4941C48.7607 56.7609 50.0875 50.6897 47.5327 46.9678L47.5323 46.9682Z" fill="white"/>
<path d="M160.001 84.4499C158.977 83.3348 157.895 82.2572 157.094 81C152.876 74.3804 152.751 66.7412 152.002 59.2917C151.32 52.5117 145.649 47.8021 139.084 48.7769C133.502 49.6057 129.379 55.1497 129.141 61.7977C128.989 66.0412 128.081 70.3512 130.771 74.1688C132.219 76.2252 135.286 76.2824 136.555 78.5748C138.399 81.902 137.252 85.5463 137.487 89.0419C137.795 93.6275 139.051 97.7183 143.06 100.414C148.971 104.389 152.923 103.86 160.001 98.1047V84.4499ZM153.239 100.615C148.92 101.781 145.592 99.8679 143.037 96.5135C140.765 93.5295 140.38 89.9623 140.347 86.3403C140.332 82.2424 141.542 77.7572 137.708 74.6648C135.526 72.9052 132.385 72.526 131.407 69.1232C129.419 62.2101 133.126 53.8545 139.219 52.1745C143.989 50.8589 148.404 54.7153 149.95 61.3593C151.562 68.2856 150.814 75.7452 154.517 82.1876C156.302 85.2919 158.755 88.1019 158.875 91.9051C159.006 96.0583 157.596 99.4383 153.239 100.615Z" fill="white"/>
<path d="M32.6598 0.590396H25.921C24.629 3.02198 23.1934 5.39437 22.1558 7.93036C20.3914 12.2439 21.7294 15.6979 25.6046 18.2663C27.0854 19.2475 28.9026 20.1051 28.939 22.2451C28.9482 22.7771 28.3366 23.6591 27.843 23.8023C25.561 24.4655 23.7034 23.3231 22.1854 21.8339C16.0527 15.8179 15.0531 8.36996 19.2462 0.881995C19.2986 0.788395 19.3422 0.690396 19.3826 0.590396H16.3459C13.2999 7.12316 14.7755 17.6963 19.6678 22.9467C22.0822 25.5379 24.937 27.6243 28.6894 26.0471C31.9058 24.6955 32.0802 21.5471 31.947 18.6223C31.6718 12.5803 31.2646 6.54997 32.6598 0.589996V0.590396Z" fill="white"/>
<path d="M160.001 25.6611C154.896 28.3035 150.666 26.0471 146.344 23.0671C144.554 21.8327 142.162 18.1403 139.963 21.7975C138.252 24.6419 139.175 28.2667 141.546 30.9887C144.644 34.5467 149.311 35.483 153.182 37.757C155.807 39.2994 157.981 41.3086 160 43.5158V25.6607L160.001 25.6611Z" fill="white"/>
<path d="M41.1039 0.590439H37.9615C37.7939 1.07604 37.6215 1.56003 37.4959 2.05603C35.7671 8.9052 37.1763 15.9676 36.0887 22.8671C35.3455 27.5807 31.7519 32.0483 27.4631 32.7999C23.5743 33.4811 20.2664 31.8559 18.1528 28.6427C12.5512 20.1251 9.86281 10.8296 11.3156 0.590439H8.00041C7.88722 1.16724 7.74642 1.74603 7.78842 2.31123C8.54321 12.532 11.6208 22.2607 16.9672 30.7411C21.2971 37.6091 29.1591 39.6746 35.4803 31.9843C39.6299 26.9363 40.1423 20.9495 40.1931 14.7668C40.2319 10.0304 39.5863 5.22562 41.1039 0.590439Z" fill="white"/>
<path d="M6.18448 104.167C5.40448 100.019 3.79529 96.1515 0.00170898 93.7459V99.3695C3.20169 103.594 3.58609 108.606 3.66329 113.677C3.71649 117.181 2.6853 120.266 0.00170898 122.597V131.141C2.3833 130.24 3.97609 128.413 5.06808 126.213C8.62247 119.055 7.57567 111.565 6.18448 104.166V104.167Z" fill="white"/>
<path d="M8.65798 19.2789C7.16518 13.0453 3.5392 7.30574 4.1052 0.590576H1.71841C1.08121 5.23815 3.1612 9.32773 4.5812 13.5401C6.97318 20.6353 5.42119 26.7976 0.0012207 31.428V36.2604C5.86319 34.9952 10.2952 26.1184 8.65758 19.2789H8.65798Z" fill="white"/>
<path d="M160.001 3.83562C158.009 5.18962 156.24 6.90641 153.797 7.528C148.595 8.8516 144.844 6.20681 141.265 3.02563C140.325 2.19043 139.351 1.39483 138.384 0.590439H130.073C133.89 1.18364 137.056 3.28443 140.104 5.63881C146.129 10.2928 152.192 14.6764 160.001 9.96359V3.83562Z" fill="white"/>
<path d="M145.661 0.590439C147.206 2.19763 148.858 3.69522 151.219 3.86922C153.808 4.06042 155.36 2.37963 156.794 0.590439H145.661Z" fill="white"/>
<path d="M1.5729 15.5147C1.3121 13.5267 1.0949 11.4619 0.00170898 9.69395V25.3791C0.0209089 25.3599 0.0385088 25.3399 0.0517087 25.3171C1.8721 22.2583 2.0153 18.8899 1.5729 15.5147Z" fill="white"/>
<path d="M108.887 102.49C108.515 105.49 108.753 109.541 104.577 111.163C101.895 112.205 102.498 109.662 102.292 108.283C101.741 104.597 99.5679 102.051 96.6827 99.9463C95.6223 99.1727 93.8896 98.5851 94.1887 97.0483C94.5995 94.9387 96.6083 94.0315 98.4291 93.3707C104.885 91.0279 108.887 94.3323 108.887 102.49Z" fill="white"/>
<path d="M65.6436 52.2546C65.7688 55.5213 64.8128 58.1065 61.3036 59.0273C59.1344 59.5965 58.7264 58.0421 58.7604 56.5457C58.8588 52.1674 59.0916 47.7898 59.3848 43.4194C59.4568 42.3458 59.7832 41.013 61.1756 40.9446C63.1712 40.8466 63.6448 42.6246 64.178 44.0138C65.1888 46.647 65.6752 49.413 65.6436 52.2546Z" fill="white"/>
<path d="M74.9305 29.1902C71.2721 26.9115 66.6753 24.7551 62.9961 21.5447C59.721 18.6867 60.7198 11.7879 64.0109 10.4271C67.1797 9.11714 69.2053 11.6479 71.3817 13.2487C73.8965 15.0983 76.4897 15.8287 79.6557 15.2971C84.0892 14.5523 85.238 16.1283 83.8464 21.0671C82.7008 25.1327 80.3177 28.185 74.9305 29.1906V29.1902Z" fill="white"/>
<path d="M144.581 85.23C144.687 80.2504 145.489 75.1261 141.552 71.0065C139.803 69.1769 136.697 68.9985 135.653 66.4109C134.325 63.1197 136.694 58.6853 140.537 58.0625C144.778 57.3753 145.137 61.3261 145.935 64.0285C147.983 70.9609 147.287 78.5548 150.884 85.134C152.174 87.4924 154.028 89.592 154.459 92.3392C154.707 93.9156 154.23 95.4571 152.533 95.9827C149.505 96.9207 147.657 95.1255 146.165 92.8352C144.656 90.5188 144.44 87.9044 144.581 85.23H144.581Z" fill="white"/>
</g>
</g>
<path d="M11.005 63.59V53.39H14.935C17.17 53.39 18.565 54.485 18.565 56.225C18.565 57.125 18.115 57.815 17.32 58.205C18.49 58.595 19.135 59.465 19.135 60.635C19.135 62.51 17.785 63.59 15.445 63.59H11.005ZM14.89 54.995H13.03V57.635H14.845C15.925 57.635 16.495 57.11 16.495 56.33C16.495 55.505 15.91 54.995 14.89 54.995ZM15.28 59.135H13.03V61.985H15.4C16.45 61.985 17.065 61.415 17.065 60.56C17.065 59.705 16.42 59.135 15.28 59.135ZM20.5237 54.65V52.79H22.4437V54.65H20.5237ZM20.5237 63.59V55.55H22.4437V63.59H20.5237ZM24.2004 63.59V55.55H26.1204V56.72C26.6454 55.76 27.4554 55.325 28.3254 55.325C28.6554 55.325 28.9554 55.415 29.1054 55.55V57.215C28.8504 57.14 28.5654 57.11 28.2204 57.11C26.7654 57.11 26.1204 57.98 26.1204 59.315V63.59H24.2004ZM30.3734 61.085V57.035H29.3384V55.55H30.3734V53.705H32.2934V55.55H33.9884V57.035H32.2934V60.92C32.2934 61.76 32.5334 62.21 33.5984 62.21H33.9584V63.62C33.7484 63.725 33.3134 63.815 32.7884 63.815C31.1534 63.815 30.3734 62.885 30.3734 61.085ZM35.1135 63.59V52.79H37.0335V56.63C37.5585 55.76 38.3985 55.325 39.4185 55.325C41.0235 55.325 42.1185 56.285 42.1185 58.235V63.59H40.1985V58.625C40.1985 57.53 39.7335 56.915 38.7585 56.915C37.6935 56.915 37.0335 57.845 37.0335 58.925V63.59H35.1135ZM46.9029 63.815C44.8029 63.815 43.5129 62.21 43.5129 59.585C43.5129 56.855 44.8329 55.325 46.9029 55.325C47.7879 55.325 48.5229 55.7 49.0179 56.42V52.79H50.9379V63.59H49.0179V62.675C48.5079 63.41 47.7879 63.815 46.9029 63.815ZM47.2479 62.225C48.4029 62.225 49.0179 61.295 49.0179 59.585C49.0179 57.875 48.3729 56.915 47.2479 56.915C46.1079 56.915 45.4929 57.86 45.4929 59.585C45.4929 61.28 46.1229 62.225 47.2479 62.225ZM54.5516 58.19H52.6166C52.8716 56.405 54.1766 55.325 56.2016 55.325C58.4366 55.325 59.5766 56.645 59.5766 58.505V61.625C59.5766 62.615 59.6666 63.17 59.8166 63.59H57.8216C57.7166 63.32 57.6716 62.93 57.6566 62.495C56.9966 63.425 56.0066 63.815 55.0466 63.815C53.4716 63.815 52.3466 63.035 52.3466 61.49C52.3466 60.395 52.9616 59.57 54.1916 59.165C55.2566 58.805 56.2916 58.715 57.6416 58.7V58.505C57.6416 57.47 57.1466 56.915 56.0816 56.915C55.1666 56.915 54.6716 57.425 54.5516 58.19ZM54.2816 61.385C54.2816 62 54.7616 62.39 55.5416 62.39C56.7266 62.39 57.6416 61.43 57.6416 60.23V59.885C54.9116 59.93 54.2816 60.575 54.2816 61.385ZM61.8952 67.115C61.5052 67.115 61.1002 67.01 60.9052 66.935V65.465H61.3552C62.2252 65.465 62.6302 65.285 63.2452 63.755L63.4402 63.26L60.2752 55.55H62.3302L64.1152 60.215L64.4452 61.385L64.7752 60.215L66.4852 55.55H68.4502L64.9102 64.385C64.0852 66.47 63.3652 67.115 61.8952 67.115Z" fill="white"/>
<path d="M12.46 42.59V36.9H10.27V35.79H16V36.9H13.81V42.59H12.46ZM20.9292 40.84C20.6392 42.08 19.6792 42.74 18.3992 42.74C16.7792 42.74 15.7892 41.67 15.7892 39.92C15.7892 38.1 16.7892 37.08 18.3492 37.08C19.9192 37.08 20.8892 38.14 20.8892 39.87V40.17H17.1092C17.1692 41.15 17.6192 41.69 18.3992 41.69C18.9992 41.69 19.4092 41.41 19.5792 40.84H20.9292ZM18.3492 38.13C17.6692 38.13 17.2592 38.56 17.1392 39.37H19.5492C19.4292 38.57 19.0192 38.13 18.3492 38.13ZM21.8498 42.59V37.23H23.1298V37.92C23.4698 37.36 23.9898 37.08 24.6198 37.08C25.2998 37.08 25.8298 37.38 26.0998 37.99C26.4598 37.38 27.0298 37.08 27.7198 37.08C28.7498 37.08 29.4498 37.72 29.4498 39.02V42.59H28.1698V39.28C28.1698 38.55 27.8998 38.14 27.3298 38.14C26.6898 38.14 26.2898 38.76 26.2898 39.48V42.59H25.0098V39.28C25.0098 38.55 24.7398 38.14 24.1698 38.14C23.5298 38.14 23.1298 38.76 23.1298 39.48V42.59H21.8498ZM31.9091 44.79H30.6291V37.23H31.9091V37.84C32.2491 37.35 32.7291 37.08 33.3191 37.08C34.7191 37.08 35.5791 38.15 35.5791 39.9C35.5791 41.72 34.6991 42.74 33.3191 42.74C32.7291 42.74 32.2391 42.49 31.9091 42.01V44.79ZM33.0891 38.14C32.3191 38.14 31.9091 38.76 31.9091 39.9C31.9091 41.04 32.3391 41.68 33.0891 41.68C33.8491 41.68 34.2591 41.05 34.2591 39.9C34.2591 38.77 33.8391 38.14 33.0891 38.14ZM36.2817 42.59V41.18H37.6917V42.59H36.2817ZM42.1667 44.4C41.1867 42.87 40.6767 41.38 40.6767 39.89C40.6767 38.4 41.1867 36.92 42.1667 35.39H43.4467C42.5267 36.95 42.0567 38.42 42.0567 39.89C42.0567 41.37 42.5267 42.84 43.4467 44.4H42.1667ZM46.5633 42.59H45.2133C45.5133 40.51 46.3233 38.71 47.4833 37.15H44.1533V36.16H48.8533V36.97C47.5333 38.74 46.7633 40.63 46.5633 42.59ZM54.805 40.44C54.805 41.75 53.945 42.74 52.345 42.74C50.885 42.74 49.955 41.97 49.775 40.72H51.055C51.165 41.31 51.585 41.68 52.335 41.68C53.115 41.68 53.525 41.22 53.525 40.45C53.525 39.79 53.205 39.19 52.315 39.19C51.735 39.19 51.375 39.45 51.175 39.76L50.025 39.65L50.225 36.16H54.475V37.15H51.265L51.185 38.49C51.515 38.28 51.905 38.15 52.425 38.15C54.105 38.15 54.805 39.19 54.805 40.44ZM56.5767 44.4H55.3067C56.2267 42.84 56.6967 41.37 56.6967 39.89C56.6967 38.42 56.2267 36.95 55.3067 35.39H56.5767C57.5567 36.92 58.0667 38.4 58.0667 39.89C58.0667 41.38 57.5567 42.87 56.5767 44.4Z" fill="white"/>
<path d="M86.2248 49.786C86.7722 53.9691 87.2649 58.4734 85.285 62.1915C84.5563 63.5616 81.7509 69.1574 84.4437 74.1427C86.9165 78.7251 86.0699 79.9142 85.2586 82.7342" stroke="white" stroke-width="1.6" stroke-miterlimit="10" stroke-linecap="round"/>
<path d="M76.9942 41.6293C79.5971 45.7358 83.4284 49.6134 85.528 50.4227C85.1126 50.8131 84.7958 51.31 84.6269 51.8566C84.5635 52.0642 84.5547 52.3517 84.7554 52.4316C84.8838 52.483 85.0282 52.4103 85.1425 52.3322C85.7427 51.9223 86.1774 51.2781 86.3498 50.5682C86.3762 50.5646 86.4026 50.5611 86.4308 50.5558C86.5575 51.0686 86.8039 51.5496 87.1453 51.9506C87.2896 52.121 87.4603 52.2807 87.675 52.3375C87.8897 52.3943 88.1537 52.3109 88.2382 52.1033C88.3051 51.9418 88.2488 51.7572 88.1854 51.5939C87.9795 51.0615 87.6962 50.5629 87.3477 50.1121C87.6486 49.8992 87.9725 49.6152 88.3086 49.2745C84.3488 47.0242 80.5615 44.4652 76.9907 41.6293H76.9942Z" fill="white"/>
<path d="M95.4261 33.1649C94.921 27.2926 89.7998 22.943 83.978 23.4328C87.3394 27.3725 91.2059 30.8739 95.449 33.8269C95.449 33.5997 95.4455 33.3779 95.4261 33.1649Z" fill="#EA9D42"/>
<path d="M94.5281 38.5155C95.0948 36.8332 95.4432 35.2111 95.4468 33.8269C91.2037 30.8739 87.3372 27.3725 83.9758 23.4328C83.9652 23.4328 83.9547 23.4328 83.9423 23.4345C82.3971 23.5694 80.9611 24.0344 79.6904 24.7513C83.8315 30.1285 88.87 34.7994 94.5281 38.5155Z" fill="white"/>
<path d="M74.2877 33.2684C74.2454 33.8399 74.2454 34.4219 74.2947 35.0129C74.4619 36.9579 75.5372 39.3289 76.9944 41.6288C80.5652 44.4647 84.3525 47.0238 88.3123 49.274C88.9951 48.5837 89.736 47.6555 90.4734 46.5748C84.5514 42.848 79.1028 38.3635 74.2877 33.2684Z" fill="#EA9D42"/>
<path d="M79.6924 24.7514C78.3285 25.5198 77.1582 26.5811 76.2554 27.8428C80.8557 33.6832 86.5032 38.6824 92.8353 42.5334C93.4935 41.2166 94.0796 39.8484 94.5283 38.5156C88.8703 34.7995 83.8317 30.1286 79.6907 24.7514H79.6924Z" fill="#EA9D42"/>
<path d="M76.2552 27.843C75.1411 29.4012 74.4372 31.2663 74.2876 33.2681C79.1027 38.3632 84.5531 42.8477 90.4733 46.5745C91.2934 45.373 92.11 43.987 92.8369 42.5336C86.503 38.6808 80.8573 33.6816 76.2569 27.843H76.2552Z" fill="white"/>
<g style="mix-blend-mode:multiply" opacity="0.5">
<path d="M95.4269 33.1655C95.0608 28.9167 92.28 25.4666 88.5665 24.0681C89.1085 24.9218 89.5538 25.8358 89.8865 26.7924C90.3863 28.2281 90.6362 29.7455 90.7172 31.2665C90.9266 35.1887 90.0009 39.1659 88.0825 42.5841C86.7713 44.9197 85.0007 46.989 82.9116 48.6537C83.906 49.5216 84.8177 50.1481 85.5287 50.4232C85.1134 50.8136 84.7966 51.3105 84.6276 51.8572C84.5643 52.0648 84.5555 52.3523 84.7561 52.4322C84.8846 52.4836 85.0289 52.4109 85.1433 52.3328C85.7434 51.921 86.1782 51.2786 86.3506 50.5687C86.377 50.5651 86.4034 50.5616 86.4316 50.5563C86.5601 51.0692 86.8047 51.5501 87.1462 51.9512C87.2905 52.1216 87.4612 52.2813 87.6759 52.3381C87.8906 52.3949 88.1546 52.3115 88.2391 52.1038C88.306 51.9423 88.2497 51.7578 88.1863 51.5945C87.9804 51.0621 87.697 50.5634 87.3486 50.1126C90.4549 47.9101 95.8704 38.3744 95.4234 33.1655H95.4269Z" fill="#D17B60"/>
</g>
<path d="M76.1025 35.52C75.8262 34.3292 75.8402 33.0621 76.0937 31.8447C76.3453 30.6255 76.8363 29.4471 77.5438 28.4143C78.2495 27.3779 79.1682 26.4976 80.2065 25.8251C81.2449 25.1542 82.4152 24.6893 83.6155 24.5278C82.4926 24.9839 81.4561 25.5677 80.5286 26.29C79.6029 27.0105 78.7933 27.8677 78.1351 28.826C77.4787 29.7861 76.9736 30.8544 76.634 31.9831C76.2961 33.1136 76.1218 34.299 76.1007 35.5182L76.1025 35.52Z" fill="#FCF4EE"/>
<path d="M142.685 56.3668C142.766 60.5854 142.759 65.1181 140.379 68.5895C139.503 69.8691 136.099 75.1152 138.222 80.3721C140.173 85.2029 139.2 86.2891 138.081 89.0009" stroke="#28234C" stroke-width="1.6" stroke-miterlimit="10"/>
<path d="M134.414 47.2215C136.547 51.5943 139.924 55.88 141.923 56.9182C141.467 57.2589 141.098 57.7186 140.869 58.2421C140.783 58.4409 140.742 58.7266 140.932 58.8277C141.055 58.8934 141.205 58.8366 141.328 58.7709C141.971 58.4302 142.474 57.8393 142.724 57.1542C142.75 57.1542 142.778 57.1542 142.807 57.1507C142.877 57.6742 143.067 58.1818 143.363 58.6183C143.488 58.8029 143.639 58.9821 143.847 59.062C144.053 59.1418 144.325 59.0886 144.433 58.8934C144.517 58.7408 144.482 58.5509 144.436 58.3805C144.29 57.8286 144.063 57.2998 143.767 56.8135C144.089 56.636 144.443 56.3894 144.815 56.0894C141.129 53.4079 137.648 50.439 134.414 47.2197V47.2215Z" fill="white"/>
<path d="M153.667 40.8815C153.815 34.9879 149.204 30.0898 143.364 29.923C146.27 34.2159 149.725 38.1308 153.616 41.5417C153.642 41.3163 153.661 41.0945 153.667 40.8815Z" fill="#6400E3"/>
<path d="M152.184 46.099C152.933 44.4911 153.458 42.917 153.614 41.5417C149.725 38.1308 146.269 34.2177 143.363 29.923C143.352 29.923 143.342 29.923 143.33 29.923C141.779 29.884 140.301 30.1839 138.958 30.7536C142.48 36.5638 146.969 41.7706 152.182 46.099H152.184Z" fill="white"/>
<path d="M132.647 38.6104C132.541 39.173 132.476 39.7533 132.462 40.3442C132.413 42.2946 133.219 44.772 134.414 47.2228C137.649 50.442 141.13 53.411 144.815 56.0925C145.57 55.4838 146.407 54.6426 147.259 53.6541C141.788 49.2849 136.867 44.2165 132.645 38.6122L132.647 38.6104Z" fill="#6400E3"/>
<path d="M138.96 30.7518C137.518 31.3623 136.239 32.2851 135.202 33.4387C139.128 39.76 144.188 45.3608 150.056 49.9021C150.856 48.6687 151.589 47.3732 152.182 46.099C146.971 41.7706 142.479 36.562 138.958 30.7536L138.96 30.7518Z" fill="#6400E3"/>
<path d="M135.202 33.4388C133.923 34.8638 133.017 36.6367 132.647 38.6101C136.869 44.2145 141.79 49.2829 147.261 53.6521C148.21 52.55 149.172 51.2652 150.056 49.9022C144.188 45.3627 139.129 39.7601 135.202 33.4388Z" fill="white"/>
<g style="mix-blend-mode:multiply" opacity="0.5">
<path d="M153.667 40.8821C153.772 36.6192 151.391 32.878 147.855 31.0695C148.299 31.9782 148.642 32.9365 148.867 33.9251C149.205 35.4088 149.286 36.9457 149.198 38.4649C148.973 42.3871 147.612 46.2347 145.328 49.4169C143.767 51.5909 141.778 53.4491 139.52 54.8671C140.412 55.8415 141.248 56.5673 141.926 56.9187C141.47 57.2595 141.1 57.7192 140.872 58.2427C140.785 58.4415 140.745 58.7272 140.935 58.8284C141.058 58.894 141.208 58.8372 141.331 58.7716C141.973 58.4308 142.477 57.8398 142.727 57.1548C142.753 57.1548 142.781 57.1548 142.809 57.1512C142.88 57.6748 143.07 58.1824 143.366 58.619C143.491 58.8035 143.642 58.9828 143.85 59.0626C144.057 59.1425 144.328 59.0893 144.436 58.894C144.52 58.7414 144.485 58.5515 144.439 58.3811C144.293 57.8292 144.066 57.3003 143.77 56.814C147.1 54.9754 153.537 46.107 153.667 40.8786V40.8821Z" fill="#D17B60"/>
</g>
<path d="M134.201 41.0496C134.058 39.8358 134.211 38.5776 134.597 37.3976C134.982 36.2157 135.6 35.0995 136.418 34.1519C137.233 33.2025 138.243 32.4288 139.35 31.8787C140.455 31.3286 141.669 30.9985 142.882 30.9719C141.717 31.2984 140.621 31.7633 139.621 32.3756C138.622 32.9878 137.722 33.7491 136.962 34.6275C136.204 35.5094 135.584 36.5121 135.121 37.5963C134.66 38.6806 134.358 39.8411 134.201 41.0496Z" fill="#FCF4EE"/>
<path d="M128.266 100.588L126.478 91.9221C126.478 91.9221 134.227 95.3722 137.305 93.1041C140.383 90.836 130.149 59.2809 130.948 59.0999C133.609 58.4947 130.153 53.678 111.18 52.1021C100.187 51.1881 89.7222 56.8335 89.8225 57.5239C89.9211 58.2143 90.7166 58.4113 90.5177 59.1993C90.3188 59.9873 94.3914 80.9826 93.7966 86.2057C93.1999 91.4305 91.3132 100.59 91.3132 100.59H128.268L128.266 100.588Z" fill="#6400E3"/>
<path d="M127.05 60.6581C127.274 61.9306 127.42 63.2119 127.524 64.4985C127.58 65.1409 127.612 65.7851 127.647 66.4293C127.675 67.0735 127.689 67.7195 127.705 68.3637C127.709 69.0096 127.707 69.6538 127.696 70.2998C127.677 70.944 127.661 71.59 127.621 72.2342C127.548 73.5226 127.434 74.8074 127.242 76.0852C127.214 74.7932 127.216 73.5084 127.209 72.2235L127.196 70.298L127.189 69.3362L127.175 68.3743L127.165 67.4125L127.147 66.4506L127.112 64.5251C127.086 63.2403 127.054 61.9554 127.047 60.6635L127.05 60.6581Z" fill="#28234C"/>
<path d="M113.539 62.9032C113.704 63.6752 113.868 64.449 114.026 65.2228L114.48 67.5495L114.892 69.8851L115.274 72.226C115.761 75.3513 116.143 78.4908 116.465 81.6375C116.759 84.7876 116.995 87.9431 117.124 91.1022L117.203 93.4733L117.252 95.8443L117.259 98.2154C117.254 99.0052 117.243 99.7967 117.231 100.586C117.206 99.7967 117.184 99.0069 117.166 98.2172L117.08 95.8497L116.979 93.4821L116.853 91.1164C116.668 87.9627 116.437 84.8143 116.115 81.6729C115.821 78.5281 115.436 75.3939 115.006 72.265L114.672 69.9206L114.311 67.5797L113.936 65.2405C113.801 64.4632 113.669 63.6841 113.54 62.9032H113.539Z" fill="#28234C"/>
<path d="M130.466 96.8062C141.045 96.8062 149.62 95.0693 149.62 92.9266C149.62 90.784 141.045 89.047 130.466 89.047C119.888 89.047 111.312 90.784 111.312 92.9266C111.312 95.0693 119.888 96.8062 130.466 96.8062Z" fill="#6400E3"/>
<path d="M130.466 96.4531C141.045 96.4531 149.62 94.7161 149.62 92.5735C149.62 90.4308 141.045 88.6939 130.466 88.6939C119.888 88.6939 111.312 90.4308 111.312 92.5735C111.312 94.7161 119.888 96.4531 130.466 96.4531Z" fill="#B5D3F6"/>
<path d="M113.824 92.1493C113.824 91.5973 111.272 73.9421 111.272 73.9421L150.478 74.3095L147.376 92.884C147.376 92.884 141.135 94.6978 131.422 94.6978C121.709 94.6978 113.824 92.1493 113.824 92.1493Z" fill="#EA9D42"/>
<path d="M113.071 83.5524C113.314 83.2045 113.854 83.2631 114.247 83.3891C114.81 83.5701 115.264 84.0103 115.751 84.3297C116.32 84.7007 116.957 84.9261 117.64 84.8391C118.284 84.7575 118.865 84.4877 119.477 84.2907C120.058 84.1043 120.602 84.06 121.174 84.3049C121.714 84.5374 122.191 84.8977 122.71 85.171C123.298 85.4798 123.923 85.6555 124.59 85.6306C125.257 85.6058 125.871 85.439 126.494 85.2668C127.117 85.0947 127.709 84.9101 128.339 84.8906C128.969 84.871 129.53 85.0947 130.104 85.3609C130.736 85.6537 131.38 85.9093 132.089 85.8489C132.741 85.7939 133.344 85.5632 133.959 85.352C134.522 85.1585 135.127 84.9686 135.726 85.1142C136.371 85.2721 136.942 85.6448 137.605 85.7353C138.883 85.911 139.768 84.9562 140.854 84.4877C142.033 83.9783 143.265 84.7397 144.448 84.8622C145.127 84.9332 145.768 84.7521 146.329 84.3652C146.826 84.0227 147.278 83.54 147.891 83.4175C148.097 83.3767 148.345 83.3802 148.512 83.5258C148.693 83.682 148.957 83.705 149.135 83.5258C149.293 83.366 149.316 83.0555 149.135 82.8975C148.588 82.4272 147.871 82.4308 147.231 82.7023C146.59 82.9738 146.152 83.4867 145.559 83.8009C145.015 84.0884 144.408 83.9961 143.837 83.8523C143.186 83.6891 142.547 83.4654 141.873 83.4246C141.199 83.3838 140.627 83.5861 140.067 83.8949C139.566 84.1718 139.096 84.5445 138.557 84.745C138.293 84.8426 138.019 84.9012 137.735 84.8639C137.424 84.8231 137.125 84.6936 136.836 84.5747C136.178 84.3031 135.558 84.1114 134.84 84.2108C133.582 84.383 132.404 85.2757 131.113 84.8284C130.463 84.6048 129.877 84.2108 129.198 84.0742C128.518 83.9375 127.843 84.0156 127.179 84.1682C125.989 84.4415 124.717 85.0396 123.502 84.564C122.934 84.3422 122.438 83.957 121.899 83.6731C121.313 83.3643 120.688 83.1744 120.023 83.2596C119.358 83.3448 118.752 83.6376 118.115 83.8328C117.823 83.9233 117.527 83.989 117.219 83.9695C116.929 83.9517 116.66 83.8346 116.411 83.6908C115.846 83.3625 115.368 82.8957 114.762 82.6384C114.227 82.4112 113.583 82.3065 113.03 82.5284C112.731 82.6491 112.504 82.8407 112.319 83.1052C112.182 83.3004 112.284 83.5985 112.478 83.7121C112.698 83.8417 112.942 83.7494 113.08 83.5524H113.071Z" fill="#8F7EFE"/>
<path d="M113.567 88.8536C114.173 88.6229 114.834 88.5341 115.477 88.6477C116.119 88.7613 116.67 89.0807 117.247 89.3896C117.825 89.6984 118.435 89.945 119.094 89.8723C119.752 89.7995 120.319 89.4694 120.959 89.3754C121.544 89.2902 122.001 89.6291 122.466 89.9326C123.015 90.2894 123.59 90.5325 124.254 90.5112C125.456 90.4739 126.642 89.6842 127.846 90.0391C128.974 90.3728 129.895 91.3063 131.132 91.269C131.764 91.2495 132.334 90.9762 132.883 90.6851C133.394 90.4154 133.906 90.1279 134.497 90.1403C135.088 90.1527 135.699 90.4136 136.269 90.6141C136.873 90.8253 137.51 91.001 138.154 90.9336C138.799 90.8661 139.335 90.6567 139.902 90.4207C140.426 90.2024 140.976 89.9451 141.548 89.8865C142.19 89.8208 142.709 90.1207 143.295 90.3319C143.85 90.5325 144.42 90.5396 144.966 90.3142C145.428 90.1225 145.831 89.8332 146.24 89.5457C146.611 89.2831 146.975 89.024 147.385 88.9352C147.451 88.921 147.495 88.9175 147.613 88.9246C147.662 88.9281 147.767 88.9547 147.871 88.992C148.095 89.0736 148.353 88.8997 148.413 88.6814C148.48 88.4347 148.331 88.2182 148.105 88.1348C147.111 87.7692 146.231 88.4809 145.458 89.0151C145.08 89.2777 144.694 89.5475 144.244 89.599C143.711 89.6611 143.091 89.2511 142.544 89.0914C141.287 88.7258 140.15 89.4162 139.003 89.8226C138.45 90.0178 137.899 90.1243 137.317 89.9983C136.692 89.8634 136.109 89.5883 135.495 89.4144C134.881 89.2405 134.21 89.1837 133.58 89.3896C132.95 89.5954 132.448 89.9592 131.862 90.2006C131.341 90.4171 130.85 90.4189 130.324 90.2272C129.798 90.0356 129.305 89.7037 128.788 89.4605C128.21 89.189 127.61 89.0115 126.968 89.0648C126.325 89.118 125.69 89.3328 125.055 89.4907C124.506 89.6274 123.927 89.7072 123.399 89.4517C122.844 89.1819 122.385 88.7506 121.788 88.5625C121.13 88.3549 120.479 88.5536 119.852 88.7684C119.574 88.8642 119.284 88.9725 118.988 88.992C118.692 89.0115 118.404 88.9459 118.126 88.8323C117.529 88.5891 117.003 88.204 116.396 87.9769C115.751 87.7355 115.035 87.6592 114.356 87.7461C114.004 87.7905 113.664 87.8686 113.33 87.9946C113.108 88.0798 112.955 88.2945 113.022 88.5412C113.08 88.756 113.34 88.9352 113.564 88.8518L113.567 88.8536Z" fill="#8F7EFE"/>
<path d="M122.378 79.0426C122.945 79.0426 122.945 78.1554 122.378 78.1554C121.811 78.1554 121.811 79.0426 122.378 79.0426Z" fill="#FCF4EE"/>
<path d="M126.089 79.1082C126.656 79.1082 126.656 78.2211 126.089 78.2211C125.522 78.2211 125.522 79.1082 126.089 79.1082Z" fill="#FCF4EE"/>
<path d="M129.476 79.0426C130.042 79.0426 130.042 78.1554 129.476 78.1554C128.909 78.1554 128.909 79.0426 129.476 79.0426Z" fill="#FCF4EE"/>
<path d="M133.255 79.1082C133.821 79.1082 133.821 78.2211 133.255 78.2211C132.688 78.2211 132.688 79.1082 133.255 79.1082Z" fill="#FCF4EE"/>
<path d="M137.421 79.1082C137.988 79.1082 137.988 78.2211 137.421 78.2211C136.854 78.2211 136.854 79.1082 137.421 79.1082Z" fill="#FCF4EE"/>
<path d="M116.062 81.0305C116.206 81.0661 116.314 81.1426 116.415 81.228C116.512 81.317 116.598 81.4167 116.649 81.5573C116.505 81.5217 116.397 81.447 116.296 81.3598C116.201 81.269 116.113 81.1693 116.062 81.0305Z" fill="#FCF4EE"/>
<path d="M117.949 80.9648C118.076 81.0519 118.154 81.1656 118.222 81.2847C118.286 81.4073 118.337 81.5352 118.34 81.688C118.214 81.601 118.134 81.489 118.067 81.3682C118.004 81.2456 117.953 81.1176 117.949 80.9648Z" fill="#FCF4EE"/>
<path d="M122.705 81.7528C122.763 81.8721 122.784 81.9717 122.807 82.075C122.825 82.18 122.841 82.2796 122.83 82.4131C122.715 82.3437 122.659 82.2262 122.634 82.1088C122.615 81.9895 122.624 81.8596 122.705 81.7528Z" fill="#FCF4EE"/>
<path d="M125.186 82.0776C125.293 82.1488 125.35 82.2413 125.396 82.3375C125.436 82.4371 125.466 82.5421 125.445 82.6703C125.337 82.6009 125.279 82.5083 125.235 82.4104C125.195 82.3108 125.165 82.2057 125.186 82.0776Z" fill="#FCF4EE"/>
<path d="M128.18 81.9463C128.29 82.0281 128.351 82.1296 128.399 82.2382C128.443 82.3485 128.475 82.4624 128.456 82.5995C128.344 82.5176 128.284 82.4161 128.237 82.3076C128.194 82.1972 128.163 82.0833 128.18 81.9463Z" fill="#FCF4EE"/>
<path d="M129.476 81.5558C129.608 81.6021 129.693 81.7107 129.742 81.8299C129.788 81.9492 129.802 82.088 129.74 82.2144C129.663 82.0987 129.622 82.0008 129.58 81.8975C129.541 81.7925 129.5 81.6929 129.476 81.5576V81.5558Z" fill="#FCF4EE"/>
<path d="M131.169 81.6215C131.259 81.6927 131.296 81.7763 131.319 81.8635C131.339 81.9525 131.346 82.0433 131.3 82.1483C131.21 82.0771 131.173 81.9935 131.15 81.9063C131.13 81.8173 131.125 81.7265 131.169 81.6215Z" fill="#FCF4EE"/>
<path d="M135.207 81.8841C135.287 81.9517 135.313 82.0264 135.327 82.1011C135.336 82.1776 135.331 82.2576 135.273 82.3447C135.193 82.2772 135.167 82.2042 135.153 82.1278C135.144 82.0513 135.149 81.9713 135.207 81.8841Z" fill="#FCF4EE"/>
<path d="M137.292 81.6871C137.371 81.8131 137.398 81.9426 137.412 82.0739C137.421 82.2052 137.415 82.3383 137.357 82.4749C137.276 82.349 137.25 82.2194 137.238 82.0881C137.229 81.9568 137.234 81.8238 137.292 81.6871Z" fill="#FCF4EE"/>
<path d="M133.58 83.2631C133.649 83.3292 133.665 83.3953 133.669 83.4614C133.667 83.5274 133.651 83.5935 133.58 83.6596C133.509 83.5935 133.493 83.5274 133.492 83.4614C133.495 83.3953 133.511 83.3292 133.58 83.2631Z" fill="#FCF4EE"/>
<path d="M141.465 81.5576C141.513 81.6433 141.527 81.6933 141.538 81.7523C141.543 81.8112 141.543 81.863 141.517 81.9577C141.419 81.9344 141.375 81.8523 141.363 81.7737C141.355 81.6951 141.378 81.604 141.465 81.5576Z" fill="#FCF4EE"/>
<path d="M142.943 80.3756C143.033 80.4593 143.07 80.5536 143.096 80.6515C143.116 80.7512 143.123 80.8526 143.077 80.9665C142.987 80.8829 142.948 80.7885 142.923 80.6906C142.904 80.591 142.897 80.4895 142.943 80.3756Z" fill="#FCF4EE"/>
<path d="M145.171 80.8335C145.24 80.9207 145.256 81.0097 145.26 81.0969C145.258 81.1841 145.242 81.2731 145.171 81.3603C145.101 81.2731 145.085 81.1841 145.083 81.0969C145.087 81.0097 145.102 80.9207 145.171 80.8335Z" fill="#FCF4EE"/>
<path d="M146.865 80.5052C146.927 80.6155 146.921 80.7348 146.888 80.8416C146.851 80.9466 146.787 81.0462 146.671 81.0979C146.667 80.9715 146.692 80.8807 146.72 80.7846C146.754 80.692 146.787 80.6031 146.863 80.5034L146.865 80.5052Z" fill="#FCF4EE"/>
<path d="M144.261 83.0661C144.316 83.1218 144.32 83.1596 144.313 83.1937C144.299 83.2261 144.274 83.2548 144.195 83.2656C144.14 83.2099 144.135 83.1722 144.144 83.138C144.158 83.1057 144.183 83.0769 144.261 83.0661Z" fill="#FCF4EE"/>
<path d="M146.481 86.4168C146.527 86.5219 146.52 86.6126 146.501 86.7016C146.476 86.7888 146.439 86.8725 146.349 86.9437C146.303 86.8387 146.31 86.7479 146.329 86.6589C146.354 86.5717 146.391 86.488 146.481 86.4168Z" fill="#FCF4EE"/>
<path d="M144.324 86.2181C144.404 86.2734 144.431 86.336 144.445 86.402C144.454 86.4681 144.448 86.5378 144.39 86.6146C144.31 86.561 144.284 86.4967 144.27 86.4306C144.261 86.3645 144.266 86.2949 144.324 86.2181Z" fill="#FCF4EE"/>
<path d="M141.784 85.4958C141.901 85.5598 141.969 85.6506 142.026 85.7467C142.079 85.8464 142.121 85.9532 142.116 86.0849C141.999 86.0208 141.931 85.93 141.874 85.8339C141.821 85.7343 141.779 85.6275 141.784 85.4958Z" fill="#FCF4EE"/>
<path d="M141.789 87.3983C141.886 87.4606 141.934 87.5442 141.969 87.6297C141.999 87.7187 142.017 87.8112 141.985 87.9251C141.886 87.8628 141.838 87.7792 141.805 87.6937C141.775 87.6047 141.757 87.5122 141.789 87.3983Z" fill="#FCF4EE"/>
<path d="M139.25 87.7923C139.342 87.9112 139.379 88.0407 139.403 88.1702C139.423 88.3015 139.43 88.4364 139.384 88.5783C139.292 88.4594 139.255 88.3299 139.231 88.2004C139.211 88.0691 139.204 87.9342 139.25 87.7923Z" fill="#FCF4EE"/>
<path d="M137.618 87.2031C137.697 87.3168 137.724 87.4358 137.738 87.5567C137.746 87.6775 137.741 87.8001 137.683 87.9263C137.602 87.8125 137.576 87.6935 137.563 87.5727C137.556 87.4518 137.56 87.3292 137.618 87.2031Z" fill="#FCF4EE"/>
<path d="M135.209 86.8091C135.267 86.8859 135.271 86.9555 135.264 87.0216C135.25 87.0877 135.223 87.1502 135.143 87.2055C135.085 87.127 135.079 87.0591 135.088 86.993C135.103 86.9269 135.129 86.8644 135.209 86.8091Z" fill="#FCF4EE"/>
<path d="M133.258 88.188C133.315 88.2578 133.32 88.3151 133.311 88.3705C133.297 88.426 133.272 88.4779 133.191 88.519C133.132 88.4492 133.129 88.392 133.137 88.3365C133.152 88.2811 133.178 88.2292 133.258 88.188Z" fill="#FCF4EE"/>
<path d="M130.007 88.9086C130.087 88.9622 130.113 89.0265 130.128 89.0908C130.137 89.1568 130.133 89.2265 130.075 89.3033C129.995 89.2497 129.966 89.1854 129.954 89.1211C129.945 89.055 129.951 88.9854 130.007 88.9086Z" fill="#FCF4EE"/>
<path d="M129.292 86.4098C129.391 86.4721 129.439 86.5539 129.474 86.6411C129.504 86.7301 129.523 86.8227 129.492 86.9348C129.393 86.8725 129.345 86.7907 129.31 86.7034C129.28 86.6144 129.26 86.5219 129.292 86.4098Z" fill="#FCF4EE"/>
<path d="M126.676 87.2031C126.773 87.2529 126.819 87.3222 126.854 87.3987C126.884 87.4769 126.903 87.5587 126.871 87.6637C126.774 87.6139 126.727 87.5445 126.693 87.468C126.663 87.3898 126.646 87.308 126.676 87.2031Z" fill="#FCF4EE"/>
<path d="M124.852 86.6121C124.921 86.7224 124.937 86.831 124.94 86.9413C124.938 87.0517 124.923 87.1603 124.852 87.2706C124.781 87.1603 124.765 87.0517 124.764 86.9413C124.767 86.831 124.783 86.7224 124.852 86.6121Z" fill="#FCF4EE"/>
<path d="M124.006 88.385C124.093 88.4137 124.128 88.4638 124.153 88.5174C124.173 88.5729 124.18 88.6355 124.137 88.716C124.05 88.6874 124.013 88.6373 123.99 88.5836C123.971 88.5282 123.963 88.4655 124.006 88.385Z" fill="#FCF4EE"/>
<path d="M121.933 85.8844C122.04 85.9538 122.099 86.0446 122.146 86.1425C122.189 86.2422 122.219 86.3472 122.199 86.4736C122.092 86.4041 122.032 86.3134 121.986 86.2155C121.943 86.1158 121.913 86.0108 121.933 85.8844Z" fill="#FCF4EE"/>
<path d="M120.425 87.4657C120.494 87.5422 120.51 87.6187 120.513 87.6969C120.512 87.7734 120.496 87.8499 120.425 87.9281C120.355 87.8516 120.339 87.7752 120.337 87.6969C120.34 87.6205 120.356 87.544 120.425 87.4657Z" fill="#FCF4EE"/>
<path d="M117.949 86.2181C118.018 86.3053 118.034 86.3943 118.037 86.4815C118.036 86.5687 118.02 86.6577 117.949 86.7449C117.878 86.6577 117.863 86.5687 117.861 86.4815C117.864 86.3943 117.88 86.3053 117.949 86.2181Z" fill="#FCF4EE"/>
<path d="M116.322 86.0867C116.391 86.1632 116.407 86.2397 116.41 86.3179C116.408 86.3944 116.393 86.4709 116.322 86.5491C116.252 86.4726 116.236 86.3962 116.234 86.3179C116.237 86.2415 116.253 86.165 116.322 86.0867Z" fill="#FCF4EE"/>
<path d="M114.502 85.0361C114.583 85.1498 114.609 85.2689 114.623 85.3897C114.632 85.5105 114.627 85.6331 114.569 85.7593C114.488 85.6456 114.461 85.5265 114.447 85.4057C114.438 85.2849 114.444 85.1623 114.502 85.0361Z" fill="#FCF4EE"/>
<path d="M116.126 90.8147C116.262 90.8556 116.359 90.9339 116.446 91.0211C116.529 91.1119 116.605 91.2116 116.64 91.3504C116.504 91.3095 116.407 91.2312 116.321 91.1439C116.238 91.0532 116.164 90.9517 116.126 90.8147Z" fill="#FCF4EE"/>
<path d="M117.633 91.0738C117.739 91.129 117.797 91.2091 117.845 91.2945C117.887 91.3835 117.917 91.4778 117.9 91.5971C117.792 91.5419 117.734 91.4618 117.688 91.3764C117.645 91.2874 117.615 91.193 117.633 91.0738Z" fill="#FCF4EE"/>
<path d="M120.623 91.0117C120.713 91.0829 120.748 91.1665 120.773 91.2537C120.792 91.3427 120.798 91.4335 120.752 91.5385C120.662 91.4673 120.625 91.3837 120.602 91.2964C120.582 91.2075 120.577 91.1167 120.623 91.0117Z" fill="#FCF4EE"/>
<path d="M121.93 91.34C122.009 91.4183 122.036 91.5055 122.05 91.5927C122.059 91.68 122.053 91.7707 121.995 91.8668C121.914 91.7885 121.887 91.7013 121.875 91.6141C121.866 91.5251 121.871 91.4361 121.93 91.34Z" fill="#FCF4EE"/>
<path d="M119.895 92.3285C119.99 92.3643 120.037 92.4232 120.07 92.4893C120.1 92.5572 120.118 92.6304 120.086 92.7268C119.99 92.6911 119.944 92.6322 119.911 92.5661C119.881 92.4982 119.863 92.425 119.895 92.3285Z" fill="#FCF4EE"/>
<path d="M125.89 92.3924C125.989 92.4547 126.037 92.5366 126.074 92.622C126.106 92.711 126.125 92.8036 126.093 92.9157C125.994 92.8534 125.945 92.7715 125.91 92.6861C125.878 92.5971 125.858 92.5046 125.89 92.3924Z" fill="#FCF4EE"/>
<path d="M127.196 91.6683C127.275 91.7591 127.302 91.857 127.316 91.9549C127.325 92.0546 127.32 92.1542 127.261 92.261C127.18 92.1703 127.154 92.0724 127.141 91.9745C127.134 91.8748 127.138 91.7751 127.196 91.6683Z" fill="#FCF4EE"/>
<path d="M130.65 92.719C130.706 92.8169 130.72 92.8952 130.732 92.9771C130.74 93.0589 130.743 93.1373 130.711 93.2476C130.612 93.1906 130.57 93.0945 130.558 92.9984C130.549 92.9023 130.567 92.7991 130.65 92.7208V92.719Z" fill="#FCF4EE"/>
<path d="M132.017 92.522C132.097 92.6003 132.123 92.6875 132.137 92.7747C132.146 92.8637 132.141 92.9527 132.083 93.0488C132.001 92.9705 131.977 92.8833 131.963 92.7961C131.956 92.7071 131.959 92.6181 132.017 92.522Z" fill="#FCF4EE"/>
<path d="M134.548 91.6062C134.645 91.6845 134.691 91.7789 134.725 91.8767C134.753 91.9764 134.769 92.0814 134.733 92.2007C134.636 92.1224 134.59 92.028 134.557 91.9301C134.529 91.8305 134.513 91.7255 134.548 91.6062Z" fill="#FCF4EE"/>
<path d="M136.709 92.1262C136.829 92.1725 136.907 92.2526 136.974 92.338C137.036 92.4288 137.088 92.5249 137.096 92.6566C136.976 92.6103 136.898 92.5302 136.831 92.4448C136.769 92.354 136.716 92.2561 136.709 92.1262Z" fill="#FCF4EE"/>
<path d="M135.538 93.7022C135.639 93.7397 135.692 93.7736 135.751 93.8129C135.808 93.8558 135.857 93.8951 135.925 93.979C135.831 94.0362 135.726 94.0112 135.648 93.9594C135.574 93.904 135.515 93.8111 135.537 93.704L135.538 93.7022Z" fill="#FCF4EE"/>
<path d="M139.766 91.9967C139.825 92.0928 139.83 92.1836 139.821 92.2708C139.807 92.358 139.781 92.4434 139.701 92.5235C139.643 92.4274 139.638 92.3366 139.646 92.2494C139.661 92.1622 139.687 92.0768 139.766 91.9967Z" fill="#FCF4EE"/>
<path d="M141.597 91.0756C141.676 91.1539 141.703 91.2411 141.717 91.3283C141.726 91.4173 141.72 91.5063 141.662 91.6024C141.581 91.5241 141.554 91.4369 141.542 91.3497C141.533 91.2607 141.538 91.1717 141.597 91.0756Z" fill="#FCF4EE"/>
<path d="M143.61 92.128C143.679 92.1941 143.695 92.2602 143.698 92.3262C143.696 92.3923 143.68 92.4584 143.61 92.5245C143.539 92.4584 143.523 92.3923 143.521 92.3262C143.525 92.2602 143.54 92.1941 143.61 92.128Z" fill="#FCF4EE"/>
<path d="M145.886 91.34C145.971 91.429 145.99 91.5429 145.981 91.6497C145.967 91.7565 145.926 91.8633 145.824 91.9327C145.794 91.8134 145.798 91.7245 145.805 91.6301C145.817 91.5376 145.831 91.4486 145.886 91.3382V91.34Z" fill="#FCF4EE"/>
<g style="mix-blend-mode:multiply" opacity="0.3">
<path d="M143.912 74.2492C142.689 77.4064 141.029 80.3863 138.88 82.9863C135.762 86.7629 131.582 89.7108 126.877 90.9957C122.546 92.1777 117.921 91.9008 113.625 90.5396C113.748 91.4607 113.823 92.0552 113.823 92.1493C113.823 92.1493 121.708 94.6978 131.422 94.6978C141.135 94.6978 147.376 92.884 147.376 92.884L150.477 74.3095L143.912 74.2474V74.2492Z" fill="#EA9D42"/>
</g>
<path d="M119.184 75.6743C119.399 75.8914 119.616 76.1104 119.831 76.3275" stroke="#FCF4EE" stroke-width="2.53" stroke-miterlimit="10"/>
<path d="M129.884 75.6725C129.958 75.9369 130.032 76.2013 130.107 76.4656" stroke="#FCF4EE" stroke-width="2.53" stroke-miterlimit="10"/>
<path d="M138.342 75.0957C138.487 75.3129 138.63 75.5318 138.775 75.7489" stroke="#FCF4EE" stroke-width="2.53" stroke-miterlimit="10"/>
<path d="M134.97 75.1667C134.995 75.3607 135.018 75.5529 135.043 75.7469" stroke="#FCF4EE" stroke-width="2.53" stroke-miterlimit="10"/>
<path d="M111.4 73.3902C110.886 74.3805 108.989 77.3567 110.384 78.5086C111.78 79.6604 113.228 77.9584 113.466 77.4845C113.79 78.1873 114.383 78.7588 115.092 79.0552C115.671 79.2966 116.509 79.2504 116.727 78.6576C116.97 79.348 117.6 79.884 118.317 80.0047C119.033 80.1271 119.804 79.8308 120.258 79.2593C120.529 79.9497 121.302 80.365 122.037 80.3312C122.775 80.2975 123.456 79.8716 123.929 79.3019C124.359 79.9337 125.152 80.4182 125.907 80.3366C126.663 80.2549 127.354 79.7314 127.641 79.0232C128.099 79.616 128.715 80.1449 129.452 80.2372C130.191 80.3312 131.029 79.8308 131.089 79.0836C131.631 79.6391 132.826 80.4022 133.59 80.2833C134.354 80.1644 135.049 79.6604 135.401 78.9665C135.904 79.5308 136.717 80.1822 137.471 80.152C138.222 80.1218 138.965 79.6302 139.195 78.9079C139.634 79.4172 140.331 79.687 140.994 79.6036C141.658 79.5202 142.268 79.0854 142.568 78.4837C142.925 79.096 143.56 79.6355 144.266 79.6267C144.972 79.6196 145.658 79.2078 146.003 78.5867C146.383 79.0676 147.202 79.2841 147.784 79.0978C148.365 78.9114 148.805 78.34 148.84 77.7259C149.233 78.1359 149.739 78.4535 150.299 78.5316C150.859 78.6097 151.468 78.4216 151.827 77.9815C152.299 77.4029 152.244 76.5368 151.95 75.8482C151.378 74.5083 149.972 72.8844 148.578 72.4939C147.184 72.1035 145.792 72.8755 144.345 72.9128C140.236 73.0228 136.126 73.1311 132.016 73.2411" fill="#8F7EFE"/>
<path d="M111.272 73.9421C111.272 78.3311 149.884 79.4776 150.478 74.3095C151.071 69.1432 111.272 68.7279 111.272 73.9421Z" fill="#8565FE"/>
<path d="M111.762 77.4009C112.329 77.4009 112.329 76.5137 111.762 76.5137C111.196 76.5137 111.196 77.4009 111.762 77.4009Z" fill="#FCF4EE"/>
<path d="M115.474 77.8606C116.041 77.8606 116.041 76.9734 115.474 76.9734C114.908 76.9734 114.908 77.8606 115.474 77.8606Z" fill="#FCF4EE"/>
<path d="M118.796 78.3859C119.363 78.3859 119.363 77.4987 118.796 77.4987C118.229 77.4987 118.229 78.3859 118.796 78.3859Z" fill="#FCF4EE"/>
<path d="M141.264 78.6486C141.83 78.6486 141.83 77.7614 141.264 77.7614C140.697 77.7614 140.697 78.6486 141.264 78.6486Z" fill="#FCF4EE"/>
<path d="M144.78 78.1233C145.347 78.1233 145.347 77.2361 144.78 77.2361C144.213 77.2361 144.213 78.1233 144.78 78.1233Z" fill="#FCF4EE"/>
<path d="M146.734 78.1233C147.301 78.1233 147.301 77.2361 146.734 77.2361C146.167 77.2361 146.167 78.1233 146.734 78.1233Z" fill="#FCF4EE"/>
<path d="M150.445 77.0069C151.012 77.0069 151.012 76.1197 150.445 76.1197C149.879 76.1197 149.879 77.0069 150.445 77.0069Z" fill="#FCF4EE"/>
<path d="M114.734 74.6378C115.836 75.22 117.068 75.5323 118.312 75.5359C119.556 75.5394 120.848 75.1703 122.077 75.4986C122.647 75.6512 123.175 75.9245 123.733 76.1162C124.319 76.3167 124.921 76.3771 125.535 76.3203C126.149 76.2635 126.767 76.1233 127.392 76.1197C128.017 76.1162 128.604 76.2688 129.199 76.4215C129.794 76.5741 130.378 76.7214 130.987 76.7622C131.596 76.803 132.221 76.6859 132.823 76.5439C133.425 76.4019 133.992 76.2564 134.601 76.2759C135.243 76.2955 135.873 76.4552 136.51 76.5244C137.147 76.5936 137.728 76.5279 138.327 76.3611C138.879 76.2067 139.428 75.9778 140.006 75.9405C140.641 75.8979 141.264 76.0772 141.892 76.1499C142.559 76.228 143.232 76.2032 143.899 76.118C144.566 76.0328 145.194 75.8979 145.829 75.7311C146.414 75.5785 147.021 75.4347 147.584 75.2129C148.114 75.0052 148.607 74.5828 148.45 73.9439C148.315 73.3849 147.771 73.0139 147.269 72.8187C146.289 72.4371 145.187 72.6253 144.164 72.5827C142.901 72.5312 141.669 72.2206 140.424 72.0183C139.805 71.9171 139.178 71.8355 138.55 71.8213C137.922 71.8071 137.302 71.9136 136.672 71.9562C136.359 71.9775 136.056 71.9686 135.755 71.8816C135.479 71.8036 135.22 71.6829 134.958 71.5675C134.402 71.3244 133.847 71.1345 133.233 71.1646C132.619 71.1948 132.056 71.367 131.482 71.5249C130.908 71.6829 130.313 71.7947 129.69 71.7432C129.067 71.6917 128.42 71.5356 127.777 71.4894C127.135 71.4433 126.524 71.5427 125.912 71.6935C125.299 71.8444 124.745 72.0325 124.143 72.0946C123.492 72.1621 122.837 72.0893 122.191 72.0165C121.545 71.9438 120.947 71.8728 120.322 71.9136C119.697 71.9544 119.151 72.0999 118.585 72.2756C118.018 72.4513 117.499 72.6341 116.937 72.7442C116.68 72.7939 116.42 72.8187 116.158 72.8116C115.855 72.8027 115.582 72.7193 115.29 72.643C114.769 72.5046 114.081 72.5188 113.794 73.069C113.595 73.4505 113.884 73.8747 114.113 74.1675C114.341 74.4604 114.66 74.755 115.061 74.6822C115.285 74.6414 115.41 74.3681 115.355 74.1622C115.29 73.9262 115.063 73.825 114.84 73.8658H114.996C114.956 73.8534 114.963 73.8569 115.017 73.8782C115.008 73.8782 114.912 73.809 114.984 73.8623C114.928 73.8197 114.876 73.7647 114.827 73.7132C114.725 73.6032 114.656 73.5073 114.579 73.3529L114.561 73.3174C114.579 73.3618 114.581 73.3618 114.565 73.3192L114.556 73.289C114.567 73.3316 114.565 73.3724 114.551 73.4133C114.581 73.4665 114.484 73.4416 114.611 73.4221C114.848 73.3849 115.056 73.4559 115.285 73.5215C116.385 73.8303 117.462 73.5162 118.516 73.1825C119.027 73.021 119.544 72.8524 120.075 72.7832C120.667 72.7069 121.272 72.7619 121.862 72.8258C122.451 72.8897 123.053 72.9731 123.654 72.966C124.254 72.9589 124.849 72.8418 125.433 72.6909C126.017 72.5401 126.549 72.3715 127.124 72.3307C127.7 72.2898 128.302 72.3963 128.886 72.4868C129.5 72.5809 130.106 72.6466 130.723 72.5578C131.287 72.478 131.825 72.2969 132.374 72.1585C132.888 72.0289 133.418 71.9402 133.939 72.0822C134.46 72.2242 134.94 72.517 135.461 72.6785C136.053 72.8613 136.648 72.8169 137.251 72.7442C137.855 72.6714 138.434 72.6501 139.031 72.6927C140.194 72.7779 141.333 73.0601 142.482 73.2447C143.079 73.3405 143.68 73.4186 144.286 73.4346C144.779 73.4488 145.272 73.4186 145.764 73.4275C146.197 73.4363 146.655 73.4629 147.058 73.6404C147.244 73.7221 147.454 73.8481 147.574 74.0184C147.665 74.1462 147.656 74.2154 147.533 74.3024C147.352 74.4302 147.116 74.4817 146.907 74.5438C146.609 74.6325 146.313 74.7195 146.014 74.8029C145.416 74.9697 144.814 75.1188 144.201 75.2235C143.589 75.3282 142.998 75.3708 142.394 75.3442C141.79 75.3176 141.187 75.1649 140.578 75.1064C139.969 75.0478 139.409 75.1561 138.842 75.3229C138.313 75.4791 137.783 75.6814 137.225 75.7062C136.667 75.7311 136.077 75.6104 135.507 75.5252C134.895 75.4329 134.305 75.401 133.691 75.495C133.112 75.5838 132.549 75.7577 131.973 75.8606C131.398 75.9636 130.875 75.9316 130.329 75.8216C129.183 75.5909 128.092 75.1845 126.904 75.298C126.313 75.3548 125.727 75.4844 125.132 75.495C124.537 75.5057 124.053 75.3477 123.534 75.1383C123.015 74.9289 122.504 74.6982 121.95 74.6041C121.359 74.503 120.764 74.5118 120.167 74.5597C119 74.652 117.872 74.7763 116.717 74.4959C116.174 74.3627 115.653 74.1675 115.156 73.9049C114.66 73.6422 114.253 74.3823 114.732 74.6361L114.734 74.6378Z" fill="#8F7EFE"/>
<path d="M125.818 31.1245C125.818 37.5899 122.488 50.4853 113.616 50.0682C104.743 49.6494 102.602 37.5899 102.602 31.1245C102.602 24.6591 107.799 19.4183 114.21 19.4183C120.622 19.4183 125.819 24.6591 125.819 31.1245H125.818Z" fill="#FFB380"/>
<path d="M104.297 36.7558C105.606 36.211 106.6 34.9953 107.13 33.6216C107.66 32.2462 107.76 30.7234 107.646 29.2451C108.065 29.8236 108.415 30.1466 108.936 30.624C109.066 30.7447 109.226 30.869 109.395 30.8335C109.707 30.7714 109.714 30.3064 109.642 29.9816C109.467 29.1936 109.291 28.3985 108.961 27.6673C110.09 29.797 112.296 31.2488 114.607 31.3854C114.818 31.3978 115.101 31.3393 115.119 31.1157C115.128 31.0109 115.068 30.9151 115.01 30.8299C114.566 30.1733 114.086 29.545 113.57 28.9487C116.287 30.9116 119.711 31.7723 122.984 31.3836C123.209 33.4654 123.927 35.6413 124.927 37.4515C125.885 37.2776 126.761 36.4985 127.173 35.5703C127.585 34.6421 127.537 33.5045 127.048 32.6189C127.956 32.8673 128.943 32.3225 129.457 31.4955C129.971 30.6684 130.077 29.6249 129.982 28.6417C129.748 26.2404 128.386 24.0663 126.603 22.5507C124.82 21.0351 122.643 20.114 120.434 19.4751C120.802 19.61 121.14 19.271 121.397 18.9622C121.654 18.6534 121.71 18.1777 121.534 17.8104C121.377 17.4856 121.075 17.2726 120.772 17.0987C119.64 16.4509 118.347 16.1634 117.062 16.0729C113.568 15.828 110.117 16.9744 106.908 18.4493C107.132 18.1742 107.216 17.6631 107.283 17.3063C107.35 16.9496 107.181 16.5183 106.845 16.4402C106.511 16.3622 106.206 16.6479 105.984 16.923C105.052 18.0837 104.407 19.4999 104.131 20.9925C102.646 20.728 101.046 21.3439 100.074 22.556C99.9969 22.6519 99.9195 22.7672 99.9371 22.8915C99.9617 23.0636 100.148 23.147 100.308 23.1878C100.94 23.3494 101.611 23.3476 102.243 23.1878C101.572 23.4168 101.053 23.99 100.666 24.6112C99.5974 26.3203 99.3334 28.5139 99.7628 30.5105C100.192 32.5071 101.273 34.3084 102.658 35.7424" fill="#28234C"/>
<path d="M100.25 34.9349C100.203 36.2713 100.749 37.6201 101.713 38.5394C102.014 38.8269 102.364 39.079 102.767 39.1819C103.675 39.4162 104.642 38.8074 105.08 37.9733C105.518 37.1392 105.529 36.1417 105.407 35.2047C105.252 33.9943 104.775 32.6668 103.663 32.1823C101.871 31.4014 100.31 33.2791 100.25 34.9349Z" fill="#FFB380"/>
<g style="mix-blend-mode:multiply" opacity="0.56">
<path d="M104.05 38.2454C103.67 38.0502 103.346 37.7432 103.128 37.3742C103.084 37.2996 103.044 37.2198 103.046 37.1329C103.047 36.9678 103.197 36.8472 103.332 36.7549C103.605 36.5651 103.878 36.3752 104.151 36.1854C104.205 36.1481 104.261 36.1073 104.291 36.047C104.323 35.9813 104.316 35.9032 104.307 35.8305C104.203 34.9007 104.063 33.8947 103.401 33.2382C103.223 33.0607 103.005 32.9135 102.759 32.8656C102.394 32.7928 102.013 32.9436 101.728 33.1849C101.443 33.4263 101.237 33.7474 101.043 34.0668C101.043 34.0668 100.512 35.9192 101.61 37.2926C102.708 38.6659 104.05 38.2472 104.05 38.2472V38.2454Z" fill="#D17B60"/>
</g>
<path d="M101.043 34.065C101.203 33.7137 101.391 33.3623 101.69 33.082C101.842 32.9436 102.02 32.8318 102.22 32.7608C102.419 32.6899 102.649 32.6703 102.868 32.7236C103.086 32.775 103.278 32.8904 103.44 33.027C103.6 33.1654 103.74 33.3215 103.857 33.4954C104.091 33.8432 104.228 34.2353 104.323 34.6257C104.413 35.0178 104.458 35.4099 104.497 35.7967C104.501 35.8446 104.509 35.905 104.501 35.9813C104.497 36.0558 104.455 36.1605 104.399 36.219C104.282 36.3379 104.21 36.3592 104.129 36.4195C103.969 36.526 103.807 36.6307 103.645 36.7336C103.487 36.8401 103.301 36.9359 103.216 37.037C103.174 37.0902 103.158 37.131 103.172 37.1967C103.186 37.2623 103.237 37.3493 103.281 37.4291C103.464 37.7521 103.73 38.0289 104.05 38.2471C103.688 38.1105 103.362 37.8621 103.114 37.5445C103.054 37.4628 102.993 37.3883 102.947 37.2694C102.896 37.1506 102.922 36.9802 102.996 36.8809C103.065 36.7744 103.153 36.7052 103.234 36.6431L103.464 36.4674C103.617 36.3503 103.77 36.235 103.925 36.1214C103.997 36.0664 104.099 35.9972 104.113 35.9742C104.12 35.9617 104.115 35.9706 104.119 35.9476C104.119 35.928 104.115 35.8908 104.108 35.8429C104.059 35.4614 104.011 35.0852 103.922 34.7233C103.842 34.3613 103.718 34.0135 103.531 33.7137C103.348 33.4138 103.088 33.1441 102.783 33.0376C102.481 32.9347 102.109 33.0341 101.817 33.2417C101.516 33.4493 101.281 33.7616 101.043 34.0667V34.065Z" fill="#28234C"/>
<path d="M112.653 36.3154C112.635 36.9382 112.255 37.4315 111.805 37.419C111.355 37.4066 111.004 36.8903 111.024 36.2675C111.043 35.6447 111.421 35.1514 111.872 35.1639C112.322 35.1763 112.672 35.6926 112.653 36.3154Z" fill="#28234C"/>
<path d="M120.522 37.5879C120.503 38.2107 120.125 38.704 119.674 38.6915C119.224 38.6774 118.873 38.1628 118.893 37.54C118.912 36.9172 119.291 36.4239 119.741 36.4364C120.191 36.4505 120.542 36.9651 120.522 37.5879Z" fill="#28234C"/>
<path d="M116.403 35.5845C116.577 36.0635 116.705 36.5586 116.795 37.0625C116.885 37.5664 116.939 38.0774 116.953 38.5902C116.973 39.103 116.945 39.6176 116.892 40.1286C116.832 40.6396 116.742 41.1453 116.61 41.6421L116.582 41.7468L116.484 41.761C116 41.8284 115.507 41.8089 115.036 41.7113C114.562 41.6137 114.108 41.4363 113.707 41.1825C114.15 41.3511 114.606 41.4593 115.065 41.5072C115.525 41.5516 115.986 41.5339 116.434 41.4522L116.308 41.5711C116.408 41.0814 116.492 40.5881 116.543 40.0913C116.602 39.5945 116.626 39.0959 116.635 38.5955C116.64 38.0952 116.623 37.593 116.584 37.0927C116.543 36.5905 116.482 36.0902 116.404 35.5862L116.403 35.5845Z" fill="#28234C"/>
<path d="M108.435 34.3741C108.794 33.902 109.245 33.4974 109.739 33.1531L110.125 32.9135L110.528 32.6987L110.948 32.5177L111.381 32.3651C111.529 32.3225 111.675 32.2799 111.823 32.2337L112.275 32.1237C112.428 32.0989 112.583 32.0793 112.738 32.0669C112.893 32.0651 113.05 32.0722 113.205 32.0847C113.821 32.161 114.433 32.3669 114.914 32.7875L114.885 32.8709C114.264 32.9223 113.72 32.9312 113.178 32.9703C113.043 32.9845 112.909 32.9916 112.773 32.9898C112.64 32.9987 112.504 32.9987 112.369 32.9969L111.959 33.0075C111.823 33.02 111.686 33.0377 111.548 33.0555L111.144 33.1389L110.742 33.2489L110.345 33.3802L109.956 33.54C109.436 33.7618 108.952 34.0706 108.5 34.4362L108.437 34.3741H108.435Z" fill="#28234C"/>
<path d="M122.991 36.6308C122.674 36.1854 122.319 35.7791 121.914 35.4348L121.61 35.1829L121.291 34.9522L120.964 34.7375L120.626 34.5441C120.51 34.4873 120.392 34.4323 120.274 34.3809L119.912 34.2478C119.79 34.2088 119.671 34.1662 119.553 34.1183C119.433 34.0775 119.317 34.0278 119.201 33.9728C118.733 33.7616 118.259 33.5718 117.731 33.3039L117.735 33.2151C118.295 32.9933 118.9 33.004 119.468 33.1282C119.609 33.1655 119.748 33.208 119.885 33.2577C120.019 33.3163 120.149 33.3819 120.278 33.4529L120.644 33.6907C120.76 33.7776 120.879 33.861 120.997 33.9426L121.337 34.2088L121.657 34.4944L121.954 34.8032L122.231 35.1297C122.576 35.5821 122.869 36.0683 123.067 36.5882L122.989 36.6308H122.991Z" fill="#28234C"/>
<g style="mix-blend-mode:multiply" opacity="0.56">
<path d="M112.722 42.6178C112.68 42.6302 112.636 42.648 112.592 42.671C111.895 43.0454 113.055 44.9954 114.309 45.2882C114.123 44.2449 113.549 43.2743 112.722 42.6196V42.6178Z" fill="#D17B60"/>
</g>
<path d="M116.792 43.6451C116.417 42.9993 115.206 43.9273 114.647 43.7392C113.883 43.4819 113.359 42.4386 112.722 42.6178C113.549 43.2725 114.121 44.2449 114.309 45.2864C114.312 45.2864 114.318 45.2882 114.321 45.29C115.579 45.5721 117.166 44.291 116.792 43.6451Z" fill="#28234C"/>
<g style="mix-blend-mode:multiply" opacity="0.5">
<path d="M112.556 40.0796C112.414 40.6562 111.539 40.9312 110.605 40.6953C109.671 40.4593 109.028 39.801 109.173 39.2243C109.315 38.6477 110.19 38.3726 111.124 38.6086C112.058 38.8446 112.701 39.5029 112.556 40.0796Z" fill="#D17B60"/>
</g>
<g style="mix-blend-mode:multiply" opacity="0.5">
<path d="M121.448 41.5402C121.305 42.1168 120.431 42.3919 119.497 42.1559C118.562 41.9199 117.92 41.2616 118.064 40.6849C118.207 40.1083 119.081 39.8333 120.016 40.0692C120.95 40.3052 121.592 40.9635 121.448 41.5402Z" fill="#D17B60"/>
</g>
<path d="M108.342 46.3785C108.152 48.3803 107.78 50.3644 107.233 52.297C109.357 55.7824 111.481 59.4346 113.472 62.9999C114.369 59.4719 115.429 56.1604 116.398 52.6519C115.89 52.3431 115.318 51.7167 115.269 51.1186C115.221 50.5223 115.32 49.6013 115.459 49.0192" fill="#FFB380"/>
<path d="M115.312 49.9777C112.76 50.2581 110.082 49.4311 108.089 47.7965C109.937 49.8872 112.586 51.3851 115.362 51.4845C115.235 51.0283 115.319 50.4498 115.312 49.9759V49.9777Z" fill="#28234C"/>
<path d="M110.021 91.5583L108.513 96.4413L106.309 92.3248L110.021 91.5583Z" fill="#28234C"/>
<path d="M109.445 88.2466C109.445 88.2466 112.022 89.0133 112.545 89.0133C113.067 89.0133 113.924 88.0532 114.639 88.2448C115.353 88.4365 118.065 92.2289 117.638 92.9494C117.21 93.67 114.686 90.7897 114.211 91.0772C113.736 91.3647 115.783 94.8217 116.258 95.0613C116.733 95.3009 120.353 95.8865 120.353 95.8865C120.353 95.8865 118.495 99.1891 115.211 98.3746C111.927 97.5582 110.975 93.1908 110.975 93.1908L106.786 92.7596L109.445 88.2502V88.2466Z" fill="#FFB380"/>
<path d="M91.0629 57.4334C91.0629 57.4334 81.3689 78.9398 81.214 86.0566C81.0592 93.1733 108.513 96.146 108.513 96.146C108.513 96.146 107.89 94.1796 108.355 91.9896C108.819 89.7995 109.444 88.2466 109.444 88.2466L91.8391 83.0856L96.3376 73.4665" fill="#6400E3"/>
<path d="M93.0405 80.46C93.4805 79.2657 93.9662 78.0873 94.496 76.9303C95.0222 75.7714 95.5889 74.6321 96.1837 73.507C96.7838 72.3854 97.4121 71.278 98.0791 70.1955C98.7426 69.1112 99.4465 68.0517 100.191 67.0224L98.3149 70.3374C97.6972 71.4448 97.0865 72.5558 96.4934 73.6756C95.8951 74.7936 95.3161 75.9205 94.7423 77.0509L93.0405 80.46Z" fill="#28234C"/>
<path d="M95.9521 74.6669C96.283 74.1559 96.6577 73.675 97.0554 73.2172C97.4531 72.7577 97.8789 72.323 98.3206 71.9078C98.7675 71.4961 99.2303 71.1022 99.7177 70.742C100.203 70.3783 100.708 70.0412 101.24 69.7502C100.793 70.1618 100.339 70.5575 99.8901 70.9567C99.4432 71.3577 98.9962 71.7587 98.5599 72.1686C98.1182 72.5749 97.6871 72.9919 97.2542 73.4071C96.8231 73.8259 96.3938 74.2499 95.9521 74.6669Z" fill="#28234C"/>
<path d="M85.5911 81.9303C87.6538 81.9516 89.7077 82.2959 91.7124 82.7928C93.7205 83.2844 95.6864 83.9144 97.6576 84.5072C99.6288 85.1071 101.6 85.7052 103.568 86.3192C105.537 86.9297 107.496 87.5722 109.444 88.2484C107.454 87.7089 105.468 87.1605 103.487 86.5925C101.505 86.0282 99.5267 85.4478 97.5555 84.8426C95.5826 84.2392 93.6272 83.5914 91.6455 83.0484C89.6637 82.5071 87.6468 82.0811 85.5894 81.9303H85.5911Z" fill="#28234C"/>
<path d="M91.519 92.8894C92.9446 93.1573 94.3525 93.5087 95.7604 93.8388L99.9964 94.7829C100.702 94.9409 101.408 95.0988 102.115 95.2461C102.821 95.4023 103.53 95.5425 104.24 95.6862C105.658 95.9648 107.08 96.2222 108.514 96.4422C107.791 96.4067 107.068 96.3357 106.346 96.2612C105.626 96.176 104.907 96.0802 104.19 95.963C102.758 95.7341 101.336 95.4449 99.9208 95.129C98.5058 94.806 97.0997 94.4759 95.6953 94.0997C94.2944 93.7199 92.9129 93.2869 91.519 92.8894Z" fill="#28234C"/>
<path d="M113.243 92.8379C113.655 93.4502 114.038 94.0784 114.498 94.6339C114.955 95.1823 115.494 95.6775 116.134 95.9331C116.455 96.0679 116.8 96.1443 117.15 96.1904C117.5 96.2401 117.857 96.2454 118.215 96.2365C118.931 96.2046 119.647 96.0804 120.355 95.8851C119.698 96.2188 118.977 96.4264 118.236 96.5134C117.497 96.5915 116.724 96.5471 116.004 96.2632C115.281 95.9632 114.716 95.4113 114.283 94.8043C113.846 94.192 113.528 93.5212 113.244 92.8397L113.243 92.8379Z" fill="#28234C"/>
<path d="M112.518 94.0145C112.878 94.5575 113.188 95.1288 113.561 95.6416C113.749 95.8971 113.945 96.142 114.172 96.3514C114.395 96.5678 114.64 96.7648 114.9 96.9351C115.414 97.2864 115.995 97.5349 116.6 97.6981C117.209 97.8578 117.842 97.9288 118.49 97.9252C117.858 98.0743 117.191 98.0831 116.542 97.966C115.892 97.8525 115.261 97.6005 114.705 97.2297C114.428 97.0416 114.17 96.8287 113.938 96.5891C113.705 96.3443 113.501 96.0781 113.332 95.7942C112.987 95.2282 112.746 94.6214 112.518 94.0128V94.0145Z" fill="#28234C"/>
<path d="M112.401 89.0025C112.736 89.0486 113.038 88.8676 113.301 88.6813C113.434 88.5855 113.564 88.4844 113.702 88.3921C113.839 88.2998 113.989 88.2129 114.159 88.1756C114.332 88.1348 114.511 88.1756 114.666 88.2253C114.828 88.2715 114.991 88.3619 115.106 88.495C115.319 88.763 115.502 89.0273 115.701 89.2953C116.089 89.8293 116.466 90.3723 116.843 90.9152L117.402 91.7332L117.68 92.1449C117.772 92.285 117.865 92.4323 117.918 92.608C117.942 92.6949 117.96 92.796 117.928 92.9043C117.895 93.0161 117.8 93.0924 117.712 93.1278C117.524 93.2059 117.332 93.1651 117.17 93.1136C116.843 93.0001 116.563 92.8102 116.294 92.6151C115.759 92.2176 115.277 91.7616 114.816 91.2878C114.705 91.1743 114.58 91.0678 114.441 91.0341C114.372 91.0181 114.303 91.0288 114.247 91.0643C114.193 91.1015 114.152 91.1636 114.133 91.2346C114.091 91.3783 114.143 91.5327 114.219 91.6729C114.296 91.8131 114.383 91.9603 114.457 92.1076C114.759 92.6984 115.016 93.3071 115.335 93.8855C114.986 93.323 114.712 92.718 114.39 92.1431C114.311 91.9976 114.224 91.8627 114.14 91.7155C114.059 91.5717 113.987 91.3908 114.034 91.2062C114.055 91.1175 114.105 91.0288 114.187 90.9702C114.268 90.9135 114.374 90.8957 114.465 90.917C114.65 90.9578 114.787 91.0785 114.907 91.1938C115.382 91.648 115.862 92.0987 116.389 92.4838C116.651 92.6718 116.929 92.8528 117.224 92.9522C117.37 93.0001 117.527 93.0214 117.647 92.9682C117.708 92.9398 117.752 92.9025 117.766 92.851C117.782 92.7978 117.775 92.7286 117.752 92.6576C117.659 92.3737 117.439 92.1058 117.265 91.829L116.712 91.0075L115.59 89.3769C115.401 89.1089 115.213 88.8268 115.023 88.5731C114.923 88.4524 114.791 88.3744 114.638 88.3247C114.483 88.2732 114.332 88.2342 114.179 88.2644C113.869 88.3229 113.607 88.5465 113.33 88.7204C113.191 88.8109 113.049 88.896 112.892 88.9546C112.736 89.0114 112.567 89.0326 112.405 89.0025H112.401Z" fill="#28234C"/>
<path d="M103.368 52.5671C104.257 53.3905 105.126 54.2334 105.994 55.0764C106.861 55.9211 107.72 56.7747 108.577 57.6284C109.429 58.4891 110.286 59.3427 111.129 60.2122C111.975 61.0783 112.82 61.9443 113.656 62.8192L113.246 62.876C113.704 62.0419 114.168 61.2096 114.636 60.3808C115.101 59.5503 115.574 58.7233 116.048 57.8981C116.521 57.0729 117.002 56.2495 117.484 55.4296C117.968 54.6097 118.455 53.7916 118.957 52.9805C118.543 53.8395 118.117 54.6931 117.688 55.5431C117.257 56.3932 116.824 57.2397 116.382 58.0844C115.942 58.9292 115.5 59.7721 115.05 60.6115C114.605 61.4527 114.154 62.2921 113.698 63.128L113.531 63.4332L113.287 63.1848C112.438 62.3205 111.601 61.4492 110.761 60.5743C109.92 59.7047 109.093 58.8191 108.26 57.9407C107.433 57.0551 106.608 56.1696 105.791 55.2752C104.975 54.3807 104.161 53.4828 103.364 52.5688L103.368 52.5671Z" fill="#28234C"/>
<path d="M122.136 57.5166C122.703 57.5166 122.703 56.6295 122.136 56.6295C121.57 56.6295 121.57 57.5166 122.136 57.5166Z" fill="#8F7EFE"/>
<path d="M119.75 62.1097C120.316 62.1097 120.316 61.2225 119.75 61.2225C119.183 61.2225 119.183 62.1097 119.75 62.1097Z" fill="#8F7EFE"/>
<path d="M124.632 60.1415C125.199 60.1415 125.199 59.2543 124.632 59.2543C124.065 59.2543 124.065 60.1415 124.632 60.1415Z" fill="#8F7EFE"/>
<path d="M127.886 59.0465C128.453 59.0465 128.453 58.1593 127.886 58.1593C127.32 58.1593 127.32 59.0465 127.886 59.0465Z" fill="#8F7EFE"/>
<path d="M130.164 64.408C130.73 64.408 130.73 63.5208 130.164 63.5208C129.597 63.5208 129.597 64.408 130.164 64.408Z" fill="#8F7EFE"/>
<path d="M130.057 67.7978C130.623 67.7978 130.623 66.9106 130.057 66.9106C129.49 66.9106 129.49 67.7978 130.057 67.7978Z" fill="#8F7EFE"/>
<path d="M123.764 63.7513C124.33 63.7513 124.33 62.8642 123.764 62.8642C123.197 62.8642 123.197 63.7513 123.764 63.7513Z" fill="#8F7EFE"/>
<path d="M118.123 68.0178C118.69 68.0178 118.69 67.1307 118.123 67.1307C117.557 67.1307 117.557 68.0178 118.123 68.0178Z" fill="#8F7EFE"/>
<path d="M124.198 68.8928C124.764 68.8928 124.764 68.0056 124.198 68.0056C123.631 68.0056 123.631 68.8928 124.198 68.8928Z" fill="#8F7EFE"/>
<path d="M109.878 64.5162C110.444 64.5162 110.444 63.6291 109.878 63.6291C109.311 63.6291 109.311 64.5162 109.878 64.5162Z" fill="#8F7EFE"/>
<path d="M103.695 58.1715C104.262 58.1715 104.262 57.2843 103.695 57.2843C103.129 57.2843 103.129 58.1715 103.695 58.1715Z" fill="#8F7EFE"/>
<path d="M95.0172 57.7349C95.5838 57.7349 95.5838 56.8478 95.0172 56.8478C94.4506 56.8478 94.4506 57.7349 95.0172 57.7349Z" fill="#8F7EFE"/>
<path d="M94.6915 62.2197C95.2581 62.2197 95.2581 61.3325 94.6915 61.3325C94.125 61.3325 94.125 62.2197 94.6915 62.2197Z" fill="#8F7EFE"/>
<path d="M101.742 61.7814C102.308 61.7814 102.308 60.8942 101.742 60.8942C101.175 60.8942 101.175 61.7814 101.742 61.7814Z" fill="#8F7EFE"/>
<path d="M104.998 64.9546C105.564 64.9546 105.564 64.0674 104.998 64.0674C104.431 64.0674 104.431 64.9546 104.998 64.9546Z" fill="#8F7EFE"/>
<path d="M99.6798 57.4066C100.246 57.4066 100.246 56.5194 99.6798 56.5194C99.1132 56.5194 99.1132 57.4066 99.6798 57.4066Z" fill="#8F7EFE"/>
<path d="M96.9679 65.7195C97.5345 65.7195 97.5345 64.8323 96.9679 64.8323C96.4013 64.8323 96.4013 65.7195 96.9679 65.7195Z" fill="#8F7EFE"/>
<path d="M91.6525 67.4712C92.2191 67.4712 92.2191 66.584 91.6525 66.584C91.0859 66.584 91.0859 67.4712 91.6525 67.4712Z" fill="#8F7EFE"/>
<path d="M93.3893 72.7209C93.9559 72.7209 93.9559 71.8337 93.3893 71.8337C92.8227 71.8337 92.8227 72.7209 93.3893 72.7209Z" fill="#8F7EFE"/>
<path d="M95.8849 69.6577C96.4515 69.6577 96.4515 68.7705 95.8849 68.7705C95.3183 68.7705 95.3183 69.6577 95.8849 69.6577Z" fill="#8F7EFE"/>
<path d="M88.6159 73.9242C89.1824 73.9242 89.1824 73.037 88.6159 73.037C88.0493 73.037 88.0493 73.9242 88.6159 73.9242Z" fill="#8F7EFE"/>
<path d="M91.2204 77.9724C91.7869 77.9724 91.7869 77.0852 91.2204 77.0852C90.6538 77.0852 90.6538 77.9724 91.2204 77.9724Z" fill="#8F7EFE"/>
<path d="M85.7955 79.504C86.3621 79.504 86.3621 78.6168 85.7955 78.6168C85.229 78.6168 85.229 79.504 85.7955 79.504Z" fill="#8F7EFE"/>
<path d="M103.695 68.1261C104.262 68.1261 104.262 67.2389 103.695 67.2389C103.129 67.2389 103.129 68.1261 103.695 68.1261Z" fill="#8F7EFE"/>
<path d="M109.878 69.7677C110.444 69.7677 110.444 68.8806 109.878 68.8806C109.311 68.8806 109.311 69.7677 109.878 69.7677Z" fill="#8F7EFE"/>
<path d="M106.84 74.7991C107.407 74.7991 107.407 73.912 106.84 73.912C106.273 73.912 106.273 74.7991 106.84 74.7991Z" fill="#8F7EFE"/>
<path d="M100.983 75.4558C101.549 75.4558 101.549 74.5686 100.983 74.5686C100.416 74.5686 100.416 75.4558 100.983 75.4558Z" fill="#8F7EFE"/>
<path d="M96.9679 79.504C97.5345 79.504 97.5345 78.6168 96.9679 78.6168C96.4013 78.6168 96.4013 79.504 96.9679 79.504Z" fill="#8F7EFE"/>
<path d="M98.9225 82.3471C99.4891 82.3471 99.4891 81.46 98.9225 81.46C98.3559 81.46 98.3559 82.3471 98.9225 82.3471Z" fill="#8F7EFE"/>
<path d="M103.804 79.1757H104.13C104.19 79.1774 104.248 79.165 104.299 79.1366C104.353 79.1189 104.401 79.0887 104.44 79.0444C104.482 79.0036 104.513 78.9574 104.531 78.9024C104.559 78.8492 104.572 78.7924 104.57 78.7321L104.554 78.615C104.533 78.5405 104.496 78.4748 104.441 78.4198L104.352 78.3506C104.283 78.3098 104.209 78.2903 104.13 78.2903H103.804C103.744 78.2885 103.686 78.3009 103.635 78.3293C103.581 78.3471 103.533 78.3772 103.495 78.4216C103.452 78.4624 103.421 78.5085 103.403 78.5635C103.375 78.6167 103.363 78.6735 103.364 78.7339L103.38 78.851C103.401 78.9255 103.438 78.9911 103.493 79.0461L103.583 79.1153C103.651 79.1562 103.725 79.1757 103.804 79.1757Z" fill="#8F7EFE"/>
<path d="M108.033 81.5822C108.6 81.5822 108.6 80.6951 108.033 80.6951C107.467 80.6951 107.467 81.5822 108.033 81.5822Z" fill="#8F7EFE"/>
<path d="M110.42 83.9888C110.987 83.9888 110.987 83.1016 110.42 83.1016C109.853 83.1016 109.853 83.9888 110.42 83.9888Z" fill="#8F7EFE"/>
<path d="M109.011 86.067C109.578 86.067 109.578 85.1799 109.011 85.1799C108.445 85.1799 108.445 86.067 109.011 86.067Z" fill="#8F7EFE"/>
<path d="M104.347 84.5354C104.914 84.5354 104.914 83.6482 104.347 83.6482C103.781 83.6482 103.781 84.5354 104.347 84.5354Z" fill="#8F7EFE"/>
<path d="M87.8561 85.5204C88.4227 85.5204 88.4227 84.6332 87.8561 84.6332C87.2895 84.6332 87.2895 85.5204 87.8561 85.5204Z" fill="#8F7EFE"/>
<path d="M88.2887 89.4586C88.8553 89.4586 88.8553 88.5714 88.2887 88.5714C87.7221 88.5714 87.7221 89.4586 88.2887 89.4586Z" fill="#8F7EFE"/>
<path d="M92.631 86.7237C93.1976 86.7237 93.1976 85.8365 92.631 85.8365C92.0644 85.8365 92.0644 86.7237 92.631 86.7237Z" fill="#8F7EFE"/>
<path d="M93.8234 91.0984C94.39 91.0984 94.39 90.2113 93.8234 90.2113C93.2568 90.2113 93.2568 91.0984 93.8234 91.0984Z" fill="#8F7EFE"/>
<path d="M96.5348 88.1453C97.1014 88.1453 97.1014 87.2581 96.5348 87.2581C95.9682 87.2581 95.9682 88.1453 96.5348 88.1453Z" fill="#8F7EFE"/>
<path d="M98.38 91.5368C98.9466 91.5368 98.9466 90.6496 98.38 90.6496C97.8134 90.6496 97.8134 91.5368 98.38 91.5368Z" fill="#8F7EFE"/>
<path d="M100.547 88.8019C101.114 88.8019 101.114 87.9147 100.547 87.9147C99.9809 87.9147 99.9809 88.8019 100.547 88.8019Z" fill="#8F7EFE"/>
<path d="M102.068 92.8483C102.635 92.8483 102.635 91.9612 102.068 91.9612C101.502 91.9612 101.502 92.8483 102.068 92.8483Z" fill="#8F7EFE"/>
<path d="M105.647 89.5668C106.213 89.5668 106.213 88.6797 105.647 88.6797C105.08 88.6797 105.08 89.5668 105.647 89.5668Z" fill="#8F7EFE"/>
<path d="M105.757 93.3967C106.324 93.3967 106.324 92.5096 105.757 92.5096C105.19 92.5096 105.19 93.3967 105.757 93.3967Z" fill="#8F7EFE"/>
<path d="M94.8004 97.3331C95.367 97.3331 95.367 96.446 94.8004 96.446C94.2338 96.446 94.2338 97.3331 94.8004 97.3331Z" fill="#8F7EFE"/>
<path d="M97.1867 99.8497C97.7532 99.8497 97.7532 98.9626 97.1867 98.9626C96.6201 98.9626 96.6201 99.8497 97.1867 99.8497Z" fill="#8F7EFE"/>
<path d="M102.285 98.5364C102.852 98.5364 102.852 97.6493 102.285 97.6493C101.719 97.6493 101.719 98.5364 102.285 98.5364Z" fill="#8F7EFE"/>
<path d="M105.431 99.9598C105.998 99.9598 105.998 99.0726 105.431 99.0726C104.865 99.0726 104.865 99.9598 105.431 99.9598Z" fill="#8F7EFE"/>
<path d="M109.77 97.3331C110.336 97.3331 110.336 96.446 109.77 96.446C109.203 96.446 109.203 97.3331 109.77 97.3331Z" fill="#8F7EFE"/>
<path d="M118.667 100.178C119.233 100.178 119.233 99.2909 118.667 99.2909C118.1 99.2909 118.1 100.178 118.667 100.178Z" fill="#8F7EFE"/>
<path d="M122.679 98.8647C123.245 98.8647 123.245 97.9776 122.679 97.9776C122.112 97.9776 122.112 98.8647 122.679 98.8647Z" fill="#8F7EFE"/>
<path d="M124.741 99.7397C125.307 99.7397 125.307 98.8525 124.741 98.8525C124.174 98.8525 124.174 99.7397 124.741 99.7397Z" fill="#8F7EFE"/>
<path d="M112.807 99.3031C113.373 99.3031 113.373 98.4159 112.807 98.4159C112.24 98.4159 112.24 99.3031 112.807 99.3031Z" fill="#8F7EFE"/>
<path d="M108.465 20.2045C108.614 20.6606 108.78 21.1096 108.959 21.5532C109.142 21.9951 109.347 22.4281 109.57 22.8505C109.797 23.2711 110.047 23.6775 110.32 24.0679C110.594 24.4566 110.904 24.8186 111.238 25.154C111.571 25.493 111.948 25.784 112.342 26.0395C112.442 26.0999 112.543 26.1691 112.641 26.2223C112.74 26.272 112.849 26.3093 112.947 26.3093C113.048 26.3093 113.122 26.2614 113.15 26.1726C113.178 26.0839 113.166 25.9579 113.164 25.8408C113.129 24.8949 112.849 23.9597 112.359 23.1522L112.5 23.0617C113.202 24.1282 114.17 24.9925 115.211 25.729C116.259 26.4584 117.37 27.1061 118.531 27.6332C119.693 28.162 120.92 28.5578 122.185 28.7228C123.447 28.8932 124.749 28.847 125.983 28.4921C124.758 28.8772 123.449 28.9642 122.173 28.8169C120.893 28.6678 119.649 28.2863 118.472 27.7698C117.296 27.2428 116.177 26.5986 115.115 25.8674C114.06 25.1327 113.074 24.2525 112.363 23.154L112.504 23.0635C113.004 23.8975 113.287 24.8612 113.319 25.8337C113.319 25.9544 113.336 26.075 113.296 26.217C113.273 26.2862 113.227 26.3572 113.162 26.398C113.097 26.4424 113.019 26.4566 112.951 26.4566C112.812 26.4548 112.689 26.4069 112.578 26.3501C112.467 26.288 112.372 26.2206 112.27 26.1567C111.87 25.8887 111.49 25.5852 111.157 25.2374C110.482 24.5488 109.941 23.7396 109.508 22.8824C109.296 22.4512 109.102 22.0111 108.929 21.5639C108.761 21.1149 108.607 20.6606 108.468 20.2009L108.465 20.2045Z" fill="#FCF4EE"/>
<path d="M112.738 18.1653C113.542 19.0509 114.413 19.8672 115.349 20.6019C116.286 21.3348 117.28 21.9932 118.327 22.5505C119.369 23.1201 120.464 23.5869 121.588 23.9631L122.438 24.2275L123.299 24.4529L124.168 24.6446L125.046 24.799L124.159 24.6925L123.278 24.5399L122.407 24.3375L121.544 24.0944C120.402 23.7413 119.299 23.2692 118.241 22.7066C117.19 22.1334 116.187 21.4697 115.261 20.7084C114.336 19.9488 113.482 19.0988 112.732 18.1653H112.738Z" fill="#FCF4EE"/>
<path d="M106.942 22.0325C107.073 22.4051 107.173 22.7901 107.256 23.1769C107.34 23.5637 107.396 23.9559 107.44 24.3498C107.479 24.7437 107.504 25.1394 107.5 25.5368C107.498 25.7355 107.493 25.9325 107.484 26.1312C107.469 26.3282 107.456 26.5269 107.428 26.7221L107.398 26.1312C107.389 25.9343 107.379 25.7391 107.365 25.5421C107.337 25.15 107.307 24.7597 107.264 24.3693C107.226 23.9789 107.175 23.5904 107.122 23.2018C107.067 22.8132 107.002 22.4246 106.942 22.0343V22.0325Z" fill="#FCF4EE"/>
<path d="M105.753 23.4665C105.762 24.1249 105.698 24.7851 105.579 25.4347C105.461 26.086 105.278 26.7231 105.045 27.3425C104.81 27.9601 104.524 28.56 104.181 29.1244L103.915 29.5414L103.634 29.9479L103.329 30.3365C103.224 30.4625 103.116 30.5868 103.007 30.7092C103.101 30.5743 103.196 30.4395 103.292 30.3081L103.562 29.8982L103.82 29.4829L104.062 29.0569C104.373 28.4837 104.649 27.8909 104.878 27.2804C105.111 26.6717 105.297 26.0434 105.445 25.4081C105.591 24.7709 105.688 24.1214 105.751 23.4665H105.753Z" fill="#FCF4EE"/>
<path d="M103.92 24.4586C103.765 24.8578 103.557 25.2357 103.325 25.5941C103.093 25.9543 102.827 26.2915 102.549 26.6162C102.267 26.9373 101.972 27.2461 101.66 27.5371L101.191 27.9682C101.029 28.1066 100.87 28.2468 100.703 28.3799C100.842 28.2184 100.988 28.064 101.131 27.9043L101.565 27.4395C101.852 27.1272 102.141 26.8184 102.417 26.4991C102.697 26.1815 102.961 25.8532 103.216 25.5161C103.469 25.1772 103.701 24.8241 103.921 24.4586H103.92Z" fill="#FCF4EE"/>
<path d="M119.081 25.4453C121.605 26.5829 124.4 27.1065 127.161 26.9556" stroke="#FCF4EE" stroke-miterlimit="10"/>
<path d="M135.843 30.0534L136.573 28.8079L138.004 28.7085L137.055 27.6244L137.405 26.2226L136.089 26.7957L134.873 26.0275L135.009 27.4682L133.909 28.3962L135.308 28.712L135.843 30.0534Z" fill="#EA9D42"/>
<path d="M147.498 59.5377L148.903 59.8199L149.47 61.1488L150.17 59.8873L151.599 59.7542L150.626 58.6914L150.943 57.2825L149.639 57.8858L148.407 57.1477L148.574 58.5831L147.498 59.5377Z" fill="#EA9D42"/>
<path d="M92.0493 48.8289L93.4658 49.0578L94.0799 50.3655L94.7345 49.0791L96.1562 48.8928L95.1444 47.8672L95.4101 46.4459L94.1309 47.0989L92.871 46.4069L93.091 47.8352L92.0493 48.8289Z" fill="#EA9D42"/>
<path d="M127.573 44.667L128.118 43.7319L129.19 43.6538L128.476 42.8429L128.734 41.789L127.749 42.2237L126.834 41.6523L126.939 42.7311L126.118 43.4302L127.168 43.6627L127.573 44.667Z" fill="#EA9D42"/>
<path d="M89.6694 20.1419L90.741 20.2324L91.2724 21.1764L91.6912 20.1756L92.7434 19.9574L91.9305 19.2477L92.0484 18.1689L91.1281 18.7295L90.148 18.2842L90.3926 19.3399L89.6694 20.1419Z" fill="#EA9D42"/>
<path d="M145.319 19.3526C145.319 21.1203 146.739 22.5525 148.492 22.5525C146.739 22.5525 145.319 23.9847 145.319 25.7524C145.319 23.9847 143.898 22.5525 142.146 22.5525C143.898 22.5525 145.319 21.1203 145.319 19.3526Z" fill="white"/>
<path d="M98.9271 41.5494C98.9271 42.6797 99.8368 43.597 100.958 43.597C99.8368 43.597 98.9271 44.5143 98.9271 45.6446C98.9271 44.5143 98.0173 43.597 96.8965 43.597C98.0173 43.597 98.9271 42.6797 98.9271 41.5494Z" fill="white"/>
<path d="M131.025 48.9253C131.032 50.5949 132.38 51.9434 134.036 51.9381C132.38 51.9452 131.043 53.3044 131.048 54.974C131.041 53.3044 129.693 51.9559 128.038 51.9612C129.693 51.9541 131.031 50.5949 131.025 48.9253Z" fill="white"/>
<path d="M80.4524 52.1447C80.4524 53.8143 81.795 55.1681 83.4508 55.1681C81.795 55.1681 80.4524 56.522 80.4524 58.1916C80.4524 56.522 79.1099 55.1681 77.4541 55.1681C79.1099 55.1681 80.4524 53.8143 80.4524 52.1447Z" fill="white"/>
<path d="M96.7101 26.5047C97.2767 26.5047 97.2767 25.6175 96.7101 25.6175C96.1435 25.6175 96.1435 26.5047 96.7101 26.5047Z" fill="white"/>
<path d="M78.6183 50.2792C79.1849 50.2792 79.1849 49.392 78.6183 49.392C78.0517 49.392 78.0517 50.2792 78.6183 50.2792Z" fill="white"/>
<path d="M97.9596 39.1338C98.5262 39.1338 98.5262 38.2466 97.9596 38.2466C97.393 38.2466 97.393 39.1338 97.9596 39.1338Z" fill="white"/>
<path d="M103.246 48.9854C103.813 48.9854 103.813 48.0982 103.246 48.0982C102.68 48.0982 102.68 48.9854 103.246 48.9854Z" fill="white"/>
<path d="M124.839 49.2197C125.406 49.2197 125.406 48.3325 124.839 48.3325C124.273 48.3325 124.273 49.2197 124.839 49.2197Z" fill="white"/>
<path d="M134.102 20.6302C134.669 20.6302 134.669 19.7431 134.102 19.7431C133.536 19.7431 133.536 20.6302 134.102 20.6302Z" fill="white"/>
<path d="M131.188 33.5966C131.754 33.5966 131.754 32.7094 131.188 32.7094C130.621 32.7094 130.621 33.5966 131.188 33.5966Z" fill="white"/>
<path d="M141.861 27.0939C142.428 27.0939 142.428 26.2067 141.861 26.2067C141.294 26.2067 141.294 27.0939 141.861 27.0939Z" fill="white"/>
<path d="M153.575 53.2679C154.141 53.2679 154.141 52.3807 153.575 52.3807C153.008 52.3807 153.008 53.2679 153.575 53.2679Z" fill="white"/>
<path d="M82.3546 60.2835C82.9212 60.2835 82.9212 59.3963 82.3546 59.3963C81.788 59.3963 81.788 60.2835 82.3546 60.2835Z" fill="white"/>
<path d="M135.952 67.7888C136.179 67.7604 136.418 67.748 136.672 67.7498C136.925 67.7516 137.189 67.7871 137.467 67.8545C137.909 67.961 138.312 68.1296 138.674 68.3621C139.039 68.5945 139.338 68.882 139.575 69.2228C139.813 69.5635 139.973 69.9521 140.058 70.3869C140.142 70.8217 140.125 71.2973 140.001 71.812C139.871 72.3657 139.658 72.8306 139.364 73.2051C139.07 73.5795 138.729 73.8706 138.342 74.0764C137.955 74.2823 137.539 74.4101 137.096 74.4544C136.652 74.4988 136.218 74.4722 135.788 74.3693C135.364 74.2681 134.975 74.1155 134.623 73.9132C134.271 73.7109 133.968 73.4624 133.719 73.166C133.469 72.8714 133.277 72.5307 133.147 72.1474C133.016 71.7623 134.447 71.1145 134.474 70.6496L135.126 70.8057C135.104 71.0169 135.114 71.2139 135.158 71.3949C135.202 71.5759 135.273 71.7392 135.369 71.8812C135.466 72.0249 135.588 72.1456 135.735 72.2468C135.883 72.3479 136.05 72.4189 136.237 72.4633C136.445 72.513 136.645 72.5201 136.835 72.4828C137.027 72.4455 137.2 72.3728 137.353 72.2645C137.506 72.1563 137.638 72.0178 137.749 71.851C137.86 71.6842 137.939 71.4925 137.99 71.2796C138.032 71.1003 138.039 70.9176 138.009 70.7312C137.979 70.5449 137.916 70.3692 137.817 70.2077C137.719 70.0462 137.587 69.9042 137.425 69.7818C137.261 69.6593 137.069 69.5724 136.849 69.5191C136.568 69.4517 136.318 69.4197 136.1 69.4251C135.881 69.4304 135.654 69.457 135.419 69.5067L134.766 69.3505L134.984 63.4747L141.237 64.976L140.763 66.9796L136.388 65.929L135.948 67.7888H135.952Z" fill="#28234C"/>
<path d="M135.3 67.6309C135.527 67.6025 135.766 67.5901 136.02 67.5918C136.273 67.5954 136.537 67.6291 136.815 67.6966C137.257 67.803 137.66 67.9716 138.023 68.2041C138.385 68.4366 138.686 68.7241 138.924 69.0648C139.161 69.4055 139.321 69.7942 139.406 70.229C139.49 70.6638 139.473 71.1394 139.35 71.654C139.219 72.2077 139.006 72.6727 138.712 73.0471C138.419 73.4216 138.077 73.7126 137.69 73.9185C137.303 74.1243 136.887 74.2521 136.444 74.2965C136 74.3408 135.566 74.3142 135.136 74.2113C134.712 74.1101 134.323 73.9575 133.971 73.7552C133.619 73.5529 133.317 73.3044 133.067 73.0081C132.817 72.7135 132.625 72.3728 132.495 71.9894C132.365 71.6061 132.312 71.1802 132.34 70.717L134.476 70.6496C134.454 70.8608 134.464 71.0577 134.508 71.2388C134.552 71.4198 134.622 71.583 134.719 71.725C134.816 71.8688 134.937 71.9894 135.085 72.0906C135.233 72.1917 135.4 72.2627 135.587 72.3071C135.795 72.3568 135.995 72.3639 136.185 72.3266C136.377 72.2893 136.55 72.2166 136.703 72.1083C136.856 72.0001 136.988 71.8617 137.099 71.6948C137.21 71.528 137.289 71.3364 137.34 71.1234C137.382 70.9442 137.389 70.7614 137.359 70.575C137.329 70.3887 137.266 70.213 137.167 70.0515C137.069 69.89 136.937 69.748 136.775 69.6256C136.611 69.5031 136.419 69.4162 136.199 69.3629C135.918 69.2955 135.668 69.2636 135.45 69.2689C135.231 69.2742 135.004 69.3008 134.769 69.3505L133.086 68.5998L134.334 63.3167L140.587 64.8181L140.113 66.8216L135.738 65.7711L135.298 67.6309H135.3Z" fill="#EA9D42"/>
<path d="M139.375 65.5263L134.969 64.4064L134.038 67.9825L134.827 68.5238C134.827 68.5238 139.232 67.585 138.373 71.8107C138.373 71.8107 138.197 73.7167 135.758 73.4363C133.319 73.1559 133.429 71.2694 133.429 71.2694" stroke="#FCF4EE" stroke-miterlimit="10"/>
<g style="mix-blend-mode:overlay">
<path d="M140.37 66.3955C142.787 65.1373 143.736 62.1413 142.488 59.7036C141.24 57.266 138.269 56.3098 135.852 57.568C133.434 58.8261 132.486 61.8222 133.734 64.2598C134.981 66.6975 137.953 67.6536 140.37 66.3955Z" fill="#FCF4EE"/>
</g>
<g style="mix-blend-mode:overlay">
<path d="M141.189 67.1193C144.003 65.4047 144.905 61.715 143.204 58.8782C141.504 56.0414 137.845 55.1317 135.032 56.8463C132.219 58.561 131.316 62.2507 133.017 65.0875C134.717 67.9243 138.376 68.834 141.189 67.1193Z" stroke="#FCF4EE" stroke-width="3.05" stroke-miterlimit="10"/>
</g>
<path d="M137.018 62.8456C136.793 62.4463 136.981 61.9477 137.169 61.529C137.363 61.0978 137.558 60.6684 137.752 60.2373C137.797 60.7004 137.843 61.1617 137.891 61.6248C138.118 61.1599 138.241 60.6525 138.36 60.1486C138.44 59.815 138.52 59.4814 138.6 59.1496C138.795 60.2603 139.203 61.4988 138.876 62.6238C138.631 63.4666 137.498 63.7008 137.018 62.8456Z" fill="#F18701"/>
<path d="M137.589 62.484C137.63 62.3651 137.73 62.2782 137.816 62.1859C138.11 61.8736 138.263 61.4531 138.353 61.0326C138.374 61.4283 138.357 61.8275 138.304 62.2214C138.283 62.3705 138.256 62.5231 138.188 62.6579C137.992 63.0429 137.445 62.9187 137.589 62.4858V62.484Z" fill="#F7B801"/>
<path d="M125.187 72.2219L127.888 67.8563C128.128 67.5067 128.298 67.1695 128.404 66.8465C128.508 66.5235 128.531 66.2129 128.471 65.913C128.446 65.7852 128.395 65.6646 128.318 65.5492C128.24 65.4339 128.143 65.338 128.025 65.2582C127.908 65.1783 127.772 65.1233 127.619 65.0931C127.466 65.063 127.299 65.0647 127.121 65.1002C126.908 65.1428 126.727 65.2156 126.582 65.315C126.436 65.4143 126.322 65.535 126.239 65.6752C126.156 65.8154 126.102 65.9698 126.075 66.1402C126.051 66.3105 126.053 66.4827 126.083 66.6602L124.113 67.0559C124.011 66.5359 124.004 66.0568 124.094 65.6149C124.184 65.173 124.351 64.7826 124.594 64.4436C124.837 64.1046 125.146 63.8207 125.518 63.5953C125.891 63.3699 126.306 63.2102 126.764 63.1179C127.195 63.031 127.621 63.015 128.036 63.0683C128.453 63.1215 128.835 63.2457 129.185 63.4409C129.535 63.6361 129.833 63.9023 130.083 64.2413C130.331 64.5803 130.503 64.9937 130.6 65.4818C130.678 65.874 130.669 66.252 130.576 66.6158C130.482 66.9796 130.329 67.3416 130.12 67.6983L127.902 71.3488L131.6 70.6052L132.001 72.6319L125.528 73.9344L125.189 72.2184L125.187 72.2219Z" fill="#28234C"/>
<path d="M124.528 72.3532L127.229 67.9876C127.469 67.638 127.64 67.3008 127.745 66.9778C127.849 66.6548 127.872 66.3443 127.812 66.0444C127.787 65.9166 127.736 65.7959 127.659 65.6805C127.581 65.5652 127.485 65.4694 127.367 65.3895C127.249 65.3096 127.113 65.2546 126.96 65.2245C126.807 65.1943 126.64 65.1961 126.462 65.2316C126.249 65.2741 126.068 65.3469 125.924 65.4463C125.779 65.5457 125.663 65.6663 125.58 65.8065C125.498 65.9467 125.443 66.1011 125.417 66.2715C125.392 66.4419 125.394 66.614 125.424 66.7915L123.455 67.1872C123.352 66.6673 123.345 66.1881 123.435 65.7462C123.525 65.3043 123.692 64.9139 123.935 64.5749C124.178 64.236 124.488 63.952 124.859 63.7267C125.232 63.5013 125.647 63.3416 126.105 63.2493C126.536 63.1623 126.962 63.1463 127.377 63.1996C127.794 63.2528 128.176 63.377 128.527 63.5723C128.877 63.7675 129.174 64.0337 129.424 64.3726C129.672 64.7116 129.845 65.1251 129.941 65.6131C130.019 66.0053 130.01 66.3833 129.917 66.7471C129.824 67.1109 129.67 67.4729 129.461 67.8296L127.244 71.4801L130.941 70.7365L131.342 72.7632L124.869 74.0658L124.53 72.3497L124.528 72.3532Z" fill="#EA9D42"/>
<path d="M124.414 66.3231C124.414 66.3231 124.093 64.5999 126.307 64.0763C128.111 63.6504 128.891 64.9069 128.937 66.0977C128.981 67.2886 125.373 72.8595 125.373 72.8595L130.341 71.8266" stroke="#FCF4EE" stroke-miterlimit="10"/>
<g style="mix-blend-mode:overlay">
<path d="M129.701 64.9591C131.625 63.0193 131.625 59.8744 129.701 57.9347C127.778 55.995 124.659 55.995 122.735 57.9347C120.812 59.8744 120.812 63.0193 122.735 64.959C124.659 66.8988 127.778 66.8988 129.701 64.9591Z" fill="#FCF4EE"/>
</g>
<g style="mix-blend-mode:overlay">
<path d="M126.217 67.4494C129.504 67.4494 132.169 64.7623 132.169 61.4476C132.169 58.1328 129.504 55.4457 126.217 55.4457C122.93 55.4457 120.265 58.1328 120.265 61.4476C120.265 64.7623 122.93 67.4494 126.217 67.4494Z" stroke="#FCF4EE" stroke-width="3.05" stroke-miterlimit="10"/>
</g>
<path d="M125.361 62.5438C125.048 62.2102 125.111 61.6797 125.195 61.229C125.282 60.7641 125.368 60.2992 125.454 59.8344C125.609 60.2726 125.764 60.7109 125.919 61.1492C126.029 60.6435 126.028 60.12 126.024 59.6019C126.024 59.2595 126.021 58.917 126.019 58.5728C126.471 59.6037 127.163 60.7091 127.113 61.8802C127.076 62.7567 126.033 63.2589 125.363 62.5438H125.361Z" fill="#F18701"/>
<path d="M125.829 62.0545C125.84 61.9285 125.917 61.8203 125.979 61.7103C126.19 61.3359 126.239 60.8905 126.227 60.4594C126.341 60.8391 126.421 61.2312 126.461 61.6251C126.477 61.7759 126.486 61.9285 126.452 62.0758C126.355 62.4981 125.792 62.5087 125.829 62.0527V62.0545Z" fill="#F7B801"/>
</svg>
