<svg width="17" height="16" viewBox="0 0 17 16" fill="none" xmlns="http://www.w3.org/2000/svg">
<path fill-rule="evenodd" clip-rule="evenodd" d="M6.90031 14.4003V9.5997H2.09969C1.22106 9.5997 0.5 8.88103 0.5 8C0.5 7.11896 1.21867 6.40031 2.09969 6.40031H6.90031V1.59969C6.90031 0.718652 7.61897 0 8.5 0C9.38104 0 10.0997 0.721057 10.0997 1.59969V6.40031H14.9003C15.7814 6.40031 16.5 7.11897 16.5 8C16.5 8.88104 15.7789 9.5997 14.9003 9.5997H10.0997V14.4003C10.0997 15.2789 9.38103 16 8.5 16C7.61896 16 6.90031 15.2813 6.90031 14.4003Z" fill="white"/>
</svg>
