<svg width="29" height="28" viewBox="0 0 29 28" fill="none" xmlns="http://www.w3.org/2000/svg">
<path opacity="0.3" d="M3.77312 9.8439H10.5992C12.2121 9.8439 13.5247 8.53134 13.5247 6.91843V3.2733C13.5247 1.6604 12.2121 0.347839 10.5992 0.347839H3.77312C2.16022 0.347839 0.847656 1.6604 0.847656 3.2733V6.91843C0.847656 8.53134 2.16022 9.8439 3.77312 9.8439ZM2.79797 3.2733C2.79797 2.73599 3.23484 2.29815 3.77312 2.29815H10.5992C11.1375 2.29815 11.5744 2.73599 11.5744 3.2733V6.91843C11.5744 7.45574 11.1375 7.89359 10.5992 7.89359H3.77312C3.23484 7.89359 2.79797 7.45574 2.79797 6.91843V3.2733Z" fill="#DF447D"/>
<path d="M13.5245 24.7267V14.3608C13.5245 12.7479 12.212 11.4353 10.5991 11.4353H3.77299C2.16008 11.4353 0.847522 12.7479 0.847522 14.3608V24.7267C0.847522 26.3396 2.16008 27.6521 3.77299 27.6521H10.5991C12.212 27.6521 13.5245 26.3396 13.5245 24.7267ZM2.79783 24.7267V14.3608C2.79783 13.8235 3.2347 13.3856 3.77299 13.3856H10.5991C11.1374 13.3856 11.5742 13.8235 11.5742 14.3608V24.7267C11.5742 25.264 11.1374 25.7018 10.5991 25.7018H3.77299C3.2347 25.7018 2.79783 25.264 2.79783 24.7267Z" fill="#DF447D"/>
<path opacity="0.3" d="M25.2265 18.1561H18.4004C16.7875 18.1561 15.4749 19.4687 15.4749 21.0816V24.7267C15.4749 26.3396 16.7875 27.6522 18.4004 27.6522H25.2265C26.8394 27.6522 28.1519 26.3396 28.1519 24.7267V21.0816C28.1519 19.4687 26.8394 18.1561 25.2265 18.1561ZM26.2016 24.7267C26.2016 25.264 25.7648 25.7018 25.2265 25.7018H18.4004C17.8621 25.7018 17.4252 25.264 17.4252 24.7267V21.0816C17.4252 20.5443 17.8621 20.1064 18.4004 20.1064H25.2265C25.7648 20.1064 26.2016 20.5443 26.2016 21.0816V24.7267Z" fill="#DF447D"/>
<path d="M25.2265 0.347839H18.4004C16.7875 0.347839 15.4749 1.6604 15.4749 3.2733V13.6392C15.4749 15.2521 16.7875 16.5647 18.4004 16.5647H25.2265C26.8394 16.5647 28.1519 15.2521 28.1519 13.6392V3.2733C28.1519 1.6604 26.8394 0.347839 25.2265 0.347839ZM26.2016 13.6392C26.2016 14.1765 25.7648 14.6144 25.2265 14.6144H18.4004C17.8621 14.6144 17.4252 14.1765 17.4252 13.6392V3.2733C17.4252 2.73599 17.8621 2.29815 18.4004 2.29815H25.2265C25.7648 2.29815 26.2016 2.73599 26.2016 3.2733V13.6392Z" fill="#DF447D"/>
</svg>
