<svg width="42" height="21" viewBox="0 0 42 21" fill="none" xmlns="http://www.w3.org/2000/svg">
<path d="M0.885742 0.323456H31.0182C37.0396 0.323456 41.9209 5.20477 41.9209 11.2262V20.7661H9.06278C4.54673 20.7661 0.885742 17.1051 0.885742 12.589V0.323456Z" fill="#ED892E"/>
<path d="M14.9183 9.55613L13.4252 9.9288C13.3935 9.93693 13.36 9.93567 13.329 9.92516C13.2979 9.91466 13.2706 9.89536 13.2503 9.86962L11.6136 7.82346C11.5177 7.7123 11.399 7.62311 11.2655 7.56197C11.1321 7.50084 10.987 7.46919 10.8402 7.46919C10.6934 7.46919 10.5483 7.50084 10.4148 7.56197C10.2813 7.62311 10.1626 7.7123 10.0667 7.82346L8.42947 9.87016C8.40861 9.89531 8.38113 9.91412 8.35013 9.92449C8.31914 9.93485 8.28587 9.93635 8.25407 9.92881L6.76207 9.55613C6.64485 9.52683 6.52204 9.52836 6.4056 9.56058C6.28915 9.59281 6.18302 9.65463 6.09755 9.74002C6.01207 9.82542 5.95016 9.93149 5.91783 10.0479C5.8855 10.1643 5.88385 10.2871 5.91305 10.4044L6.84763 14.1417C6.90076 14.3562 7.02427 14.5467 7.19843 14.6828C7.37259 14.8189 7.58733 14.8926 7.80835 14.8923H13.8717C14.0927 14.8926 14.3075 14.8189 14.4816 14.6828C14.6558 14.5467 14.7793 14.3562 14.8324 14.1417L15.767 10.4044C15.7962 10.2872 15.7946 10.1644 15.7623 10.048C15.7299 9.93157 15.6681 9.82552 15.5826 9.74013C15.4972 9.65473 15.3911 9.59291 15.2747 9.56067C15.1582 9.52842 15.0355 9.52686 14.9183 9.55613Z" fill="white"/>
<path d="M5.79072 9.12583C6.24325 9.12583 6.6101 8.75898 6.6101 8.30645C6.6101 7.85392 6.24325 7.48708 5.79072 7.48708C5.33819 7.48708 4.97134 7.85392 4.97134 8.30645C4.97134 8.75898 5.33819 9.12583 5.79072 9.12583Z" fill="white"/>
<path d="M15.8906 9.12583C16.3431 9.12583 16.71 8.75898 16.71 8.30645C16.71 7.85392 16.3431 7.48708 15.8906 7.48708C15.438 7.48708 15.0712 7.85392 15.0712 8.30645C15.0712 8.75898 15.438 9.12583 15.8906 9.12583Z" fill="white"/>
<path d="M10.8405 6.80562C11.293 6.80562 11.6598 6.43877 11.6598 5.98624C11.6598 5.53371 11.293 5.16686 10.8405 5.16686C10.3879 5.16686 10.0211 5.53371 10.0211 5.98624C10.0211 6.43877 10.3879 6.80562 10.8405 6.80562Z" fill="white"/>
<path d="M20.7808 14.3898V6.97598H23.67C25.5017 6.97598 26.6356 7.90271 26.6356 9.4618C26.6356 11.0536 25.4908 11.9694 23.6918 11.9694H22.5253V14.3898H20.7808ZM23.6373 8.36062H22.5253V10.5848H23.5937C24.4441 10.5848 24.8366 10.1378 24.8366 9.4727C24.8366 8.79673 24.4223 8.36062 23.6373 8.36062ZM27.5288 14.3898V8.52416H29.197V9.34187C29.5677 8.64409 30.1346 8.33882 30.7342 8.33882C30.9741 8.33882 31.1922 8.40423 31.3121 8.52416V9.93062C31.1158 9.88701 30.9087 9.8652 30.647 9.8652C29.644 9.8652 29.197 10.4321 29.197 11.3589V14.3898H27.5288ZM34.5005 14.5643C32.7233 14.5643 31.6221 13.3868 31.6221 11.457C31.6221 9.4618 32.756 8.33882 34.5005 8.33882C36.2776 8.33882 37.3897 9.53812 37.3897 11.457C37.3897 13.4413 36.2449 14.5643 34.5005 14.5643ZM34.5005 13.2123C35.2745 13.2123 35.6779 12.6018 35.6779 11.457C35.6779 10.3231 35.2636 9.69076 34.5005 9.69076C33.7373 9.69076 33.3339 10.3122 33.3339 11.457C33.3339 12.5909 33.7482 13.2123 34.5005 13.2123Z" fill="white"/>
</svg>
